  0
SECTION
  2
HEADER
  9
$ACADVER
  1
AC1024
  9
$ACADMAINTVER
 70
6
  9
$DWGCODEPAGE
  3
ANSI_1252
  9
$LASTSAVEDBY
  1
ezdxf
  9
$INSBASE
 10
0.0
 20
0.0
 30
0.0
  9
$EXTMIN
 10
1e+20
 20
1e+20
 30
1e+20
  9
$EXTMAX
 10
-1e+20
 20
-1e+20
 30
-1e+20
  9
$LIMMIN
 10
0.0
 20
0.0
  9
$LIMMAX
 10
420.0
 20
297.0
  9
$ORTHOMODE
 70
0
  9
$REGENMODE
 70
1
  9
$FILLMODE
 70
1
  9
$QTEXTMODE
 70
0
  9
$MIRRTEXT
 70
1
  9
$LTSCALE
 40
1.0
  9
$ATTMODE
 70
1
  9
$TEXTSIZE
 40
2.5
  9
$TRACEWID
 40
1.0
  9
$TEXTSTYLE
  7
Standard
  9
$CLAYER
  8
0
  9
$CELTYPE
  6
ByLayer
  9
$CECOLOR
 62
256
  9
$CELTSCALE
 40
1.0
  9
$DISPSILH
 70
0
  9
$DIMSCALE
 40
1.0
  9
$DIMASZ
 40
2.5
  9
$DIMEXO
 40
0.625
  9
$DIMDLI
 40
3.75
  9
$DIMRND
 40
0.0
  9
$DIMDLE
 40
0.0
  9
$DIMEXE
 40
1.25
  9
$DIMTP
 40
0.0
  9
$DIMTM
 40
0.0
  9
$DIMTXT
 40
2.5
  9
$DIMCEN
 40
2.5
  9
$DIMTSZ
 40
0.0
  9
$DIMTOL
 70
0
  9
$DIMLIM
 70
0
  9
$DIMTIH
 70
0
  9
$DIMTOH
 70
0
  9
$DIMSE1
 70
0
  9
$DIMSE2
 70
0
  9
$DIMTAD
 70
1
  9
$DIMZIN
 70
8
  9
$DIMBLK
  1

  9
$DIMASO
 70
1
  9
$DIMSHO
 70
1
  9
$DIMPOST
  1

  9
$DIMAPOST
  1

  9
$DIMALT
 70
0
  9
$DIMALTD
 70
3
  9
$DIMALTF
 40
0.03937007874
  9
$DIMLFAC
 40
1.0
  9
$DIMTOFL
 70
1
  9
$DIMTVP
 40
0.0
  9
$DIMTIX
 70
0
  9
$DIMSOXD
 70
0
  9
$DIMSAH
 70
0
  9
$DIMBLK1
  1

  9
$DIMBLK2
  1

  9
$DIMSTYLE
  2
ISO-25
  9
$DIMCLRD
 70
0
  9
$DIMCLRE
 70
0
  9
$DIMCLRT
 70
0
  9
$DIMTFAC
 40
1.0
  9
$DIMGAP
 40
0.625
  9
$DIMJUST
 70
0
  9
$DIMSD1
 70
0
  9
$DIMSD2
 70
0
  9
$DIMTOLJ
 70
0
  9
$DIMTZIN
 70
8
  9
$DIMALTZ
 70
0
  9
$DIMALTTZ
 70
0
  9
$DIMUPT
 70
0
  9
$DIMDEC
 70
2
  9
$DIMTDEC
 70
2
  9
$DIMALTU
 70
2
  9
$DIMALTTD
 70
3
  9
$DIMTXSTY
  7
Standard
  9
$DIMAUNIT
 70
0
  9
$DIMADEC
 70
0
  9
$DIMALTRND
 40
0.0
  9
$DIMAZIN
 70
0
  9
$DIMDSEP
 70
44
  9
$DIMATFIT
 70
3
  9
$DIMFRAC
 70
0
  9
$DIMLDRBLK
  1

  9
$DIMLUNIT
 70
2
  9
$DIMLWD
 70
-2
  9
$DIMLWE
 70
-2
  9
$DIMTMOVE
 70
0
  9
$DIMFXL
 40
1.0
  9
$DIMFXLON
 70
0
  9
$DIMJOGANG
 40
0.785398163397
  9
$DIMTFILL
 70
0
  9
$DIMTFILLCLR
 70
0
  9
$DIMARCSYM
 70
0
  9
$DIMLTYPE
  6

  9
$DIMLTEX1
  6

  9
$DIMLTEX2
  6

  9
$DIMTXTDIRECTION
 70
0
  9
$LUNITS
 70
2
  9
$LUPREC
 70
4
  9
$SKETCHINC
 40
1.0
  9
$FILLETRAD
 40
10.0
  9
$AUNITS
 70
0
  9
$AUPREC
 70
2
  9
$MENU
  1
.
  9
$ELEVATION
 40
0.0
  9
$PELEVATION
 40
0.0
  9
$THICKNESS
 40
0.0
  9
$LIMCHECK
 70
0
  9
$CHAMFERA
 40
0.0
  9
$CHAMFERB
 40
0.0
  9
$CHAMFERC
 40
0.0
  9
$CHAMFERD
 40
0.0
  9
$SKPOLY
 70
0
  9
$TDCREATE
 40
2459845.6992939813
  9
$TDUCREATE
 40
2458532.153996898
  9
$TDUPDATE
 40
2459845.6992939813
  9
$TDUUPDATE
 40
2458532.1544311
  9
$TDINDWG
 40
0.0
  9
$TDUSRTIMER
 40
0.0
  9
$USRTIMER
 70
1
  9
$ANGBASE
 50
0.0
  9
$ANGDIR
 70
0
  9
$PDMODE
 70
0
  9
$PDSIZE
 40
0.0
  9
$PLINEWID
 40
0.0
  9
$SPLFRAME
 70
0
  9
$SPLINETYPE
 70
6
  9
$SPLINESEGS
 70
8
  9
$HANDSEED
  5
63D
  9
$SURFTAB1
 70
6
  9
$SURFTAB2
 70
6
  9
$SURFTYPE
 70
6
  9
$SURFU
 70
6
  9
$SURFV
 70
6
  9
$UCSBASE
  2

  9
$UCSNAME
  2

  9
$UCSORG
 10
0.0
 20
0.0
 30
0.0
  9
$UCSXDIR
 10
1.0
 20
0.0
 30
0.0
  9
$UCSYDIR
 10
0.0
 20
1.0
 30
0.0
  9
$UCSORTHOREF
  2

  9
$UCSORTHOVIEW
 70
0
  9
$UCSORGTOP
 10
0.0
 20
0.0
 30
0.0
  9
$UCSORGBOTTOM
 10
0.0
 20
0.0
 30
0.0
  9
$UCSORGLEFT
 10
0.0
 20
0.0
 30
0.0
  9
$UCSORGRIGHT
 10
0.0
 20
0.0
 30
0.0
  9
$UCSORGFRONT
 10
0.0
 20
0.0
 30
0.0
  9
$UCSORGBACK
 10
0.0
 20
0.0
 30
0.0
  9
$PUCSBASE
  2

  9
$PUCSNAME
  2

  9
$PUCSORG
 10
0.0
 20
0.0
 30
0.0
  9
$PUCSXDIR
 10
1.0
 20
0.0
 30
0.0
  9
$PUCSYDIR
 10
0.0
 20
1.0
 30
0.0
  9
$PUCSORTHOREF
  2

  9
$PUCSORTHOVIEW
 70
0
  9
$PUCSORGTOP
 10
0.0
 20
0.0
 30
0.0
  9
$PUCSORGBOTTOM
 10
0.0
 20
0.0
 30
0.0
  9
$PUCSORGLEFT
 10
0.0
 20
0.0
 30
0.0
  9
$PUCSORGRIGHT
 10
0.0
 20
0.0
 30
0.0
  9
$PUCSORGFRONT
 10
0.0
 20
0.0
 30
0.0
  9
$PUCSORGBACK
 10
0.0
 20
0.0
 30
0.0
  9
$USERI1
 70
0
  9
$USERI2
 70
0
  9
$USERI3
 70
0
  9
$USERI4
 70
0
  9
$USERI5
 70
0
  9
$USERR1
 40
0.0
  9
$USERR2
 40
0.0
  9
$USERR3
 40
0.0
  9
$USERR4
 40
0.0
  9
$USERR5
 40
0.0
  9
$WORLDVIEW
 70
1
  9
$SHADEDGE
 70
3
  9
$SHADEDIF
 70
70
  9
$TILEMODE
 70
1
  9
$MAXACTVP
 70
64
  9
$PINSBASE
 10
0.0
 20
0.0
 30
0.0
  9
$PLIMCHECK
 70
0
  9
$PEXTMIN
 10
1e+20
 20
1e+20
 30
1e+20
  9
$PEXTMAX
 10
-1e+20
 20
-1e+20
 30
-1e+20
  9
$PLIMMIN
 10
0.0
 20
0.0
  9
$PLIMMAX
 10
420.0
 20
297.0
  9
$UNITMODE
 70
0
  9
$VISRETAIN
 70
1
  9
$PLINEGEN
 70
0
  9
$PSLTSCALE
 70
1
  9
$TREEDEPTH
 70
3020
  9
$CMLSTYLE
  2
Standard
  9
$CMLJUST
 70
0
  9
$CMLSCALE
 40
20.0
  9
$PROXYGRAPHICS
 70
1
  9
$MEASUREMENT
 70
1
  9
$CELWEIGHT
370
-1
  9
$ENDCAPS
280
0
  9
$JOINSTYLE
280
0
  9
$LWDISPLAY
290
0
  9
$INSUNITS
 70
6
  9
$HYPERLINKBASE
  1

  9
$STYLESHEET
  1

  9
$XEDIT
290
1
  9
$CEPSNTYPE
380
0
  9
$PSTYLEMODE
290
1
  9
$FINGERPRINTGUID
  2
{AD32255C-9B19-4449-8BAB-AACA9B1F5A09}
  9
$VERSIONGUID
  2
{BA5D31B0-C70A-44DF-8093-FB7C9224E118}
  9
$EXTNAMES
290
1
  9
$PSVPSCALE
 40
0.0
  9
$OLESTARTUP
290
0
  9
$SORTENTS
280
127
  9
$INDEXCTL
280
0
  9
$HIDETEXT
280
1
  9
$XCLIPFRAME
280
0
  9
$HALOGAP
280
0
  9
$OBSCOLOR
 70
257
  9
$OBSLTYPE
280
0
  9
$INTERSECTIONDISPLAY
280
0
  9
$INTERSECTIONCOLOR
 70
257
  9
$DIMASSOC
280
2
  9
$PROJECTNAME
  1

  9
$CAMERADISPLAY
290
0
  9
$LENSLENGTH
 40
50.0
  9
$CAMERAHEIGHT
 40
0.0
  9
$STEPSPERSEC
 40
24.0
  9
$STEPSIZE
 40
100.0
  9
$3DDWFPREC
 40
2.0
  9
$PSOLWIDTH
 40
0.005
  9
$PSOLHEIGHT
 40
0.08
  9
$LOFTANG1
 40
1.570796326795
  9
$LOFTANG2
 40
1.570796326795
  9
$LOFTMAG1
 40
0.0
  9
$LOFTMAG2
 40
0.0
  9
$LOFTPARAM
 70
7
  9
$LOFTNORMALS
280
1
  9
$LATITUDE
 40
37.795
  9
$LONGITUDE
 40
-122.394
  9
$NORTHDIRECTION
 40
0.0
  9
$TIMEZONE
 70
-8000
  9
$LIGHTGLYPHDISPLAY
280
1
  9
$TILEMODELIGHTSYNCH
280
1
  9
$CMATERIAL
347
20
  9
$SOLIDHIST
280
0
  9
$SHOWHIST
280
1
  9
$DWFFRAME
280
2
  9
$DGNFRAME
280
2
  9
$REALWORLDSCALE
290
1
  9
$INTERFERECOLOR
 62
256
  9
$CSHADOW
280
0
  9
$SHADOWPLANELOCATION
 40
0.0
  0
ENDSEC
  0
SECTION
  2
CLASSES
  0
CLASS
  1
ACDBDICTIONARYWDFLT
  2
AcDbDictionaryWithDefault
  3
ObjectDBX Classes
 90
0
 91
0
280
0
281
0
  0
CLASS
  1
SUN
  2
AcDbSun
  3
SCENEOE
 90
1153
 91
0
280
0
281
0
  0
CLASS
  1
VISUALSTYLE
  2
AcDbVisualStyle
  3
ObjectDBX Classes
 90
4095
 91
0
280
0
281
0
  0
CLASS
  1
MATERIAL
  2
AcDbMaterial
  3
ObjectDBX Classes
 90
1153
 91
0
280
0
281
0
  0
CLASS
  1
SCALE
  2
AcDbScale
  3
ObjectDBX Classes
 90
1153
 91
0
280
0
281
0
  0
CLASS
  1
TABLESTYLE
  2
AcDbTableStyle
  3
ObjectDBX Classes
 90
4095
 91
0
280
0
281
0
  0
CLASS
  1
MLEADERSTYLE
  2
AcDbMLeaderStyle
  3
ACDB_MLEADERSTYLE_CLASS
 90
4095
 91
0
280
0
281
0
  0
CLASS
  1
DICTIONARYVAR
  2
AcDbDictionaryVar
  3
ObjectDBX Classes
 90
0
 91
0
280
0
281
0
  0
CLASS
  1
CELLSTYLEMAP
  2
AcDbCellStyleMap
  3
ObjectDBX Classes
 90
1152
 91
0
280
0
281
0
  0
CLASS
  1
MENTALRAYRENDERSETTINGS
  2
AcDbMentalRayRenderSettings
  3
SCENEOE
 90
1024
 91
0
280
0
281
0
  0
CLASS
  1
ACDBDETAILVIEWSTYLE
  2
AcDbDetailViewStyle
  3
ObjectDBX Classes
 90
1025
 91
0
280
0
281
0
  0
CLASS
  1
ACDBSECTIONVIEWSTYLE
  2
AcDbSectionViewStyle
  3
ObjectDBX Classes
 90
1025
 91
0
280
0
281
0
  0
CLASS
  1
RASTERVARIABLES
  2
AcDbRasterVariables
  3
ISM
 90
0
 91
0
280
0
281
0
  0
CLASS
  1
ACDBPLACEHOLDER
  2
AcDbPlaceHolder
  3
ObjectDBX Classes
 90
0
 91
0
280
0
281
0
  0
CLASS
  1
LAYOUT
  2
AcDbLayout
  3
ObjectDBX Classes
 90
0
 91
0
280
0
281
0
  0
ENDSEC
  0
SECTION
  2
TABLES
  0
TABLE
  2
VPORT
  5
8
330
0
100
AcDbSymbolTable
 70
1
  0
VPORT
  5
23
330
8
100
AcDbSymbolTableRecord
100
AcDbViewportTableRecord
  2
*Active
 70
0
 10
0.0
 20
0.0
 11
1.0
 21
1.0
 12
0.0
 22
0.0
 13
0.0
 23
0.0
 14
0.5
 24
0.5
 15
0.5
 25
0.5
 16
0.0
 26
0.0
 36
1.0
 17
0.0
 27
0.0
 37
0.0
 40
1000.0
 41
1.34
 42
50.0
 43
0.0
 44
0.0
 50
0.0
 51
0.0
 71
0
 72
1000
 73
1
 74
3
 75
0
 76
0
 77
0
 78
0
281
0
 65
0
146
0.0
  0
ENDTAB
  0
TABLE
  2
LTYPE
  5
2
330
0
100
AcDbSymbolTable
 70
3
  0
LTYPE
  5
24
330
2
100
AcDbSymbolTableRecord
100
AcDbLinetypeTableRecord
  2
ByBlock
 70
0
  3

 72
65
 73
0
 40
0.0
  0
LTYPE
  5
25
330
2
100
AcDbSymbolTableRecord
100
AcDbLinetypeTableRecord
  2
ByLayer
 70
0
  3

 72
65
 73
0
 40
0.0
  0
LTYPE
  5
26
330
2
100
AcDbSymbolTableRecord
100
AcDbLinetypeTableRecord
  2
Continuous
 70
0
  3

 72
65
 73
0
 40
0.0
  0
ENDTAB
  0
TABLE
  2
LAYER
  5
1
330
0
100
AcDbSymbolTable
 70
2
  0
LAYER
  5
27
330
1
100
AcDbSymbolTableRecord
100
AcDbLayerTableRecord
  2
0
 70
0
 62
7
  6
Continuous
370
-3
390
13
347
21
  0
LAYER
  5
28
330
1
100
AcDbSymbolTableRecord
100
AcDbLayerTableRecord
  2
Defpoints
 70
0
 62
7
  6
Continuous
290
0
370
-3
390
13
347
21
  0
ENDTAB
  0
TABLE
  2
STYLE
  5
5
330
0
100
AcDbSymbolTable
 70
1
  0
STYLE
  5
29
330
5
100
AcDbSymbolTableRecord
100
AcDbTextStyleTableRecord
  2
Standard
 70
0
 40
0.0
 41
1.0
 50
0.0
 71
0
 42
2.5
  3
txt
  4

  0
ENDTAB
  0
TABLE
  2
VIEW
  5
7
330
0
100
AcDbSymbolTable
 70
0
  0
ENDTAB
  0
TABLE
  2
UCS
  5
6
330
0
100
AcDbSymbolTable
 70
0
  0
ENDTAB
  0
TABLE
  2
APPID
  5
3
330
0
100
AcDbSymbolTable
 70
3
  0
APPID
  5
2A
330
3
100
AcDbSymbolTableRecord
100
AcDbRegAppTableRecord
  2
ACAD
 70
0
  0
APPID
  5
63A
330
3
100
AcDbSymbolTableRecord
100
AcDbRegAppTableRecord
  2
HATCHBACKGROUNDCOLOR
 70
0
  0
APPID
  5
63B
330
3
100
AcDbSymbolTableRecord
100
AcDbRegAppTableRecord
  2
EZDXF
 70
0
  0
ENDTAB
  0
TABLE
  2
DIMSTYLE
  5
4
330
0
100
AcDbSymbolTable
 70
1
100
AcDbDimStyleTable
  0
DIMSTYLE
105
2B
330
4
100
AcDbSymbolTableRecord
100
AcDbDimStyleTableRecord
  2
Standard
 70
0
 40
1.0
 41
2.5
 42
0.625
 43
3.75
 44
1.25
 45
0.0
 46
0.0
 47
0.0
 48
0.0
 49
2.5
140
2.5
141
2.5
142
0.0
143
0.03937007874
144
1.0
145
0.0
146
1.0
147
0.625
148
0.0
 69
0
 70
0
 71
0
 72
0
 73
0
 74
0
 75
0
 76
0
 77
1
 78
8
 79
3
170
0
171
3
172
1
173
0
174
0
175
0
176
0
177
0
178
0
179
2
271
2
272
2
273
2
274
3
275
0
276
0
277
2
278
44
279
0
280
0
281
0
282
0
283
0
284
8
285
0
286
0
288
0
289
3
290
0
371
-2
372
-2
  0
ENDTAB
  0
TABLE
  2
BLOCK_RECORD
  5
9
330
0
100
AcDbSymbolTable
 70
2
  0
BLOCK_RECORD
  5
17
330
9
100
AcDbSymbolTableRecord
100
AcDbBlockTableRecord
  2
*Model_Space
340
1A
 70
0
280
1
281
0
  0
BLOCK_RECORD
  5
1B
330
9
100
AcDbSymbolTableRecord
100
AcDbBlockTableRecord
  2
*Paper_Space
340
1E
 70
0
280
1
281
0
  0
ENDTAB
  0
ENDSEC
  0
SECTION
  2
BLOCKS
  0
BLOCK
  5
18
330
17
100
AcDbEntity
  8
0
100
AcDbBlockBegin
  2
*Model_Space
 70
0
 10
0.0
 20
0.0
 30
0.0
  3
*Model_Space
  1

  0
ENDBLK
  5
19
330
17
100
AcDbEntity
  8
0
100
AcDbBlockEnd
  0
BLOCK
  5
1C
330
1B
100
AcDbEntity
  8
0
100
AcDbBlockBegin
  2
*Paper_Space
 70
0
 10
0.0
 20
0.0
 30
0.0
  3
*Paper_Space
  1

  0
ENDBLK
  5
1D
330
1B
100
AcDbEntity
  8
0
100
AcDbBlockEnd
  0
ENDSEC
  0
SECTION
  2
ENTITIES
  0
CIRCLE
  5
2F
330
17
100
AcDbEntity
  8
0
100
AcDbCircle
 10
0.594824488
 20
0.549246873
 30
0.0
 40
0.004
  0
CIRCLE
  5
30
330
17
100
AcDbEntity
  8
0
100
AcDbCircle
 10
0.25541078
 20
0.171547321
 30
0.0
 40
0.004
  0
CIRCLE
  5
31
330
17
100
AcDbEntity
  8
0
100
AcDbCircle
 10
0.793547438
 20
0.212622321
 30
0.0
 40
0.004
  0
CIRCLE
  5
32
330
17
100
AcDbEntity
  8
0
100
AcDbCircle
 10
0.812921341
 20
0.121944854
 30
0.0
 40
0.004
  0
CIRCLE
  5
33
330
17
100
AcDbEntity
  8
0
100
AcDbCircle
 10
0.683236874
 20
0.502976961
 30
0.0
 40
0.004
  0
CIRCLE
  5
34
330
17
100
AcDbEntity
  8
0
100
AcDbCircle
 10
0.81315551
 20
0.133259745
 30
0.0
 40
0.004
  0
CIRCLE
  5
35
330
17
100
AcDbEntity
  8
0
100
AcDbCircle
 10
0.505173057
 20
0.459100807
 30
0.0
 40
0.004
  0
CIRCLE
  5
36
330
17
100
AcDbEntity
  8
0
100
AcDbCircle
 10
0.404067321
 20
0.129564785
 30
0.0
 40
0.004
  0
CIRCLE
  5
37
330
17
100
AcDbEntity
  8
0
100
AcDbCircle
 10
0.594749417
 20
0.560610727
 30
0.0
 40
0.004
  0
CIRCLE
  5
38
330
17
100
AcDbEntity
  8
0
100
AcDbCircle
 10
0.25311612
 20
0.16033355
 30
0.0
 40
0.004
  0
CIRCLE
  5
39
330
17
100
AcDbEntity
  8
0
100
AcDbCircle
 10
0.494081991
 20
0.456926648
 30
0.0
 40
0.004
  0
CIRCLE
  5
3A
330
17
100
AcDbEntity
  8
0
100
AcDbCircle
 10
0.649666522
 20
0.0351267512
 30
0.0
 40
0.004
  0
CIRCLE
  5
3B
330
17
100
AcDbEntity
  8
0
100
AcDbCircle
 10
0.41125348
 20
0.364752851
 30
0.0
 40
0.004
  0
CIRCLE
  5
3C
330
17
100
AcDbEntity
  8
0
100
AcDbCircle
 10
0.627631137
 20
0.545488203
 30
0.0
 40
0.004
  0
CIRCLE
  5
3D
330
17
100
AcDbEntity
  8
0
100
AcDbCircle
 10
0.647749205
 20
0.0248749884
 30
0.0
 40
0.004
  0
CIRCLE
  5
3E
330
17
100
AcDbEntity
  8
0
100
AcDbCircle
 10
0.695552373
 20
0.0223102287
 30
0.0
 40
0.004
  0
CIRCLE
  5
3F
330
17
100
AcDbEntity
  8
0
100
AcDbCircle
 10
0.359787156
 20
0.0301245688
 30
0.0
 40
0.004
  0
CIRCLE
  5
40
330
17
100
AcDbEntity
  8
0
100
AcDbCircle
 10
0.352404741
 20
0.0237180408
 30
0.0
 40
0.004
  0
CIRCLE
  5
41
330
17
100
AcDbEntity
  8
0
100
AcDbCircle
 10
0.829425451
 20
0.0587493889
 30
0.0
 40
0.004
  0
CIRCLE
  5
42
330
17
100
AcDbEntity
  8
0
100
AcDbCircle
 10
0.379303868
 20
0.0315166673
 30
0.0
 40
0.004
  0
CIRCLE
  5
43
330
17
100
AcDbEntity
  8
0
100
AcDbCircle
 10
0.372137611
 20
0.0246107353
 30
0.0
 40
0.004
  0
CIRCLE
  5
44
330
17
100
AcDbEntity
  8
0
100
AcDbCircle
 10
0.335821873
 20
0.247999765
 30
0.0
 40
0.004
  0
CIRCLE
  5
45
330
17
100
AcDbEntity
  8
0
100
AcDbCircle
 10
0.802851973
 20
0.206177572
 30
0.0
 40
0.004
  0
CIRCLE
  5
46
330
17
100
AcDbEntity
  8
0
100
AcDbCircle
 10
0.695134868
 20
0.447504048
 30
0.0
 40
0.004
  0
CIRCLE
  5
47
330
17
100
AcDbEntity
  8
0
100
AcDbCircle
 10
0.70292186
 20
0.0294560799
 30
0.0
 40
0.004
  0
CIRCLE
  5
48
330
17
100
AcDbEntity
  8
0
100
AcDbCircle
 10
0.411770085
 20
0.376024252
 30
0.0
 40
0.004
  0
CIRCLE
  5
49
330
17
100
AcDbEntity
  8
0
100
AcDbCircle
 10
0.507906595
 20
0.472251021
 30
0.0
 40
0.004
  0
CIRCLE
  5
4A
330
17
100
AcDbEntity
  8
0
100
AcDbCircle
 10
0.69609483
 20
0.45834609
 30
0.0
 40
0.004
  0
CIRCLE
  5
4B
330
17
100
AcDbEntity
  8
0
100
AcDbCircle
 10
0.703904373
 20
0.429127213
 30
0.0
 40
0.004
  0
CIRCLE
  5
4C
330
17
100
AcDbEntity
  8
0
100
AcDbCircle
 10
0.672366922
 20
0.507535871
 30
0.0
 40
0.004
  0
CIRCLE
  5
4D
330
17
100
AcDbEntity
  8
0
100
AcDbCircle
 10
0.312806731
 20
0.0234359499
 30
0.0
 40
0.004
  0
CIRCLE
  5
4E
330
17
100
AcDbEntity
  8
0
100
AcDbCircle
 10
0.295743926
 20
0.0644210785
 30
0.0
 40
0.004
  0
CIRCLE
  5
4F
330
17
100
AcDbEntity
  8
0
100
AcDbCircle
 10
0.332484179
 20
0.0234853658
 30
0.0
 40
0.004
  0
CIRCLE
  5
50
330
17
100
AcDbEntity
  8
0
100
AcDbCircle
 10
0.340311568
 20
0.0299587596
 30
0.0
 40
0.004
  0
CIRCLE
  5
51
330
17
100
AcDbEntity
  8
0
100
AcDbCircle
 10
0.822000043
 20
0.138903036
 30
0.0
 40
0.004
  0
CIRCLE
  5
52
330
17
100
AcDbEntity
  8
0
100
AcDbCircle
 10
0.346764855
 20
0.253087606
 30
0.0
 40
0.004
  0
CIRCLE
  5
53
330
17
100
AcDbEntity
  8
0
100
AcDbCircle
 10
0.413379458
 20
0.136032778
 30
0.0
 40
0.004
  0
CIRCLE
  5
54
330
17
100
AcDbEntity
  8
0
100
AcDbCircle
 10
0.813763376
 20
0.156955696
 30
0.0
 40
0.004
  0
CIRCLE
  5
55
330
17
100
AcDbEntity
  8
0
100
AcDbCircle
 10
0.532406142
 20
0.491480687
 30
0.0
 40
0.004
  0
CIRCLE
  5
56
330
17
100
AcDbEntity
  8
0
100
AcDbCircle
 10
0.320486989
 20
0.0296848303
 30
0.0
 40
0.004
  0
CIRCLE
  5
57
330
17
100
AcDbEntity
  8
0
100
AcDbCircle
 10
0.82176838
 20
0.150885027
 30
0.0
 40
0.004
  0
CIRCLE
  5
58
330
17
100
AcDbEntity
  8
0
100
AcDbCircle
 10
0.474314829
 20
0.465396897
 30
0.0
 40
0.004
  0
CIRCLE
  5
59
330
17
100
AcDbEntity
  8
0
100
AcDbCircle
 10
0.743791618
 20
0.0284828715
 30
0.0
 40
0.004
  0
CIRCLE
  5
5A
330
17
100
AcDbEntity
  8
0
100
AcDbCircle
 10
0.808080245
 20
0.0284123197
 30
0.0
 40
0.004
  0
CIRCLE
  5
5B
330
17
100
AcDbEntity
  8
0
100
AcDbCircle
 10
0.422455598
 20
0.117567188
 30
0.0
 40
0.004
  0
CIRCLE
  5
5C
330
17
100
AcDbEntity
  8
0
100
AcDbCircle
 10
0.501725378
 20
0.0532494401
 30
0.0
 40
0.004
  0
CIRCLE
  5
5D
330
17
100
AcDbEntity
  8
0
100
AcDbCircle
 10
0.307648124
 20
0.0473029863
 30
0.0
 40
0.004
  0
CIRCLE
  5
5E
330
17
100
AcDbEntity
  8
0
100
AcDbCircle
 10
0.518704628
 20
0.475621702
 30
0.0
 40
0.004
  0
CIRCLE
  5
5F
330
17
100
AcDbEntity
  8
0
100
AcDbCircle
 10
0.298153907
 20
0.100639508
 30
0.0
 40
0.004
  0
CIRCLE
  5
60
330
17
100
AcDbEntity
  8
0
100
AcDbCircle
 10
0.71366535
 20
0.0235376714
 30
0.0
 40
0.004
  0
CIRCLE
  5
61
330
17
100
AcDbEntity
  8
0
100
AcDbCircle
 10
0.616531235
 20
0.549667355
 30
0.0
 40
0.004
  0
CIRCLE
  5
62
330
17
100
AcDbEntity
  8
0
100
AcDbCircle
 10
0.298460521
 20
0.0405026619
 30
0.0
 40
0.004
  0
CIRCLE
  5
63
330
17
100
AcDbEntity
  8
0
100
AcDbCircle
 10
0.29550417
 20
0.0761858502
 30
0.0
 40
0.004
  0
CIRCLE
  5
64
330
17
100
AcDbEntity
  8
0
100
AcDbCircle
 10
0.263446714
 20
0.152851159
 30
0.0
 40
0.004
  0
CIRCLE
  5
65
330
17
100
AcDbEntity
  8
0
100
AcDbCircle
 10
0.437229469
 20
0.0927271477
 30
0.0
 40
0.004
  0
CIRCLE
  5
66
330
17
100
AcDbEntity
  8
0
100
AcDbCircle
 10
0.705737489
 20
0.440075919
 30
0.0
 40
0.004
  0
CIRCLE
  5
67
330
17
100
AcDbEntity
  8
0
100
AcDbCircle
 10
0.568317583
 20
0.0306891303
 30
0.0
 40
0.004
  0
CIRCLE
  5
68
330
17
100
AcDbEntity
  8
0
100
AcDbCircle
 10
0.430864865
 20
0.11189104
 30
0.0
 40
0.004
  0
CIRCLE
  5
69
330
17
100
AcDbEntity
  8
0
100
AcDbCircle
 10
0.798831177
 20
0.0300850508
 30
0.0
 40
0.004
  0
CIRCLE
  5
6A
330
17
100
AcDbEntity
  8
0
100
AcDbCircle
 10
0.722945243
 20
0.0292164281
 30
0.0
 40
0.004
  0
CIRCLE
  5
6B
330
17
100
AcDbEntity
  8
0
100
AcDbCircle
 10
0.507814851
 20
0.0604852389
 30
0.0
 40
0.004
  0
CIRCLE
  5
6C
330
17
100
AcDbEntity
  8
0
100
AcDbCircle
 10
0.743504744
 20
0.0398350039
 30
0.0
 40
0.004
  0
CIRCLE
  5
6D
330
17
100
AcDbEntity
  8
0
100
AcDbCircle
 10
0.362921012
 20
0.281479994
 30
0.0
 40
0.004
  0
CIRCLE
  5
6E
330
17
100
AcDbEntity
  8
0
100
AcDbCircle
 10
0.306642995
 20
0.0588585764
 30
0.0
 40
0.004
  0
CIRCLE
  5
6F
330
17
100
AcDbEntity
  8
0
100
AcDbCircle
 10
0.685654639
 20
0.492558976
 30
0.0
 40
0.004
  0
CIRCLE
  5
70
330
17
100
AcDbEntity
  8
0
100
AcDbCircle
 10
0.686111362
 20
0.0238924504
 30
0.0
 40
0.004
  0
CIRCLE
  5
71
330
17
100
AcDbEntity
  8
0
100
AcDbCircle
 10
0.540492887
 20
0.483250881
 30
0.0
 40
0.004
  0
CIRCLE
  5
72
330
17
100
AcDbEntity
  8
0
100
AcDbCircle
 10
0.423509938
 20
0.380829134
 30
0.0
 40
0.004
  0
CIRCLE
  5
73
330
17
100
AcDbEntity
  8
0
100
AcDbCircle
 10
0.307621617
 20
0.0936551522
 30
0.0
 40
0.004
  0
CIRCLE
  5
74
330
17
100
AcDbEntity
  8
0
100
AcDbCircle
 10
0.82496582
 20
0.0494711517
 30
0.0
 40
0.004
  0
CIRCLE
  5
75
330
17
100
AcDbEntity
  8
0
100
AcDbCircle
 10
0.750423897
 20
0.350598546
 30
0.0
 40
0.004
  0
CIRCLE
  5
76
330
17
100
AcDbEntity
  8
0
100
AcDbCircle
 10
0.57653223
 20
0.0235627077
 30
0.0
 40
0.004
  0
CIRCLE
  5
77
330
17
100
AcDbEntity
  8
0
100
AcDbCircle
 10
0.588258181
 20
0.0289764191
 30
0.0
 40
0.004
  0
CIRCLE
  5
78
330
17
100
AcDbEntity
  8
0
100
AcDbCircle
 10
0.754669003
 20
0.359265255
 30
0.0
 40
0.004
  0
CIRCLE
  5
79
330
17
100
AcDbEntity
  8
0
100
AcDbCircle
 10
0.261955056
 20
0.141513066
 30
0.0
 40
0.004
  0
CIRCLE
  5
7A
330
17
100
AcDbEntity
  8
0
100
AcDbCircle
 10
0.247354649
 20
0.17920486
 30
0.0
 40
0.004
  0
CIRCLE
  5
7B
330
17
100
AcDbEntity
  8
0
100
AcDbCircle
 10
0.485683392
 20
0.467581301
 30
0.0
 40
0.004
  0
CIRCLE
  5
7C
330
17
100
AcDbEntity
  8
0
100
AcDbCircle
 10
0.534701879
 20
0.0705392321
 30
0.0
 40
0.004
  0
CIRCLE
  5
7D
330
17
100
AcDbEntity
  8
0
100
AcDbCircle
 10
0.471326244
 20
0.454243346
 30
0.0
 40
0.004
  0
CIRCLE
  5
7E
330
17
100
AcDbEntity
  8
0
100
AcDbCircle
 10
0.287556289
 20
0.0963964589
 30
0.0
 40
0.004
  0
CIRCLE
  5
7F
330
17
100
AcDbEntity
  8
0
100
AcDbCircle
 10
0.457147672
 20
0.0919233464
 30
0.0
 40
0.004
  0
CIRCLE
  5
80
330
17
100
AcDbEntity
  8
0
100
AcDbCircle
 10
0.428744262
 20
0.0991720681
 30
0.0
 40
0.004
  0
CIRCLE
  5
81
330
17
100
AcDbEntity
  8
0
100
AcDbCircle
 10
0.793231846
 20
0.22331639
 30
0.0
 40
0.004
  0
CIRCLE
  5
82
330
17
100
AcDbEntity
  8
0
100
AcDbCircle
 10
0.596988936
 20
0.0227170015
 30
0.0
 40
0.004
  0
CIRCLE
  5
83
330
17
100
AcDbEntity
  8
0
100
AcDbCircle
 10
0.821960329
 20
0.114374037
 30
0.0
 40
0.004
  0
CIRCLE
  5
84
330
17
100
AcDbEntity
  8
0
100
AcDbCircle
 10
0.270755471
 20
0.123249022
 30
0.0
 40
0.004
  0
CIRCLE
  5
85
330
17
100
AcDbEntity
  8
0
100
AcDbCircle
 10
0.801018261
 20
0.193583267
 30
0.0
 40
0.004
  0
CIRCLE
  5
86
330
17
100
AcDbEntity
  8
0
100
AcDbCircle
 10
0.765692463
 20
0.314002846
 30
0.0
 40
0.004
  0
CIRCLE
  5
87
330
17
100
AcDbEntity
  8
0
100
AcDbCircle
 10
0.424922653
 20
0.391811878
 30
0.0
 40
0.004
  0
CIRCLE
  5
88
330
17
100
AcDbEntity
  8
0
100
AcDbCircle
 10
0.43704491
 20
0.395795979
 30
0.0
 40
0.004
  0
CIRCLE
  5
89
330
17
100
AcDbEntity
  8
0
100
AcDbCircle
 10
0.260321531
 20
0.118773578
 30
0.0
 40
0.004
  0
CIRCLE
  5
8A
330
17
100
AcDbEntity
  8
0
100
AcDbCircle
 10
0.824008312
 20
0.203141608
 30
0.0
 40
0.004
  0
CIRCLE
  5
8B
330
17
100
AcDbEntity
  8
0
100
AcDbCircle
 10
0.274913732
 20
0.0802357264
 30
0.0
 40
0.004
  0
CIRCLE
  5
8C
330
17
100
AcDbEntity
  8
0
100
AcDbCircle
 10
0.285837184
 20
0.0836521071
 30
0.0
 40
0.004
  0
CIRCLE
  5
8D
330
17
100
AcDbEntity
  8
0
100
AcDbCircle
 10
0.373498348
 20
0.285404222
 30
0.0
 40
0.004
  0
CIRCLE
  5
8E
330
17
100
AcDbEntity
  8
0
100
AcDbCircle
 10
0.343479399
 20
0.285900518
 30
0.0
 40
0.004
  0
CIRCLE
  5
8F
330
17
100
AcDbEntity
  8
0
100
AcDbCircle
 10
0.769888618
 20
0.322747104
 30
0.0
 40
0.004
  0
CIRCLE
  5
90
330
17
100
AcDbEntity
  8
0
100
AcDbCircle
 10
0.448081008
 20
0.0989994157
 30
0.0
 40
0.004
  0
CIRCLE
  5
91
330
17
100
AcDbEntity
  8
0
100
AcDbCircle
 10
0.395021097
 20
0.133096153
 30
0.0
 40
0.004
  0
CIRCLE
  5
92
330
17
100
AcDbEntity
  8
0
100
AcDbCircle
 10
0.439152378
 20
0.406496758
 30
0.0
 40
0.004
  0
CIRCLE
  5
93
330
17
100
AcDbEntity
  8
0
100
AcDbCircle
 10
0.348775027
 20
0.264995924
 30
0.0
 40
0.004
  0
CIRCLE
  5
94
330
17
100
AcDbEntity
  8
0
100
AcDbCircle
 10
0.338297918
 20
0.305482459
 30
0.0
 40
0.004
  0
CIRCLE
  5
95
330
17
100
AcDbEntity
  8
0
100
AcDbCircle
 10
0.809807716
 20
0.187159761
 30
0.0
 40
0.004
  0
CIRCLE
  5
96
330
17
100
AcDbEntity
  8
0
100
AcDbCircle
 10
0.630675577
 20
0.535549632
 30
0.0
 40
0.004
  0
CIRCLE
  5
97
330
17
100
AcDbEntity
  8
0
100
AcDbCircle
 10
0.240617004
 20
0.196518657
 30
0.0
 40
0.004
  0
CIRCLE
  5
98
330
17
100
AcDbEntity
  8
0
100
AcDbCircle
 10
0.533793267
 20
0.0272907769
 30
0.0
 40
0.004
  0
CIRCLE
  5
99
330
17
100
AcDbEntity
  8
0
100
AcDbCircle
 10
0.240837865
 20
0.206869671
 30
0.0
 40
0.004
  0
CIRCLE
  5
9A
330
17
100
AcDbEntity
  8
0
100
AcDbCircle
 10
0.521602526
 20
0.488165489
 30
0.0
 40
0.004
  0
CIRCLE
  5
9B
330
17
100
AcDbEntity
  8
0
100
AcDbCircle
 10
0.842062917
 20
0.107471803
 30
0.0
 40
0.004
  0
CIRCLE
  5
9C
330
17
100
AcDbEntity
  8
0
100
AcDbCircle
 10
0.339916319
 20
0.27359168
 30
0.0
 40
0.004
  0
CIRCLE
  5
9D
330
17
100
AcDbEntity
  8
0
100
AcDbCircle
 10
0.586432826
 20
0.542884856
 30
0.0
 40
0.004
  0
CIRCLE
  5
9E
330
17
100
AcDbEntity
  8
0
100
AcDbCircle
 10
0.785513336
 20
0.265280223
 30
0.0
 40
0.004
  0
CIRCLE
  5
9F
330
17
100
AcDbEntity
  8
0
100
AcDbCircle
 10
0.425153982
 20
0.15398275
 30
0.0
 40
0.004
  0
CIRCLE
  5
A0
330
17
100
AcDbEntity
  8
0
100
AcDbCircle
 10
0.289205582
 20
0.0454036338
 30
0.0
 40
0.004
  0
CIRCLE
  5
A1
330
17
100
AcDbEntity
  8
0
100
AcDbCircle
 10
0.272996089
 20
0.208113752
 30
0.0
 40
0.004
  0
CIRCLE
  5
A2
330
17
100
AcDbEntity
  8
0
100
AcDbCircle
 10
0.524202487
 20
0.0678593114
 30
0.0
 40
0.004
  0
CIRCLE
  5
A3
330
17
100
AcDbEntity
  8
0
100
AcDbCircle
 10
0.824590577
 20
0.0676593026
 30
0.0
 40
0.004
  0
CIRCLE
  5
A4
330
17
100
AcDbEntity
  8
0
100
AcDbCircle
 10
0.712409782
 20
0.420900221
 30
0.0
 40
0.004
  0
CIRCLE
  5
A5
330
17
100
AcDbEntity
  8
0
100
AcDbCircle
 10
0.335179467
 20
0.294326514
 30
0.0
 40
0.004
  0
CIRCLE
  5
A6
330
17
100
AcDbEntity
  8
0
100
AcDbCircle
 10
0.417814169
 20
0.0739466974
 30
0.0
 40
0.004
  0
CIRCLE
  5
A7
330
17
100
AcDbEntity
  8
0
100
AcDbCircle
 10
0.41447329
 20
0.082727994
 30
0.0
 40
0.004
  0
CIRCLE
  5
A8
330
17
100
AcDbEntity
  8
0
100
AcDbCircle
 10
0.68050372
 20
0.0121659779
 30
0.0
 40
0.004
  0
CIRCLE
  5
A9
330
17
100
AcDbEntity
  8
0
100
AcDbCircle
 10
0.770709292
 20
0.30187629
 30
0.0
 40
0.004
  0
CIRCLE
  5
AA
330
17
100
AcDbEntity
  8
0
100
AcDbCircle
 10
0.750506711
 20
0.371197227
 30
0.0
 40
0.004
  0
CIRCLE
  5
AB
330
17
100
AcDbEntity
  8
0
100
AcDbCircle
 10
0.349475308
 20
0.308714224
 30
0.0
 40
0.004
  0
CIRCLE
  5
AC
330
17
100
AcDbEntity
  8
0
100
AcDbCircle
 10
0.489451313
 20
0.0364691337
 30
0.0
 40
0.004
  0
CIRCLE
  5
AD
330
17
100
AcDbEntity
  8
0
100
AcDbCircle
 10
0.831785124
 20
0.0320975524
 30
0.0
 40
0.004
  0
CIRCLE
  5
AE
330
17
100
AcDbEntity
  8
0
100
AcDbCircle
 10
0.556665477
 20
0.0278658581
 30
0.0
 40
0.004
  0
CIRCLE
  5
AF
330
17
100
AcDbEntity
  8
0
100
AcDbCircle
 10
0.794259851
 20
0.26197627
 30
0.0
 40
0.004
  0
CIRCLE
  5
B0
330
17
100
AcDbEntity
  8
0
100
AcDbCircle
 10
0.661695399
 20
0.501117332
 30
0.0
 40
0.004
  0
CIRCLE
  5
B1
330
17
100
AcDbEntity
  8
0
100
AcDbCircle
 10
0.741372896
 20
0.375930831
 30
0.0
 40
0.004
  0
CIRCLE
  5
B2
330
17
100
AcDbEntity
  8
0
100
AcDbCircle
 10
0.485007114
 20
0.0444985304
 30
0.0
 40
0.004
  0
CIRCLE
  5
B3
330
17
100
AcDbEntity
  8
0
100
AcDbCircle
 10
0.779855776
 20
0.298449196
 30
0.0
 40
0.004
  0
CIRCLE
  5
B4
330
17
100
AcDbEntity
  8
0
100
AcDbCircle
 10
0.620877994
 20
0.0445519681
 30
0.0
 40
0.004
  0
CIRCLE
  5
B5
330
17
100
AcDbEntity
  8
0
100
AcDbCircle
 10
0.807573269
 20
0.175448337
 30
0.0
 40
0.004
  0
CIRCLE
  5
B6
330
17
100
AcDbEntity
  8
0
100
AcDbCircle
 10
0.455933965
 20
0.0803761064
 30
0.0
 40
0.004
  0
CIRCLE
  5
B7
330
17
100
AcDbEntity
  8
0
100
AcDbCircle
 10
0.402302509
 20
0.358771588
 30
0.0
 40
0.004
  0
CIRCLE
  5
B8
330
17
100
AcDbEntity
  8
0
100
AcDbCircle
 10
0.326520069
 20
0.252413331
 30
0.0
 40
0.004
  0
CIRCLE
  5
B9
330
17
100
AcDbEntity
  8
0
100
AcDbCircle
 10
0.814749171
 20
0.2111142
 30
0.0
 40
0.004
  0
CIRCLE
  5
BA
330
17
100
AcDbEntity
  8
0
100
AcDbCircle
 10
0.820900569
 20
0.191781474
 30
0.0
 40
0.004
  0
CIRCLE
  5
BB
330
17
100
AcDbEntity
  8
0
100
AcDbCircle
 10
0.671786412
 20
0.0114793845
 30
0.0
 40
0.004
  0
CIRCLE
  5
BC
330
17
100
AcDbEntity
  8
0
100
AcDbCircle
 10
0.733810379
 20
0.0229268401
 30
0.0
 40
0.004
  0
CIRCLE
  5
BD
330
17
100
AcDbEntity
  8
0
100
AcDbCircle
 10
0.414055508
 20
0.148489041
 30
0.0
 40
0.004
  0
CIRCLE
  5
BE
330
17
100
AcDbEntity
  8
0
100
AcDbCircle
 10
0.434384727
 20
0.147261192
 30
0.0
 40
0.004
  0
CIRCLE
  5
BF
330
17
100
AcDbEntity
  8
0
100
AcDbCircle
 10
0.546545893
 20
0.46364529
 30
0.0
 40
0.004
  0
CIRCLE
  5
C0
330
17
100
AcDbEntity
  8
0
100
AcDbCircle
 10
0.837790603
 20
0.0970020189
 30
0.0
 40
0.004
  0
CIRCLE
  5
C1
330
17
100
AcDbEntity
  8
0
100
AcDbCircle
 10
0.544013849
 20
0.0633845007
 30
0.0
 40
0.004
  0
CIRCLE
  5
C2
330
17
100
AcDbEntity
  8
0
100
AcDbCircle
 10
0.651356379
 20
0.507519992
 30
0.0
 40
0.004
  0
CIRCLE
  5
C3
330
17
100
AcDbEntity
  8
0
100
AcDbCircle
 10
0.306690986
 20
0.0819458459
 30
0.0
 40
0.004
  0
CIRCLE
  5
C4
330
17
100
AcDbEntity
  8
0
100
AcDbCircle
 10
0.354630761
 20
0.289505866
 30
0.0
 40
0.004
  0
CIRCLE
  5
C5
330
17
100
AcDbEntity
  8
0
100
AcDbCircle
 10
0.250961488
 20
0.125352398
 30
0.0
 40
0.004
  0
CIRCLE
  5
C6
330
17
100
AcDbEntity
  8
0
100
AcDbCircle
 10
0.266171276
 20
0.088854515
 30
0.0
 40
0.004
  0
CIRCLE
  5
C7
330
17
100
AcDbEntity
  8
0
100
AcDbCircle
 10
0.241614722
 20
0.155212668
 30
0.0
 40
0.004
  0
CIRCLE
  5
C8
330
17
100
AcDbEntity
  8
0
100
AcDbCircle
 10
0.22930413
 20
0.171885597
 30
0.0
 40
0.004
  0
CIRCLE
  5
C9
330
17
100
AcDbEntity
  8
0
100
AcDbCircle
 10
0.450428224
 20
0.410531762
 30
0.0
 40
0.004
  0
CIRCLE
  5
CA
330
17
100
AcDbEntity
  8
0
100
AcDbCircle
 10
0.285756319
 20
0.222563425
 30
0.0
 40
0.004
  0
CIRCLE
  5
CB
330
17
100
AcDbEntity
  8
0
100
AcDbCircle
 10
0.833883644
 20
0.116953631
 30
0.0
 40
0.004
  0
CIRCLE
  5
CC
330
17
100
AcDbEntity
  8
0
100
AcDbCircle
 10
0.271998851
 20
0.134501151
 30
0.0
 40
0.004
  0
CIRCLE
  5
CD
330
17
100
AcDbEntity
  8
0
100
AcDbCircle
 10
0.784641464
 20
0.286272662
 30
0.0
 40
0.004
  0
CIRCLE
  5
CE
330
17
100
AcDbEntity
  8
0
100
AcDbCircle
 10
0.780471357
 20
0.277501086
 30
0.0
 40
0.004
  0
CIRCLE
  5
CF
330
17
100
AcDbEntity
  8
0
100
AcDbCircle
 10
0.629459814
 20
0.0383825016
 30
0.0
 40
0.004
  0
CIRCLE
  5
D0
330
17
100
AcDbEntity
  8
0
100
AcDbCircle
 10
0.824061286
 20
0.0294059349
 30
0.0
 40
0.004
  0
CIRCLE
  5
D1
330
17
100
AcDbEntity
  8
0
100
AcDbCircle
 10
0.755459796
 20
0.338295261
 30
0.0
 40
0.004
  0
CIRCLE
  5
D2
330
17
100
AcDbEntity
  8
0
100
AcDbCircle
 10
0.232280981
 20
0.190505029
 30
0.0
 40
0.004
  0
CIRCLE
  5
D3
330
17
100
AcDbEntity
  8
0
100
AcDbCircle
 10
0.522398124
 20
0.0289053899
 30
0.0
 40
0.004
  0
CIRCLE
  5
D4
330
17
100
AcDbEntity
  8
0
100
AcDbCircle
 10
0.412645214
 20
0.0626872094
 30
0.0
 40
0.004
  0
CIRCLE
  5
D5
330
17
100
AcDbEntity
  8
0
100
AcDbCircle
 10
0.489606004
 20
0.445594926
 30
0.0
 40
0.004
  0
CIRCLE
  5
D6
330
17
100
AcDbEntity
  8
0
100
AcDbCircle
 10
0.403891601
 20
0.0584571568
 30
0.0
 40
0.004
  0
CIRCLE
  5
D7
330
17
100
AcDbEntity
  8
0
100
AcDbCircle
 10
0.318185068
 20
0.0991261073
 30
0.0
 40
0.004
  0
CIRCLE
  5
D8
330
17
100
AcDbEntity
  8
0
100
AcDbCircle
 10
0.4017315
 20
0.0456936287
 30
0.0
 40
0.004
  0
CIRCLE
  5
D9
330
17
100
AcDbEntity
  8
0
100
AcDbCircle
 10
0.580342371
 20
0.111473089
 30
0.0
 40
0.004
  0
CIRCLE
  5
DA
330
17
100
AcDbEntity
  8
0
100
AcDbCircle
 10
0.557243692
 20
0.467869758
 30
0.0
 40
0.004
  0
CIRCLE
  5
DB
330
17
100
AcDbEntity
  8
0
100
AcDbCircle
 10
0.393494593
 20
0.041329768
 30
0.0
 40
0.004
  0
CIRCLE
  5
DC
330
17
100
AcDbEntity
  8
0
100
AcDbCircle
 10
0.766926761
 20
0.243155612
 30
0.0
 40
0.004
  0
CIRCLE
  5
DD
330
17
100
AcDbEntity
  8
0
100
AcDbCircle
 10
0.47821882
 20
0.445096028
 30
0.0
 40
0.004
  0
CIRCLE
  5
DE
330
17
100
AcDbEntity
  8
0
100
AcDbCircle
 10
0.76473386
 20
0.334860422
 30
0.0
 40
0.004
  0
CIRCLE
  5
DF
330
17
100
AcDbEntity
  8
0
100
AcDbCircle
 10
0.315845921
 20
0.163276876
 30
0.0
 40
0.004
  0
CIRCLE
  5
E0
330
17
100
AcDbEntity
  8
0
100
AcDbCircle
 10
0.314424497
 20
0.151890324
 30
0.0
 40
0.004
  0
CIRCLE
  5
E1
330
17
100
AcDbEntity
  8
0
100
AcDbCircle
 10
0.72057137
 20
0.266840585
 30
0.0
 40
0.004
  0
CIRCLE
  5
E2
330
17
100
AcDbEntity
  8
0
100
AcDbCircle
 10
0.610563966
 20
0.113468007
 30
0.0
 40
0.004
  0
CIRCLE
  5
E3
330
17
100
AcDbEntity
  8
0
100
AcDbCircle
 10
0.600027089
 20
0.108969366
 30
0.0
 40
0.004
  0
CIRCLE
  5
E4
330
17
100
AcDbEntity
  8
0
100
AcDbCircle
 10
0.275054535
 20
0.218641874
 30
0.0
 40
0.004
  0
CIRCLE
  5
E5
330
17
100
AcDbEntity
  8
0
100
AcDbCircle
 10
0.686668565
 20
0.392404963
 30
0.0
 40
0.004
  0
CIRCLE
  5
E6
330
17
100
AcDbEntity
  8
0
100
AcDbCircle
 10
0.777293084
 20
0.247510865
 30
0.0
 40
0.004
  0
CIRCLE
  5
E7
330
17
100
AcDbEntity
  8
0
100
AcDbCircle
 10
0.677696855
 20
0.399460334
 30
0.0
 40
0.004
  0
CIRCLE
  5
E8
330
17
100
AcDbEntity
  8
0
100
AcDbCircle
 10
0.537952642
 20
0.471436299
 30
0.0
 40
0.004
  0
CIRCLE
  5
E9
330
17
100
AcDbEntity
  8
0
100
AcDbCircle
 10
0.552867568
 20
0.132478952
 30
0.0
 40
0.004
  0
CIRCLE
  5
EA
330
17
100
AcDbEntity
  8
0
100
AcDbCircle
 10
0.71913512
 20
0.25546892
 30
0.0
 40
0.004
  0
CIRCLE
  5
EB
330
17
100
AcDbEntity
  8
0
100
AcDbCircle
 10
0.563423728
 20
0.136963921
 30
0.0
 40
0.004
  0
CIRCLE
  5
EC
330
17
100
AcDbEntity
  8
0
100
AcDbCircle
 10
0.533147069
 20
0.134994967
 30
0.0
 40
0.004
  0
CIRCLE
  5
ED
330
17
100
AcDbEntity
  8
0
100
AcDbCircle
 10
0.815926477
 20
0.169127247
 30
0.0
 40
0.004
  0
CIRCLE
  5
EE
330
17
100
AcDbEntity
  8
0
100
AcDbCircle
 10
0.814182392
 20
0.0355093866
 30
0.0
 40
0.004
  0
CIRCLE
  5
EF
330
17
100
AcDbEntity
  8
0
100
AcDbCircle
 10
0.70853022
 20
0.251107521
 30
0.0
 40
0.004
  0
CIRCLE
  5
F0
330
17
100
AcDbEntity
  8
0
100
AcDbCircle
 10
0.655264265
 20
0.379411777
 30
0.0
 40
0.004
  0
CIRCLE
  5
F1
330
17
100
AcDbEntity
  8
0
100
AcDbCircle
 10
0.793407064
 20
0.135693772
 30
0.0
 40
0.004
  0
CIRCLE
  5
F2
330
17
100
AcDbEntity
  8
0
100
AcDbCircle
 10
0.792209796
 20
0.124451984
 30
0.0
 40
0.004
  0
CIRCLE
  5
F3
330
17
100
AcDbEntity
  8
0
100
AcDbCircle
 10
0.667262223
 20
0.395137743
 30
0.0
 40
0.004
  0
CIRCLE
  5
F4
330
17
100
AcDbEntity
  8
0
100
AcDbCircle
 10
0.750475289
 20
0.268578325
 30
0.0
 40
0.004
  0
CIRCLE
  5
F5
330
17
100
AcDbEntity
  8
0
100
AcDbCircle
 10
0.740227547
 20
0.264240588
 30
0.0
 40
0.004
  0
CIRCLE
  5
F6
330
17
100
AcDbEntity
  8
0
100
AcDbCircle
 10
0.758148966
 20
0.250224423
 30
0.0
 40
0.004
  0
CIRCLE
  5
F7
330
17
100
AcDbEntity
  8
0
100
AcDbCircle
 10
0.671622653
 20
0.429174405
 30
0.0
 40
0.004
  0
CIRCLE
  5
F8
330
17
100
AcDbEntity
  8
0
100
AcDbCircle
 10
0.781572414
 20
0.120260206
 30
0.0
 40
0.004
  0
CIRCLE
  5
F9
330
17
100
AcDbEntity
  8
0
100
AcDbCircle
 10
0.73108784
 20
0.27122453
 30
0.0
 40
0.004
  0
CIRCLE
  5
FA
330
17
100
AcDbEntity
  8
0
100
AcDbCircle
 10
0.658375072
 20
0.327004711
 30
0.0
 40
0.004
  0
CIRCLE
  5
FB
330
17
100
AcDbEntity
  8
0
100
AcDbCircle
 10
0.287387058
 20
0.232671497
 30
0.0
 40
0.004
  0
CIRCLE
  5
FC
330
17
100
AcDbEntity
  8
0
100
AcDbCircle
 10
0.294727209
 20
0.154452992
 30
0.0
 40
0.004
  0
CIRCLE
  5
FD
330
17
100
AcDbEntity
  8
0
100
AcDbCircle
 10
0.662544085
 20
0.436160848
 30
0.0
 40
0.004
  0
CIRCLE
  5
FE
330
17
100
AcDbEntity
  8
0
100
AcDbCircle
 10
0.590879021
 20
0.115967864
 30
0.0
 40
0.004
  0
CIRCLE
  5
FF
330
17
100
AcDbEntity
  8
0
100
AcDbCircle
 10
0.452246934
 20
0.421034152
 30
0.0
 40
0.004
  0
CIRCLE
  5
100
330
17
100
AcDbEntity
  8
0
100
AcDbCircle
 10
0.649289921
 20
0.333999447
 30
0.0
 40
0.004
  0
CIRCLE
  5
101
330
17
100
AcDbEntity
  8
0
100
AcDbCircle
 10
0.638701139
 20
0.32961276
 30
0.0
 40
0.004
  0
CIRCLE
  5
102
330
17
100
AcDbEntity
  8
0
100
AcDbCircle
 10
0.352412039
 20
0.319821506
 30
0.0
 40
0.004
  0
CIRCLE
  5
103
330
17
100
AcDbEntity
  8
0
100
AcDbCircle
 10
0.54166114
 20
0.429171487
 30
0.0
 40
0.004
  0
CIRCLE
  5
104
330
17
100
AcDbEntity
  8
0
100
AcDbCircle
 10
0.316786651
 20
0.0761789123
 30
0.0
 40
0.004
  0
CIRCLE
  5
105
330
17
100
AcDbEntity
  8
0
100
AcDbCircle
 10
0.714666419
 20
0.221456049
 30
0.0
 40
0.004
  0
CIRCLE
  5
106
330
17
100
AcDbEntity
  8
0
100
AcDbCircle
 10
0.665798264
 20
0.383745159
 30
0.0
 40
0.004
  0
CIRCLE
  5
107
330
17
100
AcDbEntity
  8
0
100
AcDbCircle
 10
0.517915902
 20
0.0401365874
 30
0.0
 40
0.004
  0
CIRCLE
  5
108
330
17
100
AcDbEntity
  8
0
100
AcDbCircle
 10
0.6296067
 20
0.336587622
 30
0.0
 40
0.004
  0
CIRCLE
  5
109
330
17
100
AcDbEntity
  8
0
100
AcDbCircle
 10
0.652093374
 20
0.431934819
 30
0.0
 40
0.004
  0
CIRCLE
  5
10A
330
17
100
AcDbEntity
  8
0
100
AcDbCircle
 10
0.318776288
 20
0.310583658
 30
0.0
 40
0.004
  0
CIRCLE
  5
10B
330
17
100
AcDbEntity
  8
0
100
AcDbCircle
 10
0.729906824
 20
0.184829334
 30
0.0
 40
0.004
  0
CIRCLE
  5
10C
330
17
100
AcDbEntity
  8
0
100
AcDbCircle
 10
0.543705422
 20
0.139473469
 30
0.0
 40
0.004
  0
CIRCLE
  5
10D
330
17
100
AcDbEntity
  8
0
100
AcDbCircle
 10
0.716176318
 20
0.232781197
 30
0.0
 40
0.004
  0
CIRCLE
  5
10E
330
17
100
AcDbEntity
  8
0
100
AcDbCircle
 10
0.643007221
 20
0.438921128
 30
0.0
 40
0.004
  0
CIRCLE
  5
10F
330
17
100
AcDbEntity
  8
0
100
AcDbCircle
 10
0.682479265
 20
0.433033775
 30
0.0
 40
0.004
  0
CIRCLE
  5
110
330
17
100
AcDbEntity
  8
0
100
AcDbCircle
 10
0.707037958
 20
0.239767677
 30
0.0
 40
0.004
  0
CIRCLE
  5
111
330
17
100
AcDbEntity
  8
0
100
AcDbCircle
 10
0.619013307
 20
0.332176673
 30
0.0
 40
0.004
  0
CIRCLE
  5
112
330
17
100
AcDbEntity
  8
0
100
AcDbCircle
 10
0.780135623
 20
0.108952348
 30
0.0
 40
0.004
  0
CIRCLE
  5
113
330
17
100
AcDbEntity
  8
0
100
AcDbCircle
 10
0.668953197
 20
0.331379772
 30
0.0
 40
0.004
  0
CIRCLE
  5
114
330
17
100
AcDbEntity
  8
0
100
AcDbCircle
 10
0.723806549
 20
0.214467241
 30
0.0
 40
0.004
  0
CIRCLE
  5
115
330
17
100
AcDbEntity
  8
0
100
AcDbCircle
 10
0.346254545
 20
0.165121044
 30
0.0
 40
0.004
  0
CIRCLE
  5
116
330
17
100
AcDbEntity
  8
0
100
AcDbCircle
 10
0.722286815
 20
0.203147386
 30
0.0
 40
0.004
  0
CIRCLE
  5
117
330
17
100
AcDbEntity
  8
0
100
AcDbCircle
 10
0.267804574
 20
0.235702435
 30
0.0
 40
0.004
  0
CIRCLE
  5
118
330
17
100
AcDbEntity
  8
0
100
AcDbCircle
 10
0.301565768
 20
0.285310541
 30
0.0
 40
0.004
  0
CIRCLE
  5
119
330
17
100
AcDbEntity
  8
0
100
AcDbCircle
 10
0.347727712
 20
0.176476975
 30
0.0
 40
0.004
  0
CIRCLE
  5
11A
330
17
100
AcDbEntity
  8
0
100
AcDbCircle
 10
0.309387759
 20
0.277469388
 30
0.0
 40
0.004
  0
CIRCLE
  5
11B
330
17
100
AcDbEntity
  8
0
100
AcDbCircle
 10
0.719310036
 20
0.180442425
 30
0.0
 40
0.004
  0
CIRCLE
  5
11C
330
17
100
AcDbEntity
  8
0
100
AcDbCircle
 10
0.330046867
 20
0.313539314
 30
0.0
 40
0.004
  0
CIRCLE
  5
11D
330
17
100
AcDbEntity
  8
0
100
AcDbCircle
 10
0.769575482
 20
0.104530576
 30
0.0
 40
0.004
  0
CIRCLE
  5
11E
330
17
100
AcDbEntity
  8
0
100
AcDbCircle
 10
0.585058365
 20
0.567578211
 30
0.0
 40
0.004
  0
CIRCLE
  5
11F
330
17
100
AcDbEntity
  8
0
100
AcDbCircle
 10
0.632424638
 20
0.434528038
 30
0.0
 40
0.004
  0
CIRCLE
  5
120
330
17
100
AcDbEntity
  8
0
100
AcDbCircle
 10
0.267340993
 20
0.17536745
 30
0.0
 40
0.004
  0
CIRCLE
  5
121
330
17
100
AcDbEntity
  8
0
100
AcDbCircle
 10
0.326505158
 20
0.167662708
 30
0.0
 40
0.004
  0
CIRCLE
  5
122
330
17
100
AcDbEntity
  8
0
100
AcDbCircle
 10
0.25920103
 20
0.243040588
 30
0.0
 40
0.004
  0
CIRCLE
  5
123
330
17
100
AcDbEntity
  8
0
100
AcDbCircle
 10
0.609913244
 20
0.339152859
 30
0.0
 40
0.004
  0
CIRCLE
  5
124
330
17
100
AcDbEntity
  8
0
100
AcDbCircle
 10
0.305
 20
0.00577350269
 30
0.0
 40
0.004
  0
CIRCLE
  5
125
330
17
100
AcDbEntity
  8
0
100
AcDbCircle
 10
0.220304739
 20
0.211081293
 30
0.0
 40
0.004
  0
CIRCLE
  5
126
330
17
100
AcDbEntity
  8
0
100
AcDbCircle
 10
0.320574435
 20
0.28037834
 30
0.0
 40
0.004
  0
CIRCLE
  5
127
330
17
100
AcDbEntity
  8
0
100
AcDbCircle
 10
0.51194774
 20
0.126100689
 30
0.0
 40
0.004
  0
CIRCLE
  5
128
330
17
100
AcDbEntity
  8
0
100
AcDbCircle
 10
0.315785154
 20
0.299411991
 30
0.0
 40
0.004
  0
CIRCLE
  5
129
330
17
100
AcDbEntity
  8
0
100
AcDbCircle
 10
0.768112553
 20
0.0931497726
 30
0.0
 40
0.004
  0
CIRCLE
  5
12A
330
17
100
AcDbEntity
  8
0
100
AcDbCircle
 10
0.552208248
 20
0.433578225
 30
0.0
 40
0.004
  0
CIRCLE
  5
12B
330
17
100
AcDbEntity
  8
0
100
AcDbCircle
 10
0.632059763
 20
0.509195772
 30
0.0
 40
0.004
  0
CIRCLE
  5
12C
330
17
100
AcDbEntity
  8
0
100
AcDbCircle
 10
0.620345043
 20
0.418763762
 30
0.0
 40
0.004
  0
CIRCLE
  5
12D
330
17
100
AcDbEntity
  8
0
100
AcDbCircle
 10
0.485837225
 20
0.233858389
 30
0.0
 40
0.004
  0
CIRCLE
  5
12E
330
17
100
AcDbEntity
  8
0
100
AcDbCircle
 10
0.30392804
 20
0.14744972
 30
0.0
 40
0.004
  0
CIRCLE
  5
12F
330
17
100
AcDbEntity
  8
0
100
AcDbCircle
 10
0.731408587
 20
0.196169912
 30
0.0
 40
0.004
  0
CIRCLE
  5
130
330
17
100
AcDbEntity
  8
0
100
AcDbCircle
 10
0.621653579
 20
0.505014928
 30
0.0
 40
0.004
  0
CIRCLE
  5
131
330
17
100
AcDbEntity
  8
0
100
AcDbCircle
 10
0.772469402
 20
0.127205888
 30
0.0
 40
0.004
  0
CIRCLE
  5
132
330
17
100
AcDbEntity
  8
0
100
AcDbCircle
 10
0.535224797
 20
0.502948945
 30
0.0
 40
0.004
  0
CIRCLE
  5
133
330
17
100
AcDbEntity
  8
0
100
AcDbCircle
 10
0.276435853
 20
0.168413282
 30
0.0
 40
0.004
  0
CIRCLE
  5
134
330
17
100
AcDbEntity
  8
0
100
AcDbCircle
 10
0.527431179
 20
0.511280321
 30
0.0
 40
0.004
  0
CIRCLE
  5
135
330
17
100
AcDbEntity
  8
0
100
AcDbCircle
 10
0.617218326
 20
0.471233321
 30
0.0
 40
0.004
  0
CIRCLE
  5
136
330
17
100
AcDbEntity
  8
0
100
AcDbCircle
 10
0.288671558
 20
0.184030526
 30
0.0
 40
0.004
  0
CIRCLE
  5
137
330
17
100
AcDbEntity
  8
0
100
AcDbCircle
 10
0.51340051
 20
0.137536793
 30
0.0
 40
0.004
  0
CIRCLE
  5
138
330
17
100
AcDbEntity
  8
0
100
AcDbCircle
 10
0.761930384
 20
0.12285065
 30
0.0
 40
0.004
  0
CIRCLE
  5
139
330
17
100
AcDbEntity
  8
0
100
AcDbCircle
 10
0.494957577
 20
0.226862477
 30
0.0
 40
0.004
  0
CIRCLE
  5
13A
330
17
100
AcDbEntity
  8
0
100
AcDbCircle
 10
0.663168814
 20
0.210882239
 30
0.0
 40
0.004
  0
CIRCLE
  5
13B
330
17
100
AcDbEntity
  8
0
100
AcDbCircle
 10
0.290414767
 20
0.282340072
 30
0.0
 40
0.004
  0
CIRCLE
  5
13C
330
17
100
AcDbEntity
  8
0
100
AcDbCircle
 10
0.629261332
 20
0.486914701
 30
0.0
 40
0.004
  0
CIRCLE
  5
13D
330
17
100
AcDbEntity
  8
0
100
AcDbCircle
 10
0.663924392
 20
0.447439378
 30
0.0
 40
0.004
  0
CIRCLE
  5
13E
330
17
100
AcDbEntity
  8
0
100
AcDbCircle
 10
0.722463516
 20
0.386660578
 30
0.0
 40
0.004
  0
CIRCLE
  5
13F
330
17
100
AcDbEntity
  8
0
100
AcDbCircle
 10
0.602302469
 20
0.357509369
 30
0.0
 40
0.004
  0
CIRCLE
  5
140
330
17
100
AcDbEntity
  8
0
100
AcDbCircle
 10
0.475927079
 20
0.0228758102
 30
0.0
 40
0.004
  0
CIRCLE
  5
141
330
17
100
AcDbEntity
  8
0
100
AcDbCircle
 10
0.774233812
 20
0.0112076712
 30
0.0
 40
0.004
  0
CIRCLE
  5
142
330
17
100
AcDbEntity
  8
0
100
AcDbCircle
 10
0.587485096
 20
0.579512027
 30
0.0
 40
0.004
  0
CIRCLE
  5
143
330
17
100
AcDbEntity
  8
0
100
AcDbCircle
 10
0.611405267
 20
0.350535802
 30
0.0
 40
0.004
  0
CIRCLE
  5
144
330
17
100
AcDbEntity
  8
0
100
AcDbCircle
 10
0.287032575
 20
0.172789942
 30
0.0
 40
0.004
  0
CIRCLE
  5
145
330
17
100
AcDbEntity
  8
0
100
AcDbCircle
 10
0.487338922
 20
0.245266072
 30
0.0
 40
0.004
  0
CIRCLE
  5
146
330
17
100
AcDbEntity
  8
0
100
AcDbCircle
 10
0.435048193
 20
0.0230386402
 30
0.0
 40
0.004
  0
CIRCLE
  5
147
330
17
100
AcDbEntity
  8
0
100
AcDbCircle
 10
0.576804533
 20
0.239396619
 30
0.0
 40
0.004
  0
CIRCLE
  5
148
330
17
100
AcDbEntity
  8
0
100
AcDbCircle
 10
0.274836234
 20
0.157110762
 30
0.0
 40
0.004
  0
CIRCLE
  5
149
330
17
100
AcDbEntity
  8
0
100
AcDbCircle
 10
0.728849876
 20
0.334762105
 30
0.0
 40
0.004
  0
CIRCLE
  5
14A
330
17
100
AcDbEntity
  8
0
100
AcDbCircle
 10
0.630931932
 20
0.42315192
 30
0.0
 40
0.004
  0
CIRCLE
  5
14B
330
17
100
AcDbEntity
  8
0
100
AcDbCircle
 10
0.35982067
 20
0.192281661
 30
0.0
 40
0.004
  0
CIRCLE
  5
14C
330
17
100
AcDbEntity
  8
0
100
AcDbCircle
 10
0.308212477
 20
0.181598595
 30
0.0
 40
0.004
  0
CIRCLE
  5
14D
330
17
100
AcDbEntity
  8
0
100
AcDbCircle
 10
0.525066092
 20
0.0488467712
 30
0.0
 40
0.004
  0
CIRCLE
  5
14E
330
17
100
AcDbEntity
  8
0
100
AcDbCircle
 10
0.358361101
 20
0.180898918
 30
0.0
 40
0.004
  0
CIRCLE
  5
14F
330
17
100
AcDbEntity
  8
0
100
AcDbCircle
 10
0.435046323
 20
0.0115068817
 30
0.0
 40
0.004
  0
CIRCLE
  5
150
330
17
100
AcDbEntity
  8
0
100
AcDbCircle
 10
0.654966484
 20
0.454587406
 30
0.0
 40
0.004
  0
CIRCLE
  5
151
330
17
100
AcDbEntity
  8
0
100
AcDbCircle
 10
0.299229206
 20
0.188455898
 30
0.0
 40
0.004
  0
CIRCLE
  5
152
330
17
100
AcDbEntity
  8
0
100
AcDbCircle
 10
0.7748818
 20
0.224931535
 30
0.0
 40
0.004
  0
CIRCLE
  5
153
330
17
100
AcDbEntity
  8
0
100
AcDbCircle
 10
0.273324062
 20
0.257030389
 30
0.0
 40
0.004
  0
CIRCLE
  5
154
330
17
100
AcDbEntity
  8
0
100
AcDbCircle
 10
0.511565877
 20
0.276853405
 30
0.0
 40
0.004
  0
CIRCLE
  5
155
330
17
100
AcDbEntity
  8
0
100
AcDbCircle
 10
0.657055904
 20
0.240566907
 30
0.0
 40
0.004
  0
CIRCLE
  5
156
330
17
100
AcDbEntity
  8
0
100
AcDbCircle
 10
0.570297398
 20
0.553055999
 30
0.0
 40
0.004
  0
CIRCLE
  5
157
330
17
100
AcDbEntity
  8
0
100
AcDbCircle
 10
0.248047908
 20
0.240020876
 30
0.0
 40
0.004
  0
CIRCLE
  5
158
330
17
100
AcDbEntity
  8
0
100
AcDbCircle
 10
0.627808785
 20
0.475611198
 30
0.0
 40
0.004
  0
CIRCLE
  5
159
330
17
100
AcDbEntity
  8
0
100
AcDbCircle
 10
0.268944088
 20
0.186495856
 30
0.0
 40
0.004
  0
CIRCLE
  5
15A
330
17
100
AcDbEntity
  8
0
100
AcDbCircle
 10
0.725487984
 20
0.15072238
 30
0.0
 40
0.004
  0
CIRCLE
  5
15B
330
17
100
AcDbEntity
  8
0
100
AcDbCircle
 10
0.506756238
 20
0.0425938395
 30
0.0
 40
0.004
  0
CIRCLE
  5
15C
330
17
100
AcDbEntity
  8
0
100
AcDbCircle
 10
0.717288857
 20
0.319242369
 30
0.0
 40
0.004
  0
CIRCLE
  5
15D
330
17
100
AcDbEntity
  8
0
100
AcDbCircle
 10
0.759295658
 20
0.261505924
 30
0.0
 40
0.004
  0
CIRCLE
  5
15E
330
17
100
AcDbEntity
  8
0
100
AcDbCircle
 10
0.30671201
 20
0.170235802
 30
0.0
 40
0.004
  0
CIRCLE
  5
15F
330
17
100
AcDbEntity
  8
0
100
AcDbCircle
 10
0.781262134
 20
0.195490057
 30
0.0
 40
0.004
  0
CIRCLE
  5
160
330
17
100
AcDbEntity
  8
0
100
AcDbCircle
 10
0.281486172
 20
0.24942684
 30
0.0
 40
0.004
  0
CIRCLE
  5
161
330
17
100
AcDbEntity
  8
0
100
AcDbCircle
 10
0.64111094
 20
0.502566543
 30
0.0
 40
0.004
  0
CIRCLE
  5
162
330
17
100
AcDbEntity
  8
0
100
AcDbCircle
 10
0.320261416
 20
0.197428132
 30
0.0
 40
0.004
  0
CIRCLE
  5
163
330
17
100
AcDbEntity
  8
0
100
AcDbCircle
 10
0.655557571
 20
0.229214385
 30
0.0
 40
0.004
  0
CIRCLE
  5
164
330
17
100
AcDbEntity
  8
0
100
AcDbCircle
 10
0.770709446
 20
0.190992555
 30
0.0
 40
0.004
  0
CIRCLE
  5
165
330
17
100
AcDbEntity
  8
0
100
AcDbCircle
 10
0.754307956
 20
0.0226841337
 30
0.0
 40
0.004
  0
CIRCLE
  5
166
330
17
100
AcDbEntity
  8
0
100
AcDbCircle
 10
0.612610606
 20
0.512073673
 30
0.0
 40
0.004
  0
CIRCLE
  5
167
330
17
100
AcDbEntity
  8
0
100
AcDbCircle
 10
0.627275364
 20
0.0881544057
 30
0.0
 40
0.004
  0
CIRCLE
  5
168
330
17
100
AcDbEntity
  8
0
100
AcDbCircle
 10
0.611247731
 20
0.42574949
 30
0.0
 40
0.004
  0
CIRCLE
  5
169
330
17
100
AcDbEntity
  8
0
100
AcDbCircle
 10
0.727574836
 20
0.323514373
 30
0.0
 40
0.004
  0
CIRCLE
  5
16A
330
17
100
AcDbEntity
  8
0
100
AcDbCircle
 10
0.300807048
 20
0.19976178
 30
0.0
 40
0.004
  0
CIRCLE
  5
16B
330
17
100
AcDbEntity
  8
0
100
AcDbCircle
 10
0.717841953
 20
0.169066124
 30
0.0
 40
0.004
  0
CIRCLE
  5
16C
330
17
100
AcDbEntity
  8
0
100
AcDbCircle
 10
0.639790749
 20
0.491386444
 30
0.0
 40
0.004
  0
CIRCLE
  5
16D
330
17
100
AcDbEntity
  8
0
100
AcDbCircle
 10
0.795202436
 20
0.0724583824
 30
0.0
 40
0.004
  0
CIRCLE
  5
16E
330
17
100
AcDbEntity
  8
0
100
AcDbCircle
 10
0.278941683
 20
0.239100918
 30
0.0
 40
0.004
  0
CIRCLE
  5
16F
330
17
100
AcDbEntity
  8
0
100
AcDbCircle
 10
0.371926347
 20
0.208108965
 30
0.0
 40
0.004
  0
CIRCLE
  5
170
330
17
100
AcDbEntity
  8
0
100
AcDbCircle
 10
0.345
 20
0.00577350269
 30
0.0
 40
0.004
  0
CIRCLE
  5
171
330
17
100
AcDbEntity
  8
0
100
AcDbCircle
 10
0.754642252
 20
0.0113200384
 30
0.0
 40
0.004
  0
CIRCLE
  5
172
330
17
100
AcDbEntity
  8
0
100
AcDbCircle
 10
0.79652418
 20
0.0838775472
 30
0.0
 40
0.004
  0
CIRCLE
  5
173
330
17
100
AcDbEntity
  8
0
100
AcDbCircle
 10
0.425231627
 20
0.0286985364
 30
0.0
 40
0.004
  0
CIRCLE
  5
174
330
17
100
AcDbEntity
  8
0
100
AcDbCircle
 10
0.799910964
 20
0.10632404
 30
0.0
 40
0.004
  0
CIRCLE
  5
175
330
17
100
AcDbEntity
  8
0
100
AcDbCircle
 10
0.276313076
 20
0.268152813
 30
0.0
 40
0.004
  0
CIRCLE
  5
176
330
17
100
AcDbEntity
  8
0
100
AcDbCircle
 10
0.478213406
 20
0.252265069
 30
0.0
 40
0.004
  0
CIRCLE
  5
177
330
17
100
AcDbEntity
  8
0
100
AcDbCircle
 10
0.458450835
 20
0.254844069
 30
0.0
 40
0.004
  0
CIRCLE
  5
178
330
17
100
AcDbEntity
  8
0
100
AcDbCircle
 10
0.65378413
 20
0.368061464
 30
0.0
 40
0.004
  0
CIRCLE
  5
179
330
17
100
AcDbEntity
  8
0
100
AcDbCircle
 10
0.425175901
 20
0.0402604723
 30
0.0
 40
0.004
  0
CIRCLE
  5
17A
330
17
100
AcDbEntity
  8
0
100
AcDbCircle
 10
0.794058449
 20
0.0117460028
 30
0.0
 40
0.004
  0
CIRCLE
  5
17B
330
17
100
AcDbEntity
  8
0
100
AcDbCircle
 10
0.660574999
 20
0.489240647
 30
0.0
 40
0.004
  0
CIRCLE
  5
17C
330
17
100
AcDbEntity
  8
0
100
AcDbCircle
 10
0.415366888
 20
0.0113097271
 30
0.0
 40
0.004
  0
CIRCLE
  5
17D
330
17
100
AcDbEntity
  8
0
100
AcDbCircle
 10
0.405315921
 20
0.00557366394
 30
0.0
 40
0.004
  0
CIRCLE
  5
17E
330
17
100
AcDbEntity
  8
0
100
AcDbCircle
 10
0.573865296
 20
0.564358211
 30
0.0
 40
0.004
  0
CIRCLE
  5
17F
330
17
100
AcDbEntity
  8
0
100
AcDbCircle
 10
0.710192219
 20
0.187415018
 30
0.0
 40
0.004
  0
CIRCLE
  5
180
330
17
100
AcDbEntity
  8
0
100
AcDbCircle
 10
0.340020787
 20
0.194856822
 30
0.0
 40
0.004
  0
CIRCLE
  5
181
330
17
100
AcDbEntity
  8
0
100
AcDbCircle
 10
0.32825354
 20
0.271184315
 30
0.0
 40
0.004
  0
CIRCLE
  5
182
330
17
100
AcDbEntity
  8
0
100
AcDbCircle
 10
0.804620868
 20
0.00619185311
 30
0.0
 40
0.004
  0
CIRCLE
  5
183
330
17
100
AcDbEntity
  8
0
100
AcDbCircle
 10
0.515798902
 20
0.386262375
 30
0.0
 40
0.004
  0
CIRCLE
  5
184
330
17
100
AcDbEntity
  8
0
100
AcDbCircle
 10
0.551475003
 20
0.120985381
 30
0.0
 40
0.004
  0
CIRCLE
  5
185
330
17
100
AcDbEntity
  8
0
100
AcDbCircle
 10
0.706042709
 20
0.0779595157
 30
0.0
 40
0.004
  0
CIRCLE
  5
186
330
17
100
AcDbEntity
  8
0
100
AcDbCircle
 10
0.71489206
 20
0.146317943
 30
0.0
 40
0.004
  0
CIRCLE
  5
187
330
17
100
AcDbEntity
  8
0
100
AcDbCircle
 10
0.777241376
 20
0.0862115876
 30
0.0
 40
0.004
  0
CIRCLE
  5
188
330
17
100
AcDbEntity
  8
0
100
AcDbCircle
 10
0.415545677
 20
0.0227404418
 30
0.0
 40
0.004
  0
CIRCLE
  5
189
330
17
100
AcDbEntity
  8
0
100
AcDbCircle
 10
0.338559916
 20
0.183447063
 30
0.0
 40
0.004
  0
CIRCLE
  5
18A
330
17
100
AcDbEntity
  8
0
100
AcDbCircle
 10
0.728266439
 20
0.248481916
 30
0.0
 40
0.004
  0
CIRCLE
  5
18B
330
17
100
AcDbEntity
  8
0
100
AcDbCircle
 10
0.635411666
 20
0.457276647
 30
0.0
 40
0.004
  0
CIRCLE
  5
18C
330
17
100
AcDbEntity
  8
0
100
AcDbCircle
 10
0.643449954
 20
0.213472113
 30
0.0
 40
0.004
  0
CIRCLE
  5
18D
330
17
100
AcDbEntity
  8
0
100
AcDbCircle
 10
0.801563243
 20
0.117408178
 30
0.0
 40
0.004
  0
CIRCLE
  5
18E
330
17
100
AcDbEntity
  8
0
100
AcDbCircle
 10
0.615730491
 20
0.459873014
 30
0.0
 40
0.004
  0
CIRCLE
  5
18F
330
17
100
AcDbEntity
  8
0
100
AcDbCircle
 10
0.455113235
 20
0.0230533407
 30
0.0
 40
0.004
  0
CIRCLE
  5
190
330
17
100
AcDbEntity
  8
0
100
AcDbCircle
 10
0.262176029
 20
0.254042619
 30
0.0
 40
0.004
  0
CIRCLE
  5
191
330
17
100
AcDbEntity
  8
0
100
AcDbCircle
 10
0.555039589
 20
0.539523233
 30
0.0
 40
0.004
  0
CIRCLE
  5
192
330
17
100
AcDbEntity
  8
0
100
AcDbCircle
 10
0.775816329
 20
0.0749977516
 30
0.0
 40
0.004
  0
CIRCLE
  5
193
330
17
100
AcDbEntity
  8
0
100
AcDbCircle
 10
0.716643109
 20
0.0823972577
 30
0.0
 40
0.004
  0
CIRCLE
  5
194
330
17
100
AcDbEntity
  8
0
100
AcDbCircle
 10
0.327957569
 20
0.179045242
 30
0.0
 40
0.004
  0
CIRCLE
  5
195
330
17
100
AcDbEntity
  8
0
100
AcDbCircle
 10
0.726962038
 20
0.162094487
 30
0.0
 40
0.004
  0
CIRCLE
  5
196
330
17
100
AcDbEntity
  8
0
100
AcDbCircle
 10
0.773713678
 20
0.213696737
 30
0.0
 40
0.004
  0
CIRCLE
  5
197
330
17
100
AcDbEntity
  8
0
100
AcDbCircle
 10
0.524929095
 20
0.379257764
 30
0.0
 40
0.004
  0
CIRCLE
  5
198
330
17
100
AcDbEntity
  8
0
100
AcDbCircle
 10
0.670791249
 20
0.192543007
 30
0.0
 40
0.004
  0
CIRCLE
  5
199
330
17
100
AcDbEntity
  8
0
100
AcDbCircle
 10
0.316498904
 20
0.0648564145
 30
0.0
 40
0.004
  0
CIRCLE
  5
19A
330
17
100
AcDbEntity
  8
0
100
AcDbCircle
 10
0.612741965
 20
0.437123679
 30
0.0
 40
0.004
  0
CIRCLE
  5
19B
330
17
100
AcDbEntity
  8
0
100
AcDbCircle
 10
0.558581993
 20
0.55084768
 30
0.0
 40
0.004
  0
CIRCLE
  5
19C
330
17
100
AcDbEntity
  8
0
100
AcDbCircle
 10
0.693232644
 20
0.287776812
 30
0.0
 40
0.004
  0
CIRCLE
  5
19D
330
17
100
AcDbEntity
  8
0
100
AcDbCircle
 10
0.745188563
 20
0.148157508
 30
0.0
 40
0.004
  0
CIRCLE
  5
19E
330
17
100
AcDbEntity
  8
0
100
AcDbCircle
 10
0.624826208
 20
0.452888622
 30
0.0
 40
0.004
  0
CIRCLE
  5
19F
330
17
100
AcDbEntity
  8
0
100
AcDbCircle
 10
0.632848504
 20
0.209078308
 30
0.0
 40
0.004
  0
CIRCLE
  5
1A0
330
17
100
AcDbEntity
  8
0
100
AcDbCircle
 10
0.647483993
 20
0.473019182
 30
0.0
 40
0.004
  0
CIRCLE
  5
1A1
330
17
100
AcDbEntity
  8
0
100
AcDbCircle
 10
0.541166331
 20
0.52542238
 30
0.0
 40
0.004
  0
CIRCLE
  5
1A2
330
17
100
AcDbEntity
  8
0
100
AcDbCircle
 10
0.733126665
 20
0.132377356
 30
0.0
 40
0.004
  0
CIRCLE
  5
1A3
330
17
100
AcDbEntity
  8
0
100
AcDbCircle
 10
0.757241362
 20
0.1639197
 30
0.0
 40
0.004
  0
CIRCLE
  5
1A4
330
17
100
AcDbEntity
  8
0
100
AcDbCircle
 10
0.6069313
 20
0.316390939
 30
0.0
 40
0.004
  0
CIRCLE
  5
1A5
330
17
100
AcDbEntity
  8
0
100
AcDbCircle
 10
0.699608463
 20
0.183006066
 30
0.0
 40
0.004
  0
CIRCLE
  5
1A6
330
17
100
AcDbEntity
  8
0
100
AcDbCircle
 10
0.769235047
 20
0.179646252
 30
0.0
 40
0.004
  0
CIRCLE
  5
1A7
330
17
100
AcDbEntity
  8
0
100
AcDbCircle
 10
0.63640784
 20
0.0213907813
 30
0.0
 40
0.004
  0
CIRCLE
  5
1A8
330
17
100
AcDbEntity
  8
0
100
AcDbCircle
 10
0.703795567
 20
0.292170483
 30
0.0
 40
0.004
  0
CIRCLE
  5
1A9
330
17
100
AcDbEntity
  8
0
100
AcDbCircle
 10
0.615109142
 20
0.523869587
 30
0.0
 40
0.004
  0
CIRCLE
  5
1AA
330
17
100
AcDbEntity
  8
0
100
AcDbCircle
 10
0.739031264
 20
0.177844958
 30
0.0
 40
0.004
  0
CIRCLE
  5
1AB
330
17
100
AcDbEntity
  8
0
100
AcDbCircle
 10
0.467584309
 20
0.247850064
 30
0.0
 40
0.004
  0
CIRCLE
  5
1AC
330
17
100
AcDbEntity
  8
0
100
AcDbCircle
 10
0.287420664
 20
0.271185707
 30
0.0
 40
0.004
  0
CIRCLE
  5
1AD
330
17
100
AcDbEntity
  8
0
100
AcDbCircle
 10
0.364276601
 20
0.226539832
 30
0.0
 40
0.004
  0
CIRCLE
  5
1AE
330
17
100
AcDbEntity
  8
0
100
AcDbCircle
 10
0.795701942
 20
0.158805823
 30
0.0
 40
0.004
  0
CIRCLE
  5
1AF
330
17
100
AcDbEntity
  8
0
100
AcDbCircle
 10
0.737554561
 20
0.166486412
 30
0.0
 40
0.004
  0
CIRCLE
  5
1B0
330
17
100
AcDbEntity
  8
0
100
AcDbCircle
 10
0.73460377
 20
0.143751093
 30
0.0
 40
0.004
  0
CIRCLE
  5
1B1
330
17
100
AcDbEntity
  8
0
100
AcDbCircle
 10
0.644500024
 20
0.450295184
 30
0.0
 40
0.004
  0
CIRCLE
  5
1B2
330
17
100
AcDbEntity
  8
0
100
AcDbCircle
 10
0.708211885
 20
0.32619509
 30
0.0
 40
0.004
  0
CIRCLE
  5
1B3
330
17
100
AcDbEntity
  8
0
100
AcDbCircle
 10
0.669710045
 20
0.481668734
 30
0.0
 40
0.004
  0
CIRCLE
  5
1B4
330
17
100
AcDbEntity
  8
0
100
AcDbCircle
 10
0.626463042
 20
0.389056746
 30
0.0
 40
0.004
  0
CIRCLE
  5
1B5
330
17
100
AcDbEntity
  8
0
100
AcDbCircle
 10
0.782788935
 20
0.206851255
 30
0.0
 40
0.004
  0
CIRCLE
  5
1B6
330
17
100
AcDbEntity
  8
0
100
AcDbCircle
 10
0.760473254
 20
0.111483197
 30
0.0
 40
0.004
  0
CIRCLE
  5
1B7
330
17
100
AcDbEntity
  8
0
100
AcDbCircle
 10
0.356736906
 20
0.0762999092
 30
0.0
 40
0.004
  0
CIRCLE
  5
1B8
330
17
100
AcDbEntity
  8
0
100
AcDbCircle
 10
0.726799899
 20
0.237134038
 30
0.0
 40
0.004
  0
CIRCLE
  5
1B9
330
17
100
AcDbEntity
  8
0
100
AcDbCircle
 10
0.776861215
 20
0.16134904
 30
0.0
 40
0.004
  0
CIRCLE
  5
1BA
330
17
100
AcDbEntity
  8
0
100
AcDbCircle
 10
0.623331983
 20
0.44151407
 30
0.0
 40
0.004
  0
CIRCLE
  5
1BB
330
17
100
AcDbEntity
  8
0
100
AcDbCircle
 10
0.652564933
 20
0.206492098
 30
0.0
 40
0.004
  0
CIRCLE
  5
1BC
330
17
100
AcDbEntity
  8
0
100
AcDbCircle
 10
0.5305666
 20
0.522604691
 30
0.0
 40
0.004
  0
CIRCLE
  5
1BD
330
17
100
AcDbEntity
  8
0
100
AcDbCircle
 10
0.746665301
 20
0.15952072
 30
0.0
 40
0.004
  0
CIRCLE
  5
1BE
330
17
100
AcDbEntity
  8
0
100
AcDbCircle
 10
0.713670963
 20
0.371373143
 30
0.0
 40
0.004
  0
CIRCLE
  5
1BF
330
17
100
AcDbEntity
  8
0
100
AcDbCircle
 10
0.69813396
 20
0.17163382
 30
0.0
 40
0.004
  0
CIRCLE
  5
1C0
330
17
100
AcDbEntity
  8
0
100
AcDbCircle
 10
0.689867358
 20
0.414804979
 30
0.0
 40
0.004
  0
CIRCLE
  5
1C1
330
17
100
AcDbEntity
  8
0
100
AcDbCircle
 10
0.591705203
 20
0.353103898
 30
0.0
 40
0.004
  0
CIRCLE
  5
1C2
330
17
100
AcDbEntity
  8
0
100
AcDbCircle
 10
0.330881058
 20
0.201860929
 30
0.0
 40
0.004
  0
CIRCLE
  5
1C3
330
17
100
AcDbEntity
  8
0
100
AcDbCircle
 10
0.599318252
 20
0.33474723
 30
0.0
 40
0.004
  0
CIRCLE
  5
1C4
330
17
100
AcDbEntity
  8
0
100
AcDbCircle
 10
0.465918128
 20
0.0290837634
 30
0.0
 40
0.004
  0
CIRCLE
  5
1C5
330
17
100
AcDbEntity
  8
0
100
AcDbCircle
 10
0.532543673
 20
0.360861353
 30
0.0
 40
0.004
  0
CIRCLE
  5
1C6
330
17
100
AcDbEntity
  8
0
100
AcDbCircle
 10
0.606773086
 20
0.391637478
 30
0.0
 40
0.004
  0
CIRCLE
  5
1C7
330
17
100
AcDbEntity
  8
0
100
AcDbCircle
 10
0.615875703
 20
0.384663875
 30
0.0
 40
0.004
  0
CIRCLE
  5
1C8
330
17
100
AcDbEntity
  8
0
100
AcDbCircle
 10
0.648915788
 20
0.484463208
 30
0.0
 40
0.004
  0
CIRCLE
  5
1C9
330
17
100
AcDbEntity
  8
0
100
AcDbCircle
 10
0.443447143
 20
0.427696003
 30
0.0
 40
0.004
  0
CIRCLE
  5
1CA
330
17
100
AcDbEntity
  8
0
100
AcDbCircle
 10
0.366524331
 20
0.0932466739
 30
0.0
 40
0.004
  0
CIRCLE
  5
1CB
330
17
100
AcDbEntity
  8
0
100
AcDbCircle
 10
0.646151916
 20
0.38643814
 30
0.0
 40
0.004
  0
CIRCLE
  5
1CC
330
17
100
AcDbEntity
  8
0
100
AcDbCircle
 10
0.80524867
 20
0.0656876291
 30
0.0
 40
0.004
  0
CIRCLE
  5
1CD
330
17
100
AcDbEntity
  8
0
100
AcDbCircle
 10
0.764796231
 20
0.00565352153
 30
0.0
 40
0.004
  0
CIRCLE
  5
1CE
330
17
100
AcDbEntity
  8
0
100
AcDbCircle
 10
0.758717925
 20
0.175272597
 30
0.0
 40
0.004
  0
CIRCLE
  5
1CF
330
17
100
AcDbEntity
  8
0
100
AcDbCircle
 10
0.529559239
 20
0.413375668
 30
0.0
 40
0.004
  0
CIRCLE
  5
1D0
330
17
100
AcDbEntity
  8
0
100
AcDbCircle
 10
0.426563295
 20
0.241591542
 30
0.0
 40
0.004
  0
CIRCLE
  5
1D1
330
17
100
AcDbEntity
  8
0
100
AcDbCircle
 10
0.707249633
 20
0.164666472
 30
0.0
 40
0.004
  0
CIRCLE
  5
1D2
330
17
100
AcDbEntity
  8
0
100
AcDbCircle
 10
0.67025844
 20
0.417948842
 30
0.0
 40
0.004
  0
CIRCLE
  5
1D3
330
17
100
AcDbEntity
  8
0
100
AcDbCircle
 10
0.459945587
 20
0.266253738
 30
0.0
 40
0.004
  0
CIRCLE
  5
1D4
330
17
100
AcDbEntity
  8
0
100
AcDbCircle
 10
0.635461726
 20
0.0106715249
 30
0.0
 40
0.004
  0
CIRCLE
  5
1D5
330
17
100
AcDbEntity
  8
0
100
AcDbCircle
 10
0.65821036
 20
0.402164577
 30
0.0
 40
0.004
  0
CIRCLE
  5
1D6
330
17
100
AcDbEntity
  8
0
100
AcDbCircle
 10
0.362773451
 20
0.215140332
 30
0.0
 40
0.004
  0
CIRCLE
  5
1D7
330
17
100
AcDbEntity
  8
0
100
AcDbCircle
 10
0.705773794
 20
0.153290397
 30
0.0
 40
0.004
  0
CIRCLE
  5
1D8
330
17
100
AcDbEntity
  8
0
100
AcDbCircle
 10
0.761672284
 20
0.19796779
 30
0.0
 40
0.004
  0
CIRCLE
  5
1D9
330
17
100
AcDbEntity
  8
0
100
AcDbCircle
 10
0.765800763
 20
0.231905026
 30
0.0
 40
0.004
  0
CIRCLE
  5
1DA
330
17
100
AcDbEntity
  8
0
100
AcDbCircle
 10
0.778281821
 20
0.172675705
 30
0.0
 40
0.004
  0
CIRCLE
  5
1DB
330
17
100
AcDbEntity
  8
0
100
AcDbCircle
 10
0.600549762
 20
0.496588255
 30
0.0
 40
0.004
  0
CIRCLE
  5
1DC
330
17
100
AcDbEntity
  8
0
100
AcDbCircle
 10
0.516588063
 20
0.508399114
 30
0.0
 40
0.004
  0
CIRCLE
  5
1DD
330
17
100
AcDbEntity
  8
0
100
AcDbCircle
 10
0.635565469
 20
0.382076425
 30
0.0
 40
0.004
  0
CIRCLE
  5
1DE
330
17
100
AcDbEntity
  8
0
100
AcDbCircle
 10
0.523420832
 20
0.36786066
 30
0.0
 40
0.004
  0
CIRCLE
  5
1DF
330
17
100
AcDbEntity
  8
0
100
AcDbCircle
 10
0.608121606
 20
0.47822015
 30
0.0
 40
0.004
  0
CIRCLE
  5
1E0
330
17
100
AcDbEntity
  8
0
100
AcDbCircle
 10
0.742240428
 20
0.125412791
 30
0.0
 40
0.004
  0
CIRCLE
  5
1E1
330
17
100
AcDbEntity
  8
0
100
AcDbCircle
 10
0.597827817
 20
0.323367128
 30
0.0
 40
0.004
  0
CIRCLE
  5
1E2
330
17
100
AcDbEntity
  8
0
100
AcDbCircle
 10
0.789120726
 20
0.102059988
 30
0.0
 40
0.004
  0
CIRCLE
  5
1E3
330
17
100
AcDbEntity
  8
0
100
AcDbCircle
 10
0.376381996
 20
0.0991365979
 30
0.0
 40
0.004
  0
CIRCLE
  5
1E4
330
17
100
AcDbEntity
  8
0
100
AcDbCircle
 10
0.590213008
 20
0.341724702
 30
0.0
 40
0.004
  0
CIRCLE
  5
1E5
330
17
100
AcDbEntity
  8
0
100
AcDbCircle
 10
0.784942617
 20
0.0680670301
 30
0.0
 40
0.004
  0
CIRCLE
  5
1E6
330
17
100
AcDbEntity
  8
0
100
AcDbCircle
 10
0.705
 20
0.00577350269
 30
0.0
 40
0.004
  0
CIRCLE
  5
1E7
330
17
100
AcDbEntity
  8
0
100
AcDbCircle
 10
0.732093392
 20
0.35752503
 30
0.0
 40
0.004
  0
CIRCLE
  5
1E8
330
17
100
AcDbEntity
  8
0
100
AcDbCircle
 10
0.304600316
 20
0.296419783
 30
0.0
 40
0.004
  0
CIRCLE
  5
1E9
330
17
100
AcDbEntity
  8
0
100
AcDbCircle
 10
0.744846021
 20
0.00566651685
 30
0.0
 40
0.004
  0
CIRCLE
  5
1EA
330
17
100
AcDbEntity
  8
0
100
AcDbCircle
 10
0.679212554
 20
0.410883622
 30
0.0
 40
0.004
  0
CIRCLE
  5
1EB
330
17
100
AcDbEntity
  8
0
100
AcDbCircle
 10
0.785684447
 20
0.154274134
 30
0.0
 40
0.004
  0
CIRCLE
  5
1EC
330
17
100
AcDbEntity
  8
0
100
AcDbCircle
 10
0.434981851
 20
0.0461331053
 30
0.0
 40
0.004
  0
CIRCLE
  5
1ED
330
17
100
AcDbEntity
  8
0
100
AcDbCircle
 10
0.712674918
 20
0.360185245
 30
0.0
 40
0.004
  0
CIRCLE
  5
1EE
330
17
100
AcDbEntity
  8
0
100
AcDbCircle
 10
0.672279155
 20
0.203910217
 30
0.0
 40
0.004
  0
CIRCLE
  5
1EF
330
17
100
AcDbEntity
  8
0
100
AcDbCircle
 10
0.594687892
 20
0.375862842
 30
0.0
 40
0.004
  0
CIRCLE
  5
1F0
330
17
100
AcDbEntity
  8
0
100
AcDbCircle
 10
0.279677932
 20
0.190782271
 30
0.0
 40
0.004
  0
CIRCLE
  5
1F1
330
17
100
AcDbEntity
  8
0
100
AcDbCircle
 10
0.444995355
 20
0.00577081848
 30
0.0
 40
0.004
  0
CIRCLE
  5
1F2
330
17
100
AcDbEntity
  8
0
100
AcDbCircle
 10
0.507074836
 20
0.242663248
 30
0.0
 40
0.004
  0
CIRCLE
  5
1F3
330
17
100
AcDbEntity
  8
0
100
AcDbCircle
 10
0.691769856
 20
0.425729569
 30
0.0
 40
0.004
  0
CIRCLE
  5
1F4
330
17
100
AcDbEntity
  8
0
100
AcDbCircle
 10
0.711436081
 20
0.273835465
 30
0.0
 40
0.004
  0
CIRCLE
  5
1F5
330
17
100
AcDbEntity
  8
0
100
AcDbCircle
 10
0.711667235
 20
0.198779402
 30
0.0
 40
0.004
  0
CIRCLE
  5
1F6
330
17
100
AcDbEntity
  8
0
100
AcDbCircle
 10
0.713416318
 20
0.134935314
 30
0.0
 40
0.004
  0
CIRCLE
  5
1F7
330
17
100
AcDbEntity
  8
0
100
AcDbCircle
 10
0.70449437
 20
0.378326655
 30
0.0
 40
0.004
  0
CIRCLE
  5
1F8
330
17
100
AcDbEntity
  8
0
100
AcDbCircle
 10
0.517347672
 20
0.397636188
 30
0.0
 40
0.004
  0
CIRCLE
  5
1F9
330
17
100
AcDbEntity
  8
0
100
AcDbCircle
 10
0.763149717
 20
0.209310774
 30
0.0
 40
0.004
  0
CIRCLE
  5
1FA
330
17
100
AcDbEntity
  8
0
100
AcDbCircle
 10
0.766337878
 20
0.156966691
 30
0.0
 40
0.004
  0
CIRCLE
  5
1FB
330
17
100
AcDbEntity
  8
0
100
AcDbCircle
 10
0.746999865
 20
0.320757722
 30
0.0
 40
0.004
  0
CIRCLE
  5
1FC
330
17
100
AcDbEntity
  8
0
100
AcDbCircle
 10
0.48866564
 20
0.479481482
 30
0.0
 40
0.004
  0
CIRCLE
  5
1FD
330
17
100
AcDbEntity
  8
0
100
AcDbCircle
 10
0.735268328
 20
0.305264066
 30
0.0
 40
0.004
  0
CIRCLE
  5
1FE
330
17
100
AcDbEntity
  8
0
100
AcDbCircle
 10
0.664482451
 20
0.297303697
 30
0.0
 40
0.004
  0
CIRCLE
  5
1FF
330
17
100
AcDbEntity
  8
0
100
AcDbCircle
 10
0.350648152
 20
0.199269477
 30
0.0
 40
0.004
  0
CIRCLE
  5
200
330
17
100
AcDbEntity
  8
0
100
AcDbCircle
 10
0.684143073
 20
0.294735272
 30
0.0
 40
0.004
  0
CIRCLE
  5
201
330
17
100
AcDbEntity
  8
0
100
AcDbCircle
 10
0.605445236
 20
0.30501572
 30
0.0
 40
0.004
  0
CIRCLE
  5
202
330
17
100
AcDbEntity
  8
0
100
AcDbCircle
 10
0.332359811
 20
0.213322633
 30
0.0
 40
0.004
  0
CIRCLE
  5
203
330
17
100
AcDbEntity
  8
0
100
AcDbCircle
 10
0.318798798
 20
0.186022204
 30
0.0
 40
0.004
  0
CIRCLE
  5
204
330
17
100
AcDbEntity
  8
0
100
AcDbCircle
 10
0.394686789
 20
0.228324067
 30
0.0
 40
0.004
  0
CIRCLE
  5
205
330
17
100
AcDbEntity
  8
0
100
AcDbCircle
 10
0.661373262
 20
0.34971879
 30
0.0
 40
0.004
  0
CIRCLE
  5
206
330
17
100
AcDbEntity
  8
0
100
AcDbCircle
 10
0.644812708
 20
0.299872836
 30
0.0
 40
0.004
  0
CIRCLE
  5
207
330
17
100
AcDbEntity
  8
0
100
AcDbCircle
 10
0.611958936
 20
0.124924138
 30
0.0
 40
0.004
  0
CIRCLE
  5
208
330
17
100
AcDbEntity
  8
0
100
AcDbCircle
 10
0.540881574
 20
0.116523971
 30
0.0
 40
0.004
  0
CIRCLE
  5
209
330
17
100
AcDbEntity
  8
0
100
AcDbCircle
 10
0.366632652
 20
0.0822158107
 30
0.0
 40
0.004
  0
CIRCLE
  5
20A
330
17
100
AcDbEntity
  8
0
100
AcDbCircle
 10
0.715830294
 20
0.307907679
 30
0.0
 40
0.004
  0
CIRCLE
  5
20B
330
17
100
AcDbEntity
  8
0
100
AcDbCircle
 10
0.631364232
 20
0.197698245
 30
0.0
 40
0.004
  0
CIRCLE
  5
20C
330
17
100
AcDbEntity
  8
0
100
AcDbCircle
 10
0.593368088
 20
0.289240403
 30
0.0
 40
0.004
  0
CIRCLE
  5
20D
330
17
100
AcDbEntity
  8
0
100
AcDbCircle
 10
0.625133186
 20
0.30244319
 30
0.0
 40
0.004
  0
CIRCLE
  5
20E
330
17
100
AcDbEntity
  8
0
100
AcDbCircle
 10
0.608263344
 20
0.403007947
 30
0.0
 40
0.004
  0
CIRCLE
  5
20F
330
17
100
AcDbEntity
  8
0
100
AcDbCircle
 10
0.603643245
 20
0.444106552
 30
0.0
 40
0.004
  0
CIRCLE
  5
210
330
17
100
AcDbEntity
  8
0
100
AcDbCircle
 10
0.696189527
 20
0.31047088
 30
0.0
 40
0.004
  0
CIRCLE
  5
211
330
17
100
AcDbEntity
  8
0
100
AcDbCircle
 10
0.43526506
 20
0.0574897315
 30
0.0
 40
0.004
  0
CIRCLE
  5
212
330
17
100
AcDbEntity
  8
0
100
AcDbCircle
 10
0.44915774
 20
0.337292106
 30
0.0
 40
0.004
  0
CIRCLE
  5
213
330
17
100
AcDbEntity
  8
0
100
AcDbCircle
 10
0.342984457
 20
0.217781001
 30
0.0
 40
0.004
  0
CIRCLE
  5
214
330
17
100
AcDbEntity
  8
0
100
AcDbCircle
 10
0.436166144
 20
0.0800846217
 30
0.0
 40
0.004
  0
CIRCLE
  5
215
330
17
100
AcDbEntity
  8
0
100
AcDbCircle
 10
0.762136832
 20
0.284249806
 30
0.0
 40
0.004
  0
CIRCLE
  5
216
330
17
100
AcDbEntity
  8
0
100
AcDbCircle
 10
0.625243619
 20
0.22741879
 30
0.0
 40
0.004
  0
CIRCLE
  5
217
330
17
100
AcDbEntity
  8
0
100
AcDbCircle
 10
0.435701954
 20
0.234599243
 30
0.0
 40
0.004
  0
CIRCLE
  5
218
330
17
100
AcDbEntity
  8
0
100
AcDbCircle
 10
0.699395287
 20
0.258098955
 30
0.0
 40
0.004
  0
CIRCLE
  5
219
330
17
100
AcDbEntity
  8
0
100
AcDbCircle
 10
0.784437581
 20
0.00555414968
 30
0.0
 40
0.004
  0
CIRCLE
  5
21A
330
17
100
AcDbEntity
  8
0
100
AcDbCircle
 10
0.70064187
 20
0.344493778
 30
0.0
 40
0.004
  0
CIRCLE
  5
21B
330
17
100
AcDbEntity
  8
0
100
AcDbCircle
 10
0.602056057
 20
0.507963674
 30
0.0
 40
0.004
  0
CIRCLE
  5
21C
330
17
100
AcDbEntity
  8
0
100
AcDbCircle
 10
0.636906408
 20
0.468638916
 30
0.0
 40
0.004
  0
CIRCLE
  5
21D
330
17
100
AcDbEntity
  8
0
100
AcDbCircle
 10
0.623741826
 20
0.216050801
 30
0.0
 40
0.004
  0
CIRCLE
  5
21E
330
17
100
AcDbEntity
  8
0
100
AcDbCircle
 10
0.691754219
 20
0.276427934
 30
0.0
 40
0.004
  0
CIRCLE
  5
21F
330
17
100
AcDbEntity
  8
0
100
AcDbCircle
 10
0.752816546
 20
0.129814497
 30
0.0
 40
0.004
  0
CIRCLE
  5
220
330
17
100
AcDbEntity
  8
0
100
AcDbCircle
 10
0.656455711
 20
0.465949135
 30
0.0
 40
0.004
  0
CIRCLE
  5
221
330
17
100
AcDbEntity
  8
0
100
AcDbCircle
 10
0.713780858
 20
0.0595243242
 30
0.0
 40
0.004
  0
CIRCLE
  5
222
330
17
100
AcDbEntity
  8
0
100
AcDbCircle
 10
0.521106278
 20
0.119095768
 30
0.0
 40
0.004
  0
CIRCLE
  5
223
330
17
100
AcDbEntity
  8
0
100
AcDbCircle
 10
0.647634052
 20
0.397798355
 30
0.0
 40
0.004
  0
CIRCLE
  5
224
330
17
100
AcDbEntity
  8
0
100
AcDbCircle
 10
0.560637067
 20
0.113982041
 30
0.0
 40
0.004
  0
CIRCLE
  5
225
330
17
100
AcDbEntity
  8
0
100
AcDbCircle
 10
0.475126832
 20
0.0110745691
 30
0.0
 40
0.004
  0
CIRCLE
  5
226
330
17
100
AcDbEntity
  8
0
100
AcDbCircle
 10
0.721543236
 20
0.353143626
 30
0.0
 40
0.004
  0
CIRCLE
  5
227
330
17
100
AcDbEntity
  8
0
100
AcDbCircle
 10
0.457257276
 20
0.441365614
 30
0.0
 40
0.004
  0
CIRCLE
  5
228
330
17
100
AcDbEntity
  8
0
100
AcDbCircle
 10
0.472069592
 20
0.282077314
 30
0.0
 40
0.004
  0
CIRCLE
  5
229
330
17
100
AcDbEntity
  8
0
100
AcDbCircle
 10
0.460166357
 20
0.452001391
 30
0.0
 40
0.004
  0
CIRCLE
  5
22A
330
17
100
AcDbEntity
  8
0
100
AcDbCircle
 10
0.396172635
 20
0.23974051
 30
0.0
 40
0.004
  0
CIRCLE
  5
22B
330
17
100
AcDbEntity
  8
0
100
AcDbCircle
 10
0.659690878
 20
0.413552387
 30
0.0
 40
0.004
  0
CIRCLE
  5
22C
330
17
100
AcDbEntity
  8
0
100
AcDbCircle
 10
0.700864899
 20
0.269455233
 30
0.0
 40
0.004
  0
CIRCLE
  5
22D
330
17
100
AcDbEntity
  8
0
100
AcDbCircle
 10
0.614548398
 20
0.298044507
 30
0.0
 40
0.004
  0
CIRCLE
  5
22E
330
17
100
AcDbEntity
  8
0
100
AcDbCircle
 10
0.425050968
 20
0.0057360632
 30
0.0
 40
0.004
  0
CIRCLE
  5
22F
330
17
100
AcDbEntity
  8
0
100
AcDbCircle
 10
0.491827341
 20
0.279477553
 30
0.0
 40
0.004
  0
CIRCLE
  5
230
330
17
100
AcDbEntity
  8
0
100
AcDbCircle
 10
0.653907871
 20
0.292911041
 30
0.0
 40
0.004
  0
CIRCLE
  5
231
330
17
100
AcDbEntity
  8
0
100
AcDbCircle
 10
0.444985066
 20
0.0288439554
 30
0.0
 40
0.004
  0
CIRCLE
  5
232
330
17
100
AcDbEntity
  8
0
100
AcDbCircle
 10
0.590397738
 20
0.266523661
 30
0.0
 40
0.004
  0
CIRCLE
  5
233
330
17
100
AcDbEntity
  8
0
100
AcDbCircle
 10
0.444974451
 20
0.0403764846
 30
0.0
 40
0.004
  0
CIRCLE
  5
234
330
17
100
AcDbEntity
  8
0
100
AcDbCircle
 10
0.40382333
 20
0.221343955
 30
0.0
 40
0.004
  0
CIRCLE
  5
235
330
17
100
AcDbEntity
  8
0
100
AcDbCircle
 10
0.634232409
 20
0.295476991
 30
0.0
 40
0.004
  0
CIRCLE
  5
236
330
17
100
AcDbEntity
  8
0
100
AcDbCircle
 10
0.673573634
 20
0.290344259
 30
0.0
 40
0.004
  0
CIRCLE
  5
237
330
17
100
AcDbEntity
  8
0
100
AcDbCircle
 10
0.544465351
 20
0.536683309
 30
0.0
 40
0.004
  0
CIRCLE
  5
238
330
17
100
AcDbEntity
  8
0
100
AcDbCircle
 10
0.520782166
 20
0.420126325
 30
0.0
 40
0.004
  0
CIRCLE
  5
239
330
17
100
AcDbEntity
  8
0
100
AcDbCircle
 10
0.620175338
 20
0.493913956
 30
0.0
 40
0.004
  0
CIRCLE
  5
23A
330
17
100
AcDbEntity
  8
0
100
AcDbCircle
 10
0.744116756
 20
0.298223348
 30
0.0
 40
0.004
  0
CIRCLE
  5
23B
330
17
100
AcDbEntity
  8
0
100
AcDbCircle
 10
0.736477046
 20
0.316485758
 30
0.0
 40
0.004
  0
CIRCLE
  5
23C
330
17
100
AcDbEntity
  8
0
100
AcDbCircle
 10
0.705271436
 20
0.303518201
 30
0.0
 40
0.004
  0
CIRCLE
  5
23D
330
17
100
AcDbEntity
  8
0
100
AcDbCircle
 10
0.581285026
 20
0.273473513
 30
0.0
 40
0.004
  0
CIRCLE
  5
23E
330
17
100
AcDbEntity
  8
0
100
AcDbCircle
 10
0.617521798
 20
0.320794855
 30
0.0
 40
0.004
  0
CIRCLE
  5
23F
330
17
100
AcDbEntity
  8
0
100
AcDbCircle
 10
0.724907554
 20
0.300957991
 30
0.0
 40
0.004
  0
CIRCLE
  5
240
330
17
100
AcDbEntity
  8
0
100
AcDbCircle
 10
0.613065849
 20
0.286686505
 30
0.0
 40
0.004
  0
CIRCLE
  5
241
330
17
100
AcDbEntity
  8
0
100
AcDbCircle
 10
0.569192738
 20
0.257702186
 30
0.0
 40
0.004
  0
CIRCLE
  5
242
330
17
100
AcDbEntity
  8
0
100
AcDbCircle
 10
0.702125565
 20
0.355830408
 30
0.0
 40
0.004
  0
CIRCLE
  5
243
330
17
100
AcDbEntity
  8
0
100
AcDbCircle
 10
0.704041666
 20
0.217093232
 30
0.0
 40
0.004
  0
CIRCLE
  5
244
330
17
100
AcDbEntity
  8
0
100
AcDbCircle
 10
0.722535137
 20
0.127966014
 30
0.0
 40
0.004
  0
CIRCLE
  5
245
330
17
100
AcDbEntity
  8
0
100
AcDbCircle
 10
0.374925657
 20
0.230900017
 30
0.0
 40
0.004
  0
CIRCLE
  5
246
330
17
100
AcDbEntity
  8
0
100
AcDbCircle
 10
0.499460354
 20
0.261076747
 30
0.0
 40
0.004
  0
CIRCLE
  5
247
330
17
100
AcDbEntity
  8
0
100
AcDbCircle
 10
0.531715787
 20
0.12353904
 30
0.0
 40
0.004
  0
CIRCLE
  5
248
330
17
100
AcDbEntity
  8
0
100
AcDbCircle
 10
0.582595626
 20
0.360081177
 30
0.0
 40
0.004
  0
CIRCLE
  5
249
330
17
100
AcDbEntity
  8
0
100
AcDbCircle
 10
0.311252937
 20
0.204310405
 30
0.0
 40
0.004
  0
CIRCLE
  5
24A
330
17
100
AcDbEntity
  8
0
100
AcDbCircle
 10
0.697671413
 20
0.321813079
 30
0.0
 40
0.004
  0
CIRCLE
  5
24B
330
17
100
AcDbEntity
  8
0
100
AcDbCircle
 10
0.600993467
 20
0.270932165
 30
0.0
 40
0.004
  0
CIRCLE
  5
24C
330
17
100
AcDbEntity
  8
0
100
AcDbCircle
 10
0.702562216
 20
0.20573644
 30
0.0
 40
0.004
  0
CIRCLE
  5
24D
330
17
100
AcDbEntity
  8
0
100
AcDbCircle
 10
0.482696257
 20
0.286480192
 30
0.0
 40
0.004
  0
CIRCLE
  5
24E
330
17
100
AcDbEntity
  8
0
100
AcDbCircle
 10
0.664661661
 20
0.222242734
 30
0.0
 40
0.004
  0
CIRCLE
  5
24F
330
17
100
AcDbEntity
  8
0
100
AcDbCircle
 10
0.596177936
 20
0.387241776
 30
0.0
 40
0.004
  0
CIRCLE
  5
250
330
17
100
AcDbEntity
  8
0
100
AcDbCircle
 10
0.605137546
 20
0.455481335
 30
0.0
 40
0.004
  0
CIRCLE
  5
251
330
17
100
AcDbEntity
  8
0
100
AcDbCircle
 10
0.557099174
 20
0.241904824
 30
0.0
 40
0.004
  0
CIRCLE
  5
252
330
17
100
AcDbEntity
  8
0
100
AcDbCircle
 10
0.527999115
 20
0.40201189
 30
0.0
 40
0.004
  0
CIRCLE
  5
253
330
17
100
AcDbEntity
  8
0
100
AcDbCircle
 10
0.502448224
 20
0.283862523
 30
0.0
 40
0.004
  0
CIRCLE
  5
254
330
17
100
AcDbEntity
  8
0
100
AcDbCircle
 10
0.59485352
 20
0.300616502
 30
0.0
 40
0.004
  0
CIRCLE
  5
255
330
17
100
AcDbEntity
  8
0
100
AcDbCircle
 10
0.645321581
 20
0.00502607829
 30
0.0
 40
0.004
  0
CIRCLE
  5
256
330
17
100
AcDbEntity
  8
0
100
AcDbCircle
 10
0.379513179
 20
0.347712143
 30
0.0
 40
0.004
  0
CIRCLE
  5
257
330
17
100
AcDbEntity
  8
0
100
AcDbCircle
 10
0.640480336
 20
0.190719733
 30
0.0
 40
0.004
  0
CIRCLE
  5
258
330
17
100
AcDbEntity
  8
0
100
AcDbCircle
 10
0.685624088
 20
0.306081623
 30
0.0
 40
0.004
  0
CIRCLE
  5
259
330
17
100
AcDbEntity
  8
0
100
AcDbCircle
 10
0.71269492
 20
0.0478257627
 30
0.0
 40
0.004
  0
CIRCLE
  5
25A
330
17
100
AcDbEntity
  8
0
100
AcDbCircle
 10
0.622169882
 20
0.279727373
 30
0.0
 40
0.004
  0
CIRCLE
  5
25B
330
17
100
AcDbEntity
  8
0
100
AcDbCircle
 10
0.415934836
 20
0.237170902
 30
0.0
 40
0.004
  0
CIRCLE
  5
25C
330
17
100
AcDbEntity
  8
0
100
AcDbCircle
 10
0.387101248
 20
0.246683791
 30
0.0
 40
0.004
  0
CIRCLE
  5
25D
330
17
100
AcDbEntity
  8
0
100
AcDbCircle
 10
0.524914648
 20
0.454908397
 30
0.0
 40
0.004
  0
CIRCLE
  5
25E
330
17
100
AcDbEntity
  8
0
100
AcDbCircle
 10
0.764860829
 20
0.145595679
 30
0.0
 40
0.004
  0
CIRCLE
  5
25F
330
17
100
AcDbEntity
  8
0
100
AcDbCircle
 10
0.643188087
 20
0.363727939
 30
0.0
 40
0.004
  0
CIRCLE
  5
260
330
17
100
AcDbEntity
  8
0
100
AcDbCircle
 10
0.751098527
 20
0.193581054
 30
0.0
 40
0.004
  0
CIRCLE
  5
261
330
17
100
AcDbEntity
  8
0
100
AcDbCircle
 10
0.455125394
 20
0.0115119624
 30
0.0
 40
0.004
  0
CIRCLE
  5
262
330
17
100
AcDbEntity
  8
0
100
AcDbCircle
 10
0.618854068
 20
0.407394061
 30
0.0
 40
0.004
  0
CIRCLE
  5
263
330
17
100
AcDbEntity
  8
0
100
AcDbCircle
 10
0.613145575
 20
0.211645234
 30
0.0
 40
0.004
  0
CIRCLE
  5
264
330
17
100
AcDbEntity
  8
0
100
AcDbCircle
 10
0.615601774
 20
0.0113071617
 30
0.0
 40
0.004
  0
CIRCLE
  5
265
330
17
100
AcDbEntity
  8
0
100
AcDbCircle
 10
0.646299433
 20
0.311245992
 30
0.0
 40
0.004
  0
CIRCLE
  5
266
330
17
100
AcDbEntity
  8
0
100
AcDbCircle
 10
0.755549167
 20
0.227622868
 30
0.0
 40
0.004
  0
CIRCLE
  5
267
330
17
100
AcDbEntity
  8
0
100
AcDbCircle
 10
0.292393228
 20
0.25269198
 30
0.0
 40
0.004
  0
CIRCLE
  5
268
330
17
100
AcDbEntity
  8
0
100
AcDbCircle
 10
0.355093015
 20
0.233840626
 30
0.0
 40
0.004
  0
CIRCLE
  5
269
330
17
100
AcDbEntity
  8
0
100
AcDbCircle
 10
0.620764019
 20
0.193293156
 30
0.0
 40
0.004
  0
CIRCLE
  5
26A
330
17
100
AcDbEntity
  8
0
100
AcDbCircle
 10
0.49033502
 20
0.268080011
 30
0.0
 40
0.004
  0
CIRCLE
  5
26B
330
17
100
AcDbEntity
  8
0
100
AcDbCircle
 10
0.501087495
 20
0.197077998
 30
0.0
 40
0.004
  0
CIRCLE
  5
26C
330
17
100
AcDbEntity
  8
0
100
AcDbCircle
 10
0.63720647
 20
0.318225276
 30
0.0
 40
0.004
  0
CIRCLE
  5
26D
330
17
100
AcDbEntity
  8
0
100
AcDbCircle
 10
0.747943446
 20
0.245925875
 30
0.0
 40
0.004
  0
CIRCLE
  5
26E
330
17
100
AcDbEntity
  8
0
100
AcDbCircle
 10
0.445803976
 20
0.0748096497
 30
0.0
 40
0.004
  0
CIRCLE
  5
26F
330
17
100
AcDbEntity
  8
0
100
AcDbCircle
 10
0.352133068
 20
0.210731952
 30
0.0
 40
0.004
  0
CIRCLE
  5
270
330
17
100
AcDbEntity
  8
0
100
AcDbCircle
 10
0.497960406
 20
0.2496707
 30
0.0
 40
0.004
  0
CIRCLE
  5
271
330
17
100
AcDbEntity
  8
0
100
AcDbCircle
 10
0.650791658
 20
0.34536461
 30
0.0
 40
0.004
  0
CIRCLE
  5
272
330
17
100
AcDbEntity
  8
0
100
AcDbCircle
 10
0.598619544
 20
0.0974712523
 30
0.0
 40
0.004
  0
CIRCLE
  5
273
330
17
100
AcDbEntity
  8
0
100
AcDbCircle
 10
0.323937283
 20
0.291211701
 30
0.0
 40
0.004
  0
CIRCLE
  5
274
330
17
100
AcDbEntity
  8
0
100
AcDbCircle
 10
0.423595053
 20
0.218778442
 30
0.0
 40
0.004
  0
CIRCLE
  5
275
330
17
100
AcDbEntity
  8
0
100
AcDbCircle
 10
0.461608448
 20
0.202232647
 30
0.0
 40
0.004
  0
CIRCLE
  5
276
330
17
100
AcDbEntity
  8
0
100
AcDbCircle
 10
0.508516978
 20
0.404409606
 30
0.0
 40
0.004
  0
CIRCLE
  5
277
330
17
100
AcDbEntity
  8
0
100
AcDbCircle
 10
0.582771587
 20
0.2848408
 30
0.0
 40
0.004
  0
CIRCLE
  5
278
330
17
100
AcDbEntity
  8
0
100
AcDbCircle
 10
0.571196254
 20
0.118470265
 30
0.0
 40
0.004
  0
CIRCLE
  5
279
330
17
100
AcDbEntity
  8
0
100
AcDbCircle
 10
0.406792516
 20
0.244168845
 30
0.0
 40
0.004
  0
CIRCLE
  5
27A
330
17
100
AcDbEntity
  8
0
100
AcDbCircle
 10
0.432214088
 20
0.424189644
 30
0.0
 40
0.004
  0
CIRCLE
  5
27B
330
17
100
AcDbEntity
  8
0
100
AcDbCircle
 10
0.638535712
 20
0.404796356
 30
0.0
 40
0.004
  0
CIRCLE
  5
27C
330
17
100
AcDbEntity
  8
0
100
AcDbCircle
 10
0.414451496
 20
0.225762455
 30
0.0
 40
0.004
  0
CIRCLE
  5
27D
330
17
100
AcDbEntity
  8
0
100
AcDbCircle
 10
0.773928818
 20
0.138579937
 30
0.0
 40
0.004
  0
CIRCLE
  5
27E
330
17
100
AcDbEntity
  8
0
100
AcDbCircle
 10
0.344441254
 20
0.229490176
 30
0.0
 40
0.004
  0
CIRCLE
  5
27F
330
17
100
AcDbEntity
  8
0
100
AcDbCircle
 10
0.545012379
 20
0.2261125
 30
0.0
 40
0.004
  0
CIRCLE
  5
280
330
17
100
AcDbEntity
  8
0
100
AcDbCircle
 10
0.603793622
 20
0.368887946
 30
0.0
 40
0.004
  0
CIRCLE
  5
281
330
17
100
AcDbEntity
  8
0
100
AcDbCircle
 10
0.376481956
 20
0.242252537
 30
0.0
 40
0.004
  0
CIRCLE
  5
282
330
17
100
AcDbEntity
  8
0
100
AcDbCircle
 10
0.626620523
 20
0.31381832
 30
0.0
 40
0.004
  0
CIRCLE
  5
283
330
17
100
AcDbEntity
  8
0
100
AcDbCircle
 10
0.462932962
 20
0.289076093
 30
0.0
 40
0.004
  0
CIRCLE
  5
284
330
17
100
AcDbEntity
  8
0
100
AcDbCircle
 10
0.676539305
 20
0.313045153
 30
0.0
 40
0.004
  0
CIRCLE
  5
285
330
17
100
AcDbEntity
  8
0
100
AcDbCircle
 10
0.787689408
 20
0.0907000309
 30
0.0
 40
0.004
  0
CIRCLE
  5
286
330
17
100
AcDbEntity
  8
0
100
AcDbCircle
 10
0.578925295
 20
0.0999871015
 30
0.0
 40
0.004
  0
CIRCLE
  5
287
330
17
100
AcDbEntity
  8
0
100
AcDbCircle
 10
0.559188405
 20
0.102518487
 30
0.0
 40
0.004
  0
CIRCLE
  5
288
330
17
100
AcDbEntity
  8
0
100
AcDbCircle
 10
0.625140145
 20
0.00564544666
 30
0.0
 40
0.004
  0
CIRCLE
  5
289
330
17
100
AcDbEntity
  8
0
100
AcDbCircle
 10
0.53941927
 20
0.105078697
 30
0.0
 40
0.004
  0
CIRCLE
  5
28A
330
17
100
AcDbEntity
  8
0
100
AcDbCircle
 10
0.656879253
 20
0.31563874
 30
0.0
 40
0.004
  0
CIRCLE
  5
28B
330
17
100
AcDbEntity
  8
0
100
AcDbCircle
 10
0.384059103
 20
0.223914829
 30
0.0
 40
0.004
  0
CIRCLE
  5
28C
330
17
100
AcDbEntity
  8
0
100
AcDbCircle
 10
0.532921029
 20
0.210332182
 30
0.0
 40
0.004
  0
CIRCLE
  5
28D
330
17
100
AcDbEntity
  8
0
100
AcDbCircle
 10
0.605461629
 20
0.005661715
 30
0.0
 40
0.004
  0
CIRCLE
  5
28E
330
17
100
AcDbEntity
  8
0
100
AcDbCircle
 10
0.513193859
 20
0.212879302
 30
0.0
 40
0.004
  0
CIRCLE
  5
28F
330
17
100
AcDbEntity
  8
0
100
AcDbCircle
 10
0.324741959
 20
0.23078262
 30
0.0
 40
0.004
  0
CIRCLE
  5
290
330
17
100
AcDbEntity
  8
0
100
AcDbCircle
 10
0.669513695
 20
0.105895349
 30
0.0
 40
0.004
  0
CIRCLE
  5
291
330
17
100
AcDbEntity
  8
0
100
AcDbCircle
 10
0.660195561
 20
0.188142712
 30
0.0
 40
0.004
  0
CIRCLE
  5
292
330
17
100
AcDbEntity
  8
0
100
AcDbCircle
 10
0.446103726
 20
0.438377029
 30
0.0
 40
0.004
  0
CIRCLE
  5
293
330
17
100
AcDbEntity
  8
0
100
AcDbCircle
 10
0.709693815
 20
0.337533284
 30
0.0
 40
0.004
  0
CIRCLE
  5
294
330
17
100
AcDbEntity
  8
0
100
AcDbCircle
 10
0.658918373
 20
0.10149133
 30
0.0
 40
0.004
  0
CIRCLE
  5
295
330
17
100
AcDbEntity
  8
0
100
AcDbCircle
 10
0.537074698
 20
0.395026319
 30
0.0
 40
0.004
  0
CIRCLE
  5
296
330
17
100
AcDbEntity
  8
0
100
AcDbCircle
 10
0.635850089
 20
0.23180809
 30
0.0
 40
0.004
  0
CIRCLE
  5
297
330
17
100
AcDbEntity
  8
0
100
AcDbCircle
 10
0.481349342
 20
0.19965661
 30
0.0
 40
0.004
  0
CIRCLE
  5
298
330
17
100
AcDbEntity
  8
0
100
AcDbCircle
 10
0.604058259
 20
0.21859625
 30
0.0
 40
0.004
  0
CIRCLE
  5
299
330
17
100
AcDbEntity
  8
0
100
AcDbCircle
 10
0.51963617
 20
0.107663374
 30
0.0
 40
0.004
  0
CIRCLE
  5
29A
330
17
100
AcDbEntity
  8
0
100
AcDbCircle
 10
0.611652039
 20
0.200267651
 30
0.0
 40
0.004
  0
CIRCLE
  5
29B
330
17
100
AcDbEntity
  8
0
100
AcDbCircle
 10
0.694424483
 20
0.374091458
 30
0.0
 40
0.004
  0
CIRCLE
  5
29C
330
17
100
AcDbEntity
  8
0
100
AcDbCircle
 10
0.501334196
 20
0.121670817
 30
0.0
 40
0.004
  0
CIRCLE
  5
29D
330
17
100
AcDbEntity
  8
0
100
AcDbCircle
 10
0.447648023
 20
0.32591338
 30
0.0
 40
0.004
  0
CIRCLE
  5
29E
330
17
100
AcDbEntity
  8
0
100
AcDbCircle
 10
0.609626071
 20
0.489597282
 30
0.0
 40
0.004
  0
CIRCLE
  5
29F
330
17
100
AcDbEntity
  8
0
100
AcDbCircle
 10
0.374961859
 20
0.367059256
 30
0.0
 40
0.004
  0
CIRCLE
  5
2A0
330
17
100
AcDbEntity
  8
0
100
AcDbCircle
 10
0.371972014
 20
0.355934167
 30
0.0
 40
0.004
  0
CIRCLE
  5
2A1
330
17
100
AcDbEntity
  8
0
100
AcDbCircle
 10
0.584087163
 20
0.371461544
 30
0.0
 40
0.004
  0
CIRCLE
  5
2A2
330
17
100
AcDbEntity
  8
0
100
AcDbCircle
 10
0.440056133
 20
0.344290015
 30
0.0
 40
0.004
  0
CIRCLE
  5
2A3
330
17
100
AcDbEntity
  8
0
100
AcDbCircle
 10
0.475214466
 20
0.229448777
 30
0.0
 40
0.004
  0
CIRCLE
  5
2A4
330
17
100
AcDbEntity
  8
0
100
AcDbCircle
 10
0.450809078
 20
0.273250902
 30
0.0
 40
0.004
  0
CIRCLE
  5
2A5
330
17
100
AcDbEntity
  8
0
100
AcDbCircle
 10
0.401516719
 20
0.383561716
 30
0.0
 40
0.004
  0
CIRCLE
  5
2A6
330
17
100
AcDbEntity
  8
0
100
AcDbCircle
 10
0.456786732
 20
0.318895716
 30
0.0
 40
0.004
  0
CIRCLE
  5
2A7
330
17
100
AcDbEntity
  8
0
100
AcDbCircle
 10
0.454721554
 20
0.057680009
 30
0.0
 40
0.004
  0
CIRCLE
  5
2A8
330
17
100
AcDbEntity
  8
0
100
AcDbCircle
 10
0.751650111
 20
0.279879674
 30
0.0
 40
0.004
  0
CIRCLE
  5
2A9
330
17
100
AcDbEntity
  8
0
100
AcDbCircle
 10
0.454726013
 20
0.0461854147
 30
0.0
 40
0.004
  0
CIRCLE
  5
2AA
330
17
100
AcDbEntity
  8
0
100
AcDbCircle
 10
0.534411391
 20
0.221701026
 30
0.0
 40
0.004
  0
CIRCLE
  5
2AB
330
17
100
AcDbEntity
  8
0
100
AcDbCircle
 10
0.502580679
 20
0.208473887
 30
0.0
 40
0.004
  0
CIRCLE
  5
2AC
330
17
100
AcDbEntity
  8
0
100
AcDbCircle
 10
0.634081774
 20
0.370716537
 30
0.0
 40
0.004
  0
CIRCLE
  5
2AD
330
17
100
AcDbEntity
  8
0
100
AcDbCircle
 10
0.386742226
 20
0.36915684
 30
0.0
 40
0.004
  0
CIRCLE
  5
2AE
330
17
100
AcDbEntity
  8
0
100
AcDbCircle
 10
0.690084771
 20
0.340121888
 30
0.0
 40
0.004
  0
CIRCLE
  5
2AF
330
17
100
AcDbEntity
  8
0
100
AcDbCircle
 10
0.678029575
 20
0.324400713
 30
0.0
 40
0.004
  0
CIRCLE
  5
2B0
330
17
100
AcDbEntity
  8
0
100
AcDbCircle
 10
0.623963869
 20
0.140749345
 30
0.0
 40
0.004
  0
CIRCLE
  5
2B1
330
17
100
AcDbEntity
  8
0
100
AcDbCircle
 10
0.449498135
 20
0.186407946
 30
0.0
 40
0.004
  0
CIRCLE
  5
2B2
330
17
100
AcDbEntity
  8
0
100
AcDbCircle
 10
0.602477255
 20
0.282281619
 30
0.0
 40
0.004
  0
CIRCLE
  5
2B3
330
17
100
AcDbEntity
  8
0
100
AcDbCircle
 10
0.570684174
 20
0.269072686
 30
0.0
 40
0.004
  0
CIRCLE
  5
2B4
330
17
100
AcDbEntity
  8
0
100
AcDbCircle
 10
0.432410281
 20
0.362740032
 30
0.0
 40
0.004
  0
CIRCLE
  5
2B5
330
17
100
AcDbEntity
  8
0
100
AcDbCircle
 10
0.68118407
 20
0.272036368
 30
0.0
 40
0.004
  0
CIRCLE
  5
2B6
330
17
100
AcDbEntity
  8
0
100
AcDbCircle
 10
0.64002552
 20
0.416162113
 30
0.0
 40
0.004
  0
CIRCLE
  5
2B7
330
17
100
AcDbEntity
  8
0
100
AcDbCircle
 10
0.499856171
 20
0.110246568
 30
0.0
 40
0.004
  0
CIRCLE
  5
2B8
330
17
100
AcDbEntity
  8
0
100
AcDbCircle
 10
0.55412342
 20
0.219158161
 30
0.0
 40
0.004
  0
CIRCLE
  5
2B9
330
17
100
AcDbEntity
  8
0
100
AcDbCircle
 10
0.558590647
 20
0.253286054
 30
0.0
 40
0.004
  0
CIRCLE
  5
2BA
330
17
100
AcDbEntity
  8
0
100
AcDbCircle
 10
0.470734435
 20
0.195246087
 30
0.0
 40
0.004
  0
CIRCLE
  5
2BB
330
17
100
AcDbEntity
  8
0
100
AcDbCircle
 10
0.44156927
 20
0.355676142
 30
0.0
 40
0.004
  0
CIRCLE
  5
2BC
330
17
100
AcDbEntity
  8
0
100
AcDbCircle
 10
0.4452532
 20
0.0632277051
 30
0.0
 40
0.004
  0
CIRCLE
  5
2BD
330
17
100
AcDbEntity
  8
0
100
AcDbCircle
 10
0.417496339
 20
0.172839785
 30
0.0
 40
0.004
  0
CIRCLE
  5
2BE
330
17
100
AcDbEntity
  8
0
100
AcDbCircle
 10
0.437360145
 20
0.170507852
 30
0.0
 40
0.004
  0
CIRCLE
  5
2BF
330
17
100
AcDbEntity
  8
0
100
AcDbCircle
 10
0.749618567
 20
0.182232163
 30
0.0
 40
0.004
  0
CIRCLE
  5
2C0
330
17
100
AcDbEntity
  8
0
100
AcDbCircle
 10
0.470575212
 20
0.270667625
 30
0.0
 40
0.004
  0
CIRCLE
  5
2C1
330
17
100
AcDbEntity
  8
0
100
AcDbCircle
 10
0.522299841
 20
0.431523913
 30
0.0
 40
0.004
  0
CIRCLE
  5
2C2
330
17
100
AcDbEntity
  8
0
100
AcDbCircle
 10
0.40487907
 20
0.156035441
 30
0.0
 40
0.004
  0
CIRCLE
  5
2C3
330
17
100
AcDbEntity
  8
0
100
AcDbCircle
 10
0.641697611
 20
0.352365668
 30
0.0
 40
0.004
  0
CIRCLE
  5
2C4
330
17
100
AcDbEntity
  8
0
100
AcDbCircle
 10
0.688805156
 20
0.253721316
 30
0.0
 40
0.004
  0
CIRCLE
  5
2C5
330
17
100
AcDbEntity
  8
0
100
AcDbCircle
 10
0.466087066
 20
0.236441455
 30
0.0
 40
0.004
  0
CIRCLE
  5
2C6
330
17
100
AcDbEntity
  8
0
100
AcDbCircle
 10
0.482842198
 20
0.21105512
 30
0.0
 40
0.004
  0
CIRCLE
  5
2C7
330
17
100
AcDbEntity
  8
0
100
AcDbCircle
 10
0.522310368
 20
0.205911939
 30
0.0
 40
0.004
  0
CIRCLE
  5
2C8
330
17
100
AcDbEntity
  8
0
100
AcDbCircle
 10
0.484191293
 20
0.297864893
 30
0.0
 40
0.004
  0
CIRCLE
  5
2C9
330
17
100
AcDbEntity
  8
0
100
AcDbCircle
 10
0.601063849
 20
0.195849664
 30
0.0
 40
0.004
  0
CIRCLE
  5
2CA
330
17
100
AcDbEntity
  8
0
100
AcDbCircle
 10
0.356762219
 20
0.245500815
 30
0.0
 40
0.004
  0
CIRCLE
  5
2CB
330
17
100
AcDbEntity
  8
0
100
AcDbCircle
 10
0.458626975
 20
0.179430254
 30
0.0
 40
0.004
  0
CIRCLE
  5
2CC
330
17
100
AcDbEntity
  8
0
100
AcDbCircle
 10
0.546499408
 20
0.237485694
 30
0.0
 40
0.004
  0
CIRCLE
  5
2CD
330
17
100
AcDbEntity
  8
0
100
AcDbCircle
 10
0.754066243
 20
0.216263414
 30
0.0
 40
0.004
  0
CIRCLE
  5
2CE
330
17
100
AcDbEntity
  8
0
100
AcDbCircle
 10
0.390082496
 20
0.380399712
 30
0.0
 40
0.004
  0
CIRCLE
  5
2CF
330
17
100
AcDbEntity
  8
0
100
AcDbCircle
 10
0.47505908
 20
0.304870111
 30
0.0
 40
0.004
  0
CIRCLE
  5
2D0
330
17
100
AcDbEntity
  8
0
100
AcDbCircle
 10
0.333004164
 20
0.324689241
 30
0.0
 40
0.004
  0
CIRCLE
  5
2D1
330
17
100
AcDbEntity
  8
0
100
AcDbCircle
 10
0.564639441
 20
0.00598059137
 30
0.0
 40
0.004
  0
CIRCLE
  5
2D2
330
17
100
AcDbEntity
  8
0
100
AcDbCircle
 10
0.484996792
 20
0.00533342521
 30
0.0
 40
0.004
  0
CIRCLE
  5
2D3
330
17
100
AcDbEntity
  8
0
100
AcDbCircle
 10
0.361170148
 20
0.353034902
 30
0.0
 40
0.004
  0
CIRCLE
  5
2D4
330
17
100
AcDbEntity
  8
0
100
AcDbCircle
 10
0.403878487
 20
0.395606268
 30
0.0
 40
0.004
  0
CIRCLE
  5
2D5
330
17
100
AcDbEntity
  8
0
100
AcDbCircle
 10
0.525542953
 20
0.00561896571
 30
0.0
 40
0.004
  0
CIRCLE
  5
2D6
330
17
100
AcDbEntity
  8
0
100
AcDbCircle
 10
0.746469646
 20
0.234574906
 30
0.0
 40
0.004
  0
CIRCLE
  5
2D7
330
17
100
AcDbEntity
  8
0
100
AcDbCircle
 10
0.634560894
 20
0.145167392
 30
0.0
 40
0.004
  0
CIRCLE
  5
2D8
330
17
100
AcDbEntity
  8
0
100
AcDbCircle
 10
0.567752513
 20
0.171235468
 30
0.0
 40
0.004
  0
CIRCLE
  5
2D9
330
17
100
AcDbEntity
  8
0
100
AcDbCircle
 10
0.804555646
 20
0.0534334479
 30
0.0
 40
0.004
  0
CIRCLE
  5
2DA
330
17
100
AcDbEntity
  8
0
100
AcDbCircle
 10
0.438860052
 20
0.181948127
 30
0.0
 40
0.004
  0
CIRCLE
  5
2DB
330
17
100
AcDbEntity
  8
0
100
AcDbCircle
 10
0.738842395
 20
0.252869639
 30
0.0
 40
0.004
  0
CIRCLE
  5
2DC
330
17
100
AcDbEntity
  8
0
100
AcDbCircle
 10
0.695178073
 20
0.148880573
 30
0.0
 40
0.004
  0
CIRCLE
  5
2DD
330
17
100
AcDbEntity
  8
0
100
AcDbCircle
 10
0.465130039
 20
0.00574114387
 30
0.0
 40
0.004
  0
CIRCLE
  5
2DE
330
17
100
AcDbEntity
  8
0
100
AcDbCircle
 10
0.704579563
 20
0.0665388023
 30
0.0
 40
0.004
  0
CIRCLE
  5
2DF
330
17
100
AcDbEntity
  8
0
100
AcDbCircle
 10
0.696424827
 20
0.235405926
 30
0.0
 40
0.004
  0
CIRCLE
  5
2E0
330
17
100
AcDbEntity
  8
0
100
AcDbCircle
 10
0.657417979
 20
0.0900863715
 30
0.0
 40
0.004
  0
CIRCLE
  5
2E1
330
17
100
AcDbEntity
  8
0
100
AcDbCircle
 10
0.720045827
 20
0.341828295
 30
0.0
 40
0.004
  0
CIRCLE
  5
2E2
330
17
100
AcDbEntity
  8
0
100
AcDbCircle
 10
0.587234292
 20
0.318966728
 30
0.0
 40
0.004
  0
CIRCLE
  5
2E3
330
17
100
AcDbEntity
  8
0
100
AcDbCircle
 10
0.490474211
 20
0.192669335
 30
0.0
 40
0.004
  0
CIRCLE
  5
2E4
330
17
100
AcDbEntity
  8
0
100
AcDbCircle
 10
0.510391349
 20
0.415535965
 30
0.0
 40
0.004
  0
CIRCLE
  5
2E5
330
17
100
AcDbEntity
  8
0
100
AcDbCircle
 10
0.296089756
 20
0.165852522
 30
0.0
 40
0.004
  0
CIRCLE
  5
2E6
330
17
100
AcDbEntity
  8
0
100
AcDbCircle
 10
0.528104316
 20
0.326685697
 30
0.0
 40
0.004
  0
CIRCLE
  5
2E7
330
17
100
AcDbEntity
  8
0
100
AcDbCircle
 10
0.632751654
 20
0.284119176
 30
0.0
 40
0.004
  0
CIRCLE
  5
2E8
330
17
100
AcDbEntity
  8
0
100
AcDbCircle
 10
0.406833932
 20
0.168532313
 30
0.0
 40
0.004
  0
CIRCLE
  5
2E9
330
17
100
AcDbEntity
  8
0
100
AcDbCircle
 10
0.426639952
 20
0.165836622
 30
0.0
 40
0.004
  0
CIRCLE
  5
2EA
330
17
100
AcDbEntity
  8
0
100
AcDbCircle
 10
0.395519287
 20
0.111107184
 30
0.0
 40
0.004
  0
CIRCLE
  5
2EB
330
17
100
AcDbEntity
  8
0
100
AcDbCircle
 10
0.493460252
 20
0.215463734
 30
0.0
 40
0.004
  0
CIRCLE
  5
2EC
330
17
100
AcDbEntity
  8
0
100
AcDbCircle
 10
0.388642097
 20
0.258064401
 30
0.0
 40
0.004
  0
CIRCLE
  5
2ED
330
17
100
AcDbEntity
  8
0
100
AcDbCircle
 10
0.469244765
 20
0.183849011
 30
0.0
 40
0.004
  0
CIRCLE
  5
2EE
330
17
100
AcDbEntity
  8
0
100
AcDbCircle
 10
0.376663832
 20
0.0768685384
 30
0.0
 40
0.004
  0
CIRCLE
  5
2EF
330
17
100
AcDbEntity
  8
0
100
AcDbCircle
 10
0.638998626
 20
0.179336507
 30
0.0
 40
0.004
  0
CIRCLE
  5
2F0
330
17
100
AcDbEntity
  8
0
100
AcDbCircle
 10
0.386087878
 20
0.0941372402
 30
0.0
 40
0.004
  0
CIRCLE
  5
2F1
330
17
100
AcDbEntity
  8
0
100
AcDbCircle
 10
0.479709557
 20
0.263672961
 30
0.0
 40
0.004
  0
CIRCLE
  5
2F2
330
17
100
AcDbEntity
  8
0
100
AcDbCircle
 10
0.619279446
 20
0.181907432
 30
0.0
 40
0.004
  0
CIRCLE
  5
2F3
330
17
100
AcDbEntity
  8
0
100
AcDbCircle
 10
0.449728061
 20
0.110971183
 30
0.0
 40
0.004
  0
CIRCLE
  5
2F4
330
17
100
AcDbEntity
  8
0
100
AcDbCircle
 10
0.665967108
 20
0.30865824
 30
0.0
 40
0.004
  0
CIRCLE
  5
2F5
330
17
100
AcDbEntity
  8
0
100
AcDbCircle
 10
0.480093645
 20
0.112827718
 30
0.0
 40
0.004
  0
CIRCLE
  5
2F6
330
17
100
AcDbEntity
  8
0
100
AcDbCircle
 10
0.667022552
 20
0.469821247
 30
0.0
 40
0.004
  0
CIRCLE
  5
2F7
330
17
100
AcDbEntity
  8
0
100
AcDbCircle
 10
0.600654708
 20
0.421357777
 30
0.0
 40
0.004
  0
CIRCLE
  5
2F8
330
17
100
AcDbEntity
  8
0
100
AcDbCircle
 10
0.687541311
 20
0.167229364
 30
0.0
 40
0.004
  0
CIRCLE
  5
2F9
330
17
100
AcDbEntity
  8
0
100
AcDbCircle
 10
0.749885932
 20
0.107070704
 30
0.0
 40
0.004
  0
CIRCLE
  5
2FA
330
17
100
AcDbEntity
  8
0
100
AcDbCircle
 10
0.464427415
 20
0.30048419
 30
0.0
 40
0.004
  0
CIRCLE
  5
2FB
330
17
100
AcDbEntity
  8
0
100
AcDbCircle
 10
0.335167475
 20
0.236062524
 30
0.0
 40
0.004
  0
CIRCLE
  5
2FC
330
17
100
AcDbEntity
  8
0
100
AcDbCircle
 10
0.517685324
 20
0.247058892
 30
0.0
 40
0.004
  0
CIRCLE
  5
2FD
330
17
100
AcDbEntity
  8
0
100
AcDbCircle
 10
0.5880544
 20
0.0929837628
 30
0.0
 40
0.004
  0
CIRCLE
  5
2FE
330
17
100
AcDbEntity
  8
0
100
AcDbCircle
 10
0.397782321
 20
0.175796972
 30
0.0
 40
0.004
  0
CIRCLE
  5
2FF
330
17
100
AcDbEntity
  8
0
100
AcDbCircle
 10
0.568330517
 20
0.0955207238
 30
0.0
 40
0.004
  0
CIRCLE
  5
300
330
17
100
AcDbEntity
  8
0
100
AcDbCircle
 10
0.452302073
 20
0.284663568
 30
0.0
 40
0.004
  0
CIRCLE
  5
301
330
17
100
AcDbEntity
  8
0
100
AcDbCircle
 10
0.691973662
 20
0.201341034
 30
0.0
 40
0.004
  0
CIRCLE
  5
302
330
17
100
AcDbEntity
  8
0
100
AcDbCircle
 10
0.548564037
 20
0.0980765531
 30
0.0
 40
0.004
  0
CIRCLE
  5
303
330
17
100
AcDbEntity
  8
0
100
AcDbCircle
 10
0.534038949
 20
0.447688627
 30
0.0
 40
0.004
  0
CIRCLE
  5
304
330
17
100
AcDbEntity
  8
0
100
AcDbCircle
 10
0.724391041
 20
0.0640036099
 30
0.0
 40
0.004
  0
CIRCLE
  5
305
330
17
100
AcDbEntity
  8
0
100
AcDbCircle
 10
0.450989938
 20
0.197813264
 30
0.0
 40
0.004
  0
CIRCLE
  5
306
330
17
100
AcDbEntity
  8
0
100
AcDbCircle
 10
0.555266442
 20
0.38103666
 30
0.0
 40
0.004
  0
CIRCLE
  5
307
330
17
100
AcDbEntity
  8
0
100
AcDbCircle
 10
0.587465992
 20
0.168674889
 30
0.0
 40
0.004
  0
CIRCLE
  5
308
330
17
100
AcDbEntity
  8
0
100
AcDbCircle
 10
0.538697365
 20
0.331086764
 30
0.0
 40
0.004
  0
CIRCLE
  5
309
330
17
100
AcDbEntity
  8
0
100
AcDbCircle
 10
0.526968
 20
0.467122317
 30
0.0
 40
0.004
  0
CIRCLE
  5
30A
330
17
100
AcDbEntity
  8
0
100
AcDbCircle
 10
0.518963173
 20
0.333661197
 30
0.0
 40
0.004
  0
CIRCLE
  5
30B
330
17
100
AcDbEntity
  8
0
100
AcDbCircle
 10
0.528783374
 20
0.100661373
 30
0.0
 40
0.004
  0
CIRCLE
  5
30C
330
17
100
AcDbEntity
  8
0
100
AcDbCircle
 10
0.742820208
 20
0.286934845
 30
0.0
 40
0.004
  0
CIRCLE
  5
30D
330
17
100
AcDbEntity
  8
0
100
AcDbCircle
 10
0.433657265
 20
0.373932473
 30
0.0
 40
0.004
  0
CIRCLE
  5
30E
330
17
100
AcDbEntity
  8
0
100
AcDbCircle
 10
0.404737214
 20
0.117331681
 30
0.0
 40
0.004
  0
CIRCLE
  5
30F
330
17
100
AcDbEntity
  8
0
100
AcDbCircle
 10
0.672093055
 20
0.278994232
 30
0.0
 40
0.004
  0
CIRCLE
  5
310
330
17
100
AcDbEntity
  8
0
100
AcDbCircle
 10
0.394037136
 20
0.152150295
 30
0.0
 40
0.004
  0
CIRCLE
  5
311
330
17
100
AcDbEntity
  8
0
100
AcDbCircle
 10
0.45713439
 20
0.168021894
 30
0.0
 40
0.004
  0
CIRCLE
  5
312
330
17
100
AcDbEntity
  8
0
100
AcDbCircle
 10
0.463097921
 20
0.2136323
 30
0.0
 40
0.004
  0
CIRCLE
  5
313
330
17
100
AcDbEntity
  8
0
100
AcDbCircle
 10
0.473716765
 20
0.21804425
 30
0.0
 40
0.004
  0
CIRCLE
  5
314
330
17
100
AcDbEntity
  8
0
100
AcDbCircle
 10
0.623489927
 20
0.366326261
 30
0.0
 40
0.004
  0
CIRCLE
  5
315
330
17
100
AcDbEntity
  8
0
100
AcDbCircle
 10
0.693051724
 20
0.362783108
 30
0.0
 40
0.004
  0
CIRCLE
  5
316
330
17
100
AcDbEntity
  8
0
100
AcDbCircle
 10
0.683096591
 20
0.133087604
 30
0.0
 40
0.004
  0
CIRCLE
  5
317
330
17
100
AcDbEntity
  8
0
100
AcDbCircle
 10
0.658713662
 20
0.176766532
 30
0.0
 40
0.004
  0
CIRCLE
  5
318
330
17
100
AcDbEntity
  8
0
100
AcDbCircle
 10
0.688596244
 20
0.328779383
 30
0.0
 40
0.004
  0
CIRCLE
  5
319
330
17
100
AcDbEntity
  8
0
100
AcDbCircle
 10
0.476559445
 20
0.316248694
 30
0.0
 40
0.004
  0
CIRCLE
  5
31A
330
17
100
AcDbEntity
  8
0
100
AcDbCircle
 10
0.754287576
 20
0.141185476
 30
0.0
 40
0.004
  0
CIRCLE
  5
31B
330
17
100
AcDbEntity
  8
0
100
AcDbCircle
 10
0.508999607
 20
0.103244046
 30
0.0
 40
0.004
  0
CIRCLE
  5
31C
330
17
100
AcDbEntity
  8
0
100
AcDbCircle
 10
0.557155899
 20
0.166810198
 30
0.0
 40
0.004
  0
CIRCLE
  5
31D
330
17
100
AcDbEntity
  8
0
100
AcDbCircle
 10
0.722607145
 20
0.0409042324
 30
0.0
 40
0.004
  0
CIRCLE
  5
31E
330
17
100
AcDbEntity
  8
0
100
AcDbCircle
 10
0.367502104
 20
0.249552541
 30
0.0
 40
0.004
  0
CIRCLE
  5
31F
330
17
100
AcDbEntity
  8
0
100
AcDbCircle
 10
0.473910959
 20
0.142648456
 30
0.0
 40
0.004
  0
CIRCLE
  5
320
330
17
100
AcDbEntity
  8
0
100
AcDbCircle
 10
0.743503271
 20
0.211873804
 30
0.0
 40
0.004
  0
CIRCLE
  5
321
330
17
100
AcDbEntity
  8
0
100
AcDbCircle
 10
0.681610032
 20
0.121700242
 30
0.0
 40
0.004
  0
CIRCLE
  5
322
330
17
100
AcDbEntity
  8
0
100
AcDbCircle
 10
0.408281239
 20
0.255588215
 30
0.0
 40
0.004
  0
CIRCLE
  5
323
330
17
100
AcDbEntity
  8
0
100
AcDbCircle
 10
0.784229098
 20
0.142876043
 30
0.0
 40
0.004
  0
CIRCLE
  5
324
330
17
100
AcDbEntity
  8
0
100
AcDbCircle
 10
0.685313444
 20
0.381066547
 30
0.0
 40
0.004
  0
CIRCLE
  5
325
330
17
100
AcDbEntity
  8
0
100
AcDbCircle
 10
0.757539679
 20
0.0887241223
 30
0.0
 40
0.004
  0
CIRCLE
  5
326
330
17
100
AcDbEntity
  8
0
100
AcDbCircle
 10
0.627951149
 20
0.400416463
 30
0.0
 40
0.004
  0
CIRCLE
  5
327
330
17
100
AcDbEntity
  8
0
100
AcDbCircle
 10
0.48921499
 20
0.105817123
 30
0.0
 40
0.004
  0
CIRCLE
  5
328
330
17
100
AcDbEntity
  8
0
100
AcDbCircle
 10
0.446505644
 20
0.163559312
 30
0.0
 40
0.004
  0
CIRCLE
  5
329
330
17
100
AcDbEntity
  8
0
100
AcDbCircle
 10
0.599570946
 20
0.184467117
 30
0.0
 40
0.004
  0
CIRCLE
  5
32A
330
17
100
AcDbEntity
  8
0
100
AcDbCircle
 10
0.588970574
 20
0.180053724
 30
0.0
 40
0.004
  0
CIRCLE
  5
32B
330
17
100
AcDbEntity
  8
0
100
AcDbCircle
 10
0.510203259
 20
0.190105018
 30
0.0
 40
0.004
  0
CIRCLE
  5
32C
330
17
100
AcDbEntity
  8
0
100
AcDbCircle
 10
0.712888325
 20
0.285201838
 30
0.0
 40
0.004
  0
CIRCLE
  5
32D
330
17
100
AcDbEntity
  8
0
100
AcDbCircle
 10
0.650604379
 20
0.420551922
 30
0.0
 40
0.004
  0
CIRCLE
  5
32E
330
17
100
AcDbEntity
  8
0
100
AcDbCircle
 10
0.395436221
 20
0.0999756936
 30
0.0
 40
0.004
  0
CIRCLE
  5
32F
330
17
100
AcDbEntity
  8
0
100
AcDbCircle
 10
0.702816718
 20
0.130524427
 30
0.0
 40
0.004
  0
CIRCLE
  5
330
330
17
100
AcDbEntity
  8
0
100
AcDbCircle
 10
0.585746059
 20
0.307591321
 30
0.0
 40
0.004
  0
CIRCLE
  5
331
330
17
100
AcDbEntity
  8
0
100
AcDbCircle
 10
0.622000064
 20
0.354947362
 30
0.0
 40
0.004
  0
CIRCLE
  5
332
330
17
100
AcDbEntity
  8
0
100
AcDbCircle
 10
0.498103671
 20
0.174289424
 30
0.0
 40
0.004
  0
CIRCLE
  5
333
330
17
100
AcDbEntity
  8
0
100
AcDbCircle
 10
0.679704619
 20
0.260686028
 30
0.0
 40
0.004
  0
CIRCLE
  5
334
330
17
100
AcDbEntity
  8
0
100
AcDbCircle
 10
0.579614651
 20
0.337320713
 30
0.0
 40
0.004
  0
CIRCLE
  5
335
330
17
100
AcDbEntity
  8
0
100
AcDbCircle
 10
0.478370076
 20
0.176862198
 30
0.0
 40
0.004
  0
CIRCLE
  5
336
330
17
100
AcDbEntity
  8
0
100
AcDbCircle
 10
0.576855218
 20
0.164264065
 30
0.0
 40
0.004
  0
CIRCLE
  5
337
330
17
100
AcDbEntity
  8
0
100
AcDbCircle
 10
0.50870903
 20
0.178713781
 30
0.0
 40
0.004
  0
CIRCLE
  5
338
330
17
100
AcDbEntity
  8
0
100
AcDbCircle
 10
0.38713203
 20
0.1714707
 30
0.0
 40
0.004
  0
CIRCLE
  5
339
330
17
100
AcDbEntity
  8
0
100
AcDbCircle
 10
0.651079586
 20
0.195119781
 30
0.0
 40
0.004
  0
CIRCLE
  5
33A
330
17
100
AcDbEntity
  8
0
100
AcDbCircle
 10
0.386261393
 20
0.0829000439
 30
0.0
 40
0.004
  0
CIRCLE
  5
33B
330
17
100
AcDbEntity
  8
0
100
AcDbCircle
 10
0.604240837
 20
0.143323528
 30
0.0
 40
0.004
  0
CIRCLE
  5
33C
330
17
100
AcDbEntity
  8
0
100
AcDbCircle
 10
0.646858149
 20
0.0856764769
 30
0.0
 40
0.004
  0
CIRCLE
  5
33D
330
17
100
AcDbEntity
  8
0
100
AcDbCircle
 10
0.608674564
 20
0.17749938
 30
0.0
 40
0.004
  0
CIRCLE
  5
33E
330
17
100
AcDbEntity
  8
0
100
AcDbCircle
 10
0.628397949
 20
0.174929295
 30
0.0
 40
0.004
  0
CIRCLE
  5
33F
330
17
100
AcDbEntity
  8
0
100
AcDbCircle
 10
0.428054202
 20
0.253006604
 30
0.0
 40
0.004
  0
CIRCLE
  5
340
330
17
100
AcDbEntity
  8
0
100
AcDbCircle
 10
0.613756396
 20
0.0615342076
 30
0.0
 40
0.004
  0
CIRCLE
  5
341
330
17
100
AcDbEntity
  8
0
100
AcDbCircle
 10
0.686290351
 20
0.0805185556
 30
0.0
 40
0.004
  0
CIRCLE
  5
342
330
17
100
AcDbEntity
  8
0
100
AcDbCircle
 10
0.370458482
 20
0.196712769
 30
0.0
 40
0.004
  0
CIRCLE
  5
343
330
17
100
AcDbEntity
  8
0
100
AcDbCircle
 10
0.597530649
 20
0.473840947
 30
0.0
 40
0.004
  0
CIRCLE
  5
344
330
17
100
AcDbEntity
  8
0
100
AcDbCircle
 10
0.772787146
 20
0.352228075
 30
0.0
 40
0.004
  0
CIRCLE
  5
345
330
17
100
AcDbEntity
  8
0
100
AcDbCircle
 10
0.467424025
 20
0.323268954
 30
0.0
 40
0.004
  0
CIRCLE
  5
346
330
17
100
AcDbEntity
  8
0
100
AcDbCircle
 10
0.455461036
 20
0.232025998
 30
0.0
 40
0.004
  0
CIRCLE
  5
347
330
17
100
AcDbEntity
  8
0
100
AcDbCircle
 10
0.385341706
 20
0.160320895
 30
0.0
 40
0.004
  0
CIRCLE
  5
348
330
17
100
AcDbEntity
  8
0
100
AcDbCircle
 10
0.444657218
 20
0.303083892
 30
0.0
 40
0.004
  0
CIRCLE
  5
349
330
17
100
AcDbEntity
  8
0
100
AcDbCircle
 10
0.505730876
 20
0.155923004
 30
0.0
 40
0.004
  0
CIRCLE
  5
34A
330
17
100
AcDbEntity
  8
0
100
AcDbCircle
 10
0.662875258
 20
0.361053373
 30
0.0
 40
0.004
  0
CIRCLE
  5
34B
330
17
100
AcDbEntity
  8
0
100
AcDbCircle
 10
0.788298181
 20
0.315907154
 30
0.0
 40
0.004
  0
CIRCLE
  5
34C
330
17
100
AcDbEntity
  8
0
100
AcDbCircle
 10
0.488984616
 20
0.181271999
 30
0.0
 40
0.004
  0
CIRCLE
  5
34D
330
17
100
AcDbEntity
  8
0
100
AcDbCircle
 10
0.687326958
 20
0.242368132
 30
0.0
 40
0.004
  0
CIRCLE
  5
34E
330
17
100
AcDbEntity
  8
0
100
AcDbCircle
 10
0.437009984
 20
0.321513524
 30
0.0
 40
0.004
  0
CIRCLE
  5
34F
330
17
100
AcDbEntity
  8
0
100
AcDbCircle
 10
0.648115978
 20
0.172360375
 30
0.0
 40
0.004
  0
CIRCLE
  5
350
330
17
100
AcDbEntity
  8
0
100
AcDbCircle
 10
0.723441453
 20
0.289599868
 30
0.0
 40
0.004
  0
CIRCLE
  5
351
330
17
100
AcDbEntity
  8
0
100
AcDbCircle
 10
0.505573704
 20
0.231262707
 30
0.0
 40
0.004
  0
CIRCLE
  5
352
330
17
100
AcDbEntity
  8
0
100
AcDbCircle
 10
0.734418605
 20
0.218829143
 30
0.0
 40
0.004
  0
CIRCLE
  5
353
330
17
100
AcDbEntity
  8
0
100
AcDbCircle
 10
0.802311103
 20
0.279070559
 30
0.0
 40
0.004
  0
CIRCLE
  5
354
330
17
100
AcDbEntity
  8
0
100
AcDbCircle
 10
0.455290487
 20
0.307489535
 30
0.0
 40
0.004
  0
CIRCLE
  5
355
330
17
100
AcDbEntity
  8
0
100
AcDbCircle
 10
0.447821662
 20
0.250427845
 30
0.0
 40
0.004
  0
CIRCLE
  5
356
330
17
100
AcDbEntity
  8
0
100
AcDbCircle
 10
0.746904078
 20
0.405299844
 30
0.0
 40
0.004
  0
CIRCLE
  5
357
330
17
100
AcDbEntity
  8
0
100
AcDbCircle
 10
0.631101435
 20
0.347975368
 30
0.0
 40
0.004
  0
CIRCLE
  5
358
330
17
100
AcDbEntity
  8
0
100
AcDbCircle
 10
0.512805086
 20
0.363455553
 30
0.0
 40
0.004
  0
CIRCLE
  5
359
330
17
100
AcDbEntity
  8
0
100
AcDbCircle
 10
0.571991862
 20
0.355680836
 30
0.0
 40
0.004
  0
CIRCLE
  5
35A
330
17
100
AcDbEntity
  8
0
100
AcDbCircle
 10
0.595704197
 20
0.0745663722
 30
0.0
 40
0.004
  0
CIRCLE
  5
35B
330
17
100
AcDbEntity
  8
0
100
AcDbCircle
 10
0.505158531
 20
0.381862642
 30
0.0
 40
0.004
  0
CIRCLE
  5
35C
330
17
100
AcDbEntity
  8
0
100
AcDbCircle
 10
0.3061548
 20
0.266641636
 30
0.0
 40
0.004
  0
CIRCLE
  5
35D
330
17
100
AcDbEntity
  8
0
100
AcDbCircle
 10
0.484525261
 20
0.147064844
 30
0.0
 40
0.004
  0
CIRCLE
  5
35E
330
17
100
AcDbEntity
  8
0
100
AcDbCircle
 10
0.69395512
 20
0.0621142361
 30
0.0
 40
0.004
  0
CIRCLE
  5
35F
330
17
100
AcDbEntity
  8
0
100
AcDbCircle
 10
0.614386282
 20
0.373293278
 30
0.0
 40
0.004
  0
CIRCLE
  5
360
330
17
100
AcDbEntity
  8
0
100
AcDbCircle
 10
0.603234235
 20
0.0567643328
 30
0.0
 40
0.004
  0
CIRCLE
  5
361
330
17
100
AcDbEntity
  8
0
100
AcDbCircle
 10
0.323391092
 20
0.219751903
 30
0.0
 40
0.004
  0
CIRCLE
  5
362
330
17
100
AcDbEntity
  8
0
100
AcDbCircle
 10
0.417797727
 20
0.323677463
 30
0.0
 40
0.004
  0
CIRCLE
  5
363
330
17
100
AcDbEntity
  8
0
100
AcDbCircle
 10
0.497827542
 20
0.400035148
 30
0.0
 40
0.004
  0
CIRCLE
  5
364
330
17
100
AcDbEntity
  8
0
100
AcDbCircle
 10
0.727099389
 20
0.438612892
 30
0.0
 40
0.004
  0
CIRCLE
  5
365
330
17
100
AcDbEntity
  8
0
100
AcDbCircle
 10
0.599161296
 20
0.409985935
 30
0.0
 40
0.004
  0
CIRCLE
  5
366
330
17
100
AcDbEntity
  8
0
100
AcDbCircle
 10
0.520812952
 20
0.194533544
 30
0.0
 40
0.004
  0
CIRCLE
  5
367
330
17
100
AcDbEntity
  8
0
100
AcDbCircle
 10
0.671007583
 20
0.117290184
 30
0.0
 40
0.004
  0
CIRCLE
  5
368
330
17
100
AcDbEntity
  8
0
100
AcDbCircle
 10
0.399202206
 20
0.26254049
 30
0.0
 40
0.004
  0
CIRCLE
  5
369
330
17
100
AcDbEntity
  8
0
100
AcDbCircle
 10
0.440178081
 20
0.268837155
 30
0.0
 40
0.004
  0
CIRCLE
  5
36A
330
17
100
AcDbEntity
  8
0
100
AcDbCircle
 10
0.549484103
 20
0.260253056
 30
0.0
 40
0.004
  0
CIRCLE
  5
36B
330
17
100
AcDbEntity
  8
0
100
AcDbCircle
 10
0.555679404
 20
0.155401848
 30
0.0
 40
0.004
  0
CIRCLE
  5
36C
330
17
100
AcDbEntity
  8
0
100
AcDbCircle
 10
0.454155893
 20
0.145222849
 30
0.0
 40
0.004
  0
CIRCLE
  5
36D
330
17
100
AcDbEntity
  8
0
100
AcDbCircle
 10
0.702289527
 20
0.0420563668
 30
0.0
 40
0.004
  0
CIRCLE
  5
36E
330
17
100
AcDbEntity
  8
0
100
AcDbCircle
 10
0.429643287
 20
0.339734204
 30
0.0
 40
0.004
  0
CIRCLE
  5
36F
330
17
100
AcDbEntity
  8
0
100
AcDbCircle
 10
0.641850944
 20
0.277166088
 30
0.0
 40
0.004
  0
CIRCLE
  5
370
330
17
100
AcDbEntity
  8
0
100
AcDbCircle
 10
0.46037977
 20
0.115391887
 30
0.0
 40
0.004
  0
CIRCLE
  5
371
330
17
100
AcDbEntity
  8
0
100
AcDbCircle
 10
0.452791156
 20
0.13387689
 30
0.0
 40
0.004
  0
CIRCLE
  5
372
330
17
100
AcDbEntity
  8
0
100
AcDbCircle
 10
0.4677999
 20
0.0968303183
 30
0.0
 40
0.004
  0
CIRCLE
  5
373
330
17
100
AcDbEntity
  8
0
100
AcDbCircle
 10
0.593046284
 20
0.439711758
 30
0.0
 40
0.004
  0
CIRCLE
  5
374
330
17
100
AcDbEntity
  8
0
100
AcDbCircle
 10
0.496614384
 20
0.162889754
 30
0.0
 40
0.004
  0
CIRCLE
  5
375
330
17
100
AcDbEntity
  8
0
100
AcDbCircle
 10
0.400703746
 20
0.273950962
 30
0.0
 40
0.004
  0
CIRCLE
  5
376
330
17
100
AcDbEntity
  8
0
100
AcDbCircle
 10
0.742012987
 20
0.200534427
 30
0.0
 40
0.004
  0
CIRCLE
  5
377
330
17
100
AcDbEntity
  8
0
100
AcDbCircle
 10
0.461945337
 20
0.126886742
 30
0.0
 40
0.004
  0
CIRCLE
  5
378
330
17
100
AcDbEntity
  8
0
100
AcDbCircle
 10
0.481590102
 20
0.124255536
 30
0.0
 40
0.004
  0
CIRCLE
  5
379
330
17
100
AcDbEntity
  8
0
100
AcDbCircle
 10
0.513917738
 20
0.450257568
 30
0.0
 40
0.004
  0
CIRCLE
  5
37A
330
17
100
AcDbEntity
  8
0
100
AcDbCircle
 10
0.622519099
 20
0.129357635
 30
0.0
 40
0.004
  0
CIRCLE
  5
37B
330
17
100
AcDbEntity
  8
0
100
AcDbCircle
 10
0.465541521
 20
0.0406833081
 30
0.0
 40
0.004
  0
CIRCLE
  5
37C
330
17
100
AcDbEntity
  8
0
100
AcDbCircle
 10
0.42210357
 20
0.207365317
 30
0.0
 40
0.004
  0
CIRCLE
  5
37D
330
17
100
AcDbEntity
  8
0
100
AcDbCircle
 10
0.446329106
 20
0.239018383
 30
0.0
 40
0.004
  0
CIRCLE
  5
37E
330
17
100
AcDbEntity
  8
0
100
AcDbCircle
 10
0.571373946
 20
0.042813724
 30
0.0
 40
0.004
  0
CIRCLE
  5
37F
330
17
100
AcDbEntity
  8
0
100
AcDbCircle
 10
0.469384945
 20
0.108327092
 30
0.0
 40
0.004
  0
CIRCLE
  5
380
330
17
100
AcDbEntity
  8
0
100
AcDbCircle
 10
0.690494925
 20
0.189975044
 30
0.0
 40
0.004
  0
CIRCLE
  5
381
330
17
100
AcDbEntity
  8
0
100
AcDbCircle
 10
0.733185408
 20
0.0459667769
 30
0.0
 40
0.004
  0
CIRCLE
  5
382
330
17
100
AcDbEntity
  8
0
100
AcDbCircle
 10
0.418914465
 20
0.260005334
 30
0.0
 40
0.004
  0
CIRCLE
  5
383
330
17
100
AcDbEntity
  8
0
100
AcDbCircle
 10
0.818139683
 20
0.222858994
 30
0.0
 40
0.004
  0
CIRCLE
  5
384
330
17
100
AcDbEntity
  8
0
100
AcDbCircle
 10
0.445016196
 20
0.152166524
 30
0.0
 40
0.004
  0
CIRCLE
  5
385
330
17
100
AcDbEntity
  8
0
100
AcDbCircle
 10
0.443163257
 20
0.291666023
 30
0.0
 40
0.004
  0
CIRCLE
  5
386
330
17
100
AcDbEntity
  8
0
100
AcDbCircle
 10
0.54782196
 20
0.324113018
 30
0.0
 40
0.004
  0
CIRCLE
  5
387
330
17
100
AcDbEntity
  8
0
100
AcDbCircle
 10
0.735902055
 20
0.230170791
 30
0.0
 40
0.004
  0
CIRCLE
  5
388
330
17
100
AcDbEntity
  8
0
100
AcDbCircle
 10
0.42174635
 20
0.358365292
 30
0.0
 40
0.004
  0
CIRCLE
  5
389
330
17
100
AcDbEntity
  8
0
100
AcDbCircle
 10
0.686061263
 20
0.155852193
 30
0.0
 40
0.004
  0
CIRCLE
  5
38A
330
17
100
AcDbEntity
  8
0
100
AcDbCircle
 10
0.507546648
 20
0.0921026462
 30
0.0
 40
0.004
  0
CIRCLE
  5
38B
330
17
100
AcDbEntity
  8
0
100
AcDbCircle
 10
0.583673478
 20
0.0587910096
 30
0.0
 40
0.004
  0
CIRCLE
  5
38C
330
17
100
AcDbEntity
  8
0
100
AcDbCircle
 10
0.295338706
 20
0.263328423
 30
0.0
 40
0.004
  0
CIRCLE
  5
38D
330
17
100
AcDbEntity
  8
0
100
AcDbCircle
 10
0.573661881
 20
0.291816888
 30
0.0
 40
0.004
  0
CIRCLE
  5
38E
330
17
100
AcDbEntity
  8
0
100
AcDbCircle
 10
0.547146329
 20
0.0865248342
 30
0.0
 40
0.004
  0
CIRCLE
  5
38F
330
17
100
AcDbEntity
  8
0
100
AcDbCircle
 10
0.596581602
 20
0.161698248
 30
0.0
 40
0.004
  0
CIRCLE
  5
390
330
17
100
AcDbEntity
  8
0
100
AcDbCircle
 10
0.694938434
 20
0.22405663
 30
0.0
 40
0.004
  0
CIRCLE
  5
391
330
17
100
AcDbEntity
  8
0
100
AcDbCircle
 10
0.602809096
 20
0.13190776
 30
0.0
 40
0.004
  0
CIRCLE
  5
392
330
17
100
AcDbEntity
  8
0
100
AcDbCircle
 10
0.706115491
 20
0.473003612
 30
0.0
 40
0.004
  0
CIRCLE
  5
393
330
17
100
AcDbEntity
  8
0
100
AcDbCircle
 10
0.57812637
 20
0.325942841
 30
0.0
 40
0.004
  0
CIRCLE
  5
394
330
17
100
AcDbEntity
  8
0
100
AcDbCircle
 10
0.652426863
 20
0.281562108
 30
0.0
 40
0.004
  0
CIRCLE
  5
395
330
17
100
AcDbEntity
  8
0
100
AcDbCircle
 10
0.606653811
 20
0.543161337
 30
0.0
 40
0.004
  0
CIRCLE
  5
396
330
17
100
AcDbEntity
  8
0
100
AcDbCircle
 10
0.740766944
 20
0.114036453
 30
0.0
 40
0.004
  0
CIRCLE
  5
397
330
17
100
AcDbEntity
  8
0
100
AcDbCircle
 10
0.607189801
 20
0.166109347
 30
0.0
 40
0.004
  0
CIRCLE
  5
398
330
17
100
AcDbEntity
  8
0
100
AcDbCircle
 10
0.793070831
 20
0.0489633362
 30
0.0
 40
0.004
  0
CIRCLE
  5
399
330
17
100
AcDbEntity
  8
0
100
AcDbCircle
 10
0.73250568
 20
0.282617439
 30
0.0
 40
0.004
  0
CIRCLE
  5
39A
330
17
100
AcDbEntity
  8
0
100
AcDbCircle
 10
0.493073239
 20
0.366055155
 30
0.0
 40
0.004
  0
CIRCLE
  5
39B
330
17
100
AcDbEntity
  8
0
100
AcDbCircle
 10
0.586597999
 20
0.0815183231
 30
0.0
 40
0.004
  0
CIRCLE
  5
39C
330
17
100
AcDbEntity
  8
0
100
AcDbCircle
 10
0.435515424
 20
0.310090218
 30
0.0
 40
0.004
  0
CIRCLE
  5
39D
330
17
100
AcDbEntity
  8
0
100
AcDbCircle
 10
0.661520864
 20
0.274604736
 30
0.0
 40
0.004
  0
CIRCLE
  5
39E
330
17
100
AcDbEntity
  8
0
100
AcDbCircle
 10
0.453969593
 20
0.22062137
 30
0.0
 40
0.004
  0
CIRCLE
  5
39F
330
17
100
AcDbEntity
  8
0
100
AcDbCircle
 10
0.478889448
 20
0.403174492
 30
0.0
 40
0.004
  0
CIRCLE
  5
3A0
330
17
100
AcDbEntity
  8
0
100
AcDbCircle
 10
0.428106856
 20
0.328336439
 30
0.0
 40
0.004
  0
CIRCLE
  5
3A1
330
17
100
AcDbEntity
  8
0
100
AcDbCircle
 10
0.391991261
 20
0.281255693
 30
0.0
 40
0.004
  0
CIRCLE
  5
3A2
330
17
100
AcDbEntity
  8
0
100
AcDbCircle
 10
0.520432276
 20
0.345050357
 30
0.0
 40
0.004
  0
CIRCLE
  5
3A3
330
17
100
AcDbEntity
  8
0
100
AcDbCircle
 10
0.669129091
 20
0.256298584
 30
0.0
 40
0.004
  0
CIRCLE
  5
3A4
330
17
100
AcDbEntity
  8
0
100
AcDbCircle
 10
0.438685417
 20
0.257423767
 30
0.0
 40
0.004
  0
CIRCLE
  5
3A5
330
17
100
AcDbEntity
  8
0
100
AcDbCircle
 10
0.419081143
 20
0.184488695
 30
0.0
 40
0.004
  0
CIRCLE
  5
3A6
330
17
100
AcDbEntity
  8
0
100
AcDbCircle
 10
0.596034424
 20
0.462462439
 30
0.0
 40
0.004
  0
CIRCLE
  5
3A7
330
17
100
AcDbEntity
  8
0
100
AcDbCircle
 10
0.595110377
 20
0.150308188
 30
0.0
 40
0.004
  0
CIRCLE
  5
3A8
330
17
100
AcDbEntity
  8
0
100
AcDbCircle
 10
0.376789442
 20
0.0653763058
 30
0.0
 40
0.004
  0
CIRCLE
  5
3A9
330
17
100
AcDbEntity
  8
0
100
AcDbCircle
 10
0.420492493
 20
0.346745591
 30
0.0
 40
0.004
  0
CIRCLE
  5
3AA
330
17
100
AcDbEntity
  8
0
100
AcDbCircle
 10
0.646634587
 20
0.160975452
 30
0.0
 40
0.004
  0
CIRCLE
  5
3AB
330
17
100
AcDbEntity
  8
0
100
AcDbCircle
 10
0.614835447
 20
0.147731617
 30
0.0
 40
0.004
  0
CIRCLE
  5
3AC
330
17
100
AcDbEntity
  8
0
100
AcDbCircle
 10
0.765236507
 20
0.0707176361
 30
0.0
 40
0.004
  0
CIRCLE
  5
3AD
330
17
100
AcDbEntity
  8
0
100
AcDbCircle
 10
0.829033761
 20
0.184357769
 30
0.0
 40
0.004
  0
CIRCLE
  5
3AE
330
17
100
AcDbEntity
  8
0
100
AcDbCircle
 10
0.503672979
 20
0.370452924
 30
0.0
 40
0.004
  0
CIRCLE
  5
3AF
330
17
100
AcDbEntity
  8
0
100
AcDbCircle
 10
0.57497601
 20
0.378445294
 30
0.0
 40
0.004
  0
CIRCLE
  5
3B0
330
17
100
AcDbEntity
  8
0
100
AcDbCircle
 10
0.514689558
 20
0.224269379
 30
0.0
 40
0.004
  0
CIRCLE
  5
3B1
330
17
100
AcDbEntity
  8
0
100
AcDbCircle
 10
0.594244438
 20
0.0632347518
 30
0.0
 40
0.004
  0
CIRCLE
  5
3B2
330
17
100
AcDbEntity
  8
0
100
AcDbCircle
 10
0.396281109
 20
0.0773520605
 30
0.0
 40
0.004
  0
CIRCLE
  5
3B3
330
17
100
AcDbEntity
  8
0
100
AcDbCircle
 10
0.69369674
 20
0.137497232
 30
0.0
 40
0.004
  0
CIRCLE
  5
3B4
330
17
100
AcDbEntity
  8
0
100
AcDbCircle
 10
0.666530014
 20
0.0830861467
 30
0.0
 40
0.004
  0
CIRCLE
  5
3B5
330
17
100
AcDbEntity
  8
0
100
AcDbCircle
 10
0.544658757
 20
0.376647146
 30
0.0
 40
0.004
  0
CIRCLE
  5
3B6
330
17
100
AcDbEntity
  8
0
100
AcDbCircle
 10
0.489453323
 20
0.407462463
 30
0.0
 40
0.004
  0
CIRCLE
  5
3B7
330
17
100
AcDbEntity
  8
0
100
AcDbCircle
 10
0.540173287
 20
0.342472381
 30
0.0
 40
0.004
  0
CIRCLE
  5
3B8
330
17
100
AcDbEntity
  8
0
100
AcDbCircle
 10
0.496017865
 20
0.388861997
 30
0.0
 40
0.004
  0
CIRCLE
  5
3B9
330
17
100
AcDbEntity
  8
0
100
AcDbCircle
 10
0.575150921
 20
0.30319131
 30
0.0
 40
0.004
  0
CIRCLE
  5
3BA
330
17
100
AcDbEntity
  8
0
100
AcDbCircle
 10
0.645428624
 20
0.0744958901
 30
0.0
 40
0.004
  0
CIRCLE
  5
3BB
330
17
100
AcDbEntity
  8
0
100
AcDbCircle
 10
0.582029853
 20
0.0473530005
 30
0.0
 40
0.004
  0
CIRCLE
  5
3BC
330
17
100
AcDbEntity
  8
0
100
AcDbCircle
 10
0.66783024
 20
0.169793394
 30
0.0
 40
0.004
  0
CIRCLE
  5
3BD
330
17
100
AcDbEntity
  8
0
100
AcDbCircle
 10
0.570503083
 20
0.344299567
 30
0.0
 40
0.004
  0
CIRCLE
  5
3BE
330
17
100
AcDbEntity
  8
0
100
AcDbCircle
 10
0.512754411
 20
0.438389157
 30
0.0
 40
0.004
  0
CIRCLE
  5
3BF
330
17
100
AcDbEntity
  8
0
100
AcDbCircle
 10
0.678633678
 20
0.0989107016
 30
0.0
 40
0.004
  0
CIRCLE
  5
3C0
330
17
100
AcDbEntity
  8
0
100
AcDbCircle
 10
0.684810701
 20
0.0691061463
 30
0.0
 40
0.004
  0
CIRCLE
  5
3C1
330
17
100
AcDbEntity
  8
0
100
AcDbCircle
 10
0.487724806
 20
0.0945073706
 30
0.0
 40
0.004
  0
CIRCLE
  5
3C2
330
17
100
AcDbEntity
  8
0
100
AcDbCircle
 10
0.682283686
 20
0.0447269075
 30
0.0
 40
0.004
  0
CIRCLE
  5
3C3
330
17
100
AcDbEntity
  8
0
100
AcDbCircle
 10
0.511310863
 20
0.352046128
 30
0.0
 40
0.004
  0
CIRCLE
  5
3C4
330
17
100
AcDbEntity
  8
0
100
AcDbCircle
 10
0.575396533
 20
0.152865189
 30
0.0
 40
0.004
  0
CIRCLE
  5
3C5
330
17
100
AcDbEntity
  8
0
100
AcDbCircle
 10
0.53104934
 20
0.349460474
 30
0.0
 40
0.004
  0
CIRCLE
  5
3C6
330
17
100
AcDbEntity
  8
0
100
AcDbCircle
 10
0.464774065
 20
0.149631392
 30
0.0
 40
0.004
  0
CIRCLE
  5
3C7
330
17
100
AcDbEntity
  8
0
100
AcDbCircle
 10
0.684356396
 20
0.219664485
 30
0.0
 40
0.004
  0
CIRCLE
  5
3C8
330
17
100
AcDbEntity
  8
0
100
AcDbCircle
 10
0.590031632
 20
0.492126016
 30
0.0
 40
0.004
  0
CIRCLE
  5
3C9
330
17
100
AcDbEntity
  8
0
100
AcDbCircle
 10
0.644949746
 20
0.224833906
 30
0.0
 40
0.004
  0
CIRCLE
  5
3CA
330
17
100
AcDbEntity
  8
0
100
AcDbCircle
 10
0.682871075
 20
0.208305682
 30
0.0
 40
0.004
  0
CIRCLE
  5
3CB
330
17
100
AcDbEntity
  8
0
100
AcDbCircle
 10
0.67842532
 20
0.174199048
 30
0.0
 40
0.004
  0
CIRCLE
  5
3CC
330
17
100
AcDbEntity
  8
0
100
AcDbCircle
 10
0.561571708
 20
0.276038808
 30
0.0
 40
0.004
  0
CIRCLE
  5
3CD
330
17
100
AcDbEntity
  8
0
100
AcDbCircle
 10
0.679904431
 20
0.185572481
 30
0.0
 40
0.004
  0
CIRCLE
  5
3CE
330
17
100
AcDbEntity
  8
0
100
AcDbCircle
 10
0.466263115
 20
0.161037649
 30
0.0
 40
0.004
  0
CIRCLE
  5
3CF
330
17
100
AcDbEntity
  8
0
100
AcDbCircle
 10
0.477018417
 20
0.0900211921
 30
0.0
 40
0.004
  0
CIRCLE
  5
3D0
330
17
100
AcDbEntity
  8
0
100
AcDbCircle
 10
0.559900205
 20
0.339896303
 30
0.0
 40
0.004
  0
CIRCLE
  5
3D1
330
17
100
AcDbEntity
  8
0
100
AcDbCircle
 10
0.660036351
 20
0.263259428
 30
0.0
 40
0.004
  0
CIRCLE
  5
3D2
330
17
100
AcDbEntity
  8
0
100
AcDbCircle
 10
0.374755721
 20
0.155888004
 30
0.0
 40
0.004
  0
CIRCLE
  5
3D3
330
17
100
AcDbEntity
  8
0
100
AcDbCircle
 10
0.52729267
 20
0.0894706778
 30
0.0
 40
0.004
  0
CIRCLE
  5
3D4
330
17
100
AcDbEntity
  8
0
100
AcDbCircle
 10
0.690730713
 20
0.114722941
 30
0.0
 40
0.004
  0
CIRCLE
  5
3D5
330
17
100
AcDbEntity
  8
0
100
AcDbCircle
 10
0.476881011
 20
0.165459195
 30
0.0
 40
0.004
  0
CIRCLE
  5
3D6
330
17
100
AcDbEntity
  8
0
100
AcDbCircle
 10
0.677150391
 20
0.0875064579
 30
0.0
 40
0.004
  0
CIRCLE
  5
3D7
330
17
100
AcDbEntity
  8
0
100
AcDbCircle
 10
0.708978878
 20
0.100779061
 30
0.0
 40
0.004
  0
CIRCLE
  5
3D8
330
17
100
AcDbEntity
  8
0
100
AcDbCircle
 10
0.566893415
 20
0.0840732907
 30
0.0
 40
0.004
  0
CIRCLE
  5
3D9
330
17
100
AcDbEntity
  8
0
100
AcDbCircle
 10
0.837929884
 20
0.146719506
 30
0.0
 40
0.004
  0
CIRCLE
  5
3DA
330
17
100
AcDbEntity
  8
0
100
AcDbCircle
 10
0.692751022
 20
0.0493303621
 30
0.0
 40
0.004
  0
CIRCLE
  5
3DB
330
17
100
AcDbEntity
  8
0
100
AcDbCircle
 10
0.70133725
 20
0.119137498
 30
0.0
 40
0.004
  0
CIRCLE
  5
3DC
330
17
100
AcDbEntity
  8
0
100
AcDbCircle
 10
0.550782693
 20
0.346878683
 30
0.0
 40
0.004
  0
CIRCLE
  5
3DD
330
17
100
AcDbEntity
  8
0
100
AcDbCircle
 10
0.689248246
 20
0.103328236
 30
0.0
 40
0.004
  0
CIRCLE
  5
3DE
330
17
100
AcDbEntity
  8
0
100
AcDbCircle
 10
0.591551981
 20
0.428337172
 30
0.0
 40
0.004
  0
CIRCLE
  5
3DF
330
17
100
AcDbEntity
  8
0
100
AcDbCircle
 10
0.547685751
 20
0.399409681
 30
0.0
 40
0.004
  0
CIRCLE
  5
3E0
330
17
100
AcDbEntity
  8
0
100
AcDbCircle
 10
0.584536083
 20
0.145885952
 30
0.0
 40
0.004
  0
CIRCLE
  5
3E1
330
17
100
AcDbEntity
  8
0
100
AcDbCircle
 10
0.564817333
 20
0.148428242
 30
0.0
 40
0.004
  0
CIRCLE
  5
3E2
330
17
100
AcDbEntity
  8
0
100
AcDbCircle
 10
0.496913029
 20
0.0877954157
 30
0.0
 40
0.004
  0
CIRCLE
  5
3E3
330
17
100
AcDbEntity
  8
0
100
AcDbCircle
 10
0.671313422
 20
0.519719881
 30
0.0
 40
0.004
  0
CIRCLE
  5
3E4
330
17
100
AcDbEntity
  8
0
100
AcDbCircle
 10
0.434217053
 20
0.223194591
 30
0.0
 40
0.004
  0
CIRCLE
  5
3E5
330
17
100
AcDbEntity
  8
0
100
AcDbCircle
 10
0.43253239
 20
0.287251765
 30
0.0
 40
0.004
  0
CIRCLE
  5
3E6
330
17
100
AcDbEntity
  8
0
100
AcDbCircle
 10
0.504258134
 20
0.144517538
 30
0.0
 40
0.004
  0
CIRCLE
  5
3E7
330
17
100
AcDbEntity
  8
0
100
AcDbCircle
 10
0.680066963
 20
0.0328525318
 30
0.0
 40
0.004
  0
CIRCLE
  5
3E8
330
17
100
AcDbEntity
  8
0
100
AcDbCircle
 10
0.431040209
 20
0.275835564
 30
0.0
 40
0.004
  0
CIRCLE
  5
3E9
330
17
100
AcDbEntity
  8
0
100
AcDbCircle
 10
0.366891289
 20
0.0595406118
 30
0.0
 40
0.004
  0
CIRCLE
  5
3EA
330
17
100
AcDbEntity
  8
0
100
AcDbCircle
 10
0.356869933
 20
0.0651169429
 30
0.0
 40
0.004
  0
CIRCLE
  5
3EB
330
17
100
AcDbEntity
  8
0
100
AcDbCircle
 10
0.411276122
 20
0.278414259
 30
0.0
 40
0.004
  0
CIRCLE
  5
3EC
330
17
100
AcDbEntity
  8
0
100
AcDbCircle
 10
0.543157245
 20
0.365259597
 30
0.0
 40
0.004
  0
CIRCLE
  5
3ED
330
17
100
AcDbEntity
  8
0
100
AcDbCircle
 10
0.550973727
 20
0.27163531
 30
0.0
 40
0.004
  0
CIRCLE
  5
3EE
330
17
100
AcDbEntity
  8
0
100
AcDbCircle
 10
0.783504037
 20
0.0568261651
 30
0.0
 40
0.004
  0
CIRCLE
  5
3EF
330
17
100
AcDbEntity
  8
0
100
AcDbCircle
 10
0.409961099
 20
0.191516157
 30
0.0
 40
0.004
  0
CIRCLE
  5
3F0
330
17
100
AcDbEntity
  8
0
100
AcDbCircle
 10
0.540150585
 20
0.417772189
 30
0.0
 40
0.004
  0
CIRCLE
  5
3F1
330
17
100
AcDbEntity
  8
0
100
AcDbCircle
 10
0.522169115
 20
0.281224322
 30
0.0
 40
0.004
  0
CIRCLE
  5
3F2
330
17
100
AcDbEntity
  8
0
100
AcDbCircle
 10
0.637361791
 20
0.24315469
 30
0.0
 40
0.004
  0
CIRCLE
  5
3F3
330
17
100
AcDbEntity
  8
0
100
AcDbCircle
 10
0.532587468
 20
0.436172554
 30
0.0
 40
0.004
  0
CIRCLE
  5
3F4
330
17
100
AcDbEntity
  8
0
100
AcDbCircle
 10
0.486006263
 20
0.158469326
 30
0.0
 40
0.004
  0
CIRCLE
  5
3F5
330
17
100
AcDbEntity
  8
0
100
AcDbCircle
 10
0.516692508
 20
0.085331279
 30
0.0
 40
0.004
  0
CIRCLE
  5
3F6
330
17
100
AcDbEntity
  8
0
100
AcDbCircle
 10
0.626916451
 20
0.163539272
 30
0.0
 40
0.004
  0
CIRCLE
  5
3F7
330
17
100
AcDbEntity
  8
0
100
AcDbCircle
 10
0.536510858
 20
0.082336283
 30
0.0
 40
0.004
  0
CIRCLE
  5
3F8
330
17
100
AcDbEntity
  8
0
100
AcDbCircle
 10
0.563062852
 20
0.287415723
 30
0.0
 40
0.004
  0
CIRCLE
  5
3F9
330
17
100
AcDbEntity
  8
0
100
AcDbCircle
 10
0.44186258
 20
0.20480065
 30
0.0
 40
0.004
  0
CIRCLE
  5
3FA
330
17
100
AcDbEntity
  8
0
100
AcDbCircle
 10
0.420407808
 20
0.271420906
 30
0.0
 40
0.004
  0
CIRCLE
  5
3FB
330
17
100
AcDbEntity
  8
0
100
AcDbCircle
 10
0.556333595
 20
0.0795193348
 30
0.0
 40
0.004
  0
CIRCLE
  5
3FC
330
17
100
AcDbEntity
  8
0
100
AcDbCircle
 10
0.443352761
 20
0.216209103
 30
0.0
 40
0.004
  0
CIRCLE
  5
3FD
330
17
100
AcDbEntity
  8
0
100
AcDbCircle
 10
0.574567029
 20
0.0656785355
 30
0.0
 40
0.004
  0
CIRCLE
  5
3FE
330
17
100
AcDbEntity
  8
0
100
AcDbCircle
 10
0.562878611
 20
0.362663909
 30
0.0
 40
0.004
  0
CIRCLE
  5
3FF
330
17
100
AcDbEntity
  8
0
100
AcDbCircle
 10
0.576031792
 20
0.0770742286
 30
0.0
 40
0.004
  0
CIRCLE
  5
400
330
17
100
AcDbEntity
  8
0
100
AcDbCircle
 10
0.523990331
 20
0.1419878
 30
0.0
 40
0.004
  0
CIRCLE
  5
401
330
17
100
AcDbEntity
  8
0
100
AcDbCircle
 10
0.31290386
 20
0.215172473
 30
0.0
 40
0.004
  0
CIRCLE
  5
402
330
17
100
AcDbEntity
  8
0
100
AcDbCircle
 10
0.616313186
 20
0.159127375
 30
0.0
 40
0.004
  0
CIRCLE
  5
403
330
17
100
AcDbEntity
  8
0
100
AcDbCircle
 10
0.57186169
 20
0.430942857
 30
0.0
 40
0.004
  0
CIRCLE
  5
404
330
17
100
AcDbEntity
  8
0
100
AcDbCircle
 10
0.636035737
 20
0.156561561
 30
0.0
 40
0.004
  0
CIRCLE
  5
405
330
17
100
AcDbEntity
  8
0
100
AcDbCircle
 10
0.37662708
 20
0.0428318706
 30
0.0
 40
0.004
  0
CIRCLE
  5
406
330
17
100
AcDbEntity
  8
0
100
AcDbCircle
 10
0.564371222
 20
0.374048
 30
0.0
 40
0.004
  0
CIRCLE
  5
407
330
17
100
AcDbEntity
  8
0
100
AcDbCircle
 10
0.748415286
 20
0.0956924335
 30
0.0
 40
0.004
  0
CIRCLE
  5
408
330
17
100
AcDbEntity
  8
0
100
AcDbCircle
 10
0.423447604
 20
0.294213112
 30
0.0
 40
0.004
  0
CIRCLE
  5
409
330
17
100
AcDbEntity
  8
0
100
AcDbCircle
 10
0.416122108
 20
0.312398024
 30
0.0
 40
0.004
  0
CIRCLE
  5
40A
330
17
100
AcDbEntity
  8
0
100
AcDbCircle
 10
0.588516984
 20
0.480755841
 30
0.0
 40
0.004
  0
CIRCLE
  5
40B
330
17
100
AcDbEntity
  8
0
100
AcDbCircle
 10
0.472446968
 20
0.131249764
 30
0.0
 40
0.004
  0
CIRCLE
  5
40C
330
17
100
AcDbEntity
  8
0
100
AcDbCircle
 10
0.587073024
 20
0.394218744
 30
0.0
 40
0.004
  0
CIRCLE
  5
40D
330
17
100
AcDbEntity
  8
0
100
AcDbCircle
 10
0.484021562
 20
0.373043304
 30
0.0
 40
0.004
  0
CIRCLE
  5
40E
330
17
100
AcDbEntity
  8
0
100
AcDbCircle
 10
0.606048369
 20
0.531147469
 30
0.0
 40
0.004
  0
CIRCLE
  5
40F
330
17
100
AcDbEntity
  8
0
100
AcDbCircle
 10
0.493660639
 20
0.140079806
 30
0.0
 40
0.004
  0
CIRCLE
  5
410
330
17
100
AcDbEntity
  8
0
100
AcDbCircle
 10
0.476726439
 20
0.391325608
 30
0.0
 40
0.004
  0
CIRCLE
  5
411
330
17
100
AcDbEntity
  8
0
100
AcDbCircle
 10
0.580957657
 20
0.423944465
 30
0.0
 40
0.004
  0
CIRCLE
  5
412
330
17
100
AcDbEntity
  8
0
100
AcDbCircle
 10
0.667644163
 20
0.244949607
 30
0.0
 40
0.004
  0
CIRCLE
  5
413
330
17
100
AcDbEntity
  8
0
100
AcDbCircle
 10
0.259817608
 20
0.193467449
 30
0.0
 40
0.004
  0
CIRCLE
  5
414
330
17
100
AcDbEntity
  8
0
100
AcDbCircle
 10
0.654548078
 20
0.0675093188
 30
0.0
 40
0.004
  0
CIRCLE
  5
415
330
17
100
AcDbEntity
  8
0
100
AcDbCircle
 10
0.676741493
 20
0.237983867
 30
0.0
 40
0.004
  0
CIRCLE
  5
416
330
17
100
AcDbEntity
  8
0
100
AcDbCircle
 10
0.665089638
 20
0.0716896808
 30
0.0
 40
0.004
  0
CIRCLE
  5
417
330
17
100
AcDbEntity
  8
0
100
AcDbCircle
 10
0.367017298
 20
0.0480539462
 30
0.0
 40
0.004
  0
CIRCLE
  5
418
330
17
100
AcDbEntity
  8
0
100
AcDbCircle
 10
0.544685552
 20
0.452111539
 30
0.0
 40
0.004
  0
CIRCLE
  5
419
330
17
100
AcDbEntity
  8
0
100
AcDbCircle
 10
0.37314364
 20
0.144597027
 30
0.0
 40
0.004
  0
CIRCLE
  5
41A
330
17
100
AcDbEntity
  8
0
100
AcDbCircle
 10
0.844880035
 20
0.0880455443
 30
0.0
 40
0.004
  0
CIRCLE
  5
41B
330
17
100
AcDbEntity
  8
0
100
AcDbCircle
 10
0.588566126
 20
0.405592434
 30
0.0
 40
0.004
  0
CIRCLE
  5
41C
330
17
100
AcDbEntity
  8
0
100
AcDbCircle
 10
0.395943064
 20
0.0651510658
 30
0.0
 40
0.004
  0
CIRCLE
  5
41D
330
17
100
AcDbEntity
  8
0
100
AcDbCircle
 10
0.696897916
 20
0.0849473588
 30
0.0
 40
0.004
  0
CIRCLE
  5
41E
330
17
100
AcDbEntity
  8
0
100
AcDbCircle
 10
0.75608868
 20
0.0775058218
 30
0.0
 40
0.004
  0
CIRCLE
  5
41F
330
17
100
AcDbEntity
  8
0
100
AcDbCircle
 10
0.578032662
 20
0.476334942
 30
0.0
 40
0.004
  0
CIRCLE
  5
420
330
17
100
AcDbEntity
  8
0
100
AcDbCircle
 10
0.429724663
 20
0.188925806
 30
0.0
 40
0.004
  0
CIRCLE
  5
421
330
17
100
AcDbEntity
  8
0
100
AcDbCircle
 10
0.362675166
 20
0.140086912
 30
0.0
 40
0.004
  0
CIRCLE
  5
422
330
17
100
AcDbEntity
  8
0
100
AcDbCircle
 10
0.412823736
 20
0.289790264
 30
0.0
 40
0.004
  0
CIRCLE
  5
423
330
17
100
AcDbEntity
  8
0
100
AcDbCircle
 10
0.721059424
 20
0.116586688
 30
0.0
 40
0.004
  0
CIRCLE
  5
424
330
17
100
AcDbEntity
  8
0
100
AcDbCircle
 10
0.675257324
 20
0.226629516
 30
0.0
 40
0.004
  0
CIRCLE
  5
425
330
17
100
AcDbEntity
  8
0
100
AcDbCircle
 10
0.386048958
 20
0.0592068167
 30
0.0
 40
0.004
  0
CIRCLE
  5
426
330
17
100
AcDbEntity
  8
0
100
AcDbCircle
 10
0.355367924
 20
0.158176842
 30
0.0
 40
0.004
  0
CIRCLE
  5
427
330
17
100
AcDbEntity
  8
0
100
AcDbCircle
 10
0.655751341
 20
0.154002926
 30
0.0
 40
0.004
  0
CIRCLE
  5
428
330
17
100
AcDbEntity
  8
0
100
AcDbCircle
 10
0.485480637
 20
0.384440428
 30
0.0
 40
0.004
  0
CIRCLE
  5
429
330
17
100
AcDbEntity
  8
0
100
AcDbCircle
 10
0.552272319
 20
0.35826502
 30
0.0
 40
0.004
  0
CIRCLE
  5
42A
330
17
100
AcDbEntity
  8
0
100
AcDbCircle
 10
0.259083942
 20
0.107466264
 30
0.0
 40
0.004
  0
CIRCLE
  5
42B
330
17
100
AcDbEntity
  8
0
100
AcDbCircle
 10
0.737823803
 20
0.0912728575
 30
0.0
 40
0.004
  0
CIRCLE
  5
42C
330
17
100
AcDbEntity
  8
0
100
AcDbCircle
 10
0.647144699
 20
0.550109259
 30
0.0
 40
0.004
  0
CIRCLE
  5
42D
330
17
100
AcDbEntity
  8
0
100
AcDbCircle
 10
0.71810467
 20
0.0938113663
 30
0.0
 40
0.004
  0
CIRCLE
  5
42E
330
17
100
AcDbEntity
  8
0
100
AcDbCircle
 10
0.672907447
 20
0.0531022177
 30
0.0
 40
0.004
  0
CIRCLE
  5
42F
330
17
100
AcDbEntity
  8
0
100
AcDbCircle
 10
0.343150631
 20
0.142493888
 30
0.0
 40
0.004
  0
CIRCLE
  5
430
330
17
100
AcDbEntity
  8
0
100
AcDbCircle
 10
0.525296429
 20
0.22867086
 30
0.0
 40
0.004
  0
CIRCLE
  5
431
330
17
100
AcDbEntity
  8
0
100
AcDbCircle
 10
0.378066055
 20
0.178403955
 30
0.0
 40
0.004
  0
CIRCLE
  5
432
330
17
100
AcDbEntity
  8
0
100
AcDbCircle
 10
0.730177468
 20
0.109621691
 30
0.0
 40
0.004
  0
CIRCLE
  5
433
330
17
100
AcDbEntity
  8
0
100
AcDbCircle
 10
0.538886275
 20
0.255849325
 30
0.0
 40
0.004
  0
CIRCLE
  5
434
330
17
100
AcDbEntity
  8
0
100
AcDbCircle
 10
0.576471828
 20
0.38982356
 30
0.0
 40
0.004
  0
CIRCLE
  5
435
330
17
100
AcDbEntity
  8
0
100
AcDbCircle
 10
0.581164127
 20
0.498984003
 30
0.0
 40
0.004
  0
CIRCLE
  5
436
330
17
100
AcDbEntity
  8
0
100
AcDbCircle
 10
0.674230365
 20
0.0646975826
 30
0.0
 40
0.004
  0
CIRCLE
  5
437
330
17
100
AcDbEntity
  8
0
100
AcDbCircle
 10
0.710461138
 20
0.112169059
 30
0.0
 40
0.004
  0
CIRCLE
  5
438
330
17
100
AcDbEntity
  8
0
100
AcDbCircle
 10
0.593083434
 20
0.514855685
 30
0.0
 40
0.004
  0
CIRCLE
  5
439
330
17
100
AcDbEntity
  8
0
100
AcDbCircle
 10
0.385760588
 20
0.0481490471
 30
0.0
 40
0.004
  0
CIRCLE
  5
43A
330
17
100
AcDbEntity
  8
0
100
AcDbCircle
 10
0.673981003
 20
0.140061946
 30
0.0
 40
0.004
  0
CIRCLE
  5
43B
330
17
100
AcDbEntity
  8
0
100
AcDbCircle
 10
0.365949611
 20
0.162619632
 30
0.0
 40
0.004
  0
CIRCLE
  5
43C
330
17
100
AcDbEntity
  8
0
100
AcDbCircle
 10
0.675464342
 20
0.151443193
 30
0.0
 40
0.004
  0
CIRCLE
  5
43D
330
17
100
AcDbEntity
  8
0
100
AcDbCircle
 10
0.58546266
 20
0.458068743
 30
0.0
 40
0.004
  0
CIRCLE
  5
43E
330
17
100
AcDbEntity
  8
0
100
AcDbCircle
 10
0.391703416
 20
0.205528758
 30
0.0
 40
0.004
  0
CIRCLE
  5
43F
330
17
100
AcDbEntity
  8
0
100
AcDbCircle
 10
0.66634931
 20
0.158414712
 30
0.0
 40
0.004
  0
CIRCLE
  5
440
330
17
100
AcDbEntity
  8
0
100
AcDbCircle
 10
0.424936677
 20
0.305633695
 30
0.0
 40
0.004
  0
CIRCLE
  5
441
330
17
100
AcDbEntity
  8
0
100
AcDbCircle
 10
0.431235388
 20
0.200373012
 30
0.0
 40
0.004
  0
CIRCLE
  5
442
330
17
100
AcDbEntity
  8
0
100
AcDbCircle
 10
0.35370556
 20
0.146935098
 30
0.0
 40
0.004
  0
CIRCLE
  5
443
330
17
100
AcDbEntity
  8
0
100
AcDbCircle
 10
0.402336118
 20
0.209940199
 30
0.0
 40
0.004
  0
CIRCLE
  5
444
330
17
100
AcDbEntity
  8
0
100
AcDbCircle
 10
0.579465214
 20
0.41257157
 30
0.0
 40
0.004
  0
CIRCLE
  5
445
330
17
100
AcDbEntity
  8
0
100
AcDbCircle
 10
0.558415393
 20
0.328516256
 30
0.0
 40
0.004
  0
CIRCLE
  5
446
330
17
100
AcDbEntity
  8
0
100
AcDbCircle
 10
0.492189471
 20
0.128669189
 30
0.0
 40
0.004
  0
CIRCLE
  5
447
330
17
100
AcDbEntity
  8
0
100
AcDbCircle
 10
0.566042773
 20
0.310165524
 30
0.0
 40
0.004
  0
CIRCLE
  5
448
330
17
100
AcDbEntity
  8
0
100
AcDbCircle
 10
0.241341892
 20
0.143056967
 30
0.0
 40
0.004
  0
CIRCLE
  5
449
330
17
100
AcDbEntity
  8
0
100
AcDbCircle
 10
0.535553449
 20
0.383646006
 30
0.0
 40
0.004
  0
CIRCLE
  5
44A
330
17
100
AcDbEntity
  8
0
100
AcDbCircle
 10
0.583968821
 20
0.446692844
 30
0.0
 40
0.004
  0
CIRCLE
  5
44B
330
17
100
AcDbEntity
  8
0
100
AcDbCircle
 10
0.567529989
 20
0.321541648
 30
0.0
 40
0.004
  0
CIRCLE
  5
44C
330
17
100
AcDbEntity
  8
0
100
AcDbCircle
 10
0.728704973
 20
0.0982363673
 30
0.0
 40
0.004
  0
CIRCLE
  5
44D
330
17
100
AcDbEntity
  8
0
100
AcDbCircle
 10
0.346948944
 20
0.0593045348
 30
0.0
 40
0.004
  0
CIRCLE
  5
44E
330
17
100
AcDbEntity
  8
0
100
AcDbCircle
 10
0.327210926
 20
0.0477295971
 30
0.0
 40
0.004
  0
CIRCLE
  5
44F
330
17
100
AcDbEntity
  8
0
100
AcDbCircle
 10
0.576474562
 20
0.465026352
 30
0.0
 40
0.004
  0
CIRCLE
  5
450
330
17
100
AcDbEntity
  8
0
100
AcDbCircle
 10
0.529779828
 20
0.262841841
 30
0.0
 40
0.004
  0
CIRCLE
  5
451
330
17
100
AcDbEntity
  8
0
100
AcDbCircle
 10
0.537393053
 20
0.244463192
 30
0.0
 40
0.004
  0
CIRCLE
  5
452
330
17
100
AcDbEntity
  8
0
100
AcDbCircle
 10
0.4114728
 20
0.202945573
 30
0.0
 40
0.004
  0
CIRCLE
  5
453
330
17
100
AcDbEntity
  8
0
100
AcDbCircle
 10
0.331182597
 20
0.126639097
 30
0.0
 40
0.004
  0
CIRCLE
  5
454
330
17
100
AcDbEntity
  8
0
100
AcDbCircle
 10
0.546345133
 20
0.312736317
 30
0.0
 40
0.004
  0
CIRCLE
  5
455
330
17
100
AcDbEntity
  8
0
100
AcDbCircle
 10
0.311652198
 20
0.129091567
 30
0.0
 40
0.004
  0
CIRCLE
  5
456
330
17
100
AcDbEntity
  8
0
100
AcDbCircle
 10
0.405986986
 20
0.30800293
 30
0.0
 40
0.004
  0
CIRCLE
  5
457
330
17
100
AcDbEntity
  8
0
100
AcDbCircle
 10
0.341567091
 20
0.131215177
 30
0.0
 40
0.004
  0
CIRCLE
  5
458
330
17
100
AcDbEntity
  8
0
100
AcDbCircle
 10
0.573378551
 20
0.44231665
 30
0.0
 40
0.004
  0
CIRCLE
  5
459
330
17
100
AcDbEntity
  8
0
100
AcDbCircle
 10
0.510070327
 20
0.265465171
 30
0.0
 40
0.004
  0
CIRCLE
  5
45A
330
17
100
AcDbEntity
  8
0
100
AcDbCircle
 10
0.594577211
 20
0.526243566
 30
0.0
 40
0.004
  0
CIRCLE
  5
45B
330
17
100
AcDbEntity
  8
0
100
AcDbCircle
 10
0.367469621
 20
0.173985778
 30
0.0
 40
0.004
  0
CIRCLE
  5
45C
330
17
100
AcDbEntity
  8
0
100
AcDbCircle
 10
0.526791063
 20
0.240059832
 30
0.0
 40
0.004
  0
CIRCLE
  5
45D
330
17
100
AcDbEntity
  8
0
100
AcDbCircle
 10
0.582709634
 20
0.510338252
 30
0.0
 40
0.004
  0
CIRCLE
  5
45E
330
17
100
AcDbEntity
  8
0
100
AcDbCircle
 10
0.382562942
 20
0.212523276
 30
0.0
 40
0.004
  0
CIRCLE
  5
45F
330
17
100
AcDbEntity
  8
0
100
AcDbCircle
 10
0.32683664
 20
0.0591821455
 30
0.0
 40
0.004
  0
CIRCLE
  5
460
330
17
100
AcDbEntity
  8
0
100
AcDbCircle
 10
0.404177687
 20
0.296815752
 30
0.0
 40
0.004
  0
CIRCLE
  5
461
330
17
100
AcDbEntity
  8
0
100
AcDbCircle
 10
0.847742611
 20
0.0494204405
 30
0.0
 40
0.004
  0
CIRCLE
  5
462
330
17
100
AcDbEntity
  8
0
100
AcDbCircle
 10
0.516042684
 20
0.310936108
 30
0.0
 40
0.004
  0
CIRCLE
  5
463
330
17
100
AcDbEntity
  8
0
100
AcDbCircle
 10
0.698372524
 20
0.0963527959
 30
0.0
 40
0.004
  0
CIRCLE
  5
464
330
17
100
AcDbEntity
  8
0
100
AcDbCircle
 10
0.268031704
 20
0.100381368
 30
0.0
 40
0.004
  0
CIRCLE
  5
465
330
17
100
AcDbEntity
  8
0
100
AcDbCircle
 10
0.33692501
 20
0.0648697946
 30
0.0
 40
0.004
  0
CIRCLE
  5
466
330
17
100
AcDbEntity
  8
0
100
AcDbCircle
 10
0.251351633
 20
0.136839757
 30
0.0
 40
0.004
  0
CIRCLE
  5
467
330
17
100
AcDbEntity
  8
0
100
AcDbCircle
 10
0.393917588
 20
0.29274448
 30
0.0
 40
0.004
  0
CIRCLE
  5
468
330
17
100
AcDbEntity
  8
0
100
AcDbCircle
 10
0.585900811
 20
0.232462992
 30
0.0
 40
0.004
  0
CIRCLE
  5
469
330
17
100
AcDbEntity
  8
0
100
AcDbCircle
 10
0.608606794
 20
0.252658662
 30
0.0
 40
0.004
  0
CIRCLE
  5
46A
330
17
100
AcDbEntity
  8
0
100
AcDbCircle
 10
0.272154833
 20
0.0687260638
 30
0.0
 40
0.004
  0
CIRCLE
  5
46B
330
17
100
AcDbEntity
  8
0
100
AcDbCircle
 10
0.390203684
 20
0.194149881
 30
0.0
 40
0.004
  0
CIRCLE
  5
46C
330
17
100
AcDbEntity
  8
0
100
AcDbCircle
 10
0.541868597
 20
0.278612898
 30
0.0
 40
0.004
  0
CIRCLE
  5
46D
330
17
100
AcDbEntity
  8
0
100
AcDbCircle
 10
0.231224591
 20
0.160579386
 30
0.0
 40
0.004
  0
CIRCLE
  5
46E
330
17
100
AcDbEntity
  8
0
100
AcDbCircle
 10
0.55545135
 20
0.305763431
 30
0.0
 40
0.004
  0
CIRCLE
  5
46F
330
17
100
AcDbEntity
  8
0
100
AcDbCircle
 10
0.487197173
 20
0.320588216
 30
0.0
 40
0.004
  0
CIRCLE
  5
470
330
17
100
AcDbEntity
  8
0
100
AcDbCircle
 10
0.399324684
 20
0.187131906
 30
0.0
 40
0.004
  0
CIRCLE
  5
471
330
17
100
AcDbEntity
  8
0
100
AcDbCircle
 10
0.319289023
 20
0.110642665
 30
0.0
 40
0.004
  0
CIRCLE
  5
472
330
17
100
AcDbEntity
  8
0
100
AcDbCircle
 10
0.67044965
 20
0.342728688
 30
0.0
 40
0.004
  0
CIRCLE
  5
473
330
17
100
AcDbEntity
  8
0
100
AcDbCircle
 10
0.322215532
 20
0.133485366
 30
0.0
 40
0.004
  0
CIRCLE
  5
474
330
17
100
AcDbEntity
  8
0
100
AcDbCircle
 10
0.519180867
 20
0.258454769
 30
0.0
 40
0.004
  0
CIRCLE
  5
475
330
17
100
AcDbEntity
  8
0
100
AcDbCircle
 10
0.564717637
 20
0.223588653
 30
0.0
 40
0.004
  0
CIRCLE
  5
476
330
17
100
AcDbEntity
  8
0
100
AcDbCircle
 10
0.279979444
 20
0.116067271
 30
0.0
 40
0.004
  0
CIRCLE
  5
477
330
17
100
AcDbEntity
  8
0
100
AcDbCircle
 10
0.681014555
 20
0.347092134
 30
0.0
 40
0.004
  0
CIRCLE
  5
478
330
17
100
AcDbEntity
  8
0
100
AcDbCircle
 10
0.55396047
 20
0.294388052
 30
0.0
 40
0.004
  0
CIRCLE
  5
479
330
17
100
AcDbEntity
  8
0
100
AcDbCircle
 10
0.299645417
 20
0.112973829
 30
0.0
 40
0.004
  0
CIRCLE
  5
47A
330
17
100
AcDbEntity
  8
0
100
AcDbCircle
 10
0.310217082
 20
0.117506031
 30
0.0
 40
0.004
  0
CIRCLE
  5
47B
330
17
100
AcDbEntity
  8
0
100
AcDbCircle
 10
0.61010213
 20
0.264002135
 30
0.0
 40
0.004
  0
CIRCLE
  5
47C
330
17
100
AcDbEntity
  8
0
100
AcDbCircle
 10
0.654268646
 20
0.142618435
 30
0.0
 40
0.004
  0
CIRCLE
  5
47D
330
17
100
AcDbEntity
  8
0
100
AcDbCircle
 10
0.725790146
 20
0.0754558301
 30
0.0
 40
0.004
  0
CIRCLE
  5
47E
330
17
100
AcDbEntity
  8
0
100
AcDbCircle
 10
0.217854438
 20
0.175827639
 30
0.0
 40
0.004
  0
CIRCLE
  5
47F
330
17
100
AcDbEntity
  8
0
100
AcDbCircle
 10
0.543364196
 20
0.289988725
 30
0.0
 40
0.004
  0
CIRCLE
  5
480
330
17
100
AcDbEntity
  8
0
100
AcDbCircle
 10
0.628278089
 20
0.250116407
 30
0.0
 40
0.004
  0
CIRCLE
  5
481
330
17
100
AcDbEntity
  8
0
100
AcDbCircle
 10
0.278493265
 20
0.104506932
 30
0.0
 40
0.004
  0
CIRCLE
  5
482
330
17
100
AcDbEntity
  8
0
100
AcDbCircle
 10
0.278507723
 20
0.0306375533
 30
0.0
 40
0.004
  0
CIRCLE
  5
483
330
17
100
AcDbEntity
  8
0
100
AcDbCircle
 10
0.519995901
 20
0.058539822
 30
0.0
 40
0.004
  0
CIRCLE
  5
484
330
17
100
AcDbEntity
  8
0
100
AcDbCircle
 10
0.290533977
 20
0.120291119
 30
0.0
 40
0.004
  0
CIRCLE
  5
485
330
17
100
AcDbEntity
  8
0
100
AcDbCircle
 10
0.379595345
 20
0.189748203
 30
0.0
 40
0.004
  0
CIRCLE
  5
486
330
17
100
AcDbEntity
  8
0
100
AcDbCircle
 10
0.593479167
 20
0.214166018
 30
0.0
 40
0.004
  0
CIRCLE
  5
487
330
17
100
AcDbEntity
  8
0
100
AcDbCircle
 10
0.567372785
 20
0.396808488
 30
0.0
 40
0.004
  0
CIRCLE
  5
488
330
17
100
AcDbEntity
  8
0
100
AcDbCircle
 10
0.488701857
 20
0.331939852
 30
0.0
 40
0.004
  0
CIRCLE
  5
489
330
17
100
AcDbEntity
  8
0
100
AcDbCircle
 10
0.663383275
 20
0.135648973
 30
0.0
 40
0.004
  0
CIRCLE
  5
48A
330
17
100
AcDbEntity
  8
0
100
AcDbCircle
 10
0.661896414
 20
0.124264573
 30
0.0
 40
0.004
  0
CIRCLE
  5
48B
330
17
100
AcDbEntity
  8
0
100
AcDbCircle
 10
0.540523232
 20
0.19204375
 30
0.0
 40
0.004
  0
CIRCLE
  5
48C
330
17
100
AcDbEntity
  8
0
100
AcDbCircle
 10
0.736370537
 20
0.079906429
 30
0.0
 40
0.004
  0
CIRCLE
  5
48D
330
17
100
AcDbEntity
  8
0
100
AcDbCircle
 10
0.643677048
 20
0.138196792
 30
0.0
 40
0.004
  0
CIRCLE
  5
48E
330
17
100
AcDbEntity
  8
0
100
AcDbCircle
 10
0.33563434
 20
0.160708598
 30
0.0
 40
0.004
  0
CIRCLE
  5
48F
330
17
100
AcDbEntity
  8
0
100
AcDbCircle
 10
0.329691204
 20
0.115381933
 30
0.0
 40
0.004
  0
CIRCLE
  5
490
330
17
100
AcDbEntity
  8
0
100
AcDbCircle
 10
0.647959781
 20
0.247533028
 30
0.0
 40
0.004
  0
CIRCLE
  5
491
330
17
100
AcDbEntity
  8
0
100
AcDbCircle
 10
0.6494553
 20
0.258876571
 30
0.0
 40
0.004
  0
CIRCLE
  5
492
330
17
100
AcDbEntity
  8
0
100
AcDbCircle
 10
0.568873068
 20
0.408182808
 30
0.0
 40
0.004
  0
CIRCLE
  5
493
330
17
100
AcDbEntity
  8
0
100
AcDbCircle
 10
0.604994252
 20
0.566323084
 30
0.0
 40
0.004
  0
CIRCLE
  5
494
330
17
100
AcDbEntity
  8
0
100
AcDbCircle
 10
0.33419279
 20
0.149323185
 30
0.0
 40
0.004
  0
CIRCLE
  5
495
330
17
100
AcDbEntity
  8
0
100
AcDbCircle
 10
0.526641875
 20
0.315313723
 30
0.0
 40
0.004
  0
CIRCLE
  5
496
330
17
100
AcDbEntity
  8
0
100
AcDbCircle
 10
0.605576155
 20
0.22995337
 30
0.0
 40
0.004
  0
CIRCLE
  5
497
330
17
100
AcDbEntity
  8
0
100
AcDbCircle
 10
0.578299436
 20
0.250755453
 30
0.0
 40
0.004
  0
CIRCLE
  5
498
330
17
100
AcDbEntity
  8
0
100
AcDbCircle
 10
0.556772187
 20
0.392418882
 30
0.0
 40
0.004
  0
CIRCLE
  5
499
330
17
100
AcDbEntity
  8
0
100
AcDbCircle
 10
0.528401558
 20
0.176221714
 30
0.0
 40
0.004
  0
CIRCLE
  5
49A
330
17
100
AcDbEntity
  8
0
100
AcDbCircle
 10
0.395297686
 20
0.0122227044
 30
0.0
 40
0.004
  0
CIRCLE
  5
49B
330
17
100
AcDbEntity
  8
0
100
AcDbCircle
 10
0.302582393
 20
0.13605634
 30
0.0
 40
0.004
  0
CIRCLE
  5
49C
330
17
100
AcDbEntity
  8
0
100
AcDbCircle
 10
0.494816481
 20
0.302227769
 30
0.0
 40
0.004
  0
CIRCLE
  5
49D
330
17
100
AcDbEntity
  8
0
100
AcDbCircle
 10
0.452182475
 20
0.360026873
 30
0.0
 40
0.004
  0
CIRCLE
  5
49E
330
17
100
AcDbEntity
  8
0
100
AcDbCircle
 10
0.44441494
 20
0.378108671
 30
0.0
 40
0.004
  0
CIRCLE
  5
49F
330
17
100
AcDbEntity
  8
0
100
AcDbCircle
 10
0.516315932
 20
0.160373922
 30
0.0
 40
0.004
  0
CIRCLE
  5
4A0
330
17
100
AcDbEntity
  8
0
100
AcDbCircle
 10
0.549201514
 20
0.410791774
 30
0.0
 40
0.004
  0
CIRCLE
  5
4A1
330
17
100
AcDbEntity
  8
0
100
AcDbCircle
 10
0.651319441
 20
0.119860295
 30
0.0
 40
0.004
  0
CIRCLE
  5
4A2
330
17
100
AcDbEntity
  8
0
100
AcDbCircle
 10
0.344191945
 20
0.327739669
 30
0.0
 40
0.004
  0
CIRCLE
  5
4A3
330
17
100
AcDbEntity
  8
0
100
AcDbCircle
 10
0.358215793
 20
0.341943195
 30
0.0
 40
0.004
  0
CIRCLE
  5
4A4
330
17
100
AcDbEntity
  8
0
100
AcDbCircle
 10
0.531272527
 20
0.27422316
 30
0.0
 40
0.004
  0
CIRCLE
  5
4A5
330
17
100
AcDbEntity
  8
0
100
AcDbCircle
 10
0.745511021
 20
0.0731077044
 30
0.0
 40
0.004
  0
CIRCLE
  5
4A6
330
17
100
AcDbEntity
  8
0
100
AcDbCircle
 10
0.640363894
 20
0.26582586
 30
0.0
 40
0.004
  0
CIRCLE
  5
4A7
330
17
100
AcDbEntity
  8
0
100
AcDbCircle
 10
0.649835288
 20
0.108481887
 30
0.0
 40
0.004
  0
CIRCLE
  5
4A8
330
17
100
AcDbEntity
  8
0
100
AcDbCircle
 10
0.642214704
 20
0.126823052
 30
0.0
 40
0.004
  0
CIRCLE
  5
4A9
330
17
100
AcDbEntity
  8
0
100
AcDbCircle
 10
0.569281134
 20
0.182599006
 30
0.0
 40
0.004
  0
CIRCLE
  5
4AA
330
17
100
AcDbEntity
  8
0
100
AcDbCircle
 10
0.365985155
 20
0.333963719
 30
0.0
 40
0.004
  0
CIRCLE
  5
4AB
330
17
100
AcDbEntity
  8
0
100
AcDbCircle
 10
0.682497813
 20
0.358416724
 30
0.0
 40
0.004
  0
CIRCLE
  5
4AC
330
17
100
AcDbEntity
  8
0
100
AcDbCircle
 10
0.542031362
 20
0.203398546
 30
0.0
 40
0.004
  0
CIRCLE
  5
4AD
330
17
100
AcDbEntity
  8
0
100
AcDbCircle
 10
0.292035838
 20
0.131788093
 30
0.0
 40
0.004
  0
CIRCLE
  5
4AE
330
17
100
AcDbEntity
  8
0
100
AcDbCircle
 10
0.323642185
 20
0.144890742
 30
0.0
 40
0.004
  0
CIRCLE
  5
4AF
330
17
100
AcDbEntity
  8
0
100
AcDbCircle
 10
0.566206362
 20
0.234962122
 30
0.0
 40
0.004
  0
CIRCLE
  5
4B0
330
17
100
AcDbEntity
  8
0
100
AcDbCircle
 10
0.596496106
 20
0.236886855
 30
0.0
 40
0.004
  0
CIRCLE
  5
4B1
330
17
100
AcDbEntity
  8
0
100
AcDbCircle
 10
0.481040461
 20
0.350298904
 30
0.0
 40
0.004
  0
CIRCLE
  5
4B2
330
17
100
AcDbEntity
  8
0
100
AcDbCircle
 10
0.730204261
 20
0.392903985
 30
0.0
 40
0.004
  0
CIRCLE
  5
4B3
330
17
100
AcDbEntity
  8
0
100
AcDbCircle
 10
0.559788234
 20
0.415175294
 30
0.0
 40
0.004
  0
CIRCLE
  5
4B4
330
17
100
AcDbEntity
  8
0
100
AcDbCircle
 10
0.674877776
 20
0.376729334
 30
0.0
 40
0.004
  0
CIRCLE
  5
4B5
330
17
100
AcDbEntity
  8
0
100
AcDbCircle
 10
0.459795427
 20
0.341623952
 30
0.0
 40
0.004
  0
CIRCLE
  5
4B6
330
17
100
AcDbEntity
  8
0
100
AcDbCircle
 10
0.573816765
 20
0.216659433
 30
0.0
 40
0.004
  0
CIRCLE
  5
4B7
330
17
100
AcDbEntity
  8
0
100
AcDbCircle
 10
0.673434904
 20
0.365387861
 30
0.0
 40
0.004
  0
CIRCLE
  5
4B8
330
17
100
AcDbEntity
  8
0
100
AcDbCircle
 10
0.514559896
 20
0.29958581
 30
0.0
 40
0.004
  0
CIRCLE
  5
4B9
330
17
100
AcDbEntity
  8
0
100
AcDbCircle
 10
0.491632291
 20
0.354669693
 30
0.0
 40
0.004
  0
CIRCLE
  5
4BA
330
17
100
AcDbEntity
  8
0
100
AcDbCircle
 10
0.629784674
 20
0.261444033
 30
0.0
 40
0.004
  0
CIRCLE
  5
4BB
330
17
100
AcDbEntity
  8
0
100
AcDbCircle
 10
0.584401768
 20
0.221099275
 30
0.0
 40
0.004
  0
CIRCLE
  5
4BC
330
17
100
AcDbEntity
  8
0
100
AcDbCircle
 10
0.63165378
 20
0.122401942
 30
0.0
 40
0.004
  0
CIRCLE
  5
4BD
330
17
100
AcDbEntity
  8
0
100
AcDbCircle
 10
0.617688031
 20
0.245721359
 30
0.0
 40
0.004
  0
CIRCLE
  5
4BE
330
17
100
AcDbEntity
  8
0
100
AcDbCircle
 10
0.561284413
 20
0.426562448
 30
0.0
 40
0.004
  0
CIRCLE
  5
4BF
330
17
100
AcDbEntity
  8
0
100
AcDbCircle
 10
0.591978292
 20
0.202797015
 30
0.0
 40
0.004
  0
CIRCLE
  5
4C0
330
17
100
AcDbEntity
  8
0
100
AcDbCircle
 10
0.453781161
 20
0.371266961
 30
0.0
 40
0.004
  0
CIRCLE
  5
4C1
330
17
100
AcDbEntity
  8
0
100
AcDbCircle
 10
0.560206166
 20
0.18954386
 30
0.0
 40
0.004
  0
CIRCLE
  5
4C2
330
17
100
AcDbEntity
  8
0
100
AcDbCircle
 10
0.354773431
 20
0.0115551668
 30
0.0
 40
0.004
  0
CIRCLE
  5
4C3
330
17
100
AcDbEntity
  8
0
100
AcDbCircle
 10
0.620689952
 20
0.268392459
 30
0.0
 40
0.004
  0
CIRCLE
  5
4C4
330
17
100
AcDbEntity
  8
0
100
AcDbCircle
 10
0.545123653
 20
0.150932044
 30
0.0
 40
0.004
  0
CIRCLE
  5
4C5
330
17
100
AcDbEntity
  8
0
100
AcDbCircle
 10
0.553781179
 20
0.445002204
 30
0.0
 40
0.004
  0
CIRCLE
  5
4C6
330
17
100
AcDbEntity
  8
0
100
AcDbCircle
 10
0.537487661
 20
0.16929635
 30
0.0
 40
0.004
  0
CIRCLE
  5
4C7
330
17
100
AcDbEntity
  8
0
100
AcDbCircle
 10
0.564374205
 20
0.449360219
 30
0.0
 40
0.004
  0
CIRCLE
  5
4C8
330
17
100
AcDbEntity
  8
0
100
AcDbCircle
 10
0.53426804
 20
0.296965876
 30
0.0
 40
0.004
  0
CIRCLE
  5
4C9
330
17
100
AcDbEntity
  8
0
100
AcDbCircle
 10
0.496321997
 20
0.31357251
 30
0.0
 40
0.004
  0
CIRCLE
  5
4CA
330
17
100
AcDbEntity
  8
0
100
AcDbCircle
 10
0.538992363
 20
0.0186467557
 30
0.0
 40
0.004
  0
CIRCLE
  5
4CB
330
17
100
AcDbEntity
  8
0
100
AcDbCircle
 10
0.572590351
 20
0.129958573
 30
0.0
 40
0.004
  0
CIRCLE
  5
4CC
330
17
100
AcDbEntity
  8
0
100
AcDbCircle
 10
0.31480392
 20
0.0114629828
 30
0.0
 40
0.004
  0
CIRCLE
  5
4CD
330
17
100
AcDbEntity
  8
0
100
AcDbCircle
 10
0.287494116
 20
0.0577664604
 30
0.0
 40
0.004
  0
CIRCLE
  5
4CE
330
17
100
AcDbEntity
  8
0
100
AcDbCircle
 10
0.572319109
 20
0.205296343
 30
0.0
 40
0.004
  0
CIRCLE
  5
4CF
330
17
100
AcDbEntity
  8
0
100
AcDbCircle
 10
0.583123505
 20
0.134443659
 30
0.0
 40
0.004
  0
CIRCLE
  5
4D0
330
17
100
AcDbEntity
  8
0
100
AcDbCircle
 10
0.616165263
 20
0.234370343
 30
0.0
 40
0.004
  0
CIRCLE
  5
4D1
330
17
100
AcDbEntity
  8
0
100
AcDbCircle
 10
0.529915483
 20
0.187598991
 30
0.0
 40
0.004
  0
CIRCLE
  5
4D2
330
17
100
AcDbEntity
  8
0
100
AcDbCircle
 10
0.52366903
 20
0.292591211
 30
0.0
 40
0.004
  0
CIRCLE
  5
4D3
330
17
100
AcDbEntity
  8
0
100
AcDbCircle
 10
0.588903585
 20
0.255176101
 30
0.0
 40
0.004
  0
CIRCLE
  5
4D4
330
17
100
AcDbEntity
  8
0
100
AcDbCircle
 10
0.842652741
 20
0.0253915315
 30
0.0
 40
0.004
  0
CIRCLE
  5
4D5
330
17
100
AcDbEntity
  8
0
100
AcDbCircle
 10
0.733883366
 20
0.057367593
 30
0.0
 40
0.004
  0
CIRCLE
  5
4D6
330
17
100
AcDbEntity
  8
0
100
AcDbCircle
 10
0.503942328
 20
0.295228039
 30
0.0
 40
0.004
  0
CIRCLE
  5
4D7
330
17
100
AcDbEntity
  8
0
100
AcDbCircle
 10
0.231553607
 20
0.214237302
 30
0.0
 40
0.004
  0
CIRCLE
  5
4D8
330
17
100
AcDbEntity
  8
0
100
AcDbCircle
 10
0.517804798
 20
0.171765029
 30
0.0
 40
0.004
  0
CIRCLE
  5
4D9
330
17
100
AcDbEntity
  8
0
100
AcDbCircle
 10
0.535758097
 20
0.308338089
 30
0.0
 40
0.004
  0
CIRCLE
  5
4DA
330
17
100
AcDbEntity
  8
0
100
AcDbCircle
 10
0.581403236
 20
0.198367181
 30
0.0
 40
0.004
  0
CIRCLE
  5
4DB
330
17
100
AcDbEntity
  8
0
100
AcDbCircle
 10
0.549601477
 20
0.185121662
 30
0.0
 40
0.004
  0
CIRCLE
  5
4DC
330
17
100
AcDbEntity
  8
0
100
AcDbCircle
 10
0.347063502
 20
0.338926149
 30
0.0
 40
0.004
  0
CIRCLE
  5
4DD
330
17
100
AcDbEntity
  8
0
100
AcDbCircle
 10
0.52543301
 20
0.153419462
 30
0.0
 40
0.004
  0
CIRCLE
  5
4DE
330
17
100
AcDbEntity
  8
0
100
AcDbCircle
 10
0.598003977
 20
0.248241131
 30
0.0
 40
0.004
  0
CIRCLE
  5
4DF
330
17
100
AcDbEntity
  8
0
100
AcDbCircle
 10
0.461307025
 20
0.352972592
 30
0.0
 40
0.004
  0
CIRCLE
  5
4E0
330
17
100
AcDbEntity
  8
0
100
AcDbCircle
 10
0.363052957
 20
0.32302851
 30
0.0
 40
0.004
  0
CIRCLE
  5
4E1
330
17
100
AcDbEntity
  8
0
100
AcDbCircle
 10
0.50838868
 20
0.329276192
 30
0.0
 40
0.004
  0
CIRCLE
  5
4E2
330
17
100
AcDbEntity
  8
0
100
AcDbCircle
 10
0.565976377
 20
0.460694022
 30
0.0
 40
0.004
  0
CIRCLE
  5
4E3
330
17
100
AcDbEntity
  8
0
100
AcDbCircle
 10
0.637801972
 20
0.0926402467
 30
0.0
 40
0.004
  0
CIRCLE
  5
4E4
330
17
100
AcDbEntity
  8
0
100
AcDbCircle
 10
0.618222458
 20
0.0950544192
 30
0.0
 40
0.004
  0
CIRCLE
  5
4E5
330
17
100
AcDbEntity
  8
0
100
AcDbCircle
 10
0.686580054
 20
0.465721731
 30
0.0
 40
0.004
  0
CIRCLE
  5
4E6
330
17
100
AcDbEntity
  8
0
100
AcDbCircle
 10
0.7229715
 20
0.376309367
 30
0.0
 40
0.004
  0
CIRCLE
  5
4E7
330
17
100
AcDbEntity
  8
0
100
AcDbCircle
 10
0.479563106
 20
0.33894984
 30
0.0
 40
0.004
  0
CIRCLE
  5
4E8
330
17
100
AcDbEntity
  8
0
100
AcDbCircle
 10
0.499284729
 20
0.336277261
 30
0.0
 40
0.004
  0
CIRCLE
  5
4E9
330
17
100
AcDbEntity
  8
0
100
AcDbCircle
 10
0.33480392
 20
0.0114629828
 30
0.0
 40
0.004
  0
CIRCLE
  5
4EA
330
17
100
AcDbEntity
  8
0
100
AcDbCircle
 10
0.552632765
 20
0.207813052
 30
0.0
 40
0.004
  0
CIRCLE
  5
4EB
330
17
100
AcDbEntity
  8
0
100
AcDbCircle
 10
0.57988842
 20
0.187006438
 30
0.0
 40
0.004
  0
CIRCLE
  5
4EC
330
17
100
AcDbEntity
  8
0
100
AcDbCircle
 10
0.245154641
 20
0.229034749
 30
0.0
 40
0.004
  0
CIRCLE
  5
4ED
330
17
100
AcDbEntity
  8
0
100
AcDbCircle
 10
0.500737808
 20
0.347658037
 30
0.0
 40
0.004
  0
CIRCLE
  5
4EE
330
17
100
AcDbEntity
  8
0
100
AcDbCircle
 10
0.536007979
 20
0.157885205
 30
0.0
 40
0.004
  0
CIRCLE
  5
4EF
330
17
100
AcDbEntity
  8
0
100
AcDbCircle
 10
0.548079831
 20
0.173751539
 30
0.0
 40
0.004
  0
CIRCLE
  5
4F0
330
17
100
AcDbEntity
  8
0
100
AcDbCircle
 10
0.4872988
 20
0.42585915
 30
0.0
 40
0.004
  0
CIRCLE
  5
4F1
330
17
100
AcDbEntity
  8
0
100
AcDbCircle
 10
0.606247638
 20
0.079087314
 30
0.0
 40
0.004
  0
CIRCLE
  5
4F2
330
17
100
AcDbEntity
  8
0
100
AcDbCircle
 10
0.513578065
 20
0.49675254
 30
0.0
 40
0.004
  0
CIRCLE
  5
4F3
330
17
100
AcDbEntity
  8
0
100
AcDbCircle
 10
0.499797778
 20
0.481977043
 30
0.0
 40
0.004
  0
CIRCLE
  5
4F4
330
17
100
AcDbEntity
  8
0
100
AcDbCircle
 10
0.496111003
 20
0.07622247
 30
0.0
 40
0.004
  0
CIRCLE
  5
4F5
330
17
100
AcDbEntity
  8
0
100
AcDbCircle
 10
0.506930632
 20
0.317923077
 30
0.0
 40
0.004
  0
CIRCLE
  5
4F6
330
17
100
AcDbEntity
  8
0
100
AcDbCircle
 10
0.561729325
 20
0.200880453
 30
0.0
 40
0.004
  0
CIRCLE
  5
4F7
330
17
100
AcDbEntity
  8
0
100
AcDbCircle
 10
0.357343631
 20
0.0422525763
 30
0.0
 40
0.004
  0
CIRCLE
  5
4F8
330
17
100
AcDbEntity
  8
0
100
AcDbCircle
 10
0.744422955
 20
0.0620210886
 30
0.0
 40
0.004
  0
CIRCLE
  5
4F9
330
17
100
AcDbEntity
  8
0
100
AcDbCircle
 10
0.384981765
 20
0.00664904047
 30
0.0
 40
0.004
  0
CIRCLE
  5
4FA
330
17
100
AcDbEntity
  8
0
100
AcDbCircle
 10
0.468923002
 20
0.334618464
 30
0.0
 40
0.004
  0
CIRCLE
  5
4FB
330
17
100
AcDbEntity
  8
0
100
AcDbCircle
 10
0.337646986
 20
0.0420395452
 30
0.0
 40
0.004
  0
CIRCLE
  5
4FC
330
17
100
AcDbEntity
  8
0
100
AcDbCircle
 10
0.65315199
 20
0.0565649616
 30
0.0
 40
0.004
  0
CIRCLE
  5
4FD
330
17
100
AcDbEntity
  8
0
100
AcDbCircle
 10
0.595623544
 20
0.0113226987
 30
0.0
 40
0.004
  0
CIRCLE
  5
4FE
330
17
100
AcDbEntity
  8
0
100
AcDbCircle
 10
0.374755196
 20
0.0124307046
 30
0.0
 40
0.004
  0
CIRCLE
  5
4FF
330
17
100
AcDbEntity
  8
0
100
AcDbCircle
 10
0.574801356
 20
0.0116415751
 30
0.0
 40
0.004
  0
CIRCLE
  5
500
330
17
100
AcDbEntity
  8
0
100
AcDbCircle
 10
0.729749756
 20
0.410737736
 30
0.0
 40
0.004
  0
CIRCLE
  5
501
330
17
100
AcDbEntity
  8
0
100
AcDbCircle
 10
0.473452109
 20
0.368675106
 30
0.0
 40
0.004
  0
CIRCLE
  5
502
330
17
100
AcDbEntity
  8
0
100
AcDbCircle
 10
0.592266058
 20
0.127450126
 30
0.0
 40
0.004
  0
CIRCLE
  5
503
330
17
100
AcDbEntity
  8
0
100
AcDbCircle
 10
0.562555692
 20
0.0499075126
 30
0.0
 40
0.004
  0
CIRCLE
  5
504
330
17
100
AcDbEntity
  8
0
100
AcDbCircle
 10
0.360628358
 20
0.26927889
 30
0.0
 40
0.004
  0
CIRCLE
  5
505
330
17
100
AcDbEntity
  8
0
100
AcDbCircle
 10
0.471911955
 20
0.357316168
 30
0.0
 40
0.004
  0
CIRCLE
  5
506
330
17
100
AcDbEntity
  8
0
100
AcDbCircle
 10
0.464445865
 20
0.375571618
 30
0.0
 40
0.004
  0
CIRCLE
  5
507
330
17
100
AcDbEntity
  8
0
100
AcDbCircle
 10
0.466261121
 20
0.386824996
 30
0.0
 40
0.004
  0
CIRCLE
  5
508
330
17
100
AcDbEntity
  8
0
100
AcDbCircle
 10
0.555010093
 20
0.0681760522
 30
0.0
 40
0.004
  0
CIRCLE
  5
509
330
17
100
AcDbEntity
  8
0
100
AcDbCircle
 10
0.301010458
 20
0.0287990712
 30
0.0
 40
0.004
  0
CIRCLE
  5
50A
330
17
100
AcDbEntity
  8
0
100
AcDbCircle
 10
0.619672295
 20
0.106497558
 30
0.0
 40
0.004
  0
CIRCLE
  5
50B
330
17
100
AcDbEntity
  8
0
100
AcDbCircle
 10
0.364773431
 20
0.00578166416
 30
0.0
 40
0.004
  0
CIRCLE
  5
50C
330
17
100
AcDbEntity
  8
0
100
AcDbCircle
 10
0.790186926
 20
0.188666818
 30
0.0
 40
0.004
  0
CIRCLE
  5
50D
330
17
100
AcDbEntity
  8
0
100
AcDbCircle
 10
0.797277901
 20
0.170403793
 30
0.0
 40
0.004
  0
CIRCLE
  5
50E
330
17
100
AcDbEntity
  8
0
100
AcDbCircle
 10
0.28407041
 20
0.150087892
 30
0.0
 40
0.004
  0
CIRCLE
  5
50F
330
17
100
AcDbEntity
  8
0
100
AcDbCircle
 10
0.630201946
 20
0.110997997
 30
0.0
 40
0.004
  0
CIRCLE
  5
510
330
17
100
AcDbEntity
  8
0
100
AcDbCircle
 10
0.376480675
 20
0.336833403
 30
0.0
 40
0.004
  0
CIRCLE
  5
511
330
17
100
AcDbEntity
  8
0
100
AcDbCircle
 10
0.282724685
 20
0.138816374
 30
0.0
 40
0.004
  0
CIRCLE
  5
512
330
17
100
AcDbEntity
  8
0
100
AcDbCircle
 10
0.843435355
 20
0.0179172798
 30
0.0
 40
0.004
  0
CIRCLE
  5
513
330
17
100
AcDbEntity
  8
0
100
AcDbCircle
 10
0.385924491
 20
0.300108308
 30
0.0
 40
0.004
  0
CIRCLE
  5
514
330
17
100
AcDbEntity
  8
0
100
AcDbCircle
 10
0.429738033
 20
0.413492789
 30
0.0
 40
0.004
  0
CIRCLE
  5
515
330
17
100
AcDbEntity
  8
0
100
AcDbCircle
 10
0.415544567
 20
0.399051548
 30
0.0
 40
0.004
  0
CIRCLE
  5
516
330
17
100
AcDbEntity
  8
0
100
AcDbCircle
 10
0.347296634
 20
0.0479268339
 30
0.0
 40
0.004
  0
CIRCLE
  5
517
330
17
100
AcDbEntity
  8
0
100
AcDbCircle
 10
0.732525611
 20
0.369502873
 30
0.0
 40
0.004
  0
CIRCLE
  5
518
330
17
100
AcDbEntity
  8
0
100
AcDbCircle
 10
0.607706584
 20
0.0905267544
 30
0.0
 40
0.004
  0
CIRCLE
  5
519
330
17
100
AcDbEntity
  8
0
100
AcDbCircle
 10
0.61531004
 20
0.0725255684
 30
0.0
 40
0.004
  0
CIRCLE
  5
51A
330
17
100
AcDbEntity
  8
0
100
AcDbCircle
 10
0.708707749
 20
0.410194496
 30
0.0
 40
0.004
  0
CIRCLE
  5
51B
330
17
100
AcDbEntity
  8
0
100
AcDbCircle
 10
0.634918975
 20
0.0703702495
 30
0.0
 40
0.004
  0
CIRCLE
  5
51C
330
17
100
AcDbEntity
  8
0
100
AcDbCircle
 10
0.346758284
 20
0.0816172577
 30
0.0
 40
0.004
  0
CIRCLE
  5
51D
330
17
100
AcDbEntity
  8
0
100
AcDbCircle
 10
0.639278716
 20
0.104040699
 30
0.0
 40
0.004
  0
CIRCLE
  5
51E
330
17
100
AcDbEntity
  8
0
100
AcDbCircle
 10
0.814419577
 20
0.242789039
 30
0.0
 40
0.004
  0
CIRCLE
  5
51F
330
17
100
AcDbEntity
  8
0
100
AcDbCircle
 10
0.838471032
 20
0.127584502
 30
0.0
 40
0.004
  0
CIRCLE
  5
520
330
17
100
AcDbEntity
  8
0
100
AcDbCircle
 10
0.810344601
 20
0.231707793
 30
0.0
 40
0.004
  0
CIRCLE
  5
521
330
17
100
AcDbEntity
  8
0
100
AcDbCircle
 10
0.662370632
 20
0.0491499588
 30
0.0
 40
0.004
  0
CIRCLE
  5
522
330
17
100
AcDbEntity
  8
0
100
AcDbCircle
 10
0.254051354
 20
0.221703489
 30
0.0
 40
0.004
  0
CIRCLE
  5
523
330
17
100
AcDbEntity
  8
0
100
AcDbCircle
 10
0.832704414
 20
0.136677007
 30
0.0
 40
0.004
  0
CIRCLE
  5
524
330
17
100
AcDbEntity
  8
0
100
AcDbCircle
 10
0.846616141
 20
0.0685982887
 30
0.0
 40
0.004
  0
CIRCLE
  5
525
330
17
100
AcDbEntity
  8
0
100
AcDbCircle
 10
0.502571351
 20
0.493934774
 30
0.0
 40
0.004
  0
CIRCLE
  5
526
330
17
100
AcDbEntity
  8
0
100
AcDbCircle
 10
0.32480392
 20
0.00568948006
 30
0.0
 40
0.004
  0
CIRCLE
  5
527
330
17
100
AcDbEntity
  8
0
100
AcDbCircle
 10
0.840294877
 20
0.077768417
 30
0.0
 40
0.004
  0
CIRCLE
  5
528
330
17
100
AcDbEntity
  8
0
100
AcDbCircle
 10
0.841562692
 20
0.0588253119
 30
0.0
 40
0.004
  0
CIRCLE
  5
529
330
17
100
AcDbEntity
  8
0
100
AcDbCircle
 10
0.327066754
 20
0.0816344
 30
0.0
 40
0.004
  0
CIRCLE
  5
52A
330
17
100
AcDbEntity
  8
0
100
AcDbCircle
 10
0.233987504
 20
0.225894645
 30
0.0
 40
0.004
  0
CIRCLE
  5
52B
330
17
100
AcDbEntity
  8
0
100
AcDbCircle
 10
0.714684466
 20
0.0115815666
 30
0.0
 40
0.004
  0
CIRCLE
  5
52C
330
17
100
AcDbEntity
  8
0
100
AcDbCircle
 10
0.734530487
 20
0.0114745808
 30
0.0
 40
0.004
  0
CIRCLE
  5
52D
330
17
100
AcDbEntity
  8
0
100
AcDbCircle
 10
0.585161915
 20
0.00566098374
 30
0.0
 40
0.004
  0
CIRCLE
  5
52E
330
17
100
AcDbEntity
  8
0
100
AcDbCircle
 10
0.32753454
 20
0.0928722886
 30
0.0
 40
0.004
  0
CIRCLE
  5
52F
330
17
100
AcDbEntity
  8
0
100
AcDbCircle
 10
0.413183823
 20
0.111832201
 30
0.0
 40
0.004
  0
CIRCLE
  5
530
330
17
100
AcDbEntity
  8
0
100
AcDbCircle
 10
0.680211757
 20
0.483867613
 30
0.0
 40
0.004
  0
CIRCLE
  5
531
330
17
100
AcDbEntity
  8
0
100
AcDbCircle
 10
0.236481358
 20
0.179288973
 30
0.0
 40
0.004
  0
CIRCLE
  5
532
330
17
100
AcDbEntity
  8
0
100
AcDbCircle
 10
0.56410515
 20
0.061334315
 30
0.0
 40
0.004
  0
CIRCLE
  5
533
330
17
100
AcDbEntity
  8
0
100
AcDbCircle
 10
0.625821892
 20
0.0770649953
 30
0.0
 40
0.004
  0
CIRCLE
  5
534
330
17
100
AcDbEntity
  8
0
100
AcDbCircle
 10
0.716799912
 20
0.444601426
 30
0.0
 40
0.004
  0
CIRCLE
  5
535
330
17
100
AcDbEntity
  8
0
100
AcDbCircle
 10
0.70640442
 20
0.462324513
 30
0.0
 40
0.004
  0
CIRCLE
  5
536
330
17
100
AcDbEntity
  8
0
100
AcDbCircle
 10
0.369358071
 20
0.261422298
 30
0.0
 40
0.004
  0
CIRCLE
  5
537
330
17
100
AcDbEntity
  8
0
100
AcDbCircle
 10
0.381726396
 20
0.277283724
 30
0.0
 40
0.004
  0
CIRCLE
  5
538
330
17
100
AcDbEntity
  8
0
100
AcDbCircle
 10
0.698299841
 20
0.407496899
 30
0.0
 40
0.004
  0
CIRCLE
  5
539
330
17
100
AcDbEntity
  8
0
100
AcDbCircle
 10
0.485491636
 20
0.0719313862
 30
0.0
 40
0.004
  0
CIRCLE
  5
53A
330
17
100
AcDbEntity
  8
0
100
AcDbCircle
 10
0.356729776
 20
0.0982419011
 30
0.0
 40
0.004
  0
CIRCLE
  5
53B
330
17
100
AcDbEntity
  8
0
100
AcDbCircle
 10
0.252168474
 20
0.211195753
 30
0.0
 40
0.004
  0
CIRCLE
  5
53C
330
17
100
AcDbEntity
  8
0
100
AcDbCircle
 10
0.375770116
 20
0.296740019
 30
0.0
 40
0.004
  0
CIRCLE
  5
53D
330
17
100
AcDbEntity
  8
0
100
AcDbCircle
 10
0.636413379
 20
0.55378338
 30
0.0
 40
0.004
  0
CIRCLE
  5
53E
330
17
100
AcDbEntity
  8
0
100
AcDbCircle
 10
0.705331513
 20
0.389416952
 30
0.0
 40
0.004
  0
CIRCLE
  5
53F
330
17
100
AcDbEntity
  8
0
100
AcDbCircle
 10
0.277949182
 20
0.0597745185
 30
0.0
 40
0.004
  0
CIRCLE
  5
540
330
17
100
AcDbEntity
  8
0
100
AcDbCircle
 10
0.280822484
 20
0.0409720673
 30
0.0
 40
0.004
  0
CIRCLE
  5
541
330
17
100
AcDbEntity
  8
0
100
AcDbCircle
 10
0.788681012
 20
0.177198768
 30
0.0
 40
0.004
  0
CIRCLE
  5
542
330
17
100
AcDbEntity
  8
0
100
AcDbCircle
 10
0.71650688
 20
0.456007978
 30
0.0
 40
0.004
  0
CIRCLE
  5
543
330
17
100
AcDbEntity
  8
0
100
AcDbCircle
 10
0.687960531
 20
0.475443008
 30
0.0
 40
0.004
  0
CIRCLE
  5
544
330
17
100
AcDbEntity
  8
0
100
AcDbCircle
 10
0.590699441
 20
0.0406421181
 30
0.0
 40
0.004
  0
CIRCLE
  5
545
330
17
100
AcDbEntity
  8
0
100
AcDbCircle
 10
0.465155049
 20
0.0742800396
 30
0.0
 40
0.004
  0
CIRCLE
  5
546
330
17
100
AcDbEntity
  8
0
100
AcDbCircle
 10
0.418252479
 20
0.41003168
 30
0.0
 40
0.004
  0
CIRCLE
  5
547
330
17
100
AcDbEntity
  8
0
100
AcDbCircle
 10
0.464493413
 20
0.0631658869
 30
0.0
 40
0.004
  0
CIRCLE
  5
548
330
17
100
AcDbEntity
  8
0
100
AcDbCircle
 10
0.571042976
 20
0.494531133
 30
0.0
 40
0.004
  0
CIRCLE
  5
549
330
17
100
AcDbEntity
  8
0
100
AcDbCircle
 10
0.317878319
 20
0.041848276
 30
0.0
 40
0.004
  0
CIRCLE
  5
54A
330
17
100
AcDbEntity
  8
0
100
AcDbCircle
 10
0.336867378
 20
0.0759995512
 30
0.0
 40
0.004
  0
CIRCLE
  5
54B
330
17
100
AcDbEntity
  8
0
100
AcDbCircle
 10
0.514193212
 20
0.0212985508
 30
0.0
 40
0.004
  0
CIRCLE
  5
54C
330
17
100
AcDbEntity
  8
0
100
AcDbCircle
 10
0.440997124
 20
0.117417887
 30
0.0
 40
0.004
  0
CIRCLE
  5
54D
330
17
100
AcDbEntity
  8
0
100
AcDbCircle
 10
0.621373513
 20
0.579410041
 30
0.0
 40
0.004
  0
CIRCLE
  5
54E
330
17
100
AcDbEntity
  8
0
100
AcDbCircle
 10
0.68401116
 20
0.443859548
 30
0.0
 40
0.004
  0
CIRCLE
  5
54F
330
17
100
AcDbEntity
  8
0
100
AcDbCircle
 10
0.777491935
 20
0.258369237
 30
0.0
 40
0.004
  0
CIRCLE
  5
550
330
17
100
AcDbEntity
  8
0
100
AcDbCircle
 10
0.634142623
 20
0.564835932
 30
0.0
 40
0.004
  0
CIRCLE
  5
551
330
17
100
AcDbEntity
  8
0
100
AcDbCircle
 10
0.806625859
 20
0.0880631741
 30
0.0
 40
0.004
  0
CIRCLE
  5
552
330
17
100
AcDbEntity
  8
0
100
AcDbCircle
 10
0.660954072
 20
0.0381778299
 30
0.0
 40
0.004
  0
CIRCLE
  5
553
330
17
100
AcDbEntity
  8
0
100
AcDbCircle
 10
0.515509587
 20
0.0105860773
 30
0.0
 40
0.004
  0
CIRCLE
  5
554
330
17
100
AcDbEntity
  8
0
100
AcDbCircle
 10
0.494963426
 20
0.0103005367
 30
0.0
 40
0.004
  0
CIRCLE
  5
555
330
17
100
AcDbEntity
  8
0
100
AcDbCircle
 10
0.561751651
 20
0.531284322
 30
0.0
 40
0.004
  0
CIRCLE
  5
556
330
17
100
AcDbEntity
  8
0
100
AcDbCircle
 10
0.753603788
 20
0.0448337455
 30
0.0
 40
0.004
  0
CIRCLE
  5
557
330
17
100
AcDbEntity
  8
0
100
AcDbCircle
 10
0.676143786
 20
0.462298849
 30
0.0
 40
0.004
  0
CIRCLE
  5
558
330
17
100
AcDbEntity
  8
0
100
AcDbCircle
 10
0.773201176
 20
0.0529566947
 30
0.0
 40
0.004
  0
CIRCLE
  5
559
330
17
100
AcDbEntity
  8
0
100
AcDbCircle
 10
0.446389871
 20
0.388989432
 30
0.0
 40
0.004
  0
CIRCLE
  5
55A
330
17
100
AcDbEntity
  8
0
100
AcDbCircle
 10
0.651546645
 20
0.518516811
 30
0.0
 40
0.004
  0
CIRCLE
  5
55B
330
17
100
AcDbEntity
  8
0
100
AcDbCircle
 10
0.281940701
 20
0.20155201
 30
0.0
 40
0.004
  0
CIRCLE
  5
55C
330
17
100
AcDbEntity
  8
0
100
AcDbCircle
 10
0.562874528
 20
0.501539201
 30
0.0
 40
0.004
  0
CIRCLE
  5
55D
330
17
100
AcDbEntity
  8
0
100
AcDbCircle
 10
0.660832166
 20
0.524298162
 30
0.0
 40
0.004
  0
CIRCLE
  5
55E
330
17
100
AcDbEntity
  8
0
100
AcDbCircle
 10
0.475587272
 20
0.0790181535
 30
0.0
 40
0.004
  0
CIRCLE
  5
55F
330
17
100
AcDbEntity
  8
0
100
AcDbCircle
 10
0.724684466
 20
0.00580806395
 30
0.0
 40
0.004
  0
CIRCLE
  5
560
330
17
100
AcDbEntity
  8
0
100
AcDbCircle
 10
0.649102132
 20
0.539351198
 30
0.0
 40
0.004
  0
CIRCLE
  5
561
330
17
100
AcDbEntity
  8
0
100
AcDbCircle
 10
0.286309823
 20
0.00486431333
 30
0.0
 40
0.004
  0
CIRCLE
  5
562
330
17
100
AcDbEntity
  8
0
100
AcDbCircle
 10
0.206043715
 20
0.199069377
 30
0.0
 40
0.004
  0
CIRCLE
  5
563
330
17
100
AcDbEntity
  8
0
100
AcDbCircle
 10
0.2794096
 20
0.0114037385
 30
0.0
 40
0.004
  0
CIRCLE
  5
564
330
17
100
AcDbEntity
  8
0
100
AcDbCircle
 10
0.205788593
 20
0.189566111
 30
0.0
 40
0.004
  0
CIRCLE
  5
565
330
17
100
AcDbEntity
  8
0
100
AcDbCircle
 10
0.357324028
 20
0.108851315
 30
0.0
 40
0.004
  0
CIRCLE
  5
566
330
17
100
AcDbEntity
  8
0
100
AcDbCircle
 10
0.54823999
 20
0.517009126
 30
0.0
 40
0.004
  0
CIRCLE
  5
567
330
17
100
AcDbEntity
  8
0
100
AcDbCircle
 10
0.75382404
 20
0.0556190141
 30
0.0
 40
0.004
  0
CIRCLE
  5
568
330
17
100
AcDbEntity
  8
0
100
AcDbCircle
 10
0.64248646
 20
0.0529101969
 30
0.0
 40
0.004
  0
CIRCLE
  5
569
330
17
100
AcDbEntity
  8
0
100
AcDbCircle
 10
0.754932929
 20
0.313276231
 30
0.0
 40
0.004
  0
CIRCLE
  5
56A
330
17
100
AcDbEntity
  8
0
100
AcDbCircle
 10
0.762448711
 20
0.29504518
 30
0.0
 40
0.004
  0
CIRCLE
  5
56B
330
17
100
AcDbEntity
  8
0
100
AcDbCircle
 10
0.773140855
 20
0.022037549
 30
0.0
 40
0.004
  0
CIRCLE
  5
56C
330
17
100
AcDbEntity
  8
0
100
AcDbCircle
 10
0.739744687
 20
0.349942567
 30
0.0
 40
0.004
  0
CIRCLE
  5
56D
330
17
100
AcDbEntity
  8
0
100
AcDbCircle
 10
0.747246358
 20
0.331519206
 30
0.0
 40
0.004
  0
CIRCLE
  5
56E
330
17
100
AcDbEntity
  8
0
100
AcDbCircle
 10
0.826294116
 20
0.173414966
 30
0.0
 40
0.004
  0
CIRCLE
  5
56F
330
17
100
AcDbEntity
  8
0
100
AcDbCircle
 10
0.831337888
 20
0.155143782
 30
0.0
 40
0.004
  0
CIRCLE
  5
570
330
17
100
AcDbEntity
  8
0
100
AcDbCircle
 10
0.360646217
 20
0.129377768
 30
0.0
 40
0.004
  0
CIRCLE
  5
571
330
17
100
AcDbEntity
  8
0
100
AcDbCircle
 10
0.599823605
 20
0.593117574
 30
0.0
 40
0.004
  0
CIRCLE
  5
572
330
17
100
AcDbEntity
  8
0
100
AcDbCircle
 10
0.551422184
 20
0.0190083814
 30
0.0
 40
0.004
  0
CIRCLE
  5
573
330
17
100
AcDbEntity
  8
0
100
AcDbCircle
 10
0.609138697
 20
0.593123041
 30
0.0
 40
0.004
  0
CIRCLE
  5
574
330
17
100
AcDbEntity
  8
0
100
AcDbCircle
 10
0.478413638
 20
0.426506652
 30
0.0
 40
0.004
  0
CIRCLE
  5
575
330
17
100
AcDbEntity
  8
0
100
AcDbCircle
 10
0.559135374
 20
0.479119393
 30
0.0
 40
0.004
  0
CIRCLE
  5
576
330
17
100
AcDbEntity
  8
0
100
AcDbCircle
 10
0.799860173
 20
0.231112824
 30
0.0
 40
0.004
  0
CIRCLE
  5
577
330
17
100
AcDbEntity
  8
0
100
AcDbCircle
 10
0.726122952
 20
0.402860969
 30
0.0
 40
0.004
  0
CIRCLE
  5
578
330
17
100
AcDbEntity
  8
0
100
AcDbCircle
 10
0.379878772
 20
0.265502903
 30
0.0
 40
0.004
  0
CIRCLE
  5
579
330
17
100
AcDbEntity
  8
0
100
AcDbCircle
 10
0.397003335
 20
0.0233676691
 30
0.0
 40
0.004
  0
CIRCLE
  5
57A
330
17
100
AcDbEntity
  8
0
100
AcDbCircle
 10
0.794400016
 20
0.241911978
 30
0.0
 40
0.004
  0
CIRCLE
  5
57B
330
17
100
AcDbEntity
  8
0
100
AcDbCircle
 10
0.550977819
 20
0.486709508
 30
0.0
 40
0.004
  0
CIRCLE
  5
57C
330
17
100
AcDbEntity
  8
0
100
AcDbCircle
 10
0.485769557
 20
0.0267713561
 30
0.0
 40
0.004
  0
CIRCLE
  5
57D
330
17
100
AcDbEntity
  8
0
100
AcDbCircle
 10
0.832941854
 20
0.0412702591
 30
0.0
 40
0.004
  0
CIRCLE
  5
57E
330
17
100
AcDbEntity
  8
0
100
AcDbCircle
 10
0.494286453
 20
0.435783929
 30
0.0
 40
0.004
  0
CIRCLE
  5
57F
330
17
100
AcDbEntity
  8
0
100
AcDbCircle
 10
0.625499491
 20
0.526560487
 30
0.0
 40
0.004
  0
CIRCLE
  5
580
330
17
100
AcDbEntity
  8
0
100
AcDbCircle
 10
0.57130749
 20
0.533993313
 30
0.0
 40
0.004
  0
CIRCLE
  5
581
330
17
100
AcDbEntity
  8
0
100
AcDbCircle
 10
0.640417551
 20
0.0424441154
 30
0.0
 40
0.004
  0
CIRCLE
  5
582
330
17
100
AcDbEntity
  8
0
100
AcDbCircle
 10
0.803834209
 20
0.151678816
 30
0.0
 40
0.004
  0
CIRCLE
  5
583
330
17
100
AcDbEntity
  8
0
100
AcDbCircle
 10
0.784926749
 20
0.240108867
 30
0.0
 40
0.004
  0
CIRCLE
  5
584
330
17
100
AcDbEntity
  8
0
100
AcDbCircle
 10
0.792240257
 20
0.02218495
 30
0.0
 40
0.004
  0
CIRCLE
  5
585
330
17
100
AcDbEntity
  8
0
100
AcDbCircle
 10
0.616882933
 20
0.0225233889
 30
0.0
 40
0.004
  0
CIRCLE
  5
586
330
17
100
AcDbEntity
  8
0
100
AcDbCircle
 10
0.390293769
 20
0.0304816013
 30
0.0
 40
0.004
  0
CIRCLE
  5
587
330
17
100
AcDbEntity
  8
0
100
AcDbCircle
 10
0.386373417
 20
0.115514045
 30
0.0
 40
0.004
  0
CIRCLE
  5
588
330
17
100
AcDbEntity
  8
0
100
AcDbCircle
 10
0.323560161
 20
0.26174202
 30
0.0
 40
0.004
  0
CIRCLE
  5
589
330
17
100
AcDbEntity
  8
0
100
AcDbCircle
 10
0.654882337
 20
0.00914973842
 30
0.0
 40
0.004
  0
CIRCLE
  5
58A
330
17
100
AcDbEntity
  8
0
100
AcDbCircle
 10
0.772798373
 20
0.341607836
 30
0.0
 40
0.004
  0
CIRCLE
  5
58B
330
17
100
AcDbEntity
  8
0
100
AcDbCircle
 10
0.780542547
 20
0.32344181
 30
0.0
 40
0.004
  0
CIRCLE
  5
58C
330
17
100
AcDbEntity
  8
0
100
AcDbCircle
 10
0.622722172
 20
0.0554322984
 30
0.0
 40
0.004
  0
CIRCLE
  5
58D
330
17
100
AcDbEntity
  8
0
100
AcDbCircle
 10
0.535580262
 20
0.00954889525
 30
0.0
 40
0.004
  0
CIRCLE
  5
58E
330
17
100
AcDbEntity
  8
0
100
AcDbCircle
 10
0.55467675
 20
0.00991052091
 30
0.0
 40
0.004
  0
CIRCLE
  5
58F
330
17
100
AcDbEntity
  8
0
100
AcDbCircle
 10
0.492673481
 20
0.417610257
 30
0.0
 40
0.004
  0
CIRCLE
  5
590
330
17
100
AcDbEntity
  8
0
100
AcDbCircle
 10
0.723022101
 20
0.421197958
 30
0.0
 40
0.004
  0
CIRCLE
  5
591
330
17
100
AcDbEntity
  8
0
100
AcDbCircle
 10
0.503767458
 20
0.432764905
 30
0.0
 40
0.004
  0
CIRCLE
  5
592
330
17
100
AcDbEntity
  8
0
100
AcDbCircle
 10
0.410830663
 20
0.341916955
 30
0.0
 40
0.004
  0
CIRCLE
  5
593
330
17
100
AcDbEntity
  8
0
100
AcDbCircle
 10
0.427566832
 20
0.0729265892
 30
0.0
 40
0.004
  0
CIRCLE
  5
594
330
17
100
AcDbEntity
  8
0
100
AcDbCircle
 10
0.392758666
 20
0.360352159
 30
0.0
 40
0.004
  0
CIRCLE
  5
595
330
17
100
AcDbEntity
  8
0
100
AcDbCircle
 10
0.686611397
 20
0.00481025355
 30
0.0
 40
0.004
  0
CIRCLE
  5
596
330
17
100
AcDbEntity
  8
0
100
AcDbCircle
 10
0.772313179
 20
0.0424694931
 30
0.0
 40
0.004
  0
CIRCLE
  5
597
330
17
100
AcDbEntity
  8
0
100
AcDbCircle
 10
0.390857318
 20
0.142044636
 30
0.0
 40
0.004
  0
CIRCLE
  5
598
330
17
100
AcDbEntity
  8
0
100
AcDbCircle
 10
0.404315041
 20
0.0841152511
 30
0.0
 40
0.004
  0
CIRCLE
  5
599
330
17
100
AcDbEntity
  8
0
100
AcDbCircle
 10
0.787941794
 20
0.305159555
 30
0.0
 40
0.004
  0
CIRCLE
  5
59A
330
17
100
AcDbEntity
  8
0
100
AcDbCircle
 10
0.795034598
 20
0.286817183
 30
0.0
 40
0.004
  0
CIRCLE
  5
59B
330
17
100
AcDbEntity
  8
0
100
AcDbCircle
 10
0.769938657
 20
0.276738019
 30
0.0
 40
0.004
  0
CIRCLE
  5
59C
330
17
100
AcDbEntity
  8
0
100
AcDbCircle
 10
0.505463419
 20
0.070715385
 30
0.0
 40
0.004
  0
CIRCLE
  5
59D
330
17
100
AcDbEntity
  8
0
100
AcDbCircle
 10
0.696616747
 20
0.396520171
 30
0.0
 40
0.004
  0
CIRCLE
  5
59E
330
17
100
AcDbEntity
  8
0
100
AcDbCircle
 10
0.765040889
 20
0.359700667
 30
0.0
 40
0.004
  0
CIRCLE
  5
59F
330
17
100
AcDbEntity
  8
0
100
AcDbCircle
 10
0.423321126
 20
0.129534661
 30
0.0
 40
0.004
  0
CIRCLE
  5
5A0
330
17
100
AcDbEntity
  8
0
100
AcDbCircle
 10
0.433227921
 20
0.135269366
 30
0.0
 40
0.004
  0
CIRCLE
  5
5A1
330
17
100
AcDbEntity
  8
0
100
AcDbCircle
 10
0.474415331
 20
0.0468080162
 30
0.0
 40
0.004
  0
CIRCLE
  5
5A2
330
17
100
AcDbEntity
  8
0
100
AcDbCircle
 10
0.798289823
 20
0.250754646
 30
0.0
 40
0.004
  0
CIRCLE
  5
5A3
330
17
100
AcDbEntity
  8
0
100
AcDbCircle
 10
0.808581324
 20
0.0991497094
 30
0.0
 40
0.004
  0
CIRCLE
  5
5A4
330
17
100
AcDbEntity
  8
0
100
AcDbCircle
 10
0.31606098
 20
0.23622592
 30
0.0
 40
0.004
  0
CIRCLE
  5
5A5
330
17
100
AcDbEntity
  8
0
100
AcDbCircle
 10
0.669274164
 20
0.0302557132
 30
0.0
 40
0.004
  0
CIRCLE
  5
5A6
330
17
100
AcDbEntity
  8
0
100
AcDbCircle
 10
0.747842574
 20
0.394551359
 30
0.0
 40
0.004
  0
CIRCLE
  5
5A7
330
17
100
AcDbEntity
  8
0
100
AcDbCircle
 10
0.697186379
 20
0.478746467
 30
0.0
 40
0.004
  0
CIRCLE
  5
5A8
330
17
100
AcDbEntity
  8
0
100
AcDbCircle
 10
0.26160684
 20
0.204315606
 30
0.0
 40
0.004
  0
CIRCLE
  5
5A9
330
17
100
AcDbEntity
  8
0
100
AcDbCircle
 10
0.801775089
 20
0.268524173
 30
0.0
 40
0.004
  0
CIRCLE
  5
5AA
330
17
100
AcDbEntity
  8
0
100
AcDbCircle
 10
0.601332862
 20
0.0456097083
 30
0.0
 40
0.004
  0
CIRCLE
  5
5AB
330
17
100
AcDbEntity
  8
0
100
AcDbCircle
 10
0.738977267
 20
0.412139346
 30
0.0
 40
0.004
  0
CIRCLE
  5
5AC
330
17
100
AcDbEntity
  8
0
100
AcDbCircle
 10
0.728979917
 20
0.428313536
 30
0.0
 40
0.004
  0
CIRCLE
  5
5AD
330
17
100
AcDbEntity
  8
0
100
AcDbCircle
 10
0.346859476
 20
0.0925283865
 30
0.0
 40
0.004
  0
CIRCLE
  5
5AE
330
17
100
AcDbEntity
  8
0
100
AcDbCircle
 10
0.614946747
 20
0.561465247
 30
0.0
 40
0.004
  0
CIRCLE
  5
5AF
330
17
100
AcDbEntity
  8
0
100
AcDbCircle
 10
0.849774577
 20
0.0312030184
 30
0.0
 40
0.004
  0
CIRCLE
  5
5B0
330
17
100
AcDbEntity
  8
0
100
AcDbCircle
 10
0.813930197
 20
0.0464018965
 30
0.0
 40
0.004
  0
CIRCLE
  5
5B1
330
17
100
AcDbEntity
  8
0
100
AcDbCircle
 10
0.35750822
 20
0.301163626
 30
0.0
 40
0.004
  0
CIRCLE
  5
5B2
330
17
100
AcDbEntity
  8
0
100
AcDbCircle
 10
0.265548166
 20
0.225351463
 30
0.0
 40
0.004
  0
CIRCLE
  5
5B3
330
17
100
AcDbEntity
  8
0
100
AcDbCircle
 10
0.819272592
 20
0.10266303
 30
0.0
 40
0.004
  0
CIRCLE
  5
5B4
330
17
100
AcDbEntity
  8
0
100
AcDbCircle
 10
0.569426158
 20
0.483252247
 30
0.0
 40
0.004
  0
CIRCLE
  5
5B5
330
17
100
AcDbEntity
  8
0
100
AcDbCircle
 10
0.576310833
 20
0.544440544
 30
0.0
 40
0.004
  0
CIRCLE
  5
5B6
330
17
100
AcDbEntity
  8
0
100
AcDbCircle
 10
0.739559531
 20
0.388980733
 30
0.0
 40
0.004
  0
CIRCLE
  5
5B7
330
17
100
AcDbEntity
  8
0
100
AcDbCircle
 10
0.659620984
 20
0.535358808
 30
0.0
 40
0.004
  0
CIRCLE
  5
5B8
330
17
100
AcDbEntity
  8
0
100
AcDbCircle
 10
0.38654512
 20
0.125269909
 30
0.0
 40
0.004
  0
CIRCLE
  5
5B9
330
17
100
AcDbEntity
  8
0
100
AcDbCircle
 10
0.539705784
 20
0.0362511703
 30
0.0
 40
0.004
  0
CIRCLE
  5
5BA
330
17
100
AcDbEntity
  8
0
100
AcDbCircle
 10
0.807824956
 20
0.251036739
 30
0.0
 40
0.004
  0
CIRCLE
  5
5BB
330
17
100
AcDbEntity
  8
0
100
AcDbCircle
 10
0.623775894
 20
0.568338647
 30
0.0
 40
0.004
  0
CIRCLE
  5
5BC
330
17
100
AcDbEntity
  8
0
100
AcDbCircle
 10
0.826923593
 20
0.0947728408
 30
0.0
 40
0.004
  0
CIRCLE
  5
5BD
330
17
100
AcDbEntity
  8
0
100
AcDbCircle
 10
0.383579937
 20
0.328960539
 30
0.0
 40
0.004
  0
CIRCLE
  5
5BE
330
17
100
AcDbEntity
  8
0
100
AcDbCircle
 10
0.457571348
 20
0.393401101
 30
0.0
 40
0.004
  0
CIRCLE
  5
5BF
330
17
100
AcDbEntity
  8
0
100
AcDbCircle
 10
0.814462791
 20
0.0708005772
 30
0.0
 40
0.004
  0
CIRCLE
  5
5C0
330
17
100
AcDbEntity
  8
0
100
AcDbCircle
 10
0.338489064
 20
0.109141655
 30
0.0
 40
0.004
  0
CIRCLE
  5
5C1
330
17
100
AcDbEntity
  8
0
100
AcDbCircle
 10
0.369056611
 20
0.123811498
 30
0.0
 40
0.004
  0
CIRCLE
  5
5C2
330
17
100
AcDbEntity
  8
0
100
AcDbCircle
 10
0.442494653
 20
0.12882874
 30
0.0
 40
0.004
  0
CIRCLE
  5
5C3
330
17
100
AcDbEntity
  8
0
100
AcDbCircle
 10
0.553100156
 20
0.49785043
 30
0.0
 40
0.004
  0
CIRCLE
  5
5C4
330
17
100
AcDbEntity
  8
0
100
AcDbCircle
 10
0.781526432
 20
0.0268229747
 30
0.0
 40
0.004
  0
CIRCLE
  5
5C5
330
17
100
AcDbEntity
  8
0
100
AcDbCircle
 10
0.550148173
 20
0.036464626
 30
0.0
 40
0.004
  0
CIRCLE
  5
5C6
330
17
100
AcDbEntity
  8
0
100
AcDbCircle
 10
0.558251072
 20
0.520031144
 30
0.0
 40
0.004
  0
CIRCLE
  5
5C7
330
17
100
AcDbEntity
  8
0
100
AcDbCircle
 10
0.656363847
 20
0.0182793922
 30
0.0
 40
0.004
  0
CIRCLE
  5
5C8
330
17
100
AcDbEntity
  8
0
100
AcDbCircle
 10
0.337436355
 20
0.0981485686
 30
0.0
 40
0.004
  0
CIRCLE
  5
5C9
330
17
100
AcDbEntity
  8
0
100
AcDbCircle
 10
0.504966634
 20
0.00496711154
 30
0.0
 40
0.004
  0
CIRCLE
  5
5CA
330
17
100
AcDbEntity
  8
0
100
AcDbCircle
 10
0.60810818
 20
0.028272245
 30
0.0
 40
0.004
  0
CIRCLE
  5
5CB
330
17
100
AcDbEntity
  8
0
100
AcDbCircle
 10
0.317184693
 20
0.245919391
 30
0.0
 40
0.004
  0
CIRCLE
  5
5CC
330
17
100
AcDbEntity
  8
0
100
AcDbCircle
 10
0.459502234
 20
0.404242652
 30
0.0
 40
0.004
  0
CIRCLE
  5
5CD
330
17
100
AcDbEntity
  8
0
100
AcDbCircle
 10
0.393136028
 20
0.332535449
 30
0.0
 40
0.004
  0
CIRCLE
  5
5CE
330
17
100
AcDbEntity
  8
0
100
AcDbCircle
 10
0.833700521
 20
0.165502171
 30
0.0
 40
0.004
  0
CIRCLE
  5
5CF
330
17
100
AcDbEntity
  8
0
100
AcDbCircle
 10
0.403133549
 20
0.347555393
 30
0.0
 40
0.004
  0
CIRCLE
  5
5D0
330
17
100
AcDbEntity
  8
0
100
AcDbCircle
 10
0.764059934
 20
0.0599174442
 30
0.0
 40
0.004
  0
CIRCLE
  5
5D1
330
17
100
AcDbEntity
  8
0
100
AcDbCircle
 10
0.674534854
 20
0.451278709
 30
0.0
 40
0.004
  0
CIRCLE
  5
5D2
330
17
100
AcDbEntity
  8
0
100
AcDbCircle
 10
0.348506436
 20
0.114130887
 30
0.0
 40
0.004
  0
CIRCLE
  5
5D3
330
17
100
AcDbEntity
  8
0
100
AcDbCircle
 10
0.292512169
 20
0.206106147
 30
0.0
 40
0.004
  0
CIRCLE
  5
5D4
330
17
100
AcDbEntity
  8
0
100
AcDbCircle
 10
0.627367419
 20
0.0275809302
 30
0.0
 40
0.004
  0
CIRCLE
  5
5D5
330
17
100
AcDbEntity
  8
0
100
AcDbCircle
 10
0.814518236
 20
0.0817569574
 30
0.0
 40
0.004
  0
CIRCLE
  5
5D6
330
17
100
AcDbEntity
  8
0
100
AcDbCircle
 10
0.494935943
 20
0.0199372265
 30
0.0
 40
0.004
  0
CIRCLE
  5
5D7
330
17
100
AcDbEntity
  8
0
100
AcDbCircle
 10
0.545433878
 20
0.505860061
 30
0.0
 40
0.004
  0
CIRCLE
  5
5D8
330
17
100
AcDbEntity
  8
0
100
AcDbCircle
 10
0.370678245
 20
0.315231154
 30
0.0
 40
0.004
  0
CIRCLE
  5
5D9
330
17
100
AcDbEntity
  8
0
100
AcDbCircle
 10
0.470355015
 20
0.409515432
 30
0.0
 40
0.004
  0
CIRCLE
  5
5DA
330
17
100
AcDbEntity
  8
0
100
AcDbCircle
 10
0.833723107
 20
0.00823472292
 30
0.0
 40
0.004
  0
CIRCLE
  5
5DB
330
17
100
AcDbEntity
  8
0
100
AcDbCircle
 10
0.762951685
 20
0.038644974
 30
0.0
 40
0.004
  0
CIRCLE
  5
5DC
330
17
100
AcDbEntity
  8
0
100
AcDbCircle
 10
0.535460831
 20
0.0465759671
 30
0.0
 40
0.004
  0
CIRCLE
  5
5DD
330
17
100
AcDbEntity
  8
0
100
AcDbCircle
 10
0.223414234
 20
0.192886955
 30
0.0
 40
0.004
  0
CIRCLE
  5
5DE
330
17
100
AcDbEntity
  8
0
100
AcDbCircle
 10
0.29431747
 20
0.0216904174
 30
0.0
 40
0.004
  0
CIRCLE
  5
5DF
330
17
100
AcDbEntity
  8
0
100
AcDbCircle
 10
0.782020871
 20
0.334670796
 30
0.0
 40
0.004
  0
CIRCLE
  5
5E0
330
17
100
AcDbEntity
  8
0
100
AcDbCircle
 10
0.753258538
 20
0.30196355
 30
0.0
 40
0.004
  0
CIRCLE
  5
5E1
330
17
100
AcDbEntity
  8
0
100
AcDbCircle
 10
0.294269341
 20
0.21658944
 30
0.0
 40
0.004
  0
CIRCLE
  5
5E2
330
17
100
AcDbEntity
  8
0
100
AcDbCircle
 10
0.483937683
 20
0.0618233861
 30
0.0
 40
0.004
  0
CIRCLE
  5
5E3
330
17
100
AcDbEntity
  8
0
100
AcDbCircle
 10
0.35009307
 20
0.124947244
 30
0.0
 40
0.004
  0
CIRCLE
  5
5E4
330
17
100
AcDbEntity
  8
0
100
AcDbCircle
 10
0.73799858
 20
0.338494974
 30
0.0
 40
0.004
  0
CIRCLE
  5
5E5
330
17
100
AcDbEntity
  8
0
100
AcDbCircle
 10
0.64141525
 20
0.533086748
 30
0.0
 40
0.004
  0
CIRCLE
  5
5E6
330
17
100
AcDbEntity
  8
0
100
AcDbCircle
 10
0.368070238
 20
0.304473552
 30
0.0
 40
0.004
  0
CIRCLE
  5
5E7
330
17
100
AcDbEntity
  8
0
100
AcDbCircle
 10
0.398058469
 20
0.314727535
 30
0.0
 40
0.004
  0
CIRCLE
  5
5E8
330
17
100
AcDbEntity
  8
0
100
AcDbCircle
 10
0.796765567
 20
0.298059091
 30
0.0
 40
0.004
  0
CIRCLE
  5
5E9
330
17
100
AcDbEntity
  8
0
100
AcDbCircle
 10
0.474014107
 20
0.435932533
 30
0.0
 40
0.004
  0
CIRCLE
  5
5EA
330
17
100
AcDbEntity
  8
0
100
AcDbCircle
 10
0.491192966
 20
0.0540653633
 30
0.0
 40
0.004
  0
CIRCLE
  5
5EB
330
17
100
AcDbEntity
  8
0
100
AcDbCircle
 10
0.464212451
 20
0.434444074
 30
0.0
 40
0.004
  0
CIRCLE
  5
5EC
330
17
100
AcDbEntity
  8
0
100
AcDbCircle
 10
0.763368979
 20
0.0278474946
 30
0.0
 40
0.004
  0
CIRCLE
  5
5ED
330
17
100
AcDbEntity
  8
0
100
AcDbCircle
 10
0.543535239
 20
0.0530169377
 30
0.0
 40
0.004
  0
CIRCLE
  5
5EE
330
17
100
AcDbEntity
  8
0
100
AcDbCircle
 10
0.832963836
 20
0.0155855218
 30
0.0
 40
0.004
  0
CIRCLE
  5
5EF
330
17
100
AcDbEntity
  8
0
100
AcDbCircle
 10
0.552982025
 20
0.0463816867
 30
0.0
 40
0.004
  0
CIRCLE
  5
5F0
330
17
100
AcDbEntity
  8
0
100
AcDbCircle
 10
0.814073313
 20
0.0104429943
 30
0.0
 40
0.004
  0
CIRCLE
  5
5F1
330
17
100
AcDbEntity
  8
0
100
AcDbCircle
 10
0.766079257
 20
0.37073428
 30
0.0
 40
0.004
  0
CIRCLE
  5
5F2
330
17
100
AcDbEntity
  8
0
100
AcDbCircle
 10
0.216164918
 20
0.185612941
 30
0.0
 40
0.004
  0
CIRCLE
  5
5F3
330
17
100
AcDbEntity
  8
0
100
AcDbCircle
 10
0.284083914
 20
0.0224563398
 30
0.0
 40
0.004
  0
CIRCLE
  5
5F4
330
17
100
AcDbEntity
  8
0
100
AcDbCircle
 10
0.824452445
 20
0.00425114117
 30
0.0
 40
0.004
  0
CIRCLE
  5
5F5
330
17
100
AcDbEntity
  8
0
100
AcDbCircle
 10
0.633372899
 20
0.0597289134
 30
0.0
 40
0.004
  0
CIRCLE
  5
5F6
330
17
100
AcDbEntity
  8
0
100
AcDbCircle
 10
0.768272305
 20
0.265295485
 30
0.0
 40
0.004
  0
CIRCLE
  5
5F7
330
17
100
AcDbEntity
  8
0
100
AcDbCircle
 10
0.250158382
 20
0.189996583
 30
0.0
 40
0.004
  0
CIRCLE
  5
5F8
330
17
100
AcDbEntity
  8
0
100
AcDbCircle
 10
0.304215143
 20
0.221107141
 30
0.0
 40
0.004
  0
CIRCLE
  5
5F9
330
17
100
AcDbEntity
  8
0
100
AcDbCircle
 10
0.574933287
 20
0.51691703
 30
0.0
 40
0.004
  0
CIRCLE
  5
5FA
330
17
100
AcDbEntity
  8
0
100
AcDbCircle
 10
0.296309823
 20
0.010637816
 30
0.0
 40
0.004
  0
CIRCLE
  5
5FB
330
17
100
AcDbEntity
  8
0
100
AcDbCircle
 10
0.217751954
 20
0.20155417
 30
0.0
 40
0.004
  0
CIRCLE
  5
5FC
330
17
100
AcDbEntity
  8
0
100
AcDbCircle
 10
0.844270662
 20
0.00398358176
 30
0.0
 40
0.004
  0
CIRCLE
  5
5FD
330
17
100
AcDbEntity
  8
0
100
AcDbCircle
 10
0.80299468
 20
0.139964855
 30
0.0
 40
0.004
  0
CIRCLE
  5
5FE
330
17
100
AcDbEntity
  8
0
100
AcDbCircle
 10
0.714000122
 20
0.39281465
 30
0.0
 40
0.004
  0
CIRCLE
  5
5FF
330
17
100
AcDbEntity
  8
0
100
AcDbCircle
 10
0.515411304
 20
0.0755169634
 30
0.0
 40
0.004
  0
CIRCLE
  5
600
330
17
100
AcDbEntity
  8
0
100
AcDbCircle
 10
0.63340714
 20
0.518945417
 30
0.0
 40
0.004
  0
CIRCLE
  5
601
330
17
100
AcDbEntity
  8
0
100
AcDbCircle
 10
0.850861293
 20
0.0105664809
 30
0.0
 40
0.004
  0
CIRCLE
  5
602
330
17
100
AcDbEntity
  8
0
100
AcDbCircle
 10
0.824124703
 20
0.084953303
 30
0.0
 40
0.004
  0
CIRCLE
  5
603
330
17
100
AcDbEntity
  8
0
100
AcDbCircle
 10
0.757161639
 20
0.387863532
 30
0.0
 40
0.004
  0
CIRCLE
  5
604
330
17
100
AcDbEntity
  8
0
100
AcDbCircle
 10
0.300168016
 20
0.246414804
 30
0.0
 40
0.004
  0
CIRCLE
  5
605
330
17
100
AcDbEntity
  8
0
100
AcDbCircle
 10
0.500668024
 20
0.0353803661
 30
0.0
 40
0.004
  0
CIRCLE
  5
606
330
17
100
AcDbEntity
  8
0
100
AcDbCircle
 10
0.376584469
 20
0.109381912
 30
0.0
 40
0.004
  0
CIRCLE
  5
607
330
17
100
AcDbEntity
  8
0
100
AcDbCircle
 10
0.69631827
 20
0.488848548
 30
0.0
 40
0.004
  0
CIRCLE
  5
608
330
17
100
AcDbEntity
  8
0
100
AcDbCircle
 10
0.596874539
 20
0.582195439
 30
0.0
 40
0.004
  0
CIRCLE
  5
609
330
17
100
AcDbEntity
  8
0
100
AcDbCircle
 10
0.400068193
 20
0.325691759
 30
0.0
 40
0.004
  0
CIRCLE
  5
60A
330
17
100
AcDbEntity
  8
0
100
AcDbCircle
 10
0.577520867
 20
0.527086315
 30
0.0
 40
0.004
  0
CIRCLE
  5
60B
330
17
100
AcDbEntity
  8
0
100
AcDbCircle
 10
0.75801241
 20
0.377559301
 30
0.0
 40
0.004
  0
CIRCLE
  5
60C
330
17
100
AcDbEntity
  8
0
100
AcDbCircle
 10
0.791570842
 20
0.0390818121
 30
0.0
 40
0.004
  0
CIRCLE
  5
60D
330
17
100
AcDbEntity
  8
0
100
AcDbCircle
 10
0.809997151
 20
0.261116951
 30
0.0
 40
0.004
  0
CIRCLE
  5
60E
330
17
100
AcDbEntity
  8
0
100
AcDbCircle
 10
0.664560756
 20
0.00412366013
 30
0.0
 40
0.004
  0
CIRCLE
  5
60F
330
17
100
AcDbEntity
  8
0
100
AcDbCircle
 10
0.473371683
 20
0.0577960006
 30
0.0
 40
0.004
  0
CIRCLE
  5
610
330
17
100
AcDbEntity
  8
0
100
AcDbCircle
 10
0.409672329
 20
0.330246592
 30
0.0
 40
0.004
  0
CIRCLE
  5
611
330
17
100
AcDbEntity
  8
0
100
AcDbCircle
 10
0.610010846
 20
0.0394992528
 30
0.0
 40
0.004
  0
CIRCLE
  5
612
330
17
100
AcDbEntity
  8
0
100
AcDbCircle
 10
0.830406555
 20
0.0769053539
 30
0.0
 40
0.004
  0
CIRCLE
  5
613
330
17
100
AcDbEntity
  8
0
100
AcDbCircle
 10
0.367321056
 20
0.114101402
 30
0.0
 40
0.004
  0
CIRCLE
  5
614
330
17
100
AcDbEntity
  8
0
100
AcDbCircle
 10
0.783641463
 20
0.228780122
 30
0.0
 40
0.004
  0
CIRCLE
  5
615
330
17
100
AcDbEntity
  8
0
100
AcDbCircle
 10
0.666601256
 20
0.0206090383
 30
0.0
 40
0.004
  0
CIRCLE
  5
616
330
17
100
AcDbEntity
  8
0
100
AcDbCircle
 10
0.403643668
 20
0.0955016879
 30
0.0
 40
0.004
  0
CIRCLE
  5
617
330
17
100
AcDbEntity
  8
0
100
AcDbCircle
 10
0.586790991
 20
0.531895418
 30
0.0
 40
0.004
  0
CIRCLE
  5
618
330
17
100
AcDbEntity
  8
0
100
AcDbCircle
 10
0.427216524
 20
0.0619136436
 30
0.0
 40
0.004
  0
CIRCLE
  5
619
330
17
100
AcDbEntity
  8
0
100
AcDbCircle
 10
0.696611397
 20
0.0105837562
 30
0.0
 40
0.004
  0
CIRCLE
  5
61A
330
17
100
AcDbEntity
  8
0
100
AcDbCircle
 10
0.73888748
 20
0.422812332
 30
0.0
 40
0.004
  0
CIRCLE
  5
61B
330
17
100
AcDbEntity
  8
0
100
AcDbCircle
 10
0.417017292
 20
0.0457801706
 30
0.0
 40
0.004
  0
CIRCLE
  5
61C
330
17
100
AcDbEntity
  8
0
100
AcDbCircle
 10
0.418774706
 20
0.0560767157
 30
0.0
 40
0.004
  0
CIRCLE
  5
61D
330
17
100
AcDbEntity
  8
0
100
AcDbCircle
 10
0.612242756
 20
0.582187537
 30
0.0
 40
0.004
  0
CIRCLE
  5
61E
330
17
100
AcDbEntity
  8
0
100
AcDbCircle
 10
0.4087277
 20
0.0396271362
 30
0.0
 40
0.004
  0
CIRCLE
  5
61F
330
17
100
AcDbEntity
  8
0
100
AcDbCircle
 10
0.407200359
 20
0.0281493433
 30
0.0
 40
0.004
  0
CIRCLE
  5
620
330
17
100
AcDbEntity
  8
0
100
AcDbCircle
 10
0.388519463
 20
0.350032551
 30
0.0
 40
0.004
  0
CIRCLE
  5
621
330
17
100
AcDbEntity
  8
0
100
AcDbCircle
 10
0.642648582
 20
0.523313008
 30
0.0
 40
0.004
  0
CIRCLE
  5
622
330
17
100
AcDbEntity
  8
0
100
AcDbCircle
 10
0.565219332
 20
0.51257085
 30
0.0
 40
0.004
  0
CIRCLE
  5
623
330
17
100
AcDbEntity
  8
0
100
AcDbCircle
 10
0.380549807
 20
0.138924258
 30
0.0
 40
0.004
  0
CIRCLE
  5
624
330
17
100
AcDbEntity
  8
0
100
AcDbCircle
 10
0.843581404
 20
0.0411436249
 30
0.0
 40
0.004
  0
CIRCLE
  5
625
330
17
100
AcDbEntity
  8
0
100
AcDbCircle
 10
0.545037309
 20
0.00392992954
 30
0.0
 40
0.004
  0
CIRCLE
  5
626
330
17
100
AcDbEntity
  8
0
100
AcDbCircle
 10
0.312648097
 20
0.260108293
 30
0.0
 40
0.004
  0
CIRCLE
  5
627
330
17
100
AcDbEntity
  8
0
100
AcDbCircle
 10
0.50292207
 20
0.421309302
 30
0.0
 40
0.004
  0
CIRCLE
  5
628
330
17
100
AcDbEntity
  8
0
100
AcDbCircle
 10
0.2740533
 20
0.0494046175
 30
0.0
 40
0.004
  0
CIRCLE
  5
629
330
17
100
AcDbEntity
  8
0
100
AcDbCircle
 10
0.781116051
 20
0.0364574394
 30
0.0
 40
0.004
  0
CIRCLE
  5
62A
330
17
100
AcDbEntity
  8
0
100
AcDbCircle
 10
0.378491727
 20
0.128847872
 30
0.0
 40
0.004
  0
CIRCLE
  5
62B
330
17
100
AcDbEntity
  8
0
100
AcDbCircle
 10
0.503622776
 20
0.0253162748
 30
0.0
 40
0.004
  0
CIRCLE
  5
62C
330
17
100
AcDbEntity
  8
0
100
AcDbCircle
 10
0.388256073
 20
0.310904186
 30
0.0
 40
0.004
  0
CIRCLE
  5
62D
330
17
100
AcDbEntity
  8
0
100
AcDbCircle
 10
0.30960679
 20
0.250517904
 30
0.0
 40
0.004
  0
CIRCLE
  5
62E
330
17
100
AcDbEntity
  8
0
100
AcDbCircle
 10
0.604692643
 20
0.575973979
 30
0.0
 40
0.004
  0
CIRCLE
  5
62F
330
17
100
AcDbEntity
  8
0
100
AcDbCircle
 10
0.380709706
 20
0.318293499
 30
0.0
 40
0.004
  0
CIRCLE
  5
630
330
17
100
AcDbEntity
  8
0
100
AcDbCircle
 10
0.715693264
 20
0.402615466
 30
0.0
 40
0.004
  0
CIRCLE
  5
631
330
17
100
AcDbEntity
  8
0
100
AcDbCircle
 10
0.461858691
 20
0.424793638
 30
0.0
 40
0.004
  0
CIRCLE
  5
632
330
17
100
AcDbEntity
  8
0
100
AcDbCircle
 10
0.39504305
 20
0.342728721
 30
0.0
 40
0.004
  0
CIRCLE
  5
633
330
17
100
AcDbEntity
  8
0
100
AcDbCircle
 10
0.470892763
 20
0.419564028
 30
0.0
 40
0.004
  0
CIRCLE
  5
634
330
17
100
AcDbEntity
  8
0
100
AcDbCircle
 10
0.814837522
 20
0.0192092104
 30
0.0
 40
0.004
  0
CIRCLE
  5
635
330
17
100
AcDbEntity
  8
0
100
AcDbCircle
 10
0.412173343
 20
0.101133699
 30
0.0
 40
0.004
  0
CIRCLE
  5
636
330
17
100
AcDbEntity
  8
0
100
AcDbCircle
 10
0.419324515
 20
0.0941497138
 30
0.0
 40
0.004
  0
CIRCLE
  5
637
330
17
100
AcDbEntity
  8
0
100
AcDbCircle
 10
0.297706334
 20
0.236720243
 30
0.0
 40
0.004
  0
CIRCLE
  5
638
330
17
100
AcDbEntity
  8
0
100
AcDbCircle
 10
0.306021396
 20
0.231129872
 30
0.0
 40
0.004
  0
CIRCLE
  5
639
330
17
100
AcDbEntity
  8
0
100
AcDbCircle
 10
0.824457383
 20
0.0203681562
 30
0.0
 40
0.004
  0
ENDSEC
  0
SECTION
  2
OBJECTS
  0
DICTIONARY
  5
A
330
0
100
AcDbDictionary
281
1
  3
ACAD_COLOR
350
B
  3
ACAD_GROUP
350
C
  3
ACAD_LAYOUT
350
D
  3
ACAD_MATERIAL
350
E
  3
ACAD_MLEADERSTYLE
350
F
  3
ACAD_MLINESTYLE
350
10
  3
ACAD_PLOTSETTINGS
350
11
  3
ACAD_PLOTSTYLENAME
350
12
  3
ACAD_SCALELIST
350
14
  3
ACAD_TABLESTYLE
350
15
  3
ACAD_VISUALSTYLE
350
16
  3
EZDXF_META
350
2D
  0
DICTIONARY
  5
B
330
A
100
AcDbDictionary
281
1
  0
DICTIONARY
  5
C
330
A
100
AcDbDictionary
281
1
  0
DICTIONARY
  5
D
330
A
100
AcDbDictionary
281
1
  3
Model
350
1A
  3
Layout1
350
1E
  0
DICTIONARY
  5
E
330
A
100
AcDbDictionary
281
1
  3
ByBlock
350
1F
  3
ByLayer
350
20
  3
Global
350
21
  0
DICTIONARY
  5
F
330
A
100
AcDbDictionary
281
1
  3
Standard
350
2C
  0
DICTIONARY
  5
10
330
A
100
AcDbDictionary
281
1
  3
Standard
350
22
  0
DICTIONARY
  5
11
330
A
100
AcDbDictionary
281
1
  0
ACDBDICTIONARYWDFLT
  5
12
330
A
100
AcDbDictionary
281
1
  3
Normal
350
13
100
AcDbDictionaryWithDefault
340
13
  0
ACDBPLACEHOLDER
  5
13
330
12
  0
DICTIONARY
  5
14
330
A
100
AcDbDictionary
281
1
  0
DICTIONARY
  5
15
330
A
100
AcDbDictionary
281
1
  0
DICTIONARY
  5
16
330
A
100
AcDbDictionary
281
1
  0
LAYOUT
  5
1A
330
D
100
AcDbPlotSettings
  1

  2
Adobe PDF
  4
A3
  6

 40
7.5
 41
20.0
 42
7.5
 43
20.0
 44
420.0
 45
297.0
 46
0.0
 47
0.0
 48
0.0
 49
0.0
140
0.0
141
0.0
142
1.0
143
1.0
 70
1024
 72
1
 73
1
 74
5
  7

 75
16
 76
0
 77
2
 78
300
147
1.0
148
0.0
149
0.0
100
AcDbLayout
  1
Model
 70
1
 71
0
 10
0.0
 20
0.0
 11
420.0
 21
297.0
 12
0.0
 22
0.0
 32
0.0
 14
1e+20
 24
1e+20
 34
1e+20
 15
-1e+20
 25
-1e+20
 35
-1e+20
146
0.0
 13
0.0
 23
0.0
 33
0.0
 16
1.0
 26
0.0
 36
0.0
 17
0.0
 27
1.0
 37
0.0
 76
1
330
17
  0
LAYOUT
  5
1E
330
D
100
AcDbPlotSettings
  1

  2
Adobe PDF
  4
A3
  6

 40
7.5
 41
20.0
 42
7.5
 43
20.0
 44
420.0
 45
297.0
 46
0.0
 47
0.0
 48
0.0
 49
0.0
140
0.0
141
0.0
142
1.0
143
1.0
 70
0
 72
1
 73
1
 74
5
  7

 75
16
 76
0
 77
2
 78
300
147
1.0
148
0.0
149
0.0
100
AcDbLayout
  1
Layout1
 70
1
 71
1
 10
0.0
 20
0.0
 11
420.0
 21
297.0
 12
0.0
 22
0.0
 32
0.0
 14
1e+20
 24
1e+20
 34
1e+20
 15
-1e+20
 25
-1e+20
 35
-1e+20
146
0.0
 13
0.0
 23
0.0
 33
0.0
 16
1.0
 26
0.0
 36
0.0
 17
0.0
 27
1.0
 37
0.0
 76
1
330
1B
  0
MATERIAL
  5
1F
102
{ACAD_REACTORS
330
E
102
}
330
E
100
AcDbMaterial
  1
ByBlock
  2

 70
0
 40
1.0
 71
1
 41
1.0
 91
-1023410177
 42
1.0
 72
1
  3

 73
1
 74
1
 75
1
 44
0.5
 73
0
 45
1.0
 46
1.0
 77
1
  4

 78
1
 79
1
170
1
 48
1.0
171
1
  6

172
1
173
1
174
1
140
1.0
141
1.0
175
1
  7

176
1
177
1
178
1
143
1.0
179
1
  8

270
1
271
1
272
1
145
1.0
146
1.0
273
1
  9

274
1
275
1
276
1
 42
1.0
 72
1
  3

 73
1
 74
1
 75
1
 94
63
  0
MATERIAL
  5
20
102
{ACAD_REACTORS
330
E
102
}
330
E
100
AcDbMaterial
  1
ByLayer
  2

 70
0
 40
1.0
 71
1
 41
1.0
 91
-1023410177
 42
1.0
 72
1
  3

 73
1
 74
1
 75
1
 44
0.5
 73
0
 45
1.0
 46
1.0
 77
1
  4

 78
1
 79
1
170
1
 48
1.0
171
1
  6

172
1
173
1
174
1
140
1.0
141
1.0
175
1
  7

176
1
177
1
178
1
143
1.0
179
1
  8

270
1
271
1
272
1
145
1.0
146
1.0
273
1
  9

274
1
275
1
276
1
 42
1.0
 72
1
  3

 73
1
 74
1
 75
1
 94
63
  0
MATERIAL
  5
21
102
{ACAD_REACTORS
330
E
102
}
330
E
100
AcDbMaterial
  1
Global
  2

 70
0
 40
1.0
 71
1
 41
1.0
 91
-1023410177
 42
1.0
 72
1
  3

 73
1
 74
1
 75
1
 44
0.5
 73
0
 45
1.0
 46
1.0
 77
1
  4

 78
1
 79
1
170
1
 48
1.0
171
1
  6

172
1
173
1
174
1
140
1.0
141
1.0
175
1
  7

176
1
177
1
178
1
143
1.0
179
1
  8

270
1
271
1
272
1
145
1.0
146
1.0
273
1
  9

274
1
275
1
276
1
 42
1.0
 72
1
  3

 73
1
 74
1
 75
1
 94
63
  0
MLINESTYLE
  5
22
102
{ACAD_REACTORS
330
10
102
}
330
10
100
AcDbMlineStyle
  2
Standard
 70
0
  3

 62
256
 51
90.0
 52
90.0
 71
2
 49
0.5
 62
256
  6
BYLAYER
 49
-0.5
 62
256
  6
BYLAYER
  0
MLEADERSTYLE
  5
2C
102
{ACAD_REACTORS
330
F
102
}
330
F
100
AcDbMLeaderStyle
179
2
170
2
171
1
172
0
 90
2
 40
0.0
 41
0.0
173
1
 91
-1056964608
 92
-2
290
1
 42
2.0
291
1
 43
8.0
  3
Standard
 44
4.0
300

342
29
174
1
175
1
176
0
178
1
 93
-1056964608
 45
4.0
292
0
297
0
 46
4.0
 94
-1056964608
 47
1.0
 49
1.0
140
1.0
294
1
141
0.0
177
0
142
1.0
295
0
296
0
143
3.75
271
0
272
9
273
9
  0
DICTIONARY
  5
2D
330
A
100
AcDbDictionary
280
1
281
1
  3
CREATED_BY_EZDXF
350
2E
  3
WRITTEN_BY_EZDXF
350
63C
  0
DICTIONARYVAR
  5
2E
330
2D
100
DictionaryVariables
280
0
  1
0.18.1 @ 2022-09-22T07:46:59.063738+00:00
  0
DICTIONARYVAR
  5
63C
330
2D
100
DictionaryVariables
280
0
  1
0.18.1 @ 2022-09-22T07:46:59.110520+00:00
  0
ENDSEC
  0
EOF
