  0
SECTION
  2
HEADER
  9
$ACADVER
  1
AC1024
  9
$ACADMAINTVER
 70
6
  9
$DWGCODEPAGE
  3
ANSI_1252
  9
$LASTSAVEDBY
  1
ezdxf
  9
$INSBASE
 10
0.0
 20
0.0
 30
0.0
  9
$EXTMIN
 10
1e+20
 20
1e+20
 30
1e+20
  9
$EXTMAX
 10
-1e+20
 20
-1e+20
 30
-1e+20
  9
$LIMMIN
 10
0.0
 20
0.0
  9
$LIMMAX
 10
420.0
 20
297.0
  9
$ORTHOMODE
 70
0
  9
$REGENMODE
 70
1
  9
$FILLMODE
 70
1
  9
$QTEXTMODE
 70
0
  9
$MIRRTEXT
 70
1
  9
$LTSCALE
 40
1.0
  9
$ATTMODE
 70
1
  9
$TEXTSIZE
 40
2.5
  9
$TRACEWID
 40
1.0
  9
$TEXTSTYLE
  7
Standard
  9
$CLAYER
  8
0
  9
$CELTYPE
  6
ByLayer
  9
$CECOLOR
 62
256
  9
$CELTSCALE
 40
1.0
  9
$DISPSILH
 70
0
  9
$DIMSCALE
 40
1.0
  9
$DIMASZ
 40
2.5
  9
$DIMEXO
 40
0.625
  9
$DIMDLI
 40
3.75
  9
$DIMRND
 40
0.0
  9
$DIMDLE
 40
0.0
  9
$DIMEXE
 40
1.25
  9
$DIMTP
 40
0.0
  9
$DIMTM
 40
0.0
  9
$DIMTXT
 40
2.5
  9
$DIMCEN
 40
2.5
  9
$DIMTSZ
 40
0.0
  9
$DIMTOL
 70
0
  9
$DIMLIM
 70
0
  9
$DIMTIH
 70
0
  9
$DIMTOH
 70
0
  9
$DIMSE1
 70
0
  9
$DIMSE2
 70
0
  9
$DIMTAD
 70
1
  9
$DIMZIN
 70
8
  9
$DIMBLK
  1

  9
$DIMASO
 70
1
  9
$DIMSHO
 70
1
  9
$DIMPOST
  1

  9
$DIMAPOST
  1

  9
$DIMALT
 70
0
  9
$DIMALTD
 70
3
  9
$DIMALTF
 40
0.03937007874
  9
$DIMLFAC
 40
1.0
  9
$DIMTOFL
 70
1
  9
$DIMTVP
 40
0.0
  9
$DIMTIX
 70
0
  9
$DIMSOXD
 70
0
  9
$DIMSAH
 70
0
  9
$DIMBLK1
  1

  9
$DIMBLK2
  1

  9
$DIMSTYLE
  2
ISO-25
  9
$DIMCLRD
 70
0
  9
$DIMCLRE
 70
0
  9
$DIMCLRT
 70
0
  9
$DIMTFAC
 40
1.0
  9
$DIMGAP
 40
0.625
  9
$DIMJUST
 70
0
  9
$DIMSD1
 70
0
  9
$DIMSD2
 70
0
  9
$DIMTOLJ
 70
0
  9
$DIMTZIN
 70
8
  9
$DIMALTZ
 70
0
  9
$DIMALTTZ
 70
0
  9
$DIMUPT
 70
0
  9
$DIMDEC
 70
2
  9
$DIMTDEC
 70
2
  9
$DIMALTU
 70
2
  9
$DIMALTTD
 70
3
  9
$DIMTXSTY
  7
Standard
  9
$DIMAUNIT
 70
0
  9
$DIMADEC
 70
0
  9
$DIMALTRND
 40
0.0
  9
$DIMAZIN
 70
0
  9
$DIMDSEP
 70
44
  9
$DIMATFIT
 70
3
  9
$DIMFRAC
 70
0
  9
$DIMLDRBLK
  1

  9
$DIMLUNIT
 70
2
  9
$DIMLWD
 70
-2
  9
$DIMLWE
 70
-2
  9
$DIMTMOVE
 70
0
  9
$DIMFXL
 40
1.0
  9
$DIMFXLON
 70
0
  9
$DIMJOGANG
 40
0.785398163397
  9
$DIMTFILL
 70
0
  9
$DIMTFILLCLR
 70
0
  9
$DIMARCSYM
 70
0
  9
$DIMLTYPE
  6

  9
$DIMLTEX1
  6

  9
$DIMLTEX2
  6

  9
$DIMTXTDIRECTION
 70
0
  9
$LUNITS
 70
2
  9
$LUPREC
 70
4
  9
$SKETCHINC
 40
1.0
  9
$FILLETRAD
 40
10.0
  9
$AUNITS
 70
0
  9
$AUPREC
 70
2
  9
$MENU
  1
.
  9
$ELEVATION
 40
0.0
  9
$PELEVATION
 40
0.0
  9
$THICKNESS
 40
0.0
  9
$LIMCHECK
 70
0
  9
$CHAMFERA
 40
0.0
  9
$CHAMFERB
 40
0.0
  9
$CHAMFERC
 40
0.0
  9
$CHAMFERD
 40
0.0
  9
$SKPOLY
 70
0
  9
$TDCREATE
 40
2459845.7232291666
  9
$TDUCREATE
 40
2458532.153996898
  9
$TDUPDATE
 40
2459845.7232291666
  9
$TDUUPDATE
 40
2458532.1544311
  9
$TDINDWG
 40
0.0
  9
$TDUSRTIMER
 40
0.0
  9
$USRTIMER
 70
1
  9
$ANGBASE
 50
0.0
  9
$ANGDIR
 70
0
  9
$PDMODE
 70
0
  9
$PDSIZE
 40
0.0
  9
$PLINEWID
 40
0.0
  9
$SPLFRAME
 70
0
  9
$SPLINETYPE
 70
6
  9
$SPLINESEGS
 70
8
  9
$HANDSEED
  5
30F
  9
$SURFTAB1
 70
6
  9
$SURFTAB2
 70
6
  9
$SURFTYPE
 70
6
  9
$SURFU
 70
6
  9
$SURFV
 70
6
  9
$UCSBASE
  2

  9
$UCSNAME
  2

  9
$UCSORG
 10
0.0
 20
0.0
 30
0.0
  9
$UCSXDIR
 10
1.0
 20
0.0
 30
0.0
  9
$UCSYDIR
 10
0.0
 20
1.0
 30
0.0
  9
$UCSORTHOREF
  2

  9
$UCSORTHOVIEW
 70
0
  9
$UCSORGTOP
 10
0.0
 20
0.0
 30
0.0
  9
$UCSORGBOTTOM
 10
0.0
 20
0.0
 30
0.0
  9
$UCSORGLEFT
 10
0.0
 20
0.0
 30
0.0
  9
$UCSORGRIGHT
 10
0.0
 20
0.0
 30
0.0
  9
$UCSORGFRONT
 10
0.0
 20
0.0
 30
0.0
  9
$UCSORGBACK
 10
0.0
 20
0.0
 30
0.0
  9
$PUCSBASE
  2

  9
$PUCSNAME
  2

  9
$PUCSORG
 10
0.0
 20
0.0
 30
0.0
  9
$PUCSXDIR
 10
1.0
 20
0.0
 30
0.0
  9
$PUCSYDIR
 10
0.0
 20
1.0
 30
0.0
  9
$PUCSORTHOREF
  2

  9
$PUCSORTHOVIEW
 70
0
  9
$PUCSORGTOP
 10
0.0
 20
0.0
 30
0.0
  9
$PUCSORGBOTTOM
 10
0.0
 20
0.0
 30
0.0
  9
$PUCSORGLEFT
 10
0.0
 20
0.0
 30
0.0
  9
$PUCSORGRIGHT
 10
0.0
 20
0.0
 30
0.0
  9
$PUCSORGFRONT
 10
0.0
 20
0.0
 30
0.0
  9
$PUCSORGBACK
 10
0.0
 20
0.0
 30
0.0
  9
$USERI1
 70
0
  9
$USERI2
 70
0
  9
$USERI3
 70
0
  9
$USERI4
 70
0
  9
$USERI5
 70
0
  9
$USERR1
 40
0.0
  9
$USERR2
 40
0.0
  9
$USERR3
 40
0.0
  9
$USERR4
 40
0.0
  9
$USERR5
 40
0.0
  9
$WORLDVIEW
 70
1
  9
$SHADEDGE
 70
3
  9
$SHADEDIF
 70
70
  9
$TILEMODE
 70
1
  9
$MAXACTVP
 70
64
  9
$PINSBASE
 10
0.0
 20
0.0
 30
0.0
  9
$PLIMCHECK
 70
0
  9
$PEXTMIN
 10
1e+20
 20
1e+20
 30
1e+20
  9
$PEXTMAX
 10
-1e+20
 20
-1e+20
 30
-1e+20
  9
$PLIMMIN
 10
0.0
 20
0.0
  9
$PLIMMAX
 10
420.0
 20
297.0
  9
$UNITMODE
 70
0
  9
$VISRETAIN
 70
1
  9
$PLINEGEN
 70
0
  9
$PSLTSCALE
 70
1
  9
$TREEDEPTH
 70
3020
  9
$CMLSTYLE
  2
Standard
  9
$CMLJUST
 70
0
  9
$CMLSCALE
 40
20.0
  9
$PROXYGRAPHICS
 70
1
  9
$MEASUREMENT
 70
1
  9
$CELWEIGHT
370
-1
  9
$ENDCAPS
280
0
  9
$JOINSTYLE
280
0
  9
$LWDISPLAY
290
0
  9
$INSUNITS
 70
6
  9
$HYPERLINKBASE
  1

  9
$STYLESHEET
  1

  9
$XEDIT
290
1
  9
$CEPSNTYPE
380
0
  9
$PSTYLEMODE
290
1
  9
$FINGERPRINTGUID
  2
{1E7AAF28-DE74-43A5-853D-D4C81AD09927}
  9
$VERSIONGUID
  2
{9CD1657E-CECF-49AC-A88B-4DF623792FC9}
  9
$EXTNAMES
290
1
  9
$PSVPSCALE
 40
0.0
  9
$OLESTARTUP
290
0
  9
$SORTENTS
280
127
  9
$INDEXCTL
280
0
  9
$HIDETEXT
280
1
  9
$XCLIPFRAME
280
0
  9
$HALOGAP
280
0
  9
$OBSCOLOR
 70
257
  9
$OBSLTYPE
280
0
  9
$INTERSECTIONDISPLAY
280
0
  9
$INTERSECTIONCOLOR
 70
257
  9
$DIMASSOC
280
2
  9
$PROJECTNAME
  1

  9
$CAMERADISPLAY
290
0
  9
$LENSLENGTH
 40
50.0
  9
$CAMERAHEIGHT
 40
0.0
  9
$STEPSPERSEC
 40
24.0
  9
$STEPSIZE
 40
100.0
  9
$3DDWFPREC
 40
2.0
  9
$PSOLWIDTH
 40
0.005
  9
$PSOLHEIGHT
 40
0.08
  9
$LOFTANG1
 40
1.570796326795
  9
$LOFTANG2
 40
1.570796326795
  9
$LOFTMAG1
 40
0.0
  9
$LOFTMAG2
 40
0.0
  9
$LOFTPARAM
 70
7
  9
$LOFTNORMALS
280
1
  9
$LATITUDE
 40
37.795
  9
$LONGITUDE
 40
-122.394
  9
$NORTHDIRECTION
 40
0.0
  9
$TIMEZONE
 70
-8000
  9
$LIGHTGLYPHDISPLAY
280
1
  9
$TILEMODELIGHTSYNCH
280
1
  9
$CMATERIAL
347
20
  9
$SOLIDHIST
280
0
  9
$SHOWHIST
280
1
  9
$DWFFRAME
280
2
  9
$DGNFRAME
280
2
  9
$REALWORLDSCALE
290
1
  9
$INTERFERECOLOR
 62
256
  9
$CSHADOW
280
0
  9
$SHADOWPLANELOCATION
 40
0.0
  0
ENDSEC
  0
SECTION
  2
CLASSES
  0
CLASS
  1
ACDBDICTIONARYWDFLT
  2
AcDbDictionaryWithDefault
  3
ObjectDBX Classes
 90
0
 91
0
280
0
281
0
  0
CLASS
  1
SUN
  2
AcDbSun
  3
SCENEOE
 90
1153
 91
0
280
0
281
0
  0
CLASS
  1
VISUALSTYLE
  2
AcDbVisualStyle
  3
ObjectDBX Classes
 90
4095
 91
0
280
0
281
0
  0
CLASS
  1
MATERIAL
  2
AcDbMaterial
  3
ObjectDBX Classes
 90
1153
 91
0
280
0
281
0
  0
CLASS
  1
SCALE
  2
AcDbScale
  3
ObjectDBX Classes
 90
1153
 91
0
280
0
281
0
  0
CLASS
  1
TABLESTYLE
  2
AcDbTableStyle
  3
ObjectDBX Classes
 90
4095
 91
0
280
0
281
0
  0
CLASS
  1
MLEADERSTYLE
  2
AcDbMLeaderStyle
  3
ACDB_MLEADERSTYLE_CLASS
 90
4095
 91
0
280
0
281
0
  0
CLASS
  1
DICTIONARYVAR
  2
AcDbDictionaryVar
  3
ObjectDBX Classes
 90
0
 91
0
280
0
281
0
  0
CLASS
  1
CELLSTYLEMAP
  2
AcDbCellStyleMap
  3
ObjectDBX Classes
 90
1152
 91
0
280
0
281
0
  0
CLASS
  1
MENTALRAYRENDERSETTINGS
  2
AcDbMentalRayRenderSettings
  3
SCENEOE
 90
1024
 91
0
280
0
281
0
  0
CLASS
  1
ACDBDETAILVIEWSTYLE
  2
AcDbDetailViewStyle
  3
ObjectDBX Classes
 90
1025
 91
0
280
0
281
0
  0
CLASS
  1
ACDBSECTIONVIEWSTYLE
  2
AcDbSectionViewStyle
  3
ObjectDBX Classes
 90
1025
 91
0
280
0
281
0
  0
CLASS
  1
RASTERVARIABLES
  2
AcDbRasterVariables
  3
ISM
 90
0
 91
0
280
0
281
0
  0
CLASS
  1
ACDBPLACEHOLDER
  2
AcDbPlaceHolder
  3
ObjectDBX Classes
 90
0
 91
0
280
0
281
0
  0
CLASS
  1
LAYOUT
  2
AcDbLayout
  3
ObjectDBX Classes
 90
0
 91
0
280
0
281
0
  0
ENDSEC
  0
SECTION
  2
TABLES
  0
TABLE
  2
VPORT
  5
8
330
0
100
AcDbSymbolTable
 70
1
  0
VPORT
  5
23
330
8
100
AcDbSymbolTableRecord
100
AcDbViewportTableRecord
  2
*Active
 70
0
 10
0.0
 20
0.0
 11
1.0
 21
1.0
 12
0.0
 22
0.0
 13
0.0
 23
0.0
 14
0.5
 24
0.5
 15
0.5
 25
0.5
 16
0.0
 26
0.0
 36
1.0
 17
0.0
 27
0.0
 37
0.0
 40
1000.0
 41
1.34
 42
50.0
 43
0.0
 44
0.0
 50
0.0
 51
0.0
 71
0
 72
1000
 73
1
 74
3
 75
0
 76
0
 77
0
 78
0
281
0
 65
0
146
0.0
  0
ENDTAB
  0
TABLE
  2
LTYPE
  5
2
330
0
100
AcDbSymbolTable
 70
3
  0
LTYPE
  5
24
330
2
100
AcDbSymbolTableRecord
100
AcDbLinetypeTableRecord
  2
ByBlock
 70
0
  3

 72
65
 73
0
 40
0.0
  0
LTYPE
  5
25
330
2
100
AcDbSymbolTableRecord
100
AcDbLinetypeTableRecord
  2
ByLayer
 70
0
  3

 72
65
 73
0
 40
0.0
  0
LTYPE
  5
26
330
2
100
AcDbSymbolTableRecord
100
AcDbLinetypeTableRecord
  2
Continuous
 70
0
  3

 72
65
 73
0
 40
0.0
  0
ENDTAB
  0
TABLE
  2
LAYER
  5
1
330
0
100
AcDbSymbolTable
 70
2
  0
LAYER
  5
27
330
1
100
AcDbSymbolTableRecord
100
AcDbLayerTableRecord
  2
0
 70
0
 62
7
  6
Continuous
370
-3
390
13
347
21
  0
LAYER
  5
28
330
1
100
AcDbSymbolTableRecord
100
AcDbLayerTableRecord
  2
Defpoints
 70
0
 62
7
  6
Continuous
290
0
370
-3
390
13
347
21
  0
ENDTAB
  0
TABLE
  2
STYLE
  5
5
330
0
100
AcDbSymbolTable
 70
1
  0
STYLE
  5
29
330
5
100
AcDbSymbolTableRecord
100
AcDbTextStyleTableRecord
  2
Standard
 70
0
 40
0.0
 41
1.0
 50
0.0
 71
0
 42
2.5
  3
txt
  4

  0
ENDTAB
  0
TABLE
  2
VIEW
  5
7
330
0
100
AcDbSymbolTable
 70
0
  0
ENDTAB
  0
TABLE
  2
UCS
  5
6
330
0
100
AcDbSymbolTable
 70
0
  0
ENDTAB
  0
TABLE
  2
APPID
  5
3
330
0
100
AcDbSymbolTable
 70
3
  0
APPID
  5
2A
330
3
100
AcDbSymbolTableRecord
100
AcDbRegAppTableRecord
  2
ACAD
 70
0
  0
APPID
  5
30C
330
3
100
AcDbSymbolTableRecord
100
AcDbRegAppTableRecord
  2
HATCHBACKGROUNDCOLOR
 70
0
  0
APPID
  5
30D
330
3
100
AcDbSymbolTableRecord
100
AcDbRegAppTableRecord
  2
EZDXF
 70
0
  0
ENDTAB
  0
TABLE
  2
DIMSTYLE
  5
4
330
0
100
AcDbSymbolTable
 70
1
100
AcDbDimStyleTable
  0
DIMSTYLE
105
2B
330
4
100
AcDbSymbolTableRecord
100
AcDbDimStyleTableRecord
  2
Standard
 70
0
 40
1.0
 41
2.5
 42
0.625
 43
3.75
 44
1.25
 45
0.0
 46
0.0
 47
0.0
 48
0.0
 49
2.5
140
2.5
141
2.5
142
0.0
143
0.03937007874
144
1.0
145
0.0
146
1.0
147
0.625
148
0.0
 69
0
 70
0
 71
0
 72
0
 73
0
 74
0
 75
0
 76
0
 77
1
 78
8
 79
3
170
0
171
3
172
1
173
0
174
0
175
0
176
0
177
0
178
0
179
2
271
2
272
2
273
2
274
3
275
0
276
0
277
2
278
44
279
0
280
0
281
0
282
0
283
0
284
8
285
0
286
0
288
0
289
3
290
0
371
-2
372
-2
  0
ENDTAB
  0
TABLE
  2
BLOCK_RECORD
  5
9
330
0
100
AcDbSymbolTable
 70
2
  0
BLOCK_RECORD
  5
17
330
9
100
AcDbSymbolTableRecord
100
AcDbBlockTableRecord
  2
*Model_Space
340
1A
 70
0
280
1
281
0
  0
BLOCK_RECORD
  5
1B
330
9
100
AcDbSymbolTableRecord
100
AcDbBlockTableRecord
  2
*Paper_Space
340
1E
 70
0
280
1
281
0
  0
ENDTAB
  0
ENDSEC
  0
SECTION
  2
BLOCKS
  0
BLOCK
  5
18
330
17
100
AcDbEntity
  8
0
100
AcDbBlockBegin
  2
*Model_Space
 70
0
 10
0.0
 20
0.0
 30
0.0
  3
*Model_Space
  1

  0
ENDBLK
  5
19
330
17
100
AcDbEntity
  8
0
100
AcDbBlockEnd
  0
BLOCK
  5
1C
330
1B
100
AcDbEntity
  8
0
100
AcDbBlockBegin
  2
*Paper_Space
 70
0
 10
0.0
 20
0.0
 30
0.0
  3
*Paper_Space
  1

  0
ENDBLK
  5
1D
330
1B
100
AcDbEntity
  8
0
100
AcDbBlockEnd
  0
ENDSEC
  0
SECTION
  2
ENTITIES
  0
CIRCLE
  5
2F
330
17
100
AcDbEntity
  8
0
100
AcDbCircle
 10
0.274299332
 20
0.0196182754
 30
0.0
 40
0.004
  0
CIRCLE
  5
30
330
17
100
AcDbEntity
  8
0
100
AcDbCircle
 10
0.272200897
 20
0.0391365805
 30
0.0
 40
0.004
  0
CIRCLE
  5
31
330
17
100
AcDbEntity
  8
0
100
AcDbCircle
 10
0.268715388
 20
0.0584554546
 30
0.0
 40
0.004
  0
CIRCLE
  5
32
330
17
100
AcDbEntity
  8
0
100
AcDbCircle
 10
0.263860568
 20
0.0774764531
 30
0.0
 40
0.004
  0
CIRCLE
  5
33
330
17
100
AcDbEntity
  8
0
100
AcDbCircle
 10
0.257661174
 20
0.0961026494
 30
0.0
 40
0.004
  0
CIRCLE
  5
34
330
17
100
AcDbEntity
  8
0
100
AcDbCircle
 10
0.250148799
 20
0.114239129
 30
0.0
 40
0.004
  0
CIRCLE
  5
35
330
17
100
AcDbEntity
  8
0
100
AcDbCircle
 10
0.241361722
 20
0.131793471
 30
0.0
 40
0.004
  0
CIRCLE
  5
36
330
17
100
AcDbEntity
  8
0
100
AcDbCircle
 10
0.231344722
 20
0.148676225
 30
0.0
 40
0.004
  0
CIRCLE
  5
37
330
17
100
AcDbEntity
  8
0
100
AcDbCircle
 10
0.220148841
 20
0.164801358
 30
0.0
 40
0.004
  0
CIRCLE
  5
38
330
17
100
AcDbEntity
  8
0
100
AcDbCircle
 10
0.207831133
 20
0.180086702
 30
0.0
 40
0.004
  0
CIRCLE
  5
39
330
17
100
AcDbEntity
  8
0
100
AcDbCircle
 10
0.412604799
 20
0.38778814
 30
0.0
 40
0.004
  0
CIRCLE
  5
3A
330
17
100
AcDbEntity
  8
0
100
AcDbCircle
 10
0.777713786
 20
0.311665502
 30
0.0
 40
0.004
  0
CIRCLE
  5
3B
330
17
100
AcDbEntity
  8
0
100
AcDbCircle
 10
0.563918323
 20
0.0179417741
 30
0.0
 40
0.004
  0
CIRCLE
  5
3C
330
17
100
AcDbEntity
  8
0
100
AcDbCircle
 10
0.341403187
 20
0.316458416
 30
0.0
 40
0.004
  0
CIRCLE
  5
3D
330
17
100
AcDbEntity
  8
0
100
AcDbCircle
 10
0.484990377
 20
0.0160002756
 30
0.0
 40
0.004
  0
CIRCLE
  5
3E
330
17
100
AcDbEntity
  8
0
100
AcDbCircle
 10
0.737407422
 20
0.401169777
 30
0.0
 40
0.004
  0
CIRCLE
  5
3F
330
17
100
AcDbEntity
  8
0
100
AcDbCircle
 10
0.645964742
 20
0.0150782349
 30
0.0
 40
0.004
  0
CIRCLE
  5
40
330
17
100
AcDbEntity
  8
0
100
AcDbCircle
 10
0.468331323
 20
0.443836425
 30
0.0
 40
0.004
  0
CIRCLE
  5
41
330
17
100
AcDbEntity
  8
0
100
AcDbCircle
 10
0.804512112
 20
0.219670496
 30
0.0
 40
0.004
  0
CIRCLE
  5
42
330
17
100
AcDbEntity
  8
0
100
AcDbCircle
 10
0.269441851
 20
0.112057013
 30
0.0
 40
0.004
  0
CIRCLE
  5
43
330
17
100
AcDbEntity
  8
0
100
AcDbCircle
 10
0.405947762
 20
0.0167209918
 30
0.0
 40
0.004
  0
CIRCLE
  5
44
330
17
100
AcDbEntity
  8
0
100
AcDbCircle
 10
0.696628271
 20
0.469049104
 30
0.0
 40
0.004
  0
CIRCLE
  5
45
330
17
100
AcDbEntity
  8
0
100
AcDbCircle
 10
0.829501062
 20
0.145401197
 30
0.0
 40
0.004
  0
CIRCLE
  5
46
330
17
100
AcDbEntity
  8
0
100
AcDbCircle
 10
0.284467006
 20
0.259986217
 30
0.0
 40
0.004
  0
CIRCLE
  5
47
330
17
100
AcDbEntity
  8
0
100
AcDbCircle
 10
0.524459357
 20
0.499892509
 30
0.0
 40
0.004
  0
CIRCLE
  5
48
330
17
100
AcDbEntity
  8
0
100
AcDbCircle
 10
0.705
 20
0.0173205081
 30
0.0
 40
0.004
  0
CIRCLE
  5
49
330
17
100
AcDbEntity
  8
0
100
AcDbCircle
 10
0.66141409
 20
0.51303208
 30
0.0
 40
0.004
  0
CIRCLE
  5
4A
330
17
100
AcDbEntity
  8
0
100
AcDbCircle
 10
0.764388693
 20
0.0169605646
 30
0.0
 40
0.004
  0
CIRCLE
  5
4B
330
17
100
AcDbEntity
  8
0
100
AcDbCircle
 10
0.345
 20
0.0173205081
 30
0.0
 40
0.004
  0
CIRCLE
  5
4C
330
17
100
AcDbEntity
  8
0
100
AcDbCircle
 10
0.833983976
 20
0.0867143323
 30
0.0
 40
0.004
  0
CIRCLE
  5
4D
330
17
100
AcDbEntity
  8
0
100
AcDbCircle
 10
0.251319233
 20
0.148701206
 30
0.0
 40
0.004
  0
CIRCLE
  5
4E
330
17
100
AcDbEntity
  8
0
100
AcDbCircle
 10
0.283888543
 20
0.0702462837
 30
0.0
 40
0.004
  0
CIRCLE
  5
4F
330
17
100
AcDbEntity
  8
0
100
AcDbCircle
 10
0.565588334
 20
0.542385392
 30
0.0
 40
0.004
  0
CIRCLE
  5
50
330
17
100
AcDbEntity
  8
0
100
AcDbCircle
 10
0.312760183
 20
0.288218584
 30
0.0
 40
0.004
  0
CIRCLE
  5
51
330
17
100
AcDbEntity
  8
0
100
AcDbCircle
 10
0.256240046
 20
0.232158949
 30
0.0
 40
0.004
  0
CIRCLE
  5
52
330
17
100
AcDbEntity
  8
0
100
AcDbCircle
 10
0.444986065
 20
0.0173124555
 30
0.0
 40
0.004
  0
CIRCLE
  5
53
330
17
100
AcDbEntity
  8
0
100
AcDbCircle
 10
0.49726063
 20
0.469708154
 30
0.0
 40
0.004
  0
CIRCLE
  5
54
330
17
100
AcDbEntity
  8
0
100
AcDbCircle
 10
0.44104306
 20
0.416969727
 30
0.0
 40
0.004
  0
CIRCLE
  5
55
330
17
100
AcDbEntity
  8
0
100
AcDbCircle
 10
0.526628859
 20
0.0168568971
 30
0.0
 40
0.004
  0
CIRCLE
  5
56
330
17
100
AcDbEntity
  8
0
100
AcDbCircle
 10
0.606384887
 20
0.016985145
 30
0.0
 40
0.004
  0
CIRCLE
  5
57
330
17
100
AcDbEntity
  8
0
100
AcDbCircle
 10
0.369332595
 20
0.344926858
 30
0.0
 40
0.004
  0
CIRCLE
  5
58
330
17
100
AcDbEntity
  8
0
100
AcDbCircle
 10
0.79207085
 20
0.275135901
 30
0.0
 40
0.004
  0
CIRCLE
  5
59
330
17
100
AcDbEntity
  8
0
100
AcDbCircle
 10
0.762249509
 20
0.348005456
 30
0.0
 40
0.004
  0
CIRCLE
  5
5A
330
17
100
AcDbEntity
  8
0
100
AcDbCircle
 10
0.818222783
 20
0.180844224
 30
0.0
 40
0.004
  0
CIRCLE
  5
5B
330
17
100
AcDbEntity
  8
0
100
AcDbCircle
 10
0.717224456
 20
0.432550442
 30
0.0
 40
0.004
  0
CIRCLE
  5
5C
330
17
100
AcDbEntity
  8
0
100
AcDbCircle
 10
0.63866489
 20
0.54285212
 30
0.0
 40
0.004
  0
CIRCLE
  5
5D
330
17
100
AcDbEntity
  8
0
100
AcDbCircle
 10
0.803862604
 20
0.0185755593
 30
0.0
 40
0.004
  0
CIRCLE
  5
5E
330
17
100
AcDbEntity
  8
0
100
AcDbCircle
 10
0.289022941
 20
0.0331578041
 30
0.0
 40
0.004
  0
CIRCLE
  5
5F
330
17
100
AcDbEntity
  8
0
100
AcDbCircle
 10
0.225583339
 20
0.182594857
 30
0.0
 40
0.004
  0
CIRCLE
  5
60
330
17
100
AcDbEntity
  8
0
100
AcDbCircle
 10
0.836192374
 20
0.0495705169
 30
0.0
 40
0.004
  0
CIRCLE
  5
61
330
17
100
AcDbEntity
  8
0
100
AcDbCircle
 10
0.5957291
 20
0.571809892
 30
0.0
 40
0.004
  0
CIRCLE
  5
62
330
17
100
AcDbEntity
  8
0
100
AcDbCircle
 10
0.832722185
 20
0.0220523966
 30
0.0
 40
0.004
  0
CIRCLE
  5
63
330
17
100
AcDbEntity
  8
0
100
AcDbCircle
 10
0.276992085
 20
0.0929844424
 30
0.0
 40
0.004
  0
CIRCLE
  5
64
330
17
100
AcDbEntity
  8
0
100
AcDbCircle
 10
0.28904586
 20
0.108479339
 30
0.0
 40
0.004
  0
CIRCLE
  5
65
330
17
100
AcDbEntity
  8
0
100
AcDbCircle
 10
0.28145062
 20
0.12766546
 30
0.0
 40
0.004
  0
CIRCLE
  5
66
330
17
100
AcDbEntity
  8
0
100
AcDbCircle
 10
0.301105452
 20
0.124728559
 30
0.0
 40
0.004
  0
CIRCLE
  5
67
330
17
100
AcDbEntity
  8
0
100
AcDbCircle
 10
0.308784939
 20
0.105713591
 30
0.0
 40
0.004
  0
CIRCLE
  5
68
330
17
100
AcDbEntity
  8
0
100
AcDbCircle
 10
0.320760856
 20
0.122075944
 30
0.0
 40
0.004
  0
CIRCLE
  5
69
330
17
100
AcDbEntity
  8
0
100
AcDbCircle
 10
0.313090285
 20
0.1404702
 30
0.0
 40
0.004
  0
CIRCLE
  5
6A
330
17
100
AcDbEntity
  8
0
100
AcDbCircle
 10
0.332795454
 20
0.137909955
 30
0.0
 40
0.004
  0
CIRCLE
  5
6B
330
17
100
AcDbEntity
  8
0
100
AcDbCircle
 10
0.33999148
 20
0.119931394
 30
0.0
 40
0.004
  0
CIRCLE
  5
6C
330
17
100
AcDbEntity
  8
0
100
AcDbCircle
 10
0.351914338
 20
0.135804182
 30
0.0
 40
0.004
  0
CIRCLE
  5
6D
330
17
100
AcDbEntity
  8
0
100
AcDbCircle
 10
0.344742102
 20
0.153767527
 30
0.0
 40
0.004
  0
CIRCLE
  5
6E
330
17
100
AcDbEntity
  8
0
100
AcDbCircle
 10
0.36446024
 20
0.151233587
 30
0.0
 40
0.004
  0
CIRCLE
  5
6F
330
17
100
AcDbEntity
  8
0
100
AcDbCircle
 10
0.37165092
 20
0.133222968
 30
0.0
 40
0.004
  0
CIRCLE
  5
70
330
17
100
AcDbEntity
  8
0
100
AcDbCircle
 10
0.38331976
 20
0.149334527
 30
0.0
 40
0.004
  0
CIRCLE
  5
71
330
17
100
AcDbEntity
  8
0
100
AcDbCircle
 10
0.376487164
 20
0.167095899
 30
0.0
 40
0.004
  0
CIRCLE
  5
72
330
17
100
AcDbEntity
  8
0
100
AcDbCircle
 10
0.396218195
 20
0.164532258
 30
0.0
 40
0.004
  0
CIRCLE
  5
73
330
17
100
AcDbEntity
  8
0
100
AcDbCircle
 10
0.402573452
 20
0.142584101
 30
0.0
 40
0.004
  0
CIRCLE
  5
74
330
17
100
AcDbEntity
  8
0
100
AcDbCircle
 10
0.415845563
 20
0.160989964
 30
0.0
 40
0.004
  0
CIRCLE
  5
75
330
17
100
AcDbEntity
  8
0
100
AcDbCircle
 10
0.408438037
 20
0.180074717
 30
0.0
 40
0.004
  0
CIRCLE
  5
76
330
17
100
AcDbEntity
  8
0
100
AcDbCircle
 10
0.428205418
 20
0.177454674
 30
0.0
 40
0.004
  0
CIRCLE
  5
77
330
17
100
AcDbEntity
  8
0
100
AcDbCircle
 10
0.435868875
 20
0.159065228
 30
0.0
 40
0.004
  0
CIRCLE
  5
78
330
17
100
AcDbEntity
  8
0
100
AcDbCircle
 10
0.448006141
 20
0.175003656
 30
0.0
 40
0.004
  0
CIRCLE
  5
79
330
17
100
AcDbEntity
  8
0
100
AcDbCircle
 10
0.440368597
 20
0.193386051
 30
0.0
 40
0.004
  0
CIRCLE
  5
7A
330
17
100
AcDbEntity
  8
0
100
AcDbCircle
 10
0.460119669
 20
0.190834132
 30
0.0
 40
0.004
  0
CIRCLE
  5
7B
330
17
100
AcDbEntity
  8
0
100
AcDbCircle
 10
0.45248155
 20
0.209219608
 30
0.0
 40
0.004
  0
CIRCLE
  5
7C
330
17
100
AcDbEntity
  8
0
100
AcDbCircle
 10
0.472224126
 20
0.206644201
 30
0.0
 40
0.004
  0
CIRCLE
  5
7D
330
17
100
AcDbEntity
  8
0
100
AcDbCircle
 10
0.479859511
 20
0.188259928
 30
0.0
 40
0.004
  0
CIRCLE
  5
7E
330
17
100
AcDbEntity
  8
0
100
AcDbCircle
 10
0.491964389
 20
0.2040657
 30
0.0
 40
0.004
  0
CIRCLE
  5
7F
330
17
100
AcDbEntity
  8
0
100
AcDbCircle
 10
0.499598733
 20
0.185682376
 30
0.0
 40
0.004
  0
CIRCLE
  5
80
330
17
100
AcDbEntity
  8
0
100
AcDbCircle
 10
0.511699362
 20
0.201485918
 30
0.0
 40
0.004
  0
CIRCLE
  5
81
330
17
100
AcDbEntity
  8
0
100
AcDbCircle
 10
0.504078285
 20
0.219870044
 30
0.0
 40
0.004
  0
CIRCLE
  5
82
330
17
100
AcDbEntity
  8
0
100
AcDbCircle
 10
0.523803929
 20
0.217281946
 30
0.0
 40
0.004
  0
CIRCLE
  5
83
330
17
100
AcDbEntity
  8
0
100
AcDbCircle
 10
0.531427813
 20
0.198967952
 30
0.0
 40
0.004
  0
CIRCLE
  5
84
330
17
100
AcDbEntity
  8
0
100
AcDbCircle
 10
0.543531344
 20
0.214746648
 30
0.0
 40
0.004
  0
CIRCLE
  5
85
330
17
100
AcDbEntity
  8
0
100
AcDbCircle
 10
0.535898899
 20
0.233074485
 30
0.0
 40
0.004
  0
CIRCLE
  5
86
330
17
100
AcDbEntity
  8
0
100
AcDbCircle
 10
0.555606894
 20
0.230516368
 30
0.0
 40
0.004
  0
CIRCLE
  5
87
330
17
100
AcDbEntity
  8
0
100
AcDbCircle
 10
0.563232023
 20
0.212211469
 30
0.0
 40
0.004
  0
CIRCLE
  5
88
330
17
100
AcDbEntity
  8
0
100
AcDbCircle
 10
0.547992432
 20
0.248866229
 30
0.0
 40
0.004
  0
CIRCLE
  5
89
330
17
100
AcDbEntity
  8
0
100
AcDbCircle
 10
0.567698198
 20
0.246331876
 30
0.0
 40
0.004
  0
CIRCLE
  5
8A
330
17
100
AcDbEntity
  8
0
100
AcDbCircle
 10
0.560081313
 20
0.264660057
 30
0.0
 40
0.004
  0
CIRCLE
  5
8B
330
17
100
AcDbEntity
  8
0
100
AcDbCircle
 10
0.579798703
 20
0.262114625
 30
0.0
 40
0.004
  0
CIRCLE
  5
8C
330
17
100
AcDbEntity
  8
0
100
AcDbCircle
 10
0.572172508
 20
0.280443376
 30
0.0
 40
0.004
  0
CIRCLE
  5
8D
330
17
100
AcDbEntity
  8
0
100
AcDbCircle
 10
0.591883867
 20
0.277862539
 30
0.0
 40
0.004
  0
CIRCLE
  5
8E
330
17
100
AcDbEntity
  8
0
100
AcDbCircle
 10
0.584258387
 20
0.296216486
 30
0.0
 40
0.004
  0
CIRCLE
  5
8F
330
17
100
AcDbEntity
  8
0
100
AcDbCircle
 10
0.599510645
 20
0.25959382
 30
0.0
 40
0.004
  0
CIRCLE
  5
90
330
17
100
AcDbEntity
  8
0
100
AcDbCircle
 10
0.540378565
 20
0.267232882
 30
0.0
 40
0.004
  0
CIRCLE
  5
91
330
17
100
AcDbEntity
  8
0
100
AcDbCircle
 10
0.603962011
 20
0.293642184
 30
0.0
 40
0.004
  0
CIRCLE
  5
92
330
17
100
AcDbEntity
  8
0
100
AcDbCircle
 10
0.596340162
 20
0.311990835
 30
0.0
 40
0.004
  0
CIRCLE
  5
93
330
17
100
AcDbEntity
  8
0
100
AcDbCircle
 10
0.576639629
 20
0.314566641
 30
0.0
 40
0.004
  0
CIRCLE
  5
94
330
17
100
AcDbEntity
  8
0
100
AcDbCircle
 10
0.588723084
 20
0.330342709
 30
0.0
 40
0.004
  0
CIRCLE
  5
95
330
17
100
AcDbEntity
  8
0
100
AcDbCircle
 10
0.616033534
 20
0.309414142
 30
0.0
 40
0.004
  0
CIRCLE
  5
96
330
17
100
AcDbEntity
  8
0
100
AcDbCircle
 10
0.569016397
 20
0.332919172
 30
0.0
 40
0.004
  0
CIRCLE
  5
97
330
17
100
AcDbEntity
  8
0
100
AcDbCircle
 10
0.581104473
 20
0.348700256
 30
0.0
 40
0.004
  0
CIRCLE
  5
98
330
17
100
AcDbEntity
  8
0
100
AcDbCircle
 10
0.561388378
 20
0.351279273
 30
0.0
 40
0.004
  0
CIRCLE
  5
99
330
17
100
AcDbEntity
  8
0
100
AcDbCircle
 10
0.573482736
 20
0.367062979
 30
0.0
 40
0.004
  0
CIRCLE
  5
9A
330
17
100
AcDbEntity
  8
0
100
AcDbCircle
 10
0.593199668
 20
0.364480297
 30
0.0
 40
0.004
  0
CIRCLE
  5
9B
330
17
100
AcDbEntity
  8
0
100
AcDbCircle
 10
0.585579084
 20
0.382841357
 30
0.0
 40
0.004
  0
CIRCLE
  5
9C
330
17
100
AcDbEntity
  8
0
100
AcDbCircle
 10
0.605284925
 20
0.380266871
 30
0.0
 40
0.004
  0
CIRCLE
  5
9D
330
17
100
AcDbEntity
  8
0
100
AcDbCircle
 10
0.597669797
 20
0.398617099
 30
0.0
 40
0.004
  0
CIRCLE
  5
9E
330
17
100
AcDbEntity
  8
0
100
AcDbCircle
 10
0.56586621
 20
0.385431546
 30
0.0
 40
0.004
  0
CIRCLE
  5
9F
330
17
100
AcDbEntity
  8
0
100
AcDbCircle
 10
0.617364534
 20
0.396028463
 30
0.0
 40
0.004
  0
CIRCLE
  5
A0
330
17
100
AcDbEntity
  8
0
100
AcDbCircle
 10
0.609755702
 20
0.414378279
 30
0.0
 40
0.004
  0
CIRCLE
  5
A1
330
17
100
AcDbEntity
  8
0
100
AcDbCircle
 10
0.624977649
 20
0.377696292
 30
0.0
 40
0.004
  0
CIRCLE
  5
A2
330
17
100
AcDbEntity
  8
0
100
AcDbCircle
 10
0.549295841
 20
0.335490465
 30
0.0
 40
0.004
  0
CIRCLE
  5
A3
330
17
100
AcDbEntity
  8
0
100
AcDbCircle
 10
0.637046944
 20
0.393445484
 30
0.0
 40
0.004
  0
CIRCLE
  5
A4
330
17
100
AcDbEntity
  8
0
100
AcDbCircle
 10
0.644671814
 20
0.375087498
 30
0.0
 40
0.004
  0
CIRCLE
  5
A5
330
17
100
AcDbEntity
  8
0
100
AcDbCircle
 10
0.623649647
 20
0.291077195
 30
0.0
 40
0.004
  0
CIRCLE
  5
A6
330
17
100
AcDbEntity
  8
0
100
AcDbCircle
 10
0.635716377
 20
0.306838234
 30
0.0
 40
0.004
  0
CIRCLE
  5
A7
330
17
100
AcDbEntity
  8
0
100
AcDbCircle
 10
0.643331204
 20
0.288515542
 30
0.0
 40
0.004
  0
CIRCLE
  5
A8
330
17
100
AcDbEntity
  8
0
100
AcDbCircle
 10
0.655390543
 20
0.304264732
 30
0.0
 40
0.004
  0
CIRCLE
  5
A9
330
17
100
AcDbEntity
  8
0
100
AcDbCircle
 10
0.663001867
 20
0.285952849
 30
0.0
 40
0.004
  0
CIRCLE
  5
AA
330
17
100
AcDbEntity
  8
0
100
AcDbCircle
 10
0.675054942
 20
0.301693508
 30
0.0
 40
0.004
  0
CIRCLE
  5
AB
330
17
100
AcDbEntity
  8
0
100
AcDbCircle
 10
0.682664092
 20
0.283386419
 30
0.0
 40
0.004
  0
CIRCLE
  5
AC
330
17
100
AcDbEntity
  8
0
100
AcDbCircle
 10
0.670613207
 20
0.267643427
 30
0.0
 40
0.004
  0
CIRCLE
  5
AD
330
17
100
AcDbEntity
  8
0
100
AcDbCircle
 10
0.690274911
 20
0.265079258
 30
0.0
 40
0.004
  0
CIRCLE
  5
AE
330
17
100
AcDbEntity
  8
0
100
AcDbCircle
 10
0.678225738
 20
0.2493354
 30
0.0
 40
0.004
  0
CIRCLE
  5
AF
330
17
100
AcDbEntity
  8
0
100
AcDbCircle
 10
0.697914819
 20
0.246749291
 30
0.0
 40
0.004
  0
CIRCLE
  5
B0
330
17
100
AcDbEntity
  8
0
100
AcDbCircle
 10
0.685840317
 20
0.231019706
 30
0.0
 40
0.004
  0
CIRCLE
  5
B1
330
17
100
AcDbEntity
  8
0
100
AcDbCircle
 10
0.705519344
 20
0.228448781
 30
0.0
 40
0.004
  0
CIRCLE
  5
B2
330
17
100
AcDbEntity
  8
0
100
AcDbCircle
 10
0.693455641
 20
0.212701403
 30
0.0
 40
0.004
  0
CIRCLE
  5
B3
330
17
100
AcDbEntity
  8
0
100
AcDbCircle
 10
0.673773231
 20
0.215272347
 30
0.0
 40
0.004
  0
CIRCLE
  5
B4
330
17
100
AcDbEntity
  8
0
100
AcDbCircle
 10
0.681384352
 20
0.196943296
 30
0.0
 40
0.004
  0
CIRCLE
  5
B5
330
17
100
AcDbEntity
  8
0
100
AcDbCircle
 10
0.701080994
 20
0.194378404
 30
0.0
 40
0.004
  0
CIRCLE
  5
B6
330
17
100
AcDbEntity
  8
0
100
AcDbCircle
 10
0.689019429
 20
0.178603431
 30
0.0
 40
0.004
  0
CIRCLE
  5
B7
330
17
100
AcDbEntity
  8
0
100
AcDbCircle
 10
0.669309512
 20
0.181170717
 30
0.0
 40
0.004
  0
CIRCLE
  5
B8
330
17
100
AcDbEntity
  8
0
100
AcDbCircle
 10
0.67694702
 20
0.162822995
 30
0.0
 40
0.004
  0
CIRCLE
  5
B9
330
17
100
AcDbEntity
  8
0
100
AcDbCircle
 10
0.696657486
 20
0.160261667
 30
0.0
 40
0.004
  0
CIRCLE
  5
BA
330
17
100
AcDbEntity
  8
0
100
AcDbCircle
 10
0.657234188
 20
0.16538647
 30
0.0
 40
0.004
  0
CIRCLE
  5
BB
330
17
100
AcDbEntity
  8
0
100
AcDbCircle
 10
0.684579284
 20
0.144471916
 30
0.0
 40
0.004
  0
CIRCLE
  5
BC
330
17
100
AcDbEntity
  8
0
100
AcDbCircle
 10
0.704297449
 20
0.141908137
 30
0.0
 40
0.004
  0
CIRCLE
  5
BD
330
17
100
AcDbEntity
  8
0
100
AcDbCircle
 10
0.692213486
 20
0.126111642
 30
0.0
 40
0.004
  0
CIRCLE
  5
BE
330
17
100
AcDbEntity
  8
0
100
AcDbCircle
 10
0.71193922
 20
0.123553502
 30
0.0
 40
0.004
  0
CIRCLE
  5
BF
330
17
100
AcDbEntity
  8
0
100
AcDbCircle
 10
0.724012285
 20
0.139344302
 30
0.0
 40
0.004
  0
CIRCLE
  5
C0
330
17
100
AcDbEntity
  8
0
100
AcDbCircle
 10
0.731653906
 20
0.121000238
 30
0.0
 40
0.004
  0
CIRCLE
  5
C1
330
17
100
AcDbEntity
  8
0
100
AcDbCircle
 10
0.699859045
 20
0.107747351
 30
0.0
 40
0.004
  0
CIRCLE
  5
C2
330
17
100
AcDbEntity
  8
0
100
AcDbCircle
 10
0.680119607
 20
0.110309831
 30
0.0
 40
0.004
  0
CIRCLE
  5
C3
330
17
100
AcDbEntity
  8
0
100
AcDbCircle
 10
0.464588088
 20
0.225033091
 30
0.0
 40
0.004
  0
CIRCLE
  5
C4
330
17
100
AcDbEntity
  8
0
100
AcDbCircle
 10
0.444839139
 20
0.227611411
 30
0.0
 40
0.004
  0
CIRCLE
  5
C5
330
17
100
AcDbEntity
  8
0
100
AcDbCircle
 10
0.45695588
 20
0.243433491
 30
0.0
 40
0.004
  0
CIRCLE
  5
C6
330
17
100
AcDbEntity
  8
0
100
AcDbCircle
 10
0.437192299
 20
0.246010247
 30
0.0
 40
0.004
  0
CIRCLE
  5
C7
330
17
100
AcDbEntity
  8
0
100
AcDbCircle
 10
0.449316807
 20
0.261839796
 30
0.0
 40
0.004
  0
CIRCLE
  5
C8
330
17
100
AcDbEntity
  8
0
100
AcDbCircle
 10
0.429547143
 20
0.264421257
 30
0.0
 40
0.004
  0
CIRCLE
  5
C9
330
17
100
AcDbEntity
  8
0
100
AcDbCircle
 10
0.441670291
 20
0.280250411
 30
0.0
 40
0.004
  0
CIRCLE
  5
CA
330
17
100
AcDbEntity
  8
0
100
AcDbCircle
 10
0.417423162
 20
0.248588307
 30
0.0
 40
0.004
  0
CIRCLE
  5
CB
330
17
100
AcDbEntity
  8
0
100
AcDbCircle
 10
0.455641915
 20
0.156609053
 30
0.0
 40
0.004
  0
CIRCLE
  5
CC
330
17
100
AcDbEntity
  8
0
100
AcDbCircle
 10
0.649597288
 20
0.183742409
 30
0.0
 40
0.004
  0
CIRCLE
  5
CD
330
17
100
AcDbEntity
  8
0
100
AcDbCircle
 10
0.637516457
 20
0.167952246
 30
0.0
 40
0.004
  0
CIRCLE
  5
CE
330
17
100
AcDbEntity
  8
0
100
AcDbCircle
 10
0.590058388
 20
0.416962427
 30
0.0
 40
0.004
  0
CIRCLE
  5
CF
330
17
100
AcDbEntity
  8
0
100
AcDbCircle
 10
0.602150034
 20
0.432732624
 30
0.0
 40
0.004
  0
CIRCLE
  5
D0
330
17
100
AcDbEntity
  8
0
100
AcDbCircle
 10
0.582447522
 20
0.435316464
 30
0.0
 40
0.004
  0
CIRCLE
  5
D1
330
17
100
AcDbEntity
  8
0
100
AcDbCircle
 10
0.594541297
 20
0.451086186
 30
0.0
 40
0.004
  0
CIRCLE
  5
D2
330
17
100
AcDbEntity
  8
0
100
AcDbCircle
 10
0.54166386
 20
0.353866312
 30
0.0
 40
0.004
  0
CIRCLE
  5
D3
330
17
100
AcDbEntity
  8
0
100
AcDbCircle
 10
0.529560159
 20
0.338060367
 30
0.0
 40
0.004
  0
CIRCLE
  5
D4
330
17
100
AcDbEntity
  8
0
100
AcDbCircle
 10
0.521924003
 20
0.356454743
 30
0.0
 40
0.004
  0
CIRCLE
  5
D5
330
17
100
AcDbEntity
  8
0
100
AcDbCircle
 10
0.509812668
 20
0.34063596
 30
0.0
 40
0.004
  0
CIRCLE
  5
D6
330
17
100
AcDbEntity
  8
0
100
AcDbCircle
 10
0.443537798
 20
0.140825291
 30
0.0
 40
0.004
  0
CIRCLE
  5
D7
330
17
100
AcDbEntity
  8
0
100
AcDbCircle
 10
0.463287966
 20
0.138234202
 30
0.0
 40
0.004
  0
CIRCLE
  5
D8
330
17
100
AcDbEntity
  8
0
100
AcDbCircle
 10
0.451547704
 20
0.122571178
 30
0.0
 40
0.004
  0
CIRCLE
  5
D9
330
17
100
AcDbEntity
  8
0
100
AcDbCircle
 10
0.47100034
 20
0.119854845
 30
0.0
 40
0.004
  0
CIRCLE
  5
DA
330
17
100
AcDbEntity
  8
0
100
AcDbCircle
 10
0.458591267
 20
0.103749638
 30
0.0
 40
0.004
  0
CIRCLE
  5
DB
330
17
100
AcDbEntity
  8
0
100
AcDbCircle
 10
0.478563229
 20
0.101376793
 30
0.0
 40
0.004
  0
CIRCLE
  5
DC
330
17
100
AcDbEntity
  8
0
100
AcDbCircle
 10
0.490717368
 20
0.117251517
 30
0.0
 40
0.004
  0
CIRCLE
  5
DD
330
17
100
AcDbEntity
  8
0
100
AcDbCircle
 10
0.498364373
 20
0.0988230595
 30
0.0
 40
0.004
  0
CIRCLE
  5
DE
330
17
100
AcDbEntity
  8
0
100
AcDbCircle
 10
0.510486771
 20
0.114665129
 30
0.0
 40
0.004
  0
CIRCLE
  5
DF
330
17
100
AcDbEntity
  8
0
100
AcDbCircle
 10
0.518147676
 20
0.0962439511
 30
0.0
 40
0.004
  0
CIRCLE
  5
E0
330
17
100
AcDbEntity
  8
0
100
AcDbCircle
 10
0.530274064
 20
0.112081043
 30
0.0
 40
0.004
  0
CIRCLE
  5
E1
330
17
100
AcDbEntity
  8
0
100
AcDbCircle
 10
0.537928382
 20
0.0936591244
 30
0.0
 40
0.004
  0
CIRCLE
  5
E2
330
17
100
AcDbEntity
  8
0
100
AcDbCircle
 10
0.550055364
 20
0.109495923
 30
0.0
 40
0.004
  0
CIRCLE
  5
E3
330
17
100
AcDbEntity
  8
0
100
AcDbCircle
 10
0.557708365
 20
0.0910746115
 30
0.0
 40
0.004
  0
CIRCLE
  5
E4
330
17
100
AcDbEntity
  8
0
100
AcDbCircle
 10
0.569801487
 20
0.106984926
 30
0.0
 40
0.004
  0
CIRCLE
  5
E5
330
17
100
AcDbEntity
  8
0
100
AcDbCircle
 10
0.562054349
 20
0.125465275
 30
0.0
 40
0.004
  0
CIRCLE
  5
E6
330
17
100
AcDbEntity
  8
0
100
AcDbCircle
 10
0.439045212
 20
0.106592732
 30
0.0
 40
0.004
  0
CIRCLE
  5
E7
330
17
100
AcDbEntity
  8
0
100
AcDbCircle
 10
0.461440136
 20
0.277662498
 30
0.0
 40
0.004
  0
CIRCLE
  5
E8
330
17
100
AcDbEntity
  8
0
100
AcDbCircle
 10
0.453795793
 20
0.296077796
 30
0.0
 40
0.004
  0
CIRCLE
  5
E9
330
17
100
AcDbEntity
  8
0
100
AcDbCircle
 10
0.614238404
 20
0.448500847
 30
0.0
 40
0.004
  0
CIRCLE
  5
EA
330
17
100
AcDbEntity
  8
0
100
AcDbCircle
 10
0.694710185
 20
0.29912589
 30
0.0
 40
0.004
  0
CIRCLE
  5
EB
330
17
100
AcDbEntity
  8
0
100
AcDbCircle
 10
0.687107135
 20
0.317425471
 30
0.0
 40
0.004
  0
CIRCLE
  5
EC
330
17
100
AcDbEntity
  8
0
100
AcDbCircle
 10
0.743713804
 20
0.136787527
 30
0.0
 40
0.004
  0
CIRCLE
  5
ED
330
17
100
AcDbEntity
  8
0
100
AcDbCircle
 10
0.751353576
 20
0.118450609
 30
0.0
 40
0.004
  0
CIRCLE
  5
EE
330
17
100
AcDbEntity
  8
0
100
AcDbCircle
 10
0.739293349
 20
0.102658512
 30
0.0
 40
0.004
  0
CIRCLE
  5
EF
330
17
100
AcDbEntity
  8
0
100
AcDbCircle
 10
0.409773089
 20
0.267006439
 30
0.0
 40
0.004
  0
CIRCLE
  5
F0
330
17
100
AcDbEntity
  8
0
100
AcDbCircle
 10
0.397647465
 20
0.251169901
 30
0.0
 40
0.004
  0
CIRCLE
  5
F1
330
17
100
AcDbEntity
  8
0
100
AcDbCircle
 10
0.606632937
 20
0.466856971
 30
0.0
 40
0.004
  0
CIRCLE
  5
F2
330
17
100
AcDbEntity
  8
0
100
AcDbCircle
 10
0.709996131
 20
0.262468314
 30
0.0
 40
0.004
  0
CIRCLE
  5
F3
330
17
100
AcDbEntity
  8
0
100
AcDbCircle
 10
0.502195919
 20
0.359047681
 30
0.0
 40
0.004
  0
CIRCLE
  5
F4
330
17
100
AcDbEntity
  8
0
100
AcDbCircle
 10
0.514295338
 20
0.374864234
 30
0.0
 40
0.004
  0
CIRCLE
  5
F5
330
17
100
AcDbEntity
  8
0
100
AcDbCircle
 10
0.5774817
 20
0.0885026343
 30
0.0
 40
0.004
  0
CIRCLE
  5
F6
330
17
100
AcDbEntity
  8
0
100
AcDbCircle
 10
0.589492699
 20
0.104473744
 30
0.0
 40
0.004
  0
CIRCLE
  5
F7
330
17
100
AcDbEntity
  8
0
100
AcDbCircle
 10
0.597188802
 20
0.0859749096
 30
0.0
 40
0.004
  0
CIRCLE
  5
F8
330
17
100
AcDbEntity
  8
0
100
AcDbCircle
 10
0.759010871
 20
0.100102993
 30
0.0
 40
0.004
  0
CIRCLE
  5
F9
330
17
100
AcDbEntity
  8
0
100
AcDbCircle
 10
0.687766087
 20
0.0919275282
 30
0.0
 40
0.004
  0
CIRCLE
  5
FA
330
17
100
AcDbEntity
  8
0
100
AcDbCircle
 10
0.434023686
 20
0.298669861
 30
0.0
 40
0.004
  0
CIRCLE
  5
FB
330
17
100
AcDbEntity
  8
0
100
AcDbCircle
 10
0.446152174
 20
0.314504021
 30
0.0
 40
0.004
  0
CIRCLE
  5
FC
330
17
100
AcDbEntity
  8
0
100
AcDbCircle
 10
0.656736992
 20
0.390781437
 30
0.0
 40
0.004
  0
CIRCLE
  5
FD
330
17
100
AcDbEntity
  8
0
100
AcDbCircle
 10
0.629882133
 20
0.186314866
 30
0.0
 40
0.004
  0
CIRCLE
  5
FE
330
17
100
AcDbEntity
  8
0
100
AcDbCircle
 10
0.617795257
 20
0.170520773
 30
0.0
 40
0.004
  0
CIRCLE
  5
FF
330
17
100
AcDbEntity
  8
0
100
AcDbCircle
 10
0.668015339
 20
0.094494746
 30
0.0
 40
0.004
  0
CIRCLE
  5
100
330
17
100
AcDbEntity
  8
0
100
AcDbCircle
 10
0.746941639
 20
0.0843157955
 30
0.0
 40
0.004
  0
CIRCLE
  5
101
330
17
100
AcDbEntity
  8
0
100
AcDbCircle
 10
0.766666529
 20
0.0817535783
 30
0.0
 40
0.004
  0
CIRCLE
  5
102
330
17
100
AcDbEntity
  8
0
100
AcDbCircle
 10
0.466245204
 20
0.0853645242
 30
0.0
 40
0.004
  0
CIRCLE
  5
103
330
17
100
AcDbEntity
  8
0
100
AcDbCircle
 10
0.586929039
 20
0.469444161
 30
0.0
 40
0.004
  0
CIRCLE
  5
104
330
17
100
AcDbEntity
  8
0
100
AcDbCircle
 10
0.599029971
 20
0.48522171
 30
0.0
 40
0.004
  0
CIRCLE
  5
105
330
17
100
AcDbEntity
  8
0
100
AcDbCircle
 10
0.675669747
 20
0.0760970994
 30
0.0
 40
0.004
  0
CIRCLE
  5
106
330
17
100
AcDbEntity
  8
0
100
AcDbCircle
 10
0.390186064
 20
0.26944513
 30
0.0
 40
0.004
  0
CIRCLE
  5
107
330
17
100
AcDbEntity
  8
0
100
AcDbCircle
 10
0.378092762
 20
0.253578173
 30
0.0
 40
0.004
  0
CIRCLE
  5
108
330
17
100
AcDbEntity
  8
0
100
AcDbCircle
 10
0.506127896
 20
0.081240928
 30
0.0
 40
0.004
  0
CIRCLE
  5
109
330
17
100
AcDbEntity
  8
0
100
AcDbCircle
 10
0.49452768
 20
0.377446857
 30
0.0
 40
0.004
  0
CIRCLE
  5
10A
330
17
100
AcDbEntity
  8
0
100
AcDbCircle
 10
0.506652574
 20
0.393276836
 30
0.0
 40
0.004
  0
CIRCLE
  5
10B
330
17
100
AcDbEntity
  8
0
100
AcDbCircle
 10
0.626320132
 20
0.464261225
 30
0.0
 40
0.004
  0
CIRCLE
  5
10C
330
17
100
AcDbEntity
  8
0
100
AcDbCircle
 10
0.706751259
 20
0.314861278
 30
0.0
 40
0.004
  0
CIRCLE
  5
10D
330
17
100
AcDbEntity
  8
0
100
AcDbCircle
 10
0.699155845
 20
0.333152488
 30
0.0
 40
0.004
  0
CIRCLE
  5
10E
330
17
100
AcDbEntity
  8
0
100
AcDbCircle
 10
0.73608522
 20
0.15512145
 30
0.0
 40
0.004
  0
CIRCLE
  5
10F
330
17
100
AcDbEntity
  8
0
100
AcDbCircle
 10
0.755766664
 20
0.152563547
 30
0.0
 40
0.004
  0
CIRCLE
  5
110
330
17
100
AcDbEntity
  8
0
100
AcDbCircle
 10
0.748144018
 20
0.170877162
 30
0.0
 40
0.004
  0
CIRCLE
  5
111
330
17
100
AcDbEntity
  8
0
100
AcDbCircle
 10
0.633920088
 20
0.445903795
 30
0.0
 40
0.004
  0
CIRCLE
  5
112
330
17
100
AcDbEntity
  8
0
100
AcDbCircle
 10
0.522558
 20
0.130541132
 30
0.0
 40
0.004
  0
CIRCLE
  5
113
330
17
100
AcDbEntity
  8
0
100
AcDbCircle
 10
0.658548328
 20
0.251916925
 30
0.0
 40
0.004
  0
CIRCLE
  5
114
330
17
100
AcDbEntity
  8
0
100
AcDbCircle
 10
0.385563518
 20
0.235303301
 30
0.0
 40
0.004
  0
CIRCLE
  5
115
330
17
100
AcDbEntity
  8
0
100
AcDbCircle
 10
0.365789589
 20
0.237876138
 30
0.0
 40
0.004
  0
CIRCLE
  5
116
330
17
100
AcDbEntity
  8
0
100
AcDbCircle
 10
0.69543522
 20
0.0735310393
 30
0.0
 40
0.004
  0
CIRCLE
  5
117
330
17
100
AcDbEntity
  8
0
100
AcDbCircle
 10
0.645153115
 20
0.149587639
 30
0.0
 40
0.004
  0
CIRCLE
  5
118
330
17
100
AcDbEntity
  8
0
100
AcDbCircle
 10
0.517516694
 20
0.322287263
 30
0.0
 40
0.004
  0
CIRCLE
  5
119
330
17
100
AcDbEntity
  8
0
100
AcDbCircle
 10
0.482496117
 20
0.361670927
 30
0.0
 40
0.004
  0
CIRCLE
  5
11A
330
17
100
AcDbEntity
  8
0
100
AcDbCircle
 10
0.426370412
 20
0.317096773
 30
0.0
 40
0.004
  0
CIRCLE
  5
11B
330
17
100
AcDbEntity
  8
0
100
AcDbCircle
 10
0.438507367
 20
0.332939778
 30
0.0
 40
0.004
  0
CIRCLE
  5
11C
330
17
100
AcDbEntity
  8
0
100
AcDbCircle
 10
0.655904955
 20
0.0786665948
 30
0.0
 40
0.004
  0
CIRCLE
  5
11D
330
17
100
AcDbEntity
  8
0
100
AcDbCircle
 10
0.648333642
 20
0.0970977738
 30
0.0
 40
0.004
  0
CIRCLE
  5
11E
330
17
100
AcDbEntity
  8
0
100
AcDbCircle
 10
0.545802241
 20
0.0748407668
 30
0.0
 40
0.004
  0
CIRCLE
  5
11F
330
17
100
AcDbEntity
  8
0
100
AcDbCircle
 10
0.771055316
 20
0.115895989
 30
0.0
 40
0.004
  0
CIRCLE
  5
120
330
17
100
AcDbEntity
  8
0
100
AcDbCircle
 10
0.579591943
 20
0.487601653
 30
0.0
 40
0.004
  0
CIRCLE
  5
121
330
17
100
AcDbEntity
  8
0
100
AcDbCircle
 10
0.567577004
 20
0.471959011
 30
0.0
 40
0.004
  0
CIRCLE
  5
122
330
17
100
AcDbEntity
  8
0
100
AcDbCircle
 10
0.585123496
 20
0.0700774252
 30
0.0
 40
0.004
  0
CIRCLE
  5
123
330
17
100
AcDbEntity
  8
0
100
AcDbCircle
 10
0.604800293
 20
0.0676467816
 30
0.0
 40
0.004
  0
CIRCLE
  5
124
330
17
100
AcDbEntity
  8
0
100
AcDbCircle
 10
0.35862396
 20
0.257203312
 30
0.0
 40
0.004
  0
CIRCLE
  5
125
330
17
100
AcDbEntity
  8
0
100
AcDbCircle
 10
0.345873107
 20
0.241422996
 30
0.0
 40
0.004
  0
CIRCLE
  5
126
330
17
100
AcDbEntity
  8
0
100
AcDbCircle
 10
0.353616349
 20
0.222222744
 30
0.0
 40
0.004
  0
CIRCLE
  5
127
330
17
100
AcDbEntity
  8
0
100
AcDbCircle
 10
0.333834306
 20
0.224824787
 30
0.0
 40
0.004
  0
CIRCLE
  5
128
330
17
100
AcDbEntity
  8
0
100
AcDbCircle
 10
0.679525752
 20
0.335760191
 30
0.0
 40
0.004
  0
CIRCLE
  5
129
330
17
100
AcDbEntity
  8
0
100
AcDbCircle
 10
0.691572717
 20
0.351452986
 30
0.0
 40
0.004
  0
CIRCLE
  5
12A
330
17
100
AcDbEntity
  8
0
100
AcDbCircle
 10
0.71119705
 20
0.34887586
 30
0.0
 40
0.004
  0
CIRCLE
  5
12B
330
17
100
AcDbEntity
  8
0
100
AcDbCircle
 10
0.63259586
 20
0.359365821
 30
0.0
 40
0.004
  0
CIRCLE
  5
12C
330
17
100
AcDbEntity
  8
0
100
AcDbCircle
 10
0.341502715
 20
0.206295471
 30
0.0
 40
0.004
  0
CIRCLE
  5
12D
330
17
100
AcDbEntity
  8
0
100
AcDbCircle
 10
0.321742412
 20
0.20884764
 30
0.0
 40
0.004
  0
CIRCLE
  5
12E
330
17
100
AcDbEntity
  8
0
100
AcDbCircle
 10
0.610160948
 20
0.188886657
 30
0.0
 40
0.004
  0
CIRCLE
  5
12F
330
17
100
AcDbEntity
  8
0
100
AcDbCircle
 10
0.598067486
 20
0.173090711
 30
0.0
 40
0.004
  0
CIRCLE
  5
130
330
17
100
AcDbEntity
  8
0
100
AcDbCircle
 10
0.622248976
 20
0.204677944
 30
0.0
 40
0.004
  0
CIRCLE
  5
131
330
17
100
AcDbEntity
  8
0
100
AcDbCircle
 10
0.60570666
 20
0.154716557
 30
0.0
 40
0.004
  0
CIRCLE
  5
132
330
17
100
AcDbEntity
  8
0
100
AcDbCircle
 10
0.473562958
 20
0.293487986
 30
0.0
 40
0.004
  0
CIRCLE
  5
133
330
17
100
AcDbEntity
  8
0
100
AcDbCircle
 10
0.481205682
 20
0.275081457
 30
0.0
 40
0.004
  0
CIRCLE
  5
134
330
17
100
AcDbEntity
  8
0
100
AcDbCircle
 10
0.41944279
 20
0.334972767
 30
0.0
 40
0.004
  0
CIRCLE
  5
135
330
17
100
AcDbEntity
  8
0
100
AcDbCircle
 10
0.40757998
 20
0.318962848
 30
0.0
 40
0.004
  0
CIRCLE
  5
136
330
17
100
AcDbEntity
  8
0
100
AcDbCircle
 10
0.767813404
 20
0.168318391
 30
0.0
 40
0.004
  0
CIRCLE
  5
137
330
17
100
AcDbEntity
  8
0
100
AcDbCircle
 10
0.760196354
 20
0.186622237
 30
0.0
 40
0.004
  0
CIRCLE
  5
138
330
17
100
AcDbEntity
  8
0
100
AcDbCircle
 10
0.645994778
 20
0.461664921
 30
0.0
 40
0.004
  0
CIRCLE
  5
139
330
17
100
AcDbEntity
  8
0
100
AcDbCircle
 10
0.653585206
 20
0.443316837
 30
0.0
 40
0.004
  0
CIRCLE
  5
13A
330
17
100
AcDbEntity
  8
0
100
AcDbCircle
 10
0.486873341
 20
0.395862298
 30
0.0
 40
0.004
  0
CIRCLE
  5
13B
330
17
100
AcDbEntity
  8
0
100
AcDbCircle
 10
0.499956711
 20
0.410966309
 30
0.0
 40
0.004
  0
CIRCLE
  5
13C
330
17
100
AcDbEntity
  8
0
100
AcDbCircle
 10
0.51894165
 20
0.408985671
 30
0.0
 40
0.004
  0
CIRCLE
  5
13D
330
17
100
AcDbEntity
  8
0
100
AcDbCircle
 10
0.703606928
 20
0.367162377
 30
0.0
 40
0.004
  0
CIRCLE
  5
13E
330
17
100
AcDbEntity
  8
0
100
AcDbCircle
 10
0.591472983
 20
0.503554687
 30
0.0
 40
0.004
  0
CIRCLE
  5
13F
330
17
100
AcDbEntity
  8
0
100
AcDbCircle
 10
0.611146332
 20
0.500988367
 30
0.0
 40
0.004
  0
CIRCLE
  5
140
330
17
100
AcDbEntity
  8
0
100
AcDbCircle
 10
0.754657872
 20
0.0664480917
 30
0.0
 40
0.004
  0
CIRCLE
  5
141
330
17
100
AcDbEntity
  8
0
100
AcDbCircle
 10
0.774385119
 20
0.0639512383
 30
0.0
 40
0.004
  0
CIRCLE
  5
142
330
17
100
AcDbEntity
  8
0
100
AcDbCircle
 10
0.683327136
 20
0.0576903002
 30
0.0
 40
0.004
  0
CIRCLE
  5
143
330
17
100
AcDbEntity
  8
0
100
AcDbCircle
 10
0.603548855
 20
0.519347968
 30
0.0
 40
0.004
  0
CIRCLE
  5
144
330
17
100
AcDbEntity
  8
0
100
AcDbCircle
 10
0.512275684
 20
0.426655916
 30
0.0
 40
0.004
  0
CIRCLE
  5
145
330
17
100
AcDbEntity
  8
0
100
AcDbCircle
 10
0.531129164
 20
0.424737387
 30
0.0
 40
0.004
  0
CIRCLE
  5
146
330
17
100
AcDbEntity
  8
0
100
AcDbCircle
 10
0.78639734
 20
0.0792884382
 30
0.0
 40
0.004
  0
CIRCLE
  5
147
330
17
100
AcDbEntity
  8
0
100
AcDbCircle
 10
0.523494674
 20
0.443178437
 30
0.0
 40
0.004
  0
CIRCLE
  5
148
330
17
100
AcDbEntity
  8
0
100
AcDbCircle
 10
0.325795013
 20
0.24193979
 30
0.0
 40
0.004
  0
CIRCLE
  5
149
330
17
100
AcDbEntity
  8
0
100
AcDbCircle
 10
0.794045392
 20
0.0609614138
 30
0.0
 40
0.004
  0
CIRCLE
  5
14A
330
17
100
AcDbEntity
  8
0
100
AcDbCircle
 10
0.430979706
 20
0.351290066
 30
0.0
 40
0.004
  0
CIRCLE
  5
14B
330
17
100
AcDbEntity
  8
0
100
AcDbCircle
 10
0.703103002
 20
0.0551213688
 30
0.0
 40
0.004
  0
CIRCLE
  5
14C
330
17
100
AcDbEntity
  8
0
100
AcDbCircle
 10
0.723220776
 20
0.364517499
 30
0.0
 40
0.004
  0
CIRCLE
  5
14D
330
17
100
AcDbEntity
  8
0
100
AcDbCircle
 10
0.740515329
 20
0.189197089
 30
0.0
 40
0.004
  0
CIRCLE
  5
14E
330
17
100
AcDbEntity
  8
0
100
AcDbCircle
 10
0.752583899
 20
0.204923835
 30
0.0
 40
0.004
  0
CIRCLE
  5
14F
330
17
100
AcDbEntity
  8
0
100
AcDbCircle
 10
0.58597066
 20
0.157287477
 30
0.0
 40
0.004
  0
CIRCLE
  5
150
330
17
100
AcDbEntity
  8
0
100
AcDbCircle
 10
0.775433564
 20
0.150018136
 30
0.0
 40
0.004
  0
CIRCLE
  5
151
330
17
100
AcDbEntity
  8
0
100
AcDbCircle
 10
0.329398045
 20
0.190439676
 30
0.0
 40
0.004
  0
CIRCLE
  5
152
330
17
100
AcDbEntity
  8
0
100
AcDbCircle
 10
0.309643792
 20
0.19299708
 30
0.0
 40
0.004
  0
CIRCLE
  5
153
330
17
100
AcDbEntity
  8
0
100
AcDbCircle
 10
0.302372609
 20
0.211086497
 30
0.0
 40
0.004
  0
CIRCLE
  5
154
330
17
100
AcDbEntity
  8
0
100
AcDbCircle
 10
0.290404744
 20
0.195201765
 30
0.0
 40
0.004
  0
CIRCLE
  5
155
330
17
100
AcDbEntity
  8
0
100
AcDbCircle
 10
0.297639082
 20
0.17716885
 30
0.0
 40
0.004
  0
CIRCLE
  5
156
330
17
100
AcDbEntity
  8
0
100
AcDbCircle
 10
0.277970848
 20
0.179720962
 30
0.0
 40
0.004
  0
CIRCLE
  5
157
330
17
100
AcDbEntity
  8
0
100
AcDbCircle
 10
0.638404313
 20
0.479990602
 30
0.0
 40
0.004
  0
CIRCLE
  5
158
330
17
100
AcDbEntity
  8
0
100
AcDbCircle
 10
0.658052889
 20
0.477402024
 30
0.0
 40
0.004
  0
CIRCLE
  5
159
330
17
100
AcDbEntity
  8
0
100
AcDbCircle
 10
0.714352862
 20
0.296567435
 30
0.0
 40
0.004
  0
CIRCLE
  5
15A
330
17
100
AcDbEntity
  8
0
100
AcDbCircle
 10
0.726386761
 20
0.312294325
 30
0.0
 40
0.004
  0
CIRCLE
  5
15B
330
17
100
AcDbEntity
  8
0
100
AcDbCircle
 10
0.73398304
 20
0.294012213
 30
0.0
 40
0.004
  0
CIRCLE
  5
15C
330
17
100
AcDbEntity
  8
0
100
AcDbCircle
 10
0.647791377
 20
0.322635008
 30
0.0
 40
0.004
  0
CIRCLE
  5
15D
330
17
100
AcDbEntity
  8
0
100
AcDbCircle
 10
0.47671723
 20
0.240857781
 30
0.0
 40
0.004
  0
CIRCLE
  5
15E
330
17
100
AcDbEntity
  8
0
100
AcDbCircle
 10
0.487495603
 20
0.169873692
 30
0.0
 40
0.004
  0
CIRCLE
  5
15F
330
17
100
AcDbEntity
  8
0
100
AcDbCircle
 10
0.507216676
 20
0.167312204
 30
0.0
 40
0.004
  0
CIRCLE
  5
160
330
17
100
AcDbEntity
  8
0
100
AcDbCircle
 10
0.631274111
 20
0.27276479
 30
0.0
 40
0.004
  0
CIRCLE
  5
161
330
17
100
AcDbEntity
  8
0
100
AcDbCircle
 10
0.36128014
 20
0.203677641
 30
0.0
 40
0.004
  0
CIRCLE
  5
162
330
17
100
AcDbEntity
  8
0
100
AcDbCircle
 10
0.570367061
 20
0.419554506
 30
0.0
 40
0.004
  0
CIRCLE
  5
163
330
17
100
AcDbEntity
  8
0
100
AcDbCircle
 10
0.602546193
 20
0.207238353
 30
0.0
 40
0.004
  0
CIRCLE
  5
164
330
17
100
AcDbEntity
  8
0
100
AcDbCircle
 10
0.562770488
 20
0.437957602
 30
0.0
 40
0.004
  0
CIRCLE
  5
165
330
17
100
AcDbEntity
  8
0
100
AcDbCircle
 10
0.614641554
 20
0.223019404
 30
0.0
 40
0.004
  0
CIRCLE
  5
166
330
17
100
AcDbEntity
  8
0
100
AcDbCircle
 10
0.634334947
 20
0.220455055
 30
0.0
 40
0.004
  0
CIRCLE
  5
167
330
17
100
AcDbEntity
  8
0
100
AcDbCircle
 10
0.493320131
 20
0.290871131
 30
0.0
 40
0.004
  0
CIRCLE
  5
168
330
17
100
AcDbEntity
  8
0
100
AcDbCircle
 10
0.500956209
 20
0.27248007
 30
0.0
 40
0.004
  0
CIRCLE
  5
169
330
17
100
AcDbEntity
  8
0
100
AcDbCircle
 10
0.485690789
 20
0.309235561
 30
0.0
 40
0.004
  0
CIRCLE
  5
16A
330
17
100
AcDbEntity
  8
0
100
AcDbCircle
 10
0.578359831
 20
0.175646479
 30
0.0
 40
0.004
  0
CIRCLE
  5
16B
330
17
100
AcDbEntity
  8
0
100
AcDbCircle
 10
0.566235162
 20
0.159858238
 30
0.0
 40
0.004
  0
CIRCLE
  5
16C
330
17
100
AcDbEntity
  8
0
100
AcDbCircle
 10
0.513068331
 20
0.288236368
 30
0.0
 40
0.004
  0
CIRCLE
  5
16D
330
17
100
AcDbEntity
  8
0
100
AcDbCircle
 10
0.458284528
 20
0.330296341
 30
0.0
 40
0.004
  0
CIRCLE
  5
16E
330
17
100
AcDbEntity
  8
0
100
AcDbCircle
 10
0.572427456
 20
0.50579567
 30
0.0
 40
0.004
  0
CIRCLE
  5
16F
330
17
100
AcDbEntity
  8
0
100
AcDbCircle
 10
0.609177131
 20
0.101965103
 30
0.0
 40
0.004
  0
CIRCLE
  5
170
330
17
100
AcDbEntity
  8
0
100
AcDbCircle
 10
0.772236601
 20
0.202357298
 30
0.0
 40
0.004
  0
CIRCLE
  5
171
330
17
100
AcDbEntity
  8
0
100
AcDbCircle
 10
0.764628651
 20
0.220651189
 30
0.0
 40
0.004
  0
CIRCLE
  5
172
330
17
100
AcDbEntity
  8
0
100
AcDbCircle
 10
0.744986179
 20
0.223215219
 30
0.0
 40
0.004
  0
CIRCLE
  5
173
330
17
100
AcDbEntity
  8
0
100
AcDbCircle
 10
0.757032672
 20
0.239002197
 30
0.0
 40
0.004
  0
CIRCLE
  5
174
330
17
100
AcDbEntity
  8
0
100
AcDbCircle
 10
0.775740965
 20
0.236061692
 30
0.0
 40
0.004
  0
CIRCLE
  5
175
330
17
100
AcDbEntity
  8
0
100
AcDbCircle
 10
0.270658203
 20
0.197424086
 30
0.0
 40
0.004
  0
CIRCLE
  5
176
330
17
100
AcDbEntity
  8
0
100
AcDbCircle
 10
0.411054984
 20
0.353973938
 30
0.0
 40
0.004
  0
CIRCLE
  5
177
330
17
100
AcDbEntity
  8
0
100
AcDbCircle
 10
0.592809525
 20
0.0519800484
 30
0.0
 40
0.004
  0
CIRCLE
  5
178
330
17
100
AcDbEntity
  8
0
100
AcDbCircle
 10
0.573087411
 20
0.0543155552
 30
0.0
 40
0.004
  0
CIRCLE
  5
179
330
17
100
AcDbEntity
  8
0
100
AcDbCircle
 10
0.612092886
 20
0.0506661684
 30
0.0
 40
0.004
  0
CIRCLE
  5
17A
330
17
100
AcDbEntity
  8
0
100
AcDbCircle
 10
0.787336677
 20
0.165710594
 30
0.0
 40
0.004
  0
CIRCLE
  5
17B
330
17
100
AcDbEntity
  8
0
100
AcDbCircle
 10
0.593653812
 20
0.13892053
 30
0.0
 40
0.004
  0
CIRCLE
  5
17C
330
17
100
AcDbEntity
  8
0
100
AcDbCircle
 10
0.61336204
 20
0.136333498
 30
0.0
 40
0.004
  0
CIRCLE
  5
17D
330
17
100
AcDbEntity
  8
0
100
AcDbCircle
 10
0.737390086
 20
0.241507303
 30
0.0
 40
0.004
  0
CIRCLE
  5
17E
330
17
100
AcDbEntity
  8
0
100
AcDbCircle
 10
0.749407578
 20
0.257268127
 30
0.0
 40
0.004
  0
CIRCLE
  5
17F
330
17
100
AcDbEntity
  8
0
100
AcDbCircle
 10
0.683975526
 20
0.369733961
 30
0.0
 40
0.004
  0
CIRCLE
  5
180
330
17
100
AcDbEntity
  8
0
100
AcDbCircle
 10
0.695690996
 20
0.385378035
 30
0.0
 40
0.004
  0
CIRCLE
  5
181
330
17
100
AcDbEntity
  8
0
100
AcDbCircle
 10
0.285487794
 20
0.161480015
 30
0.0
 40
0.004
  0
CIRCLE
  5
182
330
17
100
AcDbEntity
  8
0
100
AcDbCircle
 10
0.649118221
 20
0.409168144
 30
0.0
 40
0.004
  0
CIRCLE
  5
183
330
17
100
AcDbEntity
  8
0
100
AcDbCircle
 10
0.668775866
 20
0.406544148
 30
0.0
 40
0.004
  0
CIRCLE
  5
184
330
17
100
AcDbEntity
  8
0
100
AcDbCircle
 10
0.652296588
 20
0.356730497
 30
0.0
 40
0.004
  0
CIRCLE
  5
185
330
17
100
AcDbEntity
  8
0
100
AcDbCircle
 10
0.538606902
 20
0.406403944
 30
0.0
 40
0.004
  0
CIRCLE
  5
186
330
17
100
AcDbEntity
  8
0
100
AcDbCircle
 10
0.495130872
 20
0.151483367
 30
0.0
 40
0.004
  0
CIRCLE
  5
187
330
17
100
AcDbEntity
  8
0
100
AcDbCircle
 10
0.727236421
 20
0.0868442652
 30
0.0
 40
0.004
  0
CIRCLE
  5
188
330
17
100
AcDbEntity
  8
0
100
AcDbCircle
 10
0.402152084
 20
0.285401316
 30
0.0
 40
0.004
  0
CIRCLE
  5
189
330
17
100
AcDbEntity
  8
0
100
AcDbCircle
 10
0.383635634
 20
0.288920634
 30
0.0
 40
0.004
  0
CIRCLE
  5
18A
330
17
100
AcDbEntity
  8
0
100
AcDbCircle
 10
0.626754357
 20
0.238781913
 30
0.0
 40
0.004
  0
CIRCLE
  5
18B
330
17
100
AcDbEntity
  8
0
100
AcDbCircle
 10
0.59498703
 20
0.225530993
 30
0.0
 40
0.004
  0
CIRCLE
  5
18C
330
17
100
AcDbEntity
  8
0
100
AcDbCircle
 10
0.558662546
 20
0.178201688
 30
0.0
 40
0.004
  0
CIRCLE
  5
18D
330
17
100
AcDbEntity
  8
0
100
AcDbCircle
 10
0.546569989
 20
0.162370669
 30
0.0
 40
0.004
  0
CIRCLE
  5
18E
330
17
100
AcDbEntity
  8
0
100
AcDbCircle
 10
0.636335849
 20
0.0812650622
 30
0.0
 40
0.004
  0
CIRCLE
  5
18F
330
17
100
AcDbEntity
  8
0
100
AcDbCircle
 10
0.644045068
 20
0.0635560133
 30
0.0
 40
0.004
  0
CIRCLE
  5
190
330
17
100
AcDbEntity
  8
0
100
AcDbCircle
 10
0.730211881
 20
0.34603752
 30
0.0
 40
0.004
  0
CIRCLE
  5
191
330
17
100
AcDbEntity
  8
0
100
AcDbCircle
 10
0.782081598
 20
0.0455658432
 30
0.0
 40
0.004
  0
CIRCLE
  5
192
330
17
100
AcDbEntity
  8
0
100
AcDbCircle
 10
0.481529916
 20
0.415558782
 30
0.0
 40
0.004
  0
CIRCLE
  5
193
330
17
100
AcDbEntity
  8
0
100
AcDbCircle
 10
0.468265088
 20
0.398102397
 30
0.0
 40
0.004
  0
CIRCLE
  5
194
330
17
100
AcDbEntity
  8
0
100
AcDbCircle
 10
0.745435183
 20
0.309485658
 30
0.0
 40
0.004
  0
CIRCLE
  5
195
330
17
100
AcDbEntity
  8
0
100
AcDbCircle
 10
0.752932044
 20
0.291172173
 30
0.0
 40
0.004
  0
CIRCLE
  5
196
330
17
100
AcDbEntity
  8
0
100
AcDbCircle
 10
0.258203213
 20
0.182342519
 30
0.0
 40
0.004
  0
CIRCLE
  5
197
330
17
100
AcDbEntity
  8
0
100
AcDbCircle
 10
0.250591408
 20
0.200635742
 30
0.0
 40
0.004
  0
CIRCLE
  5
198
330
17
100
AcDbEntity
  8
0
100
AcDbCircle
 10
0.794283099
 20
0.147093672
 30
0.0
 40
0.004
  0
CIRCLE
  5
199
330
17
100
AcDbEntity
  8
0
100
AcDbCircle
 10
0.623136632
 20
0.515884685
 30
0.0
 40
0.004
  0
CIRCLE
  5
19A
330
17
100
AcDbEntity
  8
0
100
AcDbCircle
 10
0.805164575
 20
0.0771252953
 30
0.0
 40
0.004
  0
CIRCLE
  5
19B
330
17
100
AcDbEntity
  8
0
100
AcDbCircle
 10
0.798010625
 20
0.0952189082
 30
0.0
 40
0.004
  0
CIRCLE
  5
19C
330
17
100
AcDbEntity
  8
0
100
AcDbCircle
 10
0.502492875
 20
0.445333118
 30
0.0
 40
0.004
  0
CIRCLE
  5
19D
330
17
100
AcDbEntity
  8
0
100
AcDbCircle
 10
0.691822927
 20
0.0351794173
 30
0.0
 40
0.004
  0
CIRCLE
  5
19E
330
17
100
AcDbEntity
  8
0
100
AcDbCircle
 10
0.671700994
 20
0.0413110049
 30
0.0
 40
0.004
  0
CIRCLE
  5
19F
330
17
100
AcDbEntity
  8
0
100
AcDbCircle
 10
0.742847517
 20
0.362020071
 30
0.0
 40
0.004
  0
CIRCLE
  5
1A0
330
17
100
AcDbEntity
  8
0
100
AcDbCircle
 10
0.803085504
 20
0.0403627515
 30
0.0
 40
0.004
  0
CIRCLE
  5
1A1
330
17
100
AcDbEntity
  8
0
100
AcDbCircle
 10
0.618641939
 20
0.536376108
 30
0.0
 40
0.004
  0
CIRCLE
  5
1A2
330
17
100
AcDbEntity
  8
0
100
AcDbCircle
 10
0.595954313
 20
0.53771833
 30
0.0
 40
0.004
  0
CIRCLE
  5
1A3
330
17
100
AcDbEntity
  8
0
100
AcDbCircle
 10
0.580192621
 20
0.0357633979
 30
0.0
 40
0.004
  0
CIRCLE
  5
1A4
330
17
100
AcDbEntity
  8
0
100
AcDbCircle
 10
0.296630923
 20
0.0877255951
 30
0.0
 40
0.004
  0
CIRCLE
  5
1A5
330
17
100
AcDbEntity
  8
0
100
AcDbCircle
 10
0.31744899
 20
0.0875262708
 30
0.0
 40
0.004
  0
CIRCLE
  5
1A6
330
17
100
AcDbEntity
  8
0
100
AcDbCircle
 10
0.305993044
 20
0.0705856718
 30
0.0
 40
0.004
  0
CIRCLE
  5
1A7
330
17
100
AcDbEntity
  8
0
100
AcDbCircle
 10
0.326917918
 20
0.0704247944
 30
0.0
 40
0.004
  0
CIRCLE
  5
1A8
330
17
100
AcDbEntity
  8
0
100
AcDbCircle
 10
0.316585751
 20
0.0535587773
 30
0.0
 40
0.004
  0
CIRCLE
  5
1A9
330
17
100
AcDbEntity
  8
0
100
AcDbCircle
 10
0.337006252
 20
0.0535628649
 30
0.0
 40
0.004
  0
CIRCLE
  5
1AA
330
17
100
AcDbEntity
  8
0
100
AcDbCircle
 10
0.346850861
 20
0.0706217244
 30
0.0
 40
0.004
  0
CIRCLE
  5
1AB
330
17
100
AcDbEntity
  8
0
100
AcDbCircle
 10
0.356989719
 20
0.0537290151
 30
0.0
 40
0.004
  0
CIRCLE
  5
1AC
330
17
100
AcDbEntity
  8
0
100
AcDbCircle
 10
0.366769218
 20
0.071000089
 30
0.0
 40
0.004
  0
CIRCLE
  5
1AD
330
17
100
AcDbEntity
  8
0
100
AcDbCircle
 10
0.37691493
 20
0.0538927313
 30
0.0
 40
0.004
  0
CIRCLE
  5
1AE
330
17
100
AcDbEntity
  8
0
100
AcDbCircle
 10
0.386684177
 20
0.0712360972
 30
0.0
 40
0.004
  0
CIRCLE
  5
1AF
330
17
100
AcDbEntity
  8
0
100
AcDbCircle
 10
0.376538101
 20
0.0883694289
 30
0.0
 40
0.004
  0
CIRCLE
  5
1B0
330
17
100
AcDbEntity
  8
0
100
AcDbCircle
 10
0.395561902
 20
0.0890946056
 30
0.0
 40
0.004
  0
CIRCLE
  5
1B1
330
17
100
AcDbEntity
  8
0
100
AcDbCircle
 10
0.406597249
 20
0.0717254786
 30
0.0
 40
0.004
  0
CIRCLE
  5
1B2
330
17
100
AcDbEntity
  8
0
100
AcDbCircle
 10
0.367147245
 20
0.0365400922
 30
0.0
 40
0.004
  0
CIRCLE
  5
1B3
330
17
100
AcDbEntity
  8
0
100
AcDbCircle
 10
0.386163632
 20
0.104947686
 30
0.0
 40
0.004
  0
CIRCLE
  5
1B4
330
17
100
AcDbEntity
  8
0
100
AcDbCircle
 10
0.40458313
 20
0.105884789
 30
0.0
 40
0.004
  0
CIRCLE
  5
1B5
330
17
100
AcDbEntity
  8
0
100
AcDbCircle
 10
0.366444255
 20
0.104092679
 30
0.0
 40
0.004
  0
CIRCLE
  5
1B6
330
17
100
AcDbEntity
  8
0
100
AcDbCircle
 10
0.328040775
 20
0.036067149
 30
0.0
 40
0.004
  0
CIRCLE
  5
1B7
330
17
100
AcDbEntity
  8
0
100
AcDbCircle
 10
0.385819065
 20
0.0380627884
 30
0.0
 40
0.004
  0
CIRCLE
  5
1B8
330
17
100
AcDbEntity
  8
0
100
AcDbCircle
 10
0.29735019
 20
0.0524312801
 30
0.0
 40
0.004
  0
CIRCLE
  5
1B9
330
17
100
AcDbEntity
  8
0
100
AcDbCircle
 10
0.395811099
 20
0.122489078
 30
0.0
 40
0.004
  0
CIRCLE
  5
1BA
330
17
100
AcDbEntity
  8
0
100
AcDbCircle
 10
0.413817413
 20
0.123621175
 30
0.0
 40
0.004
  0
CIRCLE
  5
1BB
330
17
100
AcDbEntity
  8
0
100
AcDbCircle
 10
0.676676968
 20
0.0220671732
 30
0.0
 40
0.004
  0
CIRCLE
  5
1BC
330
17
100
AcDbEntity
  8
0
100
AcDbCircle
 10
0.24218021
 20
0.168260575
 30
0.0
 40
0.004
  0
CIRCLE
  5
1BD
330
17
100
AcDbEntity
  8
0
100
AcDbCircle
 10
0.560841805
 20
0.0383622189
 30
0.0
 40
0.004
  0
CIRCLE
  5
1BE
330
17
100
AcDbEntity
  8
0
100
AcDbCircle
 10
0.515765665
 20
0.462261147
 30
0.0
 40
0.004
  0
CIRCLE
  5
1BF
330
17
100
AcDbEntity
  8
0
100
AcDbCircle
 10
0.535483606
 20
0.459285607
 30
0.0
 40
0.004
  0
CIRCLE
  5
1C0
330
17
100
AcDbEntity
  8
0
100
AcDbCircle
 10
0.52965473
 20
0.479820197
 30
0.0
 40
0.004
  0
CIRCLE
  5
1C1
330
17
100
AcDbEntity
  8
0
100
AcDbCircle
 10
0.545236304
 20
0.0272935814
 30
0.0
 40
0.004
  0
CIRCLE
  5
1C2
330
17
100
AcDbEntity
  8
0
100
AcDbCircle
 10
0.529514637
 20
0.0377218521
 30
0.0
 40
0.004
  0
CIRCLE
  5
1C3
330
17
100
AcDbEntity
  8
0
100
AcDbCircle
 10
0.511050876
 20
0.0321374206
 30
0.0
 40
0.004
  0
CIRCLE
  5
1C4
330
17
100
AcDbEntity
  8
0
100
AcDbCircle
 10
0.513182192
 20
0.0505504896
 30
0.0
 40
0.004
  0
CIRCLE
  5
1C5
330
17
100
AcDbEntity
  8
0
100
AcDbCircle
 10
0.496035646
 20
0.0450936083
 30
0.0
 40
0.004
  0
CIRCLE
  5
1C6
330
17
100
AcDbEntity
  8
0
100
AcDbCircle
 10
0.805486049
 20
0.163613205
 30
0.0
 40
0.004
  0
CIRCLE
  5
1C7
330
17
100
AcDbEntity
  8
0
100
AcDbCircle
 10
0.605365181
 20
0.555389574
 30
0.0
 40
0.004
  0
CIRCLE
  5
1C8
330
17
100
AcDbEntity
  8
0
100
AcDbCircle
 10
0.532501446
 20
0.0582679718
 30
0.0
 40
0.004
  0
CIRCLE
  5
1C9
330
17
100
AcDbEntity
  8
0
100
AcDbCircle
 10
0.261373942
 20
0.130024593
 30
0.0
 40
0.004
  0
CIRCLE
  5
1CA
330
17
100
AcDbEntity
  8
0
100
AcDbCircle
 10
0.650290161
 20
0.495996997
 30
0.0
 40
0.004
  0
CIRCLE
  5
1CB
330
17
100
AcDbEntity
  8
0
100
AcDbCircle
 10
0.673381947
 20
0.494322919
 30
0.0
 40
0.004
  0
CIRCLE
  5
1CC
330
17
100
AcDbEntity
  8
0
100
AcDbCircle
 10
0.677695299
 20
0.473281259
 30
0.0
 40
0.004
  0
CIRCLE
  5
1CD
330
17
100
AcDbEntity
  8
0
100
AcDbCircle
 10
0.42320436
 20
0.369831871
 30
0.0
 40
0.004
  0
CIRCLE
  5
1CE
330
17
100
AcDbEntity
  8
0
100
AcDbCircle
 10
0.443046779
 20
0.367098159
 30
0.0
 40
0.004
  0
CIRCLE
  5
1CF
330
17
100
AcDbEntity
  8
0
100
AcDbCircle
 10
0.434720656
 20
0.38486739
 30
0.0
 40
0.004
  0
CIRCLE
  5
1D0
330
17
100
AcDbEntity
  8
0
100
AcDbCircle
 10
0.482492469
 20
0.455738671
 30
0.0
 40
0.004
  0
CIRCLE
  5
1D1
330
17
100
AcDbEntity
  8
0
100
AcDbCircle
 10
0.229579081
 20
0.201908743
 30
0.0
 40
0.004
  0
CIRCLE
  5
1D2
330
17
100
AcDbEntity
  8
0
100
AcDbCircle
 10
0.305
 20
0.0173205081
 30
0.0
 40
0.004
  0
CIRCLE
  5
1D3
330
17
100
AcDbEntity
  8
0
100
AcDbCircle
 10
0.483832668
 20
0.435712988
 30
0.0
 40
0.004
  0
CIRCLE
  5
1D4
330
17
100
AcDbEntity
  8
0
100
AcDbCircle
 10
0.554233059
 20
0.143976637
 30
0.0
 40
0.004
  0
CIRCLE
  5
1D5
330
17
100
AcDbEntity
  8
0
100
AcDbCircle
 10
0.711942652
 20
0.0358683144
 30
0.0
 40
0.004
  0
CIRCLE
  5
1D6
330
17
100
AcDbEntity
  8
0
100
AcDbCircle
 10
0.723039107
 20
0.0524876049
 30
0.0
 40
0.004
  0
CIRCLE
  5
1D7
330
17
100
AcDbEntity
  8
0
100
AcDbCircle
 10
0.732839678
 20
0.034356778
 30
0.0
 40
0.004
  0
CIRCLE
  5
1D8
330
17
100
AcDbEntity
  8
0
100
AcDbCircle
 10
0.741545541
 20
0.275620149
 30
0.0
 40
0.004
  0
CIRCLE
  5
1D9
330
17
100
AcDbEntity
  8
0
100
AcDbCircle
 10
0.305142391
 20
0.1589087
 30
0.0
 40
0.004
  0
CIRCLE
  5
1DA
330
17
100
AcDbEntity
  8
0
100
AcDbCircle
 10
0.7253299
 20
0.225789852
 30
0.0
 40
0.004
  0
CIRCLE
  5
1DB
330
17
100
AcDbEntity
  8
0
100
AcDbCircle
 10
0.640200384
 20
0.341000687
 30
0.0
 40
0.004
  0
CIRCLE
  5
1DC
330
17
100
AcDbEntity
  8
0
100
AcDbCircle
 10
0.620508061
 20
0.343559596
 30
0.0
 40
0.004
  0
CIRCLE
  5
1DD
330
17
100
AcDbEntity
  8
0
100
AcDbCircle
 10
0.661178547
 20
0.424944868
 30
0.0
 40
0.004
  0
CIRCLE
  5
1DE
330
17
100
AcDbEntity
  8
0
100
AcDbCircle
 10
0.680820908
 20
0.42235751
 30
0.0
 40
0.004
  0
CIRCLE
  5
1DF
330
17
100
AcDbEntity
  8
0
100
AcDbCircle
 10
0.688040889
 20
0.403749209
 30
0.0
 40
0.004
  0
CIRCLE
  5
1E0
330
17
100
AcDbEntity
  8
0
100
AcDbCircle
 10
0.700740278
 20
0.41830822
 30
0.0
 40
0.004
  0
CIRCLE
  5
1E1
330
17
100
AcDbEntity
  8
0
100
AcDbCircle
 10
0.693748384
 20
0.436522978
 30
0.0
 40
0.004
  0
CIRCLE
  5
1E2
330
17
100
AcDbEntity
  8
0
100
AcDbCircle
 10
0.719264612
 20
0.411842001
 30
0.0
 40
0.004
  0
CIRCLE
  5
1E3
330
17
100
AcDbEntity
  8
0
100
AcDbCircle
 10
0.642364885
 20
0.513530898
 30
0.0
 40
0.004
  0
CIRCLE
  5
1E4
330
17
100
AcDbEntity
  8
0
100
AcDbCircle
 10
0.423747509
 20
0.141893057
 30
0.0
 40
0.004
  0
CIRCLE
  5
1E5
330
17
100
AcDbEntity
  8
0
100
AcDbCircle
 10
0.641516368
 20
0.427542753
 30
0.0
 40
0.004
  0
CIRCLE
  5
1E6
330
17
100
AcDbEntity
  8
0
100
AcDbCircle
 10
0.265848917
 20
0.16403887
 30
0.0
 40
0.004
  0
CIRCLE
  5
1E7
330
17
100
AcDbEntity
  8
0
100
AcDbCircle
 10
0.583153969
 20
0.554632714
 30
0.0
 40
0.004
  0
CIRCLE
  5
1E8
330
17
100
AcDbEntity
  8
0
100
AcDbCircle
 10
0.270340136
 20
0.245939907
 30
0.0
 40
0.004
  0
CIRCLE
  5
1E9
330
17
100
AcDbEntity
  8
0
100
AcDbCircle
 10
0.289651373
 20
0.242354396
 30
0.0
 40
0.004
  0
CIRCLE
  5
1EA
330
17
100
AcDbEntity
  8
0
100
AcDbCircle
 10
0.303061305
 20
0.255735328
 30
0.0
 40
0.004
  0
CIRCLE
  5
1EB
330
17
100
AcDbEntity
  8
0
100
AcDbCircle
 10
0.276833541
 20
0.229008451
 30
0.0
 40
0.004
  0
CIRCLE
  5
1EC
330
17
100
AcDbEntity
  8
0
100
AcDbCircle
 10
0.298487808
 20
0.274263724
 30
0.0
 40
0.004
  0
CIRCLE
  5
1ED
330
17
100
AcDbEntity
  8
0
100
AcDbCircle
 10
0.316915286
 20
0.269925857
 30
0.0
 40
0.004
  0
CIRCLE
  5
1EE
330
17
100
AcDbEntity
  8
0
100
AcDbCircle
 10
0.332047835
 20
0.282990579
 30
0.0
 40
0.004
  0
CIRCLE
  5
1EF
330
17
100
AcDbEntity
  8
0
100
AcDbCircle
 10
0.335797497
 20
0.260636509
 30
0.0
 40
0.004
  0
CIRCLE
  5
1F0
330
17
100
AcDbEntity
  8
0
100
AcDbCircle
 10
0.351903625
 20
0.277147951
 30
0.0
 40
0.004
  0
CIRCLE
  5
1F1
330
17
100
AcDbEntity
  8
0
100
AcDbCircle
 10
0.346486738
 20
0.297563023
 30
0.0
 40
0.004
  0
CIRCLE
  5
1F2
330
17
100
AcDbEntity
  8
0
100
AcDbCircle
 10
0.778660258
 20
0.0975927463
 30
0.0
 40
0.004
  0
CIRCLE
  5
1F3
330
17
100
AcDbEntity
  8
0
100
AcDbCircle
 10
0.790691294
 20
0.11336831
 30
0.0
 40
0.004
  0
CIRCLE
  5
1F4
330
17
100
AcDbEntity
  8
0
100
AcDbCircle
 10
0.811030972
 20
0.110384901
 30
0.0
 40
0.004
  0
CIRCLE
  5
1F5
330
17
100
AcDbEntity
  8
0
100
AcDbCircle
 10
0.802967463
 20
0.128471323
 30
0.0
 40
0.004
  0
CIRCLE
  5
1F6
330
17
100
AcDbEntity
  8
0
100
AcDbCircle
 10
0.760472749
 20
0.272846699
 30
0.0
 40
0.004
  0
CIRCLE
  5
1F7
330
17
100
AcDbEntity
  8
0
100
AcDbCircle
 10
0.773005703
 20
0.288730547
 30
0.0
 40
0.004
  0
CIRCLE
  5
1F8
330
17
100
AcDbEntity
  8
0
100
AcDbCircle
 10
0.768006647
 20
0.254402946
 30
0.0
 40
0.004
  0
CIRCLE
  5
1F9
330
17
100
AcDbEntity
  8
0
100
AcDbCircle
 10
0.78813164
 20
0.252067957
 30
0.0
 40
0.004
  0
CIRCLE
  5
1FA
330
17
100
AcDbEntity
  8
0
100
AcDbCircle
 10
0.729729521
 20
0.259833487
 30
0.0
 40
0.004
  0
CIRCLE
  5
1FB
330
17
100
AcDbEntity
  8
0
100
AcDbCircle
 10
0.676273811
 20
0.388087644
 30
0.0
 40
0.004
  0
CIRCLE
  5
1FC
330
17
100
AcDbEntity
  8
0
100
AcDbCircle
 10
0.737609195
 20
0.327677291
 30
0.0
 40
0.004
  0
CIRCLE
  5
1FD
330
17
100
AcDbEntity
  8
0
100
AcDbCircle
 10
0.757955216
 20
0.325110216
 30
0.0
 40
0.004
  0
CIRCLE
  5
1FE
330
17
100
AcDbEntity
  8
0
100
AcDbCircle
 10
0.783312743
 20
0.016662449
 30
0.0
 40
0.004
  0
CIRCLE
  5
1FF
330
17
100
AcDbEntity
  8
0
100
AcDbCircle
 10
0.78297063
 20
0.13151632
 30
0.0
 40
0.004
  0
CIRCLE
  5
200
330
17
100
AcDbEntity
  8
0
100
AcDbCircle
 10
0.425152903
 20
0.0172081896
 30
0.0
 40
0.004
  0
CIRCLE
  5
201
330
17
100
AcDbEntity
  8
0
100
AcDbCircle
 10
0.435005611
 20
0.0345952755
 30
0.0
 40
0.004
  0
CIRCLE
  5
202
330
17
100
AcDbEntity
  8
0
100
AcDbCircle
 10
0.454963523
 20
0.0346241351
 30
0.0
 40
0.004
  0
CIRCLE
  5
203
330
17
100
AcDbEntity
  8
0
100
AcDbCircle
 10
0.444954218
 20
0.0519100431
 30
0.0
 40
0.004
  0
CIRCLE
  5
204
330
17
100
AcDbEntity
  8
0
100
AcDbCircle
 10
0.464260297
 20
0.0520220659
 30
0.0
 40
0.004
  0
CIRCLE
  5
205
330
17
100
AcDbEntity
  8
0
100
AcDbCircle
 10
0.424985725
 20
0.0518939974
 30
0.0
 40
0.004
  0
CIRCLE
  5
206
330
17
100
AcDbEntity
  8
0
100
AcDbCircle
 10
0.435855238
 20
0.068665154
 30
0.0
 40
0.004
  0
CIRCLE
  5
207
330
17
100
AcDbEntity
  8
0
100
AcDbCircle
 10
0.477400742
 20
0.0354037235
 30
0.0
 40
0.004
  0
CIRCLE
  5
208
330
17
100
AcDbEntity
  8
0
100
AcDbCircle
 10
0.488843171
 20
0.256678505
 30
0.0
 40
0.004
  0
CIRCLE
  5
209
330
17
100
AcDbEntity
  8
0
100
AcDbCircle
 10
0.508581682
 20
0.254071665
 30
0.0
 40
0.004
  0
CIRCLE
  5
20A
330
17
100
AcDbEntity
  8
0
100
AcDbCircle
 10
0.716366448
 20
0.157701388
 30
0.0
 40
0.004
  0
CIRCLE
  5
20B
330
17
100
AcDbEntity
  8
0
100
AcDbCircle
 10
0.665319467
 20
0.458780459
 30
0.0
 40
0.004
  0
CIRCLE
  5
20C
330
17
100
AcDbEntity
  8
0
100
AcDbCircle
 10
0.672868503
 20
0.440220838
 30
0.0
 40
0.004
  0
CIRCLE
  5
20D
330
17
100
AcDbEntity
  8
0
100
AcDbCircle
 10
0.621837458
 20
0.430137567
 30
0.0
 40
0.004
  0
CIRCLE
  5
20E
330
17
100
AcDbEntity
  8
0
100
AcDbCircle
 10
0.32700383
 20
0.302425939
 30
0.0
 40
0.004
  0
CIRCLE
  5
20F
330
17
100
AcDbEntity
  8
0
100
AcDbCircle
 10
0.360536001
 20
0.312121233
 30
0.0
 40
0.004
  0
CIRCLE
  5
210
330
17
100
AcDbEntity
  8
0
100
AcDbCircle
 10
0.630677772
 20
0.498171733
 30
0.0
 40
0.004
  0
CIRCLE
  5
211
330
17
100
AcDbEntity
  8
0
100
AcDbCircle
 10
0.618701909
 20
0.482581768
 30
0.0
 40
0.004
  0
CIRCLE
  5
212
330
17
100
AcDbEntity
  8
0
100
AcDbCircle
 10
0.779695382
 20
0.183998129
 30
0.0
 40
0.004
  0
CIRCLE
  5
213
330
17
100
AcDbEntity
  8
0
100
AcDbCircle
 10
0.791854419
 20
0.200114743
 30
0.0
 40
0.004
  0
CIRCLE
  5
214
330
17
100
AcDbEntity
  8
0
100
AcDbCircle
 10
0.784275784
 20
0.218081723
 30
0.0
 40
0.004
  0
CIRCLE
  5
215
330
17
100
AcDbEntity
  8
0
100
AcDbCircle
 10
0.514845081
 20
0.148973442
 30
0.0
 40
0.004
  0
CIRCLE
  5
216
330
17
100
AcDbEntity
  8
0
100
AcDbCircle
 10
0.526448793
 20
0.390646055
 30
0.0
 40
0.004
  0
CIRCLE
  5
217
330
17
100
AcDbEntity
  8
0
100
AcDbCircle
 10
0.349161601
 20
0.187835318
 30
0.0
 40
0.004
  0
CIRCLE
  5
218
330
17
100
AcDbEntity
  8
0
100
AcDbCircle
 10
0.551522677
 20
0.528176551
 30
0.0
 40
0.004
  0
CIRCLE
  5
219
330
17
100
AcDbEntity
  8
0
100
AcDbCircle
 10
0.538110695
 20
0.51422497
 30
0.0
 40
0.004
  0
CIRCLE
  5
21A
330
17
100
AcDbEntity
  8
0
100
AcDbCircle
 10
0.54310434
 20
0.494729355
 30
0.0
 40
0.004
  0
CIRCLE
  5
21B
330
17
100
AcDbEntity
  8
0
100
AcDbCircle
 10
0.356590637
 20
0.087277914
 30
0.0
 40
0.004
  0
CIRCLE
  5
21C
330
17
100
AcDbEntity
  8
0
100
AcDbCircle
 10
0.496456365
 20
0.238261929
 30
0.0
 40
0.004
  0
CIRCLE
  5
21D
330
17
100
AcDbEntity
  8
0
100
AcDbCircle
 10
0.337120103
 20
0.172066195
 30
0.0
 40
0.004
  0
CIRCLE
  5
21E
330
17
100
AcDbEntity
  8
0
100
AcDbCircle
 10
0.708724965
 20
0.176036362
 30
0.0
 40
0.004
  0
CIRCLE
  5
21F
330
17
100
AcDbEntity
  8
0
100
AcDbCircle
 10
0.720770698
 20
0.191830288
 30
0.0
 40
0.004
  0
CIRCLE
  5
220
330
17
100
AcDbEntity
  8
0
100
AcDbCircle
 10
0.542315296
 20
0.127994945
 30
0.0
 40
0.004
  0
CIRCLE
  5
221
330
17
100
AcDbEntity
  8
0
100
AcDbCircle
 10
0.641961588
 20
0.202101925
 30
0.0
 40
0.004
  0
CIRCLE
  5
222
330
17
100
AcDbEntity
  8
0
100
AcDbCircle
 10
0.654053327
 20
0.21785936
 30
0.0
 40
0.004
  0
CIRCLE
  5
223
330
17
100
AcDbEntity
  8
0
100
AcDbCircle
 10
0.744538062
 20
0.0169995506
 30
0.0
 40
0.004
  0
CIRCLE
  5
224
330
17
100
AcDbEntity
  8
0
100
AcDbCircle
 10
0.753997114
 20
0.034092286
 30
0.0
 40
0.004
  0
CIRCLE
  5
225
330
17
100
AcDbEntity
  8
0
100
AcDbCircle
 10
0.415536366
 20
0.034292144
 30
0.0
 40
0.004
  0
CIRCLE
  5
226
330
17
100
AcDbEntity
  8
0
100
AcDbCircle
 10
0.4544277
 20
0.431247612
 30
0.0
 40
0.004
  0
CIRCLE
  5
227
330
17
100
AcDbEntity
  8
0
100
AcDbCircle
 10
0.718728551
 20
0.330571504
 30
0.0
 40
0.004
  0
CIRCLE
  5
228
330
17
100
AcDbEntity
  8
0
100
AcDbCircle
 10
0.469079818
 20
0.259258921
 30
0.0
 40
0.004
  0
CIRCLE
  5
229
330
17
100
AcDbEntity
  8
0
100
AcDbCircle
 10
0.702323654
 20
0.280818126
 30
0.0
 40
0.004
  0
CIRCLE
  5
22A
330
17
100
AcDbEntity
  8
0
100
AcDbCircle
 10
0.625420436
 20
0.01693634
 30
0.0
 40
0.004
  0
CIRCLE
  5
22B
330
17
100
AcDbEntity
  8
0
100
AcDbCircle
 10
0.637838343
 20
0.0321577689
 30
0.0
 40
0.004
  0
CIRCLE
  5
22C
330
17
100
AcDbEntity
  8
0
100
AcDbCircle
 10
0.454950146
 20
0.0691079182
 30
0.0
 40
0.004
  0
CIRCLE
  5
22D
330
17
100
AcDbEntity
  8
0
100
AcDbCircle
 10
0.446606545
 20
0.0866558769
 30
0.0
 40
0.004
  0
CIRCLE
  5
22E
330
17
100
AcDbEntity
  8
0
100
AcDbCircle
 10
0.426036649
 20
0.0849328342
 30
0.0
 40
0.004
  0
CIRCLE
  5
22F
330
17
100
AcDbEntity
  8
0
100
AcDbCircle
 10
0.405306922
 20
0.232748327
 30
0.0
 40
0.004
  0
CIRCLE
  5
230
330
17
100
AcDbEntity
  8
0
100
AcDbCircle
 10
0.393189927
 20
0.216920572
 30
0.0
 40
0.004
  0
CIRCLE
  5
231
330
17
100
AcDbEntity
  8
0
100
AcDbCircle
 10
0.412973141
 20
0.214362965
 30
0.0
 40
0.004
  0
CIRCLE
  5
232
330
17
100
AcDbEntity
  8
0
100
AcDbCircle
 10
0.714185186
 20
0.382439554
 30
0.0
 40
0.004
  0
CIRCLE
  5
233
330
17
100
AcDbEntity
  8
0
100
AcDbCircle
 10
0.38869073
 20
0.182783942
 30
0.0
 40
0.004
  0
CIRCLE
  5
234
330
17
100
AcDbEntity
  8
0
100
AcDbCircle
 10
0.600811468
 20
0.346131141
 30
0.0
 40
0.004
  0
CIRCLE
  5
235
330
17
100
AcDbEntity
  8
0
100
AcDbCircle
 10
0.608420204
 20
0.32776784
 30
0.0
 40
0.004
  0
CIRCLE
  5
236
330
17
100
AcDbEntity
  8
0
100
AcDbCircle
 10
0.659878001
 20
0.338362647
 30
0.0
 40
0.004
  0
CIRCLE
  5
237
330
17
100
AcDbEntity
  8
0
100
AcDbCircle
 10
0.373423864
 20
0.219520613
 30
0.0
 40
0.004
  0
CIRCLE
  5
238
330
17
100
AcDbEntity
  8
0
100
AcDbCircle
 10
0.484338081
 20
0.222455458
 30
0.0
 40
0.004
  0
CIRCLE
  5
239
330
17
100
AcDbEntity
  8
0
100
AcDbCircle
 10
0.317354558
 20
0.174629856
 30
0.0
 40
0.004
  0
CIRCLE
  5
23A
330
17
100
AcDbEntity
  8
0
100
AcDbCircle
 10
0.534043155
 20
0.372263005
 30
0.0
 40
0.004
  0
CIRCLE
  5
23B
330
17
100
AcDbEntity
  8
0
100
AcDbCircle
 10
0.816536042
 20
0.0589761783
 30
0.0
 40
0.004
  0
CIRCLE
  5
23C
330
17
100
AcDbEntity
  8
0
100
AcDbCircle
 10
0.628111656
 20
0.325202584
 30
0.0
 40
0.004
  0
CIRCLE
  5
23D
330
17
100
AcDbEntity
  8
0
100
AcDbCircle
 10
0.713150013
 20
0.210129513
 30
0.0
 40
0.004
  0
CIRCLE
  5
23E
330
17
100
AcDbEntity
  8
0
100
AcDbCircle
 10
0.71767971
 20
0.244104958
 30
0.0
 40
0.004
  0
CIRCLE
  5
23F
330
17
100
AcDbEntity
  8
0
100
AcDbCircle
 10
0.425074424
 20
0.230176072
 30
0.0
 40
0.004
  0
CIRCLE
  5
240
330
17
100
AcDbEntity
  8
0
100
AcDbCircle
 10
0.465390118
 20
0.0172234316
 30
0.0
 40
0.004
  0
CIRCLE
  5
241
330
17
100
AcDbEntity
  8
0
100
AcDbCircle
 10
0.728434446
 20
0.173460623
 30
0.0
 40
0.004
  0
CIRCLE
  5
242
330
17
100
AcDbEntity
  8
0
100
AcDbCircle
 10
0.715200465
 20
0.0709639988
 30
0.0
 40
0.004
  0
CIRCLE
  5
243
330
17
100
AcDbEntity
  8
0
100
AcDbCircle
 10
0.601411436
 20
0.120469251
 30
0.0
 40
0.004
  0
CIRCLE
  5
244
330
17
100
AcDbEntity
  8
0
100
AcDbCircle
 10
0.621103331
 20
0.117969666
 30
0.0
 40
0.004
  0
CIRCLE
  5
245
330
17
100
AcDbEntity
  8
0
100
AcDbCircle
 10
0.465923494
 20
0.311886787
 30
0.0
 40
0.004
  0
CIRCLE
  5
246
330
17
100
AcDbEntity
  8
0
100
AcDbCircle
 10
0.314596558
 20
0.225583282
 30
0.0
 40
0.004
  0
CIRCLE
  5
247
330
17
100
AcDbEntity
  8
0
100
AcDbCircle
 10
0.519311681
 20
0.183146762
 30
0.0
 40
0.004
  0
CIRCLE
  5
248
330
17
100
AcDbEntity
  8
0
100
AcDbCircle
 10
0.590484405
 20
0.191423983
 30
0.0
 40
0.004
  0
CIRCLE
  5
249
330
17
100
AcDbEntity
  8
0
100
AcDbCircle
 10
0.660406138
 20
0.112881469
 30
0.0
 40
0.004
  0
CIRCLE
  5
24A
330
17
100
AcDbEntity
  8
0
100
AcDbCircle
 10
0.537236097
 20
0.31970946
 30
0.0
 40
0.004
  0
CIRCLE
  5
24B
330
17
100
AcDbEntity
  8
0
100
AcDbCircle
 10
0.382423455
 20
0.358715649
 30
0.0
 40
0.004
  0
CIRCLE
  5
24C
330
17
100
AcDbEntity
  8
0
100
AcDbCircle
 10
0.386783486
 20
0.33949392
 30
0.0
 40
0.004
  0
CIRCLE
  5
24D
330
17
100
AcDbEntity
  8
0
100
AcDbCircle
 10
0.399501095
 20
0.370452744
 30
0.0
 40
0.004
  0
CIRCLE
  5
24E
330
17
100
AcDbEntity
  8
0
100
AcDbCircle
 10
0.450681326
 20
0.3486402
 30
0.0
 40
0.004
  0
CIRCLE
  5
24F
330
17
100
AcDbEntity
  8
0
100
AcDbCircle
 10
0.611585888
 20
0.275340135
 30
0.0
 40
0.004
  0
CIRCLE
  5
250
330
17
100
AcDbEntity
  8
0
100
AcDbCircle
 10
0.667455838
 20
0.320016478
 30
0.0
 40
0.004
  0
CIRCLE
  5
251
330
17
100
AcDbEntity
  8
0
100
AcDbCircle
 10
0.467755114
 20
0.172452974
 30
0.0
 40
0.004
  0
CIRCLE
  5
252
330
17
100
AcDbEntity
  8
0
100
AcDbCircle
 10
0.564554746
 20
0.298790802
 30
0.0
 40
0.004
  0
CIRCLE
  5
253
330
17
100
AcDbEntity
  8
0
100
AcDbCircle
 10
0.763382259
 20
0.134205354
 30
0.0
 40
0.004
  0
CIRCLE
  5
254
330
17
100
AcDbEntity
  8
0
100
AcDbCircle
 10
0.62944197
 20
0.411775441
 30
0.0
 40
0.004
  0
CIRCLE
  5
255
330
17
100
AcDbEntity
  8
0
100
AcDbCircle
 10
0.661679883
 20
0.199515009
 30
0.0
 40
0.004
  0
CIRCLE
  5
256
330
17
100
AcDbEntity
  8
0
100
AcDbCircle
 10
0.721988458
 20
0.278219954
 30
0.0
 40
0.004
  0
CIRCLE
  5
257
330
17
100
AcDbEntity
  8
0
100
AcDbCircle
 10
0.486246817
 20
0.0833222597
 30
0.0
 40
0.004
  0
CIRCLE
  5
258
330
17
100
AcDbEntity
  8
0
100
AcDbCircle
 10
0.573983776
 20
0.14144985
 30
0.0
 40
0.004
  0
CIRCLE
  5
259
330
17
100
AcDbEntity
  8
0
100
AcDbCircle
 10
0.552461303
 20
0.283012992
 30
0.0
 40
0.004
  0
CIRCLE
  5
25A
330
17
100
AcDbEntity
  8
0
100
AcDbCircle
 10
0.478064052
 20
0.327623734
 30
0.0
 40
0.004
  0
CIRCLE
  5
25B
330
17
100
AcDbEntity
  8
0
100
AcDbCircle
 10
0.732939734
 20
0.207482358
 30
0.0
 40
0.004
  0
CIRCLE
  5
25C
330
17
100
AcDbEntity
  8
0
100
AcDbCircle
 10
0.612896272
 20
0.36191667
 30
0.0
 40
0.004
  0
CIRCLE
  5
25D
330
17
100
AcDbEntity
  8
0
100
AcDbCircle
 10
0.525801951
 20
0.0785089578
 30
0.0
 40
0.004
  0
CIRCLE
  5
25E
330
17
100
AcDbEntity
  8
0
100
AcDbCircle
 10
0.565490179
 20
0.0726426261
 30
0.0
 40
0.004
  0
CIRCLE
  5
25F
330
17
100
AcDbEntity
  8
0
100
AcDbCircle
 10
0.421903192
 20
0.282835024
 30
0.0
 40
0.004
  0
CIRCLE
  5
260
330
17
100
AcDbEntity
  8
0
100
AcDbCircle
 10
0.672497003
 20
0.128679254
 30
0.0
 40
0.004
  0
CIRCLE
  5
261
330
17
100
AcDbEntity
  8
0
100
AcDbCircle
 10
0.650947518
 20
0.270217932
 30
0.0
 40
0.004
  0
CIRCLE
  5
262
330
17
100
AcDbEntity
  8
0
100
AcDbCircle
 10
0.62543764
 20
0.152144797
 30
0.0
 40
0.004
  0
CIRCLE
  5
263
330
17
100
AcDbEntity
  8
0
100
AcDbCircle
 10
0.475392315
 20
0.154050921
 30
0.0
 40
0.004
  0
CIRCLE
  5
264
330
17
100
AcDbEntity
  8
0
100
AcDbCircle
 10
0.666158423
 20
0.233596495
 30
0.0
 40
0.004
  0
CIRCLE
  5
265
330
17
100
AcDbEntity
  8
0
100
AcDbCircle
 10
0.584228465
 20
0.521664399
 30
0.0
 40
0.004
  0
CIRCLE
  5
266
330
17
100
AcDbEntity
  8
0
100
AcDbCircle
 10
0.663694211
 20
0.0603053482
 30
0.0
 40
0.004
  0
CIRCLE
  5
267
330
17
100
AcDbEntity
  8
0
100
AcDbCircle
 10
0.47504089
 20
0.380012129
 30
0.0
 40
0.004
  0
CIRCLE
  5
268
330
17
100
AcDbEntity
  8
0
100
AcDbCircle
 10
0.553764719
 20
0.369649475
 30
0.0
 40
0.004
  0
CIRCLE
  5
269
330
17
100
AcDbEntity
  8
0
100
AcDbCircle
 10
0.54871959
 20
0.475203092
 30
0.0
 40
0.004
  0
CIRCLE
  5
26A
330
17
100
AcDbEntity
  8
0
100
AcDbCircle
 10
0.543138566
 20
0.440601837
 30
0.0
 40
0.004
  0
CIRCLE
  5
26B
330
17
100
AcDbEntity
  8
0
100
AcDbCircle
 10
0.633091926
 20
0.133769741
 30
0.0
 40
0.004
  0
CIRCLE
  5
26C
330
17
100
AcDbEntity
  8
0
100
AcDbCircle
 10
0.356901431
 20
0.169529411
 30
0.0
 40
0.004
  0
CIRCLE
  5
26D
330
17
100
AcDbEntity
  8
0
100
AcDbCircle
 10
0.483052597
 20
0.135660246
 30
0.0
 40
0.004
  0
CIRCLE
  5
26E
330
17
100
AcDbEntity
  8
0
100
AcDbCircle
 10
0.432737595
 20
0.21179629
 30
0.0
 40
0.004
  0
CIRCLE
  5
26F
330
17
100
AcDbEntity
  8
0
100
AcDbCircle
 10
0.394547767
 20
0.0524916215
 30
0.0
 40
0.004
  0
CIRCLE
  5
270
330
17
100
AcDbEntity
  8
0
100
AcDbCircle
 10
0.646460962
 20
0.236187301
 30
0.0
 40
0.004
  0
CIRCLE
  5
271
330
17
100
AcDbEntity
  8
0
100
AcDbCircle
 10
0.556933942
 20
0.31713913
 30
0.0
 40
0.004
  0
CIRCLE
  5
272
330
17
100
AcDbEntity
  8
0
100
AcDbCircle
 10
0.577970192
 20
0.401197777
 30
0.0
 40
0.004
  0
CIRCLE
  5
273
330
17
100
AcDbEntity
  8
0
100
AcDbCircle
 10
0.36902027
 20
0.185332024
 30
0.0
 40
0.004
  0
CIRCLE
  5
274
330
17
100
AcDbEntity
  8
0
100
AcDbCircle
 10
0.719585148
 20
0.105206325
 30
0.0
 40
0.004
  0
CIRCLE
  5
275
330
17
100
AcDbEntity
  8
0
100
AcDbCircle
 10
0.574917644
 20
0.453675883
 30
0.0
 40
0.004
  0
CIRCLE
  5
276
330
17
100
AcDbEntity
  8
0
100
AcDbCircle
 10
0.414415932
 20
0.301134451
 30
0.0
 40
0.004
  0
CIRCLE
  5
277
330
17
100
AcDbEntity
  8
0
100
AcDbCircle
 10
0.420599973
 20
0.195936695
 30
0.0
 40
0.004
  0
CIRCLE
  5
278
330
17
100
AcDbEntity
  8
0
100
AcDbCircle
 10
0.664866721
 20
0.14703467
 30
0.0
 40
0.004
  0
CIRCLE
  5
279
330
17
100
AcDbEntity
  8
0
100
AcDbCircle
 10
0.51618646
 20
0.235656148
 30
0.0
 40
0.004
  0
CIRCLE
  5
27A
330
17
100
AcDbEntity
  8
0
100
AcDbCircle
 10
0.502798448
 20
0.133095805
 30
0.0
 40
0.004
  0
CIRCLE
  5
27B
330
17
100
AcDbEntity
  8
0
100
AcDbCircle
 10
0.546168398
 20
0.388028959
 30
0.0
 40
0.004
  0
CIRCLE
  5
27C
330
17
100
AcDbEntity
  8
0
100
AcDbCircle
 10
0.707492441
 20
0.089383509
 30
0.0
 40
0.004
  0
CIRCLE
  5
27D
330
17
100
AcDbEntity
  8
0
100
AcDbCircle
 10
0.528287829
 20
0.251448863
 30
0.0
 40
0.004
  0
CIRCLE
  5
27E
330
17
100
AcDbEntity
  8
0
100
AcDbCircle
 10
0.395965045
 20
0.30391149
 30
0.0
 40
0.004
  0
CIRCLE
  5
27F
330
17
100
AcDbEntity
  8
0
100
AcDbCircle
 10
0.532765925
 20
0.28559282
 30
0.0
 40
0.004
  0
CIRCLE
  5
280
330
17
100
AcDbEntity
  8
0
100
AcDbCircle
 10
0.54486536
 20
0.301360362
 30
0.0
 40
0.004
  0
CIRCLE
  5
281
330
17
100
AcDbEntity
  8
0
100
AcDbCircle
 10
0.400845286
 20
0.19853706
 30
0.0
 40
0.004
  0
CIRCLE
  5
282
330
17
100
AcDbEntity
  8
0
100
AcDbCircle
 10
0.381075036
 20
0.201128642
 30
0.0
 40
0.004
  0
CIRCLE
  5
283
330
17
100
AcDbEntity
  8
0
100
AcDbCircle
 10
0.328321275
 20
0.10413846
 30
0.0
 40
0.004
  0
CIRCLE
  5
284
330
17
100
AcDbEntity
  8
0
100
AcDbCircle
 10
0.652786102
 20
0.131232996
 30
0.0
 40
0.004
  0
CIRCLE
  5
285
330
17
100
AcDbEntity
  8
0
100
AcDbCircle
 10
0.558281952
 20
0.403796141
 30
0.0
 40
0.004
  0
CIRCLE
  5
286
330
17
100
AcDbEntity
  8
0
100
AcDbCircle
 10
0.52067309
 20
0.269843778
 30
0.0
 40
0.004
  0
CIRCLE
  5
287
330
17
100
AcDbEntity
  8
0
100
AcDbCircle
 10
0.734933552
 20
0.0685592261
 30
0.0
 40
0.004
  0
CIRCLE
  5
288
330
17
100
AcDbEntity
  8
0
100
AcDbCircle
 10
0.638870053
 20
0.254494857
 30
0.0
 40
0.004
  0
CIRCLE
  5
289
330
17
100
AcDbEntity
  8
0
100
AcDbCircle
 10
0.325040815
 20
0.156292072
 30
0.0
 40
0.004
  0
CIRCLE
  5
28A
330
17
100
AcDbEntity
  8
0
100
AcDbCircle
 10
0.293551443
 20
0.142970261
 30
0.0
 40
0.004
  0
CIRCLE
  5
28B
330
17
100
AcDbEntity
  8
0
100
AcDbCircle
 10
0.671945197
 20
0.354063226
 30
0.0
 40
0.004
  0
CIRCLE
  5
28C
330
17
100
AcDbEntity
  8
0
100
AcDbCircle
 10
0.640766083
 20
0.115466419
 30
0.0
 40
0.004
  0
CIRCLE
  5
28D
330
17
100
AcDbEntity
  8
0
100
AcDbCircle
 10
0.66438399
 20
0.372366396
 30
0.0
 40
0.004
  0
CIRCLE
  5
28E
330
17
100
AcDbEntity
  8
0
100
AcDbCircle
 10
0.575313994
 20
0.228038123
 30
0.0
 40
0.004
  0
CIRCLE
  5
28F
330
17
100
AcDbEntity
  8
0
100
AcDbCircle
 10
0.550715689
 20
0.422175236
 30
0.0
 40
0.004
  0
CIRCLE
  5
290
330
17
100
AcDbEntity
  8
0
100
AcDbCircle
 10
0.582904278
 20
0.209728708
 30
0.0
 40
0.004
  0
CIRCLE
  5
291
330
17
100
AcDbEntity
  8
0
100
AcDbCircle
 10
0.619209858
 20
0.257072451
 30
0.0
 40
0.004
  0
CIRCLE
  5
292
330
17
100
AcDbEntity
  8
0
100
AcDbCircle
 10
0.525172835
 20
0.303944445
 30
0.0
 40
0.004
  0
CIRCLE
  5
293
330
17
100
AcDbEntity
  8
0
100
AcDbCircle
 10
0.607099879
 20
0.241309714
 30
0.0
 40
0.004
  0
CIRCLE
  5
294
330
17
100
AcDbEntity
  8
0
100
AcDbCircle
 10
0.587401408
 20
0.243819859
 30
0.0
 40
0.004
  0
CIRCLE
  5
295
330
17
100
AcDbEntity
  8
0
100
AcDbCircle
 10
0.526886038
 20
0.164836121
 30
0.0
 40
0.004
  0
CIRCLE
  5
296
330
17
100
AcDbEntity
  8
0
100
AcDbCircle
 10
0.505438522
 20
0.306576616
 30
0.0
 40
0.004
  0
CIRCLE
  5
297
330
17
100
AcDbEntity
  8
0
100
AcDbCircle
 10
0.555434483
 20
0.456447172
 30
0.0
 40
0.004
  0
CIRCLE
  5
298
330
17
100
AcDbEntity
  8
0
100
AcDbCircle
 10
0.355296928
 20
0.330884869
 30
0.0
 40
0.004
  0
CIRCLE
  5
299
330
17
100
AcDbEntity
  8
0
100
AcDbCircle
 10
0.534567911
 20
0.146448824
 30
0.0
 40
0.004
  0
CIRCLE
  5
29A
330
17
100
AcDbEntity
  8
0
100
AcDbCircle
 10
0.497836679
 20
0.324905353
 30
0.0
 40
0.004
  0
CIRCLE
  5
29B
330
17
100
AcDbEntity
  8
0
100
AcDbCircle
 10
0.74367744
 20
0.0510559479
 30
0.0
 40
0.004
  0
CIRCLE
  5
29C
330
17
100
AcDbEntity
  8
0
100
AcDbCircle
 10
0.570821025
 20
0.193948852
 30
0.0
 40
0.004
  0
CIRCLE
  5
29D
330
17
100
AcDbEntity
  8
0
100
AcDbCircle
 10
0.490204839
 20
0.34329047
 30
0.0
 40
0.004
  0
CIRCLE
  5
29E
330
17
100
AcDbEntity
  8
0
100
AcDbCircle
 10
0.551134927
 20
0.196481039
 30
0.0
 40
0.004
  0
CIRCLE
  5
29F
330
17
100
AcDbEntity
  8
0
100
AcDbCircle
 10
0.539006957
 20
0.18068226
 30
0.0
 40
0.004
  0
CIRCLE
  5
2A0
330
17
100
AcDbEntity
  8
0
100
AcDbCircle
 10
0.495958296
 20
0.0641042224
 30
0.0
 40
0.004
  0
CIRCLE
  5
2A1
330
17
100
AcDbEntity
  8
0
100
AcDbCircle
 10
0.384945296
 20
0.0199471214
 30
0.0
 40
0.004
  0
CIRCLE
  5
2A2
330
17
100
AcDbEntity
  8
0
100
AcDbCircle
 10
0.470420427
 20
0.345935316
 30
0.0
 40
0.004
  0
CIRCLE
  5
2A3
330
17
100
AcDbEntity
  8
0
100
AcDbCircle
 10
0.462819321
 20
0.364342261
 30
0.0
 40
0.004
  0
CIRCLE
  5
2A4
330
17
100
AcDbEntity
  8
0
100
AcDbCircle
 10
0.581732927
 20
0.122960596
 30
0.0
 40
0.004
  0
CIRCLE
  5
2A5
330
17
100
AcDbEntity
  8
0
100
AcDbCircle
 10
0.455477384
 20
0.382360463
 30
0.0
 40
0.004
  0
CIRCLE
  5
2A6
330
17
100
AcDbEntity
  8
0
100
AcDbCircle
 10
0.364320294
 20
0.0173449925
 30
0.0
 40
0.004
  0
CIRCLE
  5
2A7
330
17
100
AcDbEntity
  8
0
100
AcDbCircle
 10
0.373325942
 20
0.326079429
 30
0.0
 40
0.004
  0
CIRCLE
  5
2A8
330
17
100
AcDbEntity
  8
0
100
AcDbCircle
 10
0.812189387
 20
0.198747477
 30
0.0
 40
0.004
  0
CIRCLE
  5
2A9
330
17
100
AcDbEntity
  8
0
100
AcDbCircle
 10
0.628736424
 20
0.099557904
 30
0.0
 40
0.004
  0
CIRCLE
  5
2AA
330
17
100
AcDbEntity
  8
0
100
AcDbCircle
 10
0.34789393
 20
0.0364886217
 30
0.0
 40
0.004
  0
CIRCLE
  5
2AB
330
17
100
AcDbEntity
  8
0
100
AcDbCircle
 10
0.731508538
 20
0.381971049
 30
0.0
 40
0.004
  0
CIRCLE
  5
2AC
330
17
100
AcDbEntity
  8
0
100
AcDbCircle
 10
0.616753819
 20
0.0836402509
 30
0.0
 40
0.004
  0
CIRCLE
  5
2AD
330
17
100
AcDbEntity
  8
0
100
AcDbCircle
 10
0.624376009
 20
0.0662896728
 30
0.0
 40
0.004
  0
CIRCLE
  5
2AE
330
17
100
AcDbEntity
  8
0
100
AcDbCircle
 10
0.804160767
 20
0.241471026
 30
0.0
 40
0.004
  0
CIRCLE
  5
2AF
330
17
100
AcDbEntity
  8
0
100
AcDbCircle
 10
0.651716691
 20
0.0458335232
 30
0.0
 40
0.004
  0
CIRCLE
  5
2B0
330
17
100
AcDbEntity
  8
0
100
AcDbCircle
 10
0.824765588
 20
0.126978339
 30
0.0
 40
0.004
  0
CIRCLE
  5
2B1
330
17
100
AcDbEntity
  8
0
100
AcDbCircle
 10
0.830084426
 20
0.105758871
 30
0.0
 40
0.004
  0
CIRCLE
  5
2B2
330
17
100
AcDbEntity
  8
0
100
AcDbCircle
 10
0.835547935
 20
0.0677014715
 30
0.0
 40
0.004
  0
CIRCLE
  5
2B3
330
17
100
AcDbEntity
  8
0
100
AcDbCircle
 10
0.51069349
 20
0.484783762
 30
0.0
 40
0.004
  0
CIRCLE
  5
2B4
330
17
100
AcDbEntity
  8
0
100
AcDbCircle
 10
0.324411761
 20
0.0170684402
 30
0.0
 40
0.004
  0
CIRCLE
  5
2B5
330
17
100
AcDbEntity
  8
0
100
AcDbCircle
 10
0.242343106
 20
0.218064528
 30
0.0
 40
0.004
  0
CIRCLE
  5
2B6
330
17
100
AcDbEntity
  8
0
100
AcDbCircle
 10
0.585485745
 20
0.0169829512
 30
0.0
 40
0.004
  0
CIRCLE
  5
2B7
330
17
100
AcDbEntity
  8
0
100
AcDbCircle
 10
0.553737861
 20
0.0570447636
 30
0.0
 40
0.004
  0
CIRCLE
  5
2B8
330
17
100
AcDbEntity
  8
0
100
AcDbCircle
 10
0.273171992
 20
0.145813401
 30
0.0
 40
0.004
  0
CIRCLE
  5
2B9
330
17
100
AcDbEntity
  8
0
100
AcDbCircle
 10
0.799010976
 20
0.181887582
 30
0.0
 40
0.004
  0
CIRCLE
  5
2BA
330
17
100
AcDbEntity
  8
0
100
AcDbCircle
 10
0.706239628
 20
0.451154338
 30
0.0
 40
0.004
  0
CIRCLE
  5
2BB
330
17
100
AcDbEntity
  8
0
100
AcDbCircle
 10
0.427442503
 20
0.402780106
 30
0.0
 40
0.004
  0
CIRCLE
  5
2BC
330
17
100
AcDbEntity
  8
0
100
AcDbCircle
 10
0.309008431
 20
0.0359189015
 30
0.0
 40
0.004
  0
CIRCLE
  5
2BD
330
17
100
AcDbEntity
  8
0
100
AcDbCircle
 10
0.336833355
 20
0.0869521348
 30
0.0
 40
0.004
  0
CIRCLE
  5
2BE
330
17
100
AcDbEntity
  8
0
100
AcDbCircle
 10
0.625586584
 20
0.557236383
 30
0.0
 40
0.004
  0
CIRCLE
  5
2BF
330
17
100
AcDbEntity
  8
0
100
AcDbCircle
 10
0.474269796
 20
0.0683676766
 30
0.0
 40
0.004
  0
CIRCLE
  5
2C0
330
17
100
AcDbEntity
  8
0
100
AcDbCircle
 10
0.724053399
 20
0.0174241918
 30
0.0
 40
0.004
  0
CIRCLE
  5
2C1
330
17
100
AcDbEntity
  8
0
100
AcDbCircle
 10
0.37135749
 20
0.273485408
 30
0.0
 40
0.004
  0
CIRCLE
  5
2C2
330
17
100
AcDbEntity
  8
0
100
AcDbCircle
 10
0.613888475
 20
0.571769784
 30
0.0
 40
0.004
  0
CIRCLE
  5
2C3
330
17
100
AcDbEntity
  8
0
100
AcDbCircle
 10
0.65944453
 20
0.0273889614
 30
0.0
 40
0.004
  0
CIRCLE
  5
2C4
330
17
100
AcDbEntity
  8
0
100
AcDbCircle
 10
0.599096175
 20
0.0341829082
 30
0.0
 40
0.004
  0
CIRCLE
  5
2C5
330
17
100
AcDbEntity
  8
0
100
AcDbCircle
 10
0.706118357
 20
0.400433268
 30
0.0
 40
0.004
  0
CIRCLE
  5
2C6
330
17
100
AcDbEntity
  8
0
100
AcDbCircle
 10
0.822169044
 20
0.0398667598
 30
0.0
 40
0.004
  0
CIRCLE
  5
2C7
330
17
100
AcDbEntity
  8
0
100
AcDbCircle
 10
0.816702377
 20
0.0918453188
 30
0.0
 40
0.004
  0
CIRCLE
  5
2C8
330
17
100
AcDbEntity
  8
0
100
AcDbCircle
 10
0.561109528
 20
0.490196076
 30
0.0
 40
0.004
  0
CIRCLE
  5
2C9
330
17
100
AcDbEntity
  8
0
100
AcDbCircle
 10
0.448971571
 20
0.399740442
 30
0.0
 40
0.004
  0
CIRCLE
  5
2CA
330
17
100
AcDbEntity
  8
0
100
AcDbCircle
 10
0.26357091
 20
0.214886989
 30
0.0
 40
0.004
  0
CIRCLE
  5
2CB
330
17
100
AcDbEntity
  8
0
100
AcDbCircle
 10
0.65086096
 20
0.528987456
 30
0.0
 40
0.004
  0
CIRCLE
  5
2CC
330
17
100
AcDbEntity
  8
0
100
AcDbCircle
 10
0.347154436
 20
0.103355111
 30
0.0
 40
0.004
  0
CIRCLE
  5
2CD
330
17
100
AcDbEntity
  8
0
100
AcDbCircle
 10
0.432398456
 20
0.123089749
 30
0.0
 40
0.004
  0
CIRCLE
  5
2CE
330
17
100
AcDbEntity
  8
0
100
AcDbCircle
 10
0.36550192
 20
0.293806623
 30
0.0
 40
0.004
  0
CIRCLE
  5
2CF
330
17
100
AcDbEntity
  8
0
100
AcDbCircle
 10
0.504899902
 20
0.0149013346
 30
0.0
 40
0.004
  0
CIRCLE
  5
2D0
330
17
100
AcDbEntity
  8
0
100
AcDbCircle
 10
0.824070601
 20
0.162924312
 30
0.0
 40
0.004
  0
CIRCLE
  5
2D1
330
17
100
AcDbEntity
  8
0
100
AcDbCircle
 10
0.76313681
 20
0.0493530027
 30
0.0
 40
0.004
  0
CIRCLE
  5
2D2
330
17
100
AcDbEntity
  8
0
100
AcDbCircle
 10
0.685416592
 20
0.454834829
 30
0.0
 40
0.004
  0
CIRCLE
  5
2D3
330
17
100
AcDbEntity
  8
0
100
AcDbCircle
 10
0.284759154
 20
0.212030181
 30
0.0
 40
0.004
  0
CIRCLE
  5
2D4
330
17
100
AcDbEntity
  8
0
100
AcDbCircle
 10
0.378172793
 20
0.307492801
 30
0.0
 40
0.004
  0
CIRCLE
  5
2D5
330
17
100
AcDbEntity
  8
0
100
AcDbCircle
 10
0.618843478
 20
0.0336486818
 30
0.0
 40
0.004
  0
CIRCLE
  5
2D6
330
17
100
AcDbEntity
  8
0
100
AcDbCircle
 10
0.461270042
 20
0.414885117
 30
0.0
 40
0.004
  0
CIRCLE
  5
2D7
330
17
100
AcDbEntity
  8
0
100
AcDbCircle
 10
0.555086599
 20
0.508625858
 30
0.0
 40
0.004
  0
CIRCLE
  5
2D8
330
17
100
AcDbEntity
  8
0
100
AcDbCircle
 10
0.773996854
 20
0.331465594
 30
0.0
 40
0.004
  0
CIRCLE
  5
2D9
330
17
100
AcDbEntity
  8
0
100
AcDbCircle
 10
0.761408386
 20
0.305232819
 30
0.0
 40
0.004
  0
CIRCLE
  5
2DA
330
17
100
AcDbEntity
  8
0
100
AcDbCircle
 10
0.421150927
 20
0.105990638
 30
0.0
 40
0.004
  0
CIRCLE
  5
2DB
330
17
100
AcDbEntity
  8
0
100
AcDbCircle
 10
0.358373393
 20
0.119106156
 30
0.0
 40
0.004
  0
CIRCLE
  5
2DC
330
17
100
AcDbEntity
  8
0
100
AcDbCircle
 10
0.481584955
 20
0.0529982593
 30
0.0
 40
0.004
  0
CIRCLE
  5
2DD
330
17
100
AcDbEntity
  8
0
100
AcDbCircle
 10
0.746174664
 20
0.341770111
 30
0.0
 40
0.004
  0
CIRCLE
  5
2DE
330
17
100
AcDbEntity
  8
0
100
AcDbCircle
 10
0.78884784
 20
0.294951537
 30
0.0
 40
0.004
  0
CIRCLE
  5
2DF
330
17
100
AcDbEntity
  8
0
100
AcDbCircle
 10
0.63169762
 20
0.049341054
 30
0.0
 40
0.004
  0
CIRCLE
  5
2E0
330
17
100
AcDbEntity
  8
0
100
AcDbCircle
 10
0.390630381
 20
0.321308267
 30
0.0
 40
0.004
  0
CIRCLE
  5
2E1
330
17
100
AcDbEntity
  8
0
100
AcDbCircle
 10
0.77172113
 20
0.0324896334
 30
0.0
 40
0.004
  0
CIRCLE
  5
2E2
330
17
100
AcDbEntity
  8
0
100
AcDbCircle
 10
0.544366411
 20
0.0437380776
 30
0.0
 40
0.004
  0
CIRCLE
  5
2E3
330
17
100
AcDbEntity
  8
0
100
AcDbCircle
 10
0.758909984
 20
0.367770237
 30
0.0
 40
0.004
  0
CIRCLE
  5
2E4
330
17
100
AcDbEntity
  8
0
100
AcDbCircle
 10
0.241680523
 20
0.187011487
 30
0.0
 40
0.004
  0
CIRCLE
  5
2E5
330
17
100
AcDbEntity
  8
0
100
AcDbCircle
 10
0.295676261
 20
0.226651643
 30
0.0
 40
0.004
  0
CIRCLE
  5
2E6
330
17
100
AcDbEntity
  8
0
100
AcDbCircle
 10
0.568143941
 20
0.523291022
 30
0.0
 40
0.004
  0
CIRCLE
  5
2E7
330
17
100
AcDbEntity
  8
0
100
AcDbCircle
 10
0.776337518
 20
0.26863681
 30
0.0
 40
0.004
  0
CIRCLE
  5
2E8
330
17
100
AcDbEntity
  8
0
100
AcDbCircle
 10
0.46987833
 20
0.428248185
 30
0.0
 40
0.004
  0
CIRCLE
  5
2E9
330
17
100
AcDbEntity
  8
0
100
AcDbCircle
 10
0.821687755
 20
0.076300258
 30
0.0
 40
0.004
  0
CIRCLE
  5
2EA
330
17
100
AcDbEntity
  8
0
100
AcDbCircle
 10
0.288929468
 20
0.01459294
 30
0.0
 40
0.004
  0
CIRCLE
  5
2EB
330
17
100
AcDbEntity
  8
0
100
AcDbCircle
 10
0.215080281
 20
0.194157266
 30
0.0
 40
0.004
  0
CIRCLE
  5
2EC
330
17
100
AcDbEntity
  8
0
100
AcDbCircle
 10
0.514304065
 20
0.0668010045
 30
0.0
 40
0.004
  0
CIRCLE
  5
2ED
330
17
100
AcDbEntity
  8
0
100
AcDbCircle
 10
0.634719902
 20
0.527420668
 30
0.0
 40
0.004
  0
CIRCLE
  5
2EE
330
17
100
AcDbEntity
  8
0
100
AcDbCircle
 10
0.749762632
 20
0.383801373
 30
0.0
 40
0.004
  0
CIRCLE
  5
2EF
330
17
100
AcDbEntity
  8
0
100
AcDbCircle
 10
0.494917551
 20
0.0289100692
 30
0.0
 40
0.004
  0
CIRCLE
  5
2F0
330
17
100
AcDbEntity
  8
0
100
AcDbCircle
 10
0.37714552
 20
0.11910537
 30
0.0
 40
0.004
  0
CIRCLE
  5
2F1
330
17
100
AcDbEntity
  8
0
100
AcDbCircle
 10
0.689558024
 20
0.483998661
 30
0.0
 40
0.004
  0
CIRCLE
  5
2F2
330
17
100
AcDbEntity
  8
0
100
AcDbCircle
 10
0.811733478
 20
0.144329571
 30
0.0
 40
0.004
  0
CIRCLE
  5
2F3
330
17
100
AcDbEntity
  8
0
100
AcDbCircle
 10
0.721696823
 20
0.39557113
 30
0.0
 40
0.004
  0
CIRCLE
  5
2F4
330
17
100
AcDbEntity
  8
0
100
AcDbCircle
 10
0.789545424
 20
0.0313168416
 30
0.0
 40
0.004
  0
CIRCLE
  5
2F5
330
17
100
AcDbEntity
  8
0
100
AcDbCircle
 10
0.604460354
 20
0.584342262
 30
0.0
 40
0.004
  0
CIRCLE
  5
2F6
330
17
100
AcDbEntity
  8
0
100
AcDbCircle
 10
0.802577062
 20
0.258724954
 30
0.0
 40
0.004
  0
CIRCLE
  5
2F7
330
17
100
AcDbEntity
  8
0
100
AcDbCircle
 10
0.817292627
 20
0.0262986483
 30
0.0
 40
0.004
  0
CIRCLE
  5
2F8
330
17
100
AcDbEntity
  8
0
100
AcDbCircle
 10
0.663682269
 20
0.0123709804
 30
0.0
 40
0.004
  0
CIRCLE
  5
2F9
330
17
100
AcDbEntity
  8
0
100
AcDbCircle
 10
0.401994217
 20
0.33680416
 30
0.0
 40
0.004
  0
CIRCLE
  5
2FA
330
17
100
AcDbEntity
  8
0
100
AcDbCircle
 10
0.307791368
 20
0.241154689
 30
0.0
 40
0.004
  0
CIRCLE
  5
2FB
330
17
100
AcDbEntity
  8
0
100
AcDbCircle
 10
0.580190196
 20
0.536303525
 30
0.0
 40
0.004
  0
CIRCLE
  5
2FC
330
17
100
AcDbEntity
  8
0
100
AcDbCircle
 10
0.790907641
 20
0.232196951
 30
0.0
 40
0.004
  0
CIRCLE
  5
2FD
330
17
100
AcDbEntity
  8
0
100
AcDbCircle
 10
0.410785971
 20
0.0915256691
 30
0.0
 40
0.004
  0
CIRCLE
  5
2FE
330
17
100
AcDbEntity
  8
0
100
AcDbCircle
 10
0.420808609
 20
0.0651817794
 30
0.0
 40
0.004
  0
CIRCLE
  5
2FF
330
17
100
AcDbEntity
  8
0
100
AcDbCircle
 10
0.732577235
 20
0.419201432
 30
0.0
 40
0.004
  0
CIRCLE
  5
300
330
17
100
AcDbEntity
  8
0
100
AcDbCircle
 10
0.689834191
 20
0.0144307607
 30
0.0
 40
0.004
  0
CIRCLE
  5
301
330
17
100
AcDbEntity
  8
0
100
AcDbCircle
 10
0.410529786
 20
0.0511543703
 30
0.0
 40
0.004
  0
CIRCLE
  5
302
330
17
100
AcDbEntity
  8
0
100
AcDbCircle
 10
0.396351448
 20
0.351888082
 30
0.0
 40
0.004
  0
CIRCLE
  5
303
330
17
100
AcDbEntity
  8
0
100
AcDbCircle
 10
0.400116948
 20
0.0334348941
 30
0.0
 40
0.004
  0
CIRCLE
  5
304
330
17
100
AcDbEntity
  8
0
100
AcDbCircle
 10
0.840464144
 20
0.0343735006
 30
0.0
 40
0.004
  0
CIRCLE
  5
305
330
17
100
AcDbEntity
  8
0
100
AcDbCircle
 10
0.386678741
 20
0.134215279
 30
0.0
 40
0.004
  0
CIRCLE
  5
306
330
17
100
AcDbEntity
  8
0
100
AcDbCircle
 10
0.842811986
 20
0.0119507453
 30
0.0
 40
0.004
  0
CIRCLE
  5
307
330
17
100
AcDbEntity
  8
0
100
AcDbCircle
 10
0.823357336
 20
0.0127534235
 30
0.0
 40
0.004
  0
CIRCLE
  5
308
330
17
100
AcDbEntity
  8
0
100
AcDbCircle
 10
0.545111926
 20
0.0117897886
 30
0.0
 40
0.004
  0
CIRCLE
  5
309
330
17
100
AcDbEntity
  8
0
100
AcDbCircle
 10
0.317967698
 20
0.254663694
 30
0.0
 40
0.004
  0
CIRCLE
  5
30A
330
17
100
AcDbEntity
  8
0
100
AcDbCircle
 10
0.496533815
 20
0.426305681
 30
0.0
 40
0.004
  0
CIRCLE
  5
30B
330
17
100
AcDbEntity
  8
0
100
AcDbCircle
 10
0.281243615
 20
0.0506218173
 30
0.0
 40
0.004
  0
ENDSEC
  0
SECTION
  2
OBJECTS
  0
DICTIONARY
  5
A
330
0
100
AcDbDictionary
281
1
  3
ACAD_COLOR
350
B
  3
ACAD_GROUP
350
C
  3
ACAD_LAYOUT
350
D
  3
ACAD_MATERIAL
350
E
  3
ACAD_MLEADERSTYLE
350
F
  3
ACAD_MLINESTYLE
350
10
  3
ACAD_PLOTSETTINGS
350
11
  3
ACAD_PLOTSTYLENAME
350
12
  3
ACAD_SCALELIST
350
14
  3
ACAD_TABLESTYLE
350
15
  3
ACAD_VISUALSTYLE
350
16
  3
EZDXF_META
350
2D
  0
DICTIONARY
  5
B
330
A
100
AcDbDictionary
281
1
  0
DICTIONARY
  5
C
330
A
100
AcDbDictionary
281
1
  0
DICTIONARY
  5
D
330
A
100
AcDbDictionary
281
1
  3
Model
350
1A
  3
Layout1
350
1E
  0
DICTIONARY
  5
E
330
A
100
AcDbDictionary
281
1
  3
ByBlock
350
1F
  3
ByLayer
350
20
  3
Global
350
21
  0
DICTIONARY
  5
F
330
A
100
AcDbDictionary
281
1
  3
Standard
350
2C
  0
DICTIONARY
  5
10
330
A
100
AcDbDictionary
281
1
  3
Standard
350
22
  0
DICTIONARY
  5
11
330
A
100
AcDbDictionary
281
1
  0
ACDBDICTIONARYWDFLT
  5
12
330
A
100
AcDbDictionary
281
1
  3
Normal
350
13
100
AcDbDictionaryWithDefault
340
13
  0
ACDBPLACEHOLDER
  5
13
330
12
  0
DICTIONARY
  5
14
330
A
100
AcDbDictionary
281
1
  0
DICTIONARY
  5
15
330
A
100
AcDbDictionary
281
1
  0
DICTIONARY
  5
16
330
A
100
AcDbDictionary
281
1
  0
LAYOUT
  5
1A
330
D
100
AcDbPlotSettings
  1

  2
Adobe PDF
  4
A3
  6

 40
7.5
 41
20.0
 42
7.5
 43
20.0
 44
420.0
 45
297.0
 46
0.0
 47
0.0
 48
0.0
 49
0.0
140
0.0
141
0.0
142
1.0
143
1.0
 70
1024
 72
1
 73
1
 74
5
  7

 75
16
 76
0
 77
2
 78
300
147
1.0
148
0.0
149
0.0
100
AcDbLayout
  1
Model
 70
1
 71
0
 10
0.0
 20
0.0
 11
420.0
 21
297.0
 12
0.0
 22
0.0
 32
0.0
 14
1e+20
 24
1e+20
 34
1e+20
 15
-1e+20
 25
-1e+20
 35
-1e+20
146
0.0
 13
0.0
 23
0.0
 33
0.0
 16
1.0
 26
0.0
 36
0.0
 17
0.0
 27
1.0
 37
0.0
 76
1
330
17
  0
LAYOUT
  5
1E
330
D
100
AcDbPlotSettings
  1

  2
Adobe PDF
  4
A3
  6

 40
7.5
 41
20.0
 42
7.5
 43
20.0
 44
420.0
 45
297.0
 46
0.0
 47
0.0
 48
0.0
 49
0.0
140
0.0
141
0.0
142
1.0
143
1.0
 70
0
 72
1
 73
1
 74
5
  7

 75
16
 76
0
 77
2
 78
300
147
1.0
148
0.0
149
0.0
100
AcDbLayout
  1
Layout1
 70
1
 71
1
 10
0.0
 20
0.0
 11
420.0
 21
297.0
 12
0.0
 22
0.0
 32
0.0
 14
1e+20
 24
1e+20
 34
1e+20
 15
-1e+20
 25
-1e+20
 35
-1e+20
146
0.0
 13
0.0
 23
0.0
 33
0.0
 16
1.0
 26
0.0
 36
0.0
 17
0.0
 27
1.0
 37
0.0
 76
1
330
1B
  0
MATERIAL
  5
1F
102
{ACAD_REACTORS
330
E
102
}
330
E
100
AcDbMaterial
  1
ByBlock
  2

 70
0
 40
1.0
 71
1
 41
1.0
 91
-1023410177
 42
1.0
 72
1
  3

 73
1
 74
1
 75
1
 44
0.5
 73
0
 45
1.0
 46
1.0
 77
1
  4

 78
1
 79
1
170
1
 48
1.0
171
1
  6

172
1
173
1
174
1
140
1.0
141
1.0
175
1
  7

176
1
177
1
178
1
143
1.0
179
1
  8

270
1
271
1
272
1
145
1.0
146
1.0
273
1
  9

274
1
275
1
276
1
 42
1.0
 72
1
  3

 73
1
 74
1
 75
1
 94
63
  0
MATERIAL
  5
20
102
{ACAD_REACTORS
330
E
102
}
330
E
100
AcDbMaterial
  1
ByLayer
  2

 70
0
 40
1.0
 71
1
 41
1.0
 91
-1023410177
 42
1.0
 72
1
  3

 73
1
 74
1
 75
1
 44
0.5
 73
0
 45
1.0
 46
1.0
 77
1
  4

 78
1
 79
1
170
1
 48
1.0
171
1
  6

172
1
173
1
174
1
140
1.0
141
1.0
175
1
  7

176
1
177
1
178
1
143
1.0
179
1
  8

270
1
271
1
272
1
145
1.0
146
1.0
273
1
  9

274
1
275
1
276
1
 42
1.0
 72
1
  3

 73
1
 74
1
 75
1
 94
63
  0
MATERIAL
  5
21
102
{ACAD_REACTORS
330
E
102
}
330
E
100
AcDbMaterial
  1
Global
  2

 70
0
 40
1.0
 71
1
 41
1.0
 91
-1023410177
 42
1.0
 72
1
  3

 73
1
 74
1
 75
1
 44
0.5
 73
0
 45
1.0
 46
1.0
 77
1
  4

 78
1
 79
1
170
1
 48
1.0
171
1
  6

172
1
173
1
174
1
140
1.0
141
1.0
175
1
  7

176
1
177
1
178
1
143
1.0
179
1
  8

270
1
271
1
272
1
145
1.0
146
1.0
273
1
  9

274
1
275
1
276
1
 42
1.0
 72
1
  3

 73
1
 74
1
 75
1
 94
63
  0
MLINESTYLE
  5
22
102
{ACAD_REACTORS
330
10
102
}
330
10
100
AcDbMlineStyle
  2
Standard
 70
0
  3

 62
256
 51
90.0
 52
90.0
 71
2
 49
0.5
 62
256
  6
BYLAYER
 49
-0.5
 62
256
  6
BYLAYER
  0
MLEADERSTYLE
  5
2C
102
{ACAD_REACTORS
330
F
102
}
330
F
100
AcDbMLeaderStyle
179
2
170
2
171
1
172
0
 90
2
 40
0.0
 41
0.0
173
1
 91
-1056964608
 92
-2
290
1
 42
2.0
291
1
 43
8.0
  3
Standard
 44
4.0
300

342
29
174
1
175
1
176
0
178
1
 93
-1056964608
 45
4.0
292
0
297
0
 46
4.0
 94
-1056964608
 47
1.0
 49
1.0
140
1.0
294
1
141
0.0
177
0
142
1.0
295
0
296
0
143
3.75
271
0
272
9
273
9
  0
DICTIONARY
  5
2D
330
A
100
AcDbDictionary
280
1
281
1
  3
CREATED_BY_EZDXF
350
2E
  3
WRITTEN_BY_EZDXF
350
30E
  0
DICTIONARYVAR
  5
2E
330
2D
100
DictionaryVariables
280
0
  1
0.18.1 @ 2022-09-22T08:21:27.598877+00:00
  0
DICTIONARYVAR
  5
30E
330
2D
100
DictionaryVariables
280
0
  1
0.18.1 @ 2022-09-22T08:21:27.627879+00:00
  0
ENDSEC
  0
EOF
